<?xml version="1.0" encoding="utf-8"?>
<!-- Generator: Adobe Illustrator 17.1.0, SVG Export Plug-In . SVG Version: 6.00 Build 0)  -->
<!DOCTYPE svg PUBLIC "-//W3C//DTD SVG 1.1//EN" "http://www.w3.org/Graphics/SVG/1.1/DTD/svg11.dtd">
<svg version="1.1" id="Layer_1" xmlns="http://www.w3.org/2000/svg" xmlns:xlink="http://www.w3.org/1999/xlink" x="0px" y="0px"
	 viewBox="0 0 17.226 17.227" enable-background="new 0 0 17.226 17.227" xml:space="preserve">
<g>
	<path fill="#23B99E" d="M10.289,11.457L7.895,8.971V4.717c0-0.43,0.338-0.768,0.767-0.768c0.43,0,0.768,0.338,0.768,0.768v3.64
		l1.964,2.026c0.307,0.307,0.276,0.798-0.031,1.105c-0.153,0.153-0.337,0.215-0.552,0.215C10.657,11.703,10.442,11.61,10.289,11.457
		"/>
	<path fill="#23B99E" d="M8.613,17.227C3.864,17.227,0,13.364,0,8.614C0,3.864,3.864,0,8.613,0c4.749,0,8.613,3.864,8.613,8.614
		C17.226,13.364,13.362,17.227,8.613,17.227z M8.613,3C5.518,3,3,5.519,3,8.614c0,3.095,2.518,5.613,5.613,5.613
		c3.095,0,5.613-2.518,5.613-5.613C14.226,5.519,11.708,3,8.613,3z"/>
</g>
</svg>
