<?xml version="1.0" encoding="utf-8"?>
<!-- Generator: Adobe Illustrator 17.1.0, SVG Export Plug-In . SVG Version: 6.00 Build 0)  -->
<!DOCTYPE svg PUBLIC "-//W3C//DTD SVG 1.1//EN" "http://www.w3.org/Graphics/SVG/1.1/DTD/svg11.dtd">
<svg version="1.1" id="Layer_1" xmlns="http://www.w3.org/2000/svg" xmlns:xlink="http://www.w3.org/1999/xlink" x="0px" y="0px"
	 viewBox="0 0 20.346 20.346" enable-background="new 0 0 20.346 20.346" xml:space="preserve">
<g>
	<path fill="#23B99E" d="M13.096,0c-0.69,0-1.25,0.56-1.25,1.25s0.56,1.25,1.25,1.25h2.982l-8.947,8.946
		c-0.488,0.488-0.488,1.279,0,1.768c0.244,0.244,0.564,0.366,0.884,0.366s0.64-0.122,0.884-0.366l8.947-8.946V7.25
		c0,0.69,0.56,1.25,1.25,1.25s1.25-0.56,1.25-1.25V0H13.096z"/>
	<path fill="#23B99E" d="M16.294,11.982c-0.829,0-1.5,0.672-1.5,1.5v3.863H3V5.553h4.397c0.829,0,1.5-0.671,1.5-1.5
		s-0.671-1.5-1.5-1.5H1.5c-0.829,0-1.5,0.671-1.5,1.5v14.793c0,0.828,0.671,1.5,1.5,1.5h14.794c0.829,0,1.5-0.672,1.5-1.5v-5.363
		C17.794,12.654,17.123,11.982,16.294,11.982z"/>
</g>
</svg>
