<?xml version="1.0" encoding="utf-8"?>
<!-- Generator: Adobe Illustrator 17.1.0, SVG Export Plug-In . SVG Version: 6.00 Build 0)  -->
<!DOCTYPE svg PUBLIC "-//W3C//DTD SVG 1.1//EN" "http://www.w3.org/Graphics/SVG/1.1/DTD/svg11.dtd">
<svg version="1.1" id="Layer_1" xmlns="http://www.w3.org/2000/svg" xmlns:xlink="http://www.w3.org/1999/xlink" x="0px" y="0px"
	 viewBox="0 0 75.568 75.57" enable-background="new 0 0 75.568 75.57" xml:space="preserve">
<g>
	<path fill="#FFFFFF" d="M65.764,58.428c-2.108-8.39-6.904-14.16-17.067-16.413c-3.275,4.037-7.516,6.002-10.913,6.002
		c-3.362,0-7.486-2.092-10.717-6.042c-10.295,2.223-15.141,8.011-17.263,16.453c6.333,8.57,16.506,14.13,27.98,14.13
		S59.431,66.998,65.764,58.428"/>
	<path fill="#FFFFFF" d="M50.955,25.768c0-7.274-5.897-13.171-13.171-13.171s-13.172,5.896-13.172,13.171
		c0,13.171,8.471,19.355,13.172,19.355C42.484,45.123,50.955,39.46,50.955,25.768"/>
</g>
</svg>
