<?xml version="1.0" encoding="utf-8"?>
<!-- Generator: Adobe Illustrator 17.1.0, SVG Export Plug-In . SVG Version: 6.00 Build 0)  -->
<!DOCTYPE svg PUBLIC "-//W3C//DTD SVG 1.1//EN" "http://www.w3.org/Graphics/SVG/1.1/DTD/svg11.dtd">
<svg version="1.1" id="Layer_1" xmlns="http://www.w3.org/2000/svg" xmlns:xlink="http://www.w3.org/1999/xlink" x="0px" y="0px"
	 viewBox="0 355.189 612 81.624" enable-background="new 0 355.189 612 81.624" xml:space="preserve">
<g>
	<g>
		<path fill="#231F20" d="M565.376,405.369c0,6.014-0.276,17.775-0.276,18.186l-0.41,0.408l-11.35-7.101v-27.898
			c1.777-2.734,4.242-4.1,6.427-4.1c2.596,0,4.51,1.915,5.467,4.508C565.234,390.468,565.376,397.71,565.376,405.369
			 M602.837,394.025l-10.532,8.611v-19.548L602.837,394.025z M574.94,418.771c-0.682-6.152-0.54-22.835-0.54-30.628
			c0-5.055-4.378-8.752-9.851-11.08l-11.209,9.436v-20.507c0-3.411,2.046-7.111,4.506-7.111v-0.689
			c-5.326,0-11.204,4.246-12.166,6.982c-1.223-2.054-4.093-3.282-6.831-3.282l-0.139,1.09c2.736,0,5.331,4.657,5.331,12.86
			c0,16.542-0.136,32.403-0.136,39.235c0,2.193-0.269,3.695-1.507,5.475l16.822,10.244
			C565.642,424.789,568.104,423.012,574.94,418.771 M612,416.17l-0.825-0.825c-4.237,4.244-6.703,6.024-9.165,6.024
			c-2.457,0-4.784-1.507-9.706-5.338v-11.209l19.284-15.45c-4.515-3.829-13.809-13.126-13.809-13.126
			c-5.201,4.652-8.205,7.25-15.45,12.306c0.271,1.505,0.547,3.554,0.547,5.198v21.739c0,1.502-0.139,2.598-0.69,4.373l15.181,10.662
			L612,416.17z M432.198,407.564c0,3.688-1.097,6.005-3.556,7.924c-5.603-5.47-8.339-13.131-8.339-20.781
			c0-11.488,3.961-15.868,9.44-19.827c0.813-0.687,1.634-1.238,2.454-1.775v34.459H432.198z M446.965,423.279
			c-7.244-0.544-12.852-3.006-17.221-6.696c6.691-4.649,10.93-6.967,10.93-14.085v-35.408l2.054-1.641
			c1.502,0.544,2.733,1.094,4.237,1.641v56.19H446.965z M468.296,407.144c0,3.97-0.41,6.703-1.502,9.985
			c-3.968,3.961-9.851,6.288-16.547,6.288h-1.915v-35.136c1.233-0.139,2.328-0.279,3.421-0.279
			C461.595,388.004,468.296,396.89,468.296,407.144 M462.962,374.742l-14.63,12.989v-20.092
			C453.532,369.682,458.179,372.146,462.962,374.742 M526.129,422.604l-0.818,0.539l-11.619-7.387v-32.668l12.306,6.014
			L526.129,422.604z M477.458,362.981l-1.238-1.09l-4.506,4.783c0,0-11.626-3.824-21.055-9.291
			c-12.991,9.834-22.835,16.81-35.55,25.836c-3.008,4.51-4.649,10.391-4.649,16.822c0,17.494,16.132,31.16,36.505,31.16
			c13.262-5.595,22.7-13.396,29.67-22.82c0.41-1.915,0.549-4.649,0.549-6.154c0-12.717-8.613-19.829-17.773-22.012L477.458,362.981z
			 M536.248,384.175l-16.407-8.473c-5.06,4.644-9.98,8.065-16.54,11.345c0.403,1.236,0.818,6.293,0.818,9.44v22.556
			c-1.505,1.636-3.011,2.464-4.518,2.464c-1.502,0-3.143-0.689-5.192-2.185v-54.695c0-3.147,1.913-6.842,4.375-6.842v-0.402
			c-5.057,0-9.575,2.315-10.937,6.144c-1.236-2.049-3.146-3.829-6.015-3.829l-0.139,0.552c1.641,0,3.287,4.644,3.287,9.023v43.885
			c0,4.239-0.554,6.429-2.188,8.759l10.935,7.927l10.249-8.886l15.863,9.565c6.016-5.601,9.575-8.886,16.271-12.845
			c-0.41-2.056-0.547-6.019-0.547-7.66v-19.413C535.565,387.317,535.701,385.542,536.248,384.175 M276.604,423.694
			c-3.97-3.561-9.436-6.564-18.187-6.564l13.399-14.217l4.651,4.098L276.604,423.694z M281.112,390.738l-11.48,12.437l-5.06-3.69
			v-16.538C269.767,386.499,272.772,388.414,281.112,390.738 M337.58,423.962l-0.542,0.418l-10.937-6.701v-34.182l11.48,6.832
			v33.633H337.58z M348.242,418.904c-0.538-1.775-0.672-3.56-0.672-5.191v-28.72l-14.908-8.339
			c-4.784,4.786-10.259,8.21-17.225,12.039c0.408,1.362,0.682,3.551,0.682,5.057v24.192c-2.185,2.329-4.377,3.695-6.288,3.695
			c-1.915,0-3.826-0.818-5.88-3.001c0-1.915,0.131-22.7,0.131-35.416h10.669v-2.595l-10.669-0.408c0,0,0.139-9.985,0.276-12.039
			h-1.226l-14.908,15.729c-6.423-0.959-11.209-3.282-18.187-8.065c-5.462,5.6-9.157,8.196-15.717,11.343
			c0.27,3.285,0.405,5.06,0.405,8.342c0,3.831,0,5.057-0.274,8.347l8.75,6.147l-8.203,8.618c-3.552,3.69-4.922,6.693-4.922,9.7
			c0,2.737,1.097,4.921,2.736,6.977l0.959-0.539c-1.097-1.646-1.782-3.57-1.782-5.336c0-2.872,1.506-5.336,5.747-5.336
			c4.239,0,8.885,2.733,13.536,6.423c5.196-4.786,9.023-7.919,14.765-10.791v-13.953c0-1.646,0.136-2.329,0.55-3.426l-8.754-5.87
			l11.212-12.173h5.195c0,12.437-0.138,28.436-0.138,30.212c0,2.195-0.409,4.928-1.913,7.111l12.441,9.157l10.672-9.704
			l15.448,10.113C336.769,425.608,341.548,421.918,348.242,418.904 M397.879,420.819l-0.95-1.087l-4.654,3.961
			c-2.328,0-3.964-1.641-3.964-4.239c0-2.325,0.139-29.399,0.274-34.044c-1.78-3.557-4.11-6.293-9.299-8.068l-12.442,9.157
			c0-3.826-2.19-7.242-6.427-9.436l-7.247,6.156l3.829,4.098c0,0-0.136,24.066-0.136,28.026c0,3.977-2.872,6.852-2.872,6.852
			l11.347,8.327l6.016-7.38l-4.51-4.1v-30.08c2.183-2.869,4.51-4.1,6.567-4.1c2.32,0,4.234,1.636,4.782,3.964
			c0.138,1.78,0.138,4.647,0.138,7.66c0,4.644,0,21.05-0.139,27.474c0.816,2.872,5.057,6.832,7.798,6.832L397.879,420.819z
			 M197.709,400.446l-0.274,19.687c-2.05,1.097-3.415,1.785-5.331,3.146c-1.502-0.952-3.005-1.91-4.786-3.006v-25.432
			L197.709,400.446z M199.216,383.357c0,3.003-2.733,4.513-11.898,10.254v-8.747c0-4.378,0.275-6.835,0.411-8.618h-1.915
			c0.275,1.915,0.415,4.239,0.415,8.618v34.869c-5.747-3.421-12.718-6.982-20.106-7.521c6.978-3.968,13.948-9.299,13.948-17.096
			V378.03c0-5.475,2.186-8.754,7.933-13.678c4.508,6.698,6.292,9.57,9.843,15.585C198.669,381.301,199.216,382.673,199.216,383.357
			 M237.908,423.694l-0.543,0.408l-10.805-6.564v-34.59l11.347,6.424V423.694z M181.305,362.021l-0.273-0.818
			c-5.749,0-8.89-0.687-11.898-1.226c-2.874-0.408-5.332-0.957-8.75-0.957c-9.027,0-14.906,4.647-14.906,12.168
			c0,3.146,0.684,4.916,2.734,7.247l0.822-0.825c-1.097-1.365-1.639-2.731-1.639-4.237c0-3.282,2.737-6.156,8.746-6.156
			c4.518,0,8.618,0.828,12.173,1.646c-7.655,5.606-12.311,9.706-12.311,21.604c-1.091-0.413-2.598-0.684-4.646-0.684
			c-5.743,0-8.747,3.826-8.747,7.516c0,1.646,0.407,3.426,1.501,4.647l0.961-0.538c-0.411-0.828-0.687-1.646-0.687-2.464
			c0-2.459,1.913-4.379,5.467-4.379c3.151,0,5.472,1.367,6.563,3.282c0,8.339-1.64,12.581-6.01,12.581v0.952
			c6.561,0,14.486-4.782,14.486-12.437v-15.31C164.893,371.049,172.278,365.174,181.305,362.021 M209.881,396.621l-12.172-8.07
			c4.648-2.869,6.155-3.688,7.793-4.918c2.876-2.051,3.695-3.287,3.695-4.515c0-0.957-0.413-2.733-2.597-6.012
			c-2.736-4.108-5.332-8.07-10.802-15.722c-7.658,5.196-11.895,8.327-19.961,14.622c-3.282,2.603-5.745,6.703-5.745,11.9
			c0,1.775,0.136,10.935,0.136,16.955c0,4.647-0.821,7.113-5.746,11.206c-11.892,0-19.003,7.665-19.003,15.316
			c0,3.282,1.094,6.703,3.556,9.429l0.819-0.811c-1.505-1.646-2.731-4.241-2.731-7.252c0-4.1,3.008-8.616,12.438-8.616
			c10.391,0,20.098,7.121,25.707,10.532c8.064-6.837,13.126-9.706,23.514-13.127v-17.366
			C208.784,398.946,209.196,397.71,209.881,396.621 M248.984,384.724l-15.722-8.621c-4.791,4.793-10.94,8.621-17.914,12.447
			c0.956,2.874,0.683,6.564,0.683,11.214c0,11.35,0.135,17.504-1.915,20.507l17.366,10.672c4.784-4.928,9.979-8.747,16.956-12.581
			c-0.552-1.78-0.687-3.556-0.687-5.203V393.75C247.752,388.004,248.301,385.955,248.984,384.724 M19.554,406.06
			c0,4.098-0.683,6.559-2.873,8.467c-5.056-5.187-7.793-12.578-7.793-20.915c0-4.647,0.823-8.2,2.459-10.665
			c2.738-2.462,6.019-4.787,8.207-6.016v10.527C19.554,387.457,19.554,406.06,19.554,406.06z M35.141,423.279
			c-6.833-0.818-12.718-3.416-17.095-7.377c8.479-6.154,10.393-9.711,10.393-16.545v-27.758l0.274-0.269
			c2.736,0.269,4.241,0.403,6.428,0.542V423.279z M117.178,394.158l-11.072,8.888v-19.14l0.404-0.41L117.178,394.158z
			 M125.79,416.17l-0.818-0.825c-4.377,4.662-6.289,5.885-9.573,5.885c-2.458,0-5.333-1.497-9.292-5.198v-11.209l19.683-15.037
			l-13.398-13.264c-5.881,4.639-6.836,5.47-11.077,8.75c-2.324,1.775-3.688,2.598-5.193,3.28c0.273,1.636,0.543,3.964,0.543,5.606
			v25.02c-2.319,2.19-4.51,3.147-6.149,3.147c-2.189,0-3.83-1.367-3.83-3.69v-33.502c-1.363-4.234-3.966-6.972-9.022-8.747
			l-12.446,10.114v-23.518c0-3.411,1.921-6.559,3.697-7.385v-0.408c-5.06,0-8.614,3.282-10.119,7.111l-2.185-4.515l-0.822,0.139
			v60.162c-4.923,2.593-10.254,5.467-16.133,5.467c-1.096,0-2.054,0-3.148-0.136v-51.41c2.597,0.269,4.241,0.408,5.743,0.408
			c2.325,0,3.83-0.408,4.921-0.954l6.704-13.675l-1.098-0.271c-2.595,5.198-3.963,6.014-9.568,6.014
			c-2.598,0-8.342-0.677-14.085-1.367c-5.472-0.682-11.078-1.365-13.944-1.365c-8.478,0-13.399,5.881-13.399,11.898
			c0,2.457,0.818,4.918,2.459,7.111l0.956-0.687c-1.09-1.367-1.777-3.147-1.777-4.647c0-2.464,1.915-4.647,7.111-4.647
			c2.055,0,9.296,0.687,16.134,1.226c-7.793,3.831-14.216,7.929-21.737,13.675C1.644,389.102,0,394.707,0,400.446
			c0,14.768,11.211,30.757,35.964,30.757c7.246-4.093,17.912-10.244,17.912-10.244l9.844,8.886l6.835-6.701l-5.337-5.606v-28.574
			c2.325-3.143,4.926-4.515,6.981-4.515c2.322,0,4.508,1.646,5.06,4.654v34.315c0.814,2.872,4.234,5.603,7.65,6.564l12.169-9.162
			l14.085,9.704L125.79,416.17z"/>
	</g>
</g>
</svg>
