<?xml version="1.0" standalone="no"?>
<!DOCTYPE svg PUBLIC "-//W3C//DTD SVG 1.1//EN" "http://www.w3.org/Graphics/SVG/1.1/DTD/svg11.dtd" >
<svg xmlns="http://www.w3.org/2000/svg">
<metadata></metadata>
<defs>
<font id="bpdotsregular" horiz-adv-x="1228" >
<font-face units-per-em="2048" ascent="1638" descent="-410" />
<missing-glyph horiz-adv-x="500" />
<glyph horiz-adv-x="0" />
<glyph horiz-adv-x="0" />
<glyph unicode="&#xd;" horiz-adv-x="0" />
<glyph unicode=" " />
<glyph unicode="!" d="M410 76q0 33 21.5 55.5t53.5 22.5t55 -23t23 -55t-23 -54t-55 -22t-53.5 22t-21.5 54zM410 281q0 32 21.5 54.5t53.5 22.5t55 -22.5t23 -54.5t-23 -54t-55 -22t-53.5 22t-21.5 54zM410 690q0 33 21.5 55.5t53.5 22.5t55 -23t23 -55t-23 -54t-55 -22t-53.5 22t-21.5 54z M410 895q0 33 21.5 55.5t53.5 22.5t55 -23t23 -55t-23 -54t-55 -22t-53.5 22t-21.5 54zM410 1100q0 33 21.5 55.5t53.5 22.5t55 -23t23 -55t-23 -54t-55 -22t-53.5 22t-21.5 54zM410 1305q0 32 21.5 54.5t53.5 22.5t55 -22.5t23 -54.5t-23 -54t-55 -22t-53.5 22t-21.5 54z " />
<glyph unicode="&#x22;" d="M205 895q0 32 23 55t55 23t53.5 -22.5t21.5 -55.5q0 -32 -21.5 -54t-53.5 -22t-55 22t-23 54zM410 1100q0 32 22.5 55t54.5 23t54 -23t22 -55t-22 -54t-54 -22t-54.5 22t-22.5 54zM410 1305q0 32 22.5 54.5t54.5 22.5t54 -22.5t22 -54.5t-22 -54t-54 -22t-54.5 22 t-22.5 54zM614 895q0 32 23 55t55 23t54 -23t22 -55t-22 -54t-54 -22t-55 22t-23 54zM819 1100q0 32 23 55t55 23t54 -23t22 -55t-22 -54t-54 -22t-55 22t-23 54zM819 1305q0 32 23 54.5t55 22.5t54 -22.5t22 -54.5t-22 -54t-54 -22t-55 22t-23 54z" />
<glyph unicode="#" d="M0 485q0 32 22 55t54 23t55 -23t23 -55t-22.5 -53.5t-55.5 -21.5q-32 0 -54 21.5t-22 53.5zM0 895q0 32 22 55t54 23t55 -23t23 -55t-23 -54t-55 -22t-54 22t-22 54zM205 76q0 32 22 55t54 23t54.5 -23t22.5 -55t-22.5 -54t-54.5 -22t-54 22t-22 54zM205 281 q0 32 22 54.5t54 22.5t54.5 -22.5t22.5 -54.5t-22.5 -54t-54.5 -22t-54 22t-22 54zM205 485q0 32 22 55t54 23t54.5 -23t22.5 -55t-22.5 -53.5t-54.5 -21.5t-54 21.5t-22 53.5zM205 690q0 32 22 55t54 23t54.5 -23t22.5 -55t-22.5 -54t-54.5 -22t-54 22t-22 54zM205 895 q0 32 22 55t54 23t54.5 -23t22.5 -55t-22.5 -54t-54.5 -22t-54 22t-22 54zM205 1100q0 32 22 55t54 23t54.5 -23t22.5 -55t-22.5 -54t-54.5 -22t-54 22t-22 54zM205 1305q0 32 22 54.5t54 22.5t54.5 -22.5t22.5 -54.5t-22.5 -54t-54.5 -22t-54 22t-22 54zM410 485 q0 33 21.5 55.5t53.5 22.5t55 -23t23 -55t-22.5 -53.5t-55.5 -21.5q-32 0 -53.5 21.5t-21.5 53.5zM410 895q0 33 21.5 55.5t53.5 22.5t55 -23t23 -55t-23 -54t-55 -22t-53.5 22t-21.5 54zM614 76q0 32 22 55t54 23t55 -23t23 -55t-23 -54t-55 -22t-54 22t-22 54zM614 281 q0 32 22 54.5t54 22.5t55 -22.5t23 -54.5t-23 -54t-55 -22t-54 22t-22 54zM614 485q0 32 22 55t54 23t55 -23t23 -55t-22.5 -53.5t-55.5 -21.5q-32 0 -54 21.5t-22 53.5zM614 690q0 32 22 55t54 23t55 -23t23 -55t-23 -54t-55 -22t-54 22t-22 54zM614 895q0 32 22 55t54 23 t55 -23t23 -55t-23 -54t-55 -22t-54 22t-22 54zM614 1100q0 32 22 55t54 23t55 -23t23 -55t-23 -54t-55 -22t-54 22t-22 54zM614 1305q0 32 22 54.5t54 22.5t55 -22.5t23 -54.5t-23 -54t-55 -22t-54 22t-22 54zM819 485q0 32 22 55t54 23t55 -23t23 -55t-22.5 -53.5 t-55.5 -21.5q-32 0 -54 21.5t-22 53.5zM819 895q0 32 22 55t54 23t55 -23t23 -55t-23 -54t-55 -22t-54 22t-22 54z" />
<glyph unicode="$" d="M0 76q0 32 22 55t54 23t55 -23t23 -55t-23 -54t-55 -22t-54 22t-22 54zM0 690q0 32 22 55t54 23t55 -23t23 -55t-23 -54t-55 -22t-54 22t-22 54zM205 76q0 32 22 55t54 23t54.5 -23t22.5 -55t-22.5 -54t-54.5 -22t-54 22t-22 54zM205 485q0 32 22 55t54 23t54.5 -23 t22.5 -55t-22.5 -53.5t-54.5 -21.5t-54 21.5t-22 53.5zM205 895q0 32 22 55t54 23t54.5 -23t22.5 -55t-22.5 -54t-54.5 -22t-54 22t-22 54zM410 76q0 33 21.5 55.5t53.5 22.5t55 -23t23 -55t-23 -54t-55 -22t-53.5 22t-21.5 54zM410 -129q0 33 21.5 55.5t53.5 22.5t55 -23 t23 -55t-23 -54t-55 -22t-53.5 22t-21.5 54zM410 281q0 32 21.5 54.5t53.5 22.5t55 -22.5t23 -54.5t-23 -54t-55 -22t-53.5 22t-21.5 54zM410 485q0 33 21.5 55.5t53.5 22.5t55 -23t23 -55t-22.5 -53.5t-55.5 -21.5q-32 0 -53.5 21.5t-21.5 53.5zM410 690q0 33 21.5 55.5 t53.5 22.5t55 -23t23 -55t-23 -54t-55 -22t-53.5 22t-21.5 54zM410 895q0 33 21.5 55.5t53.5 22.5t55 -23t23 -55t-23 -54t-55 -22t-53.5 22t-21.5 54zM410 1100q0 33 21.5 55.5t53.5 22.5t55 -23t23 -55t-23 -54t-55 -22t-53.5 22t-21.5 54zM614 76q0 32 22 55t54 23 t55 -23t23 -55t-23 -54t-55 -22t-54 22t-22 54zM614 485q0 32 22 55t54 23t55 -23t23 -55t-22.5 -53.5t-55.5 -21.5q-32 0 -54 21.5t-22 53.5zM614 895q0 32 22 55t54 23t55 -23t23 -55t-23 -54t-55 -22t-54 22t-22 54zM819 281q0 32 22 54.5t54 22.5t55 -22.5t23 -54.5 t-23 -54t-55 -22t-54 22t-22 54zM819 895q0 32 22 55t54 23t55 -23t23 -55t-23 -54t-55 -22t-54 22t-22 54z" />
<glyph unicode="%" d="M0 76q0 32 22 55t54 23t55 -23t23 -55t-23 -54t-55 -22t-54 22t-22 54zM0 281q0 32 22 54.5t54 22.5t55 -22.5t23 -54.5t-23 -54t-55 -22t-54 22t-22 54zM0 1100q0 32 22 55t54 23t55 -23t23 -55t-23 -54t-55 -22t-54 22t-22 54zM0 1305q0 32 22 54.5t54 22.5t55 -22.5 t23 -54.5t-23 -54t-55 -22t-54 22t-22 54zM205 485q0 32 22 55t54 23t54.5 -23t22.5 -55t-22.5 -53.5t-54.5 -21.5t-54 21.5t-22 53.5zM205 690q0 32 22 55t54 23t54.5 -23t22.5 -55t-22.5 -54t-54.5 -22t-54 22t-22 54zM205 1100q0 32 22 55t54 23t54.5 -23t22.5 -55 t-22.5 -54t-54.5 -22t-54 22t-22 54zM205 1305q0 32 22 54.5t54 22.5t54.5 -22.5t22.5 -54.5t-22.5 -54t-54.5 -22t-54 22t-22 54zM410 76q0 33 21.5 55.5t53.5 22.5t55 -23t23 -55t-23 -54t-55 -22t-53.5 22t-21.5 54zM410 281q0 32 21.5 54.5t53.5 22.5t55 -22.5t23 -54.5 t-23 -54t-55 -22t-53.5 22t-21.5 54zM410 895q0 33 21.5 55.5t53.5 22.5t55 -23t23 -55t-23 -54t-55 -22t-53.5 22t-21.5 54zM614 76q0 32 22 55t54 23t55 -23t23 -55t-23 -54t-55 -22t-54 22t-22 54zM614 281q0 32 22 54.5t54 22.5t55 -22.5t23 -54.5t-23 -54t-55 -22 t-54 22t-22 54zM614 1100q0 32 22 55t54 23t55 -23t23 -55t-23 -54t-55 -22t-54 22t-22 54zM614 1305q0 32 22 54.5t54 22.5t55 -22.5t23 -54.5t-23 -54t-55 -22t-54 22t-22 54z" />
<glyph unicode="&#x26;" d="M0 281q0 32 22 54.5t54 22.5t55 -22.5t23 -54.5t-23 -54t-55 -22t-54 22t-22 54zM0 485q0 32 22 55t54 23t55 -23t23 -55t-22.5 -53.5t-55.5 -21.5q-32 0 -54 21.5t-22 53.5zM0 895q0 32 22 55t54 23t55 -23t23 -55t-23 -54t-55 -22t-54 22t-22 54zM0 1100q0 32 22 55 t54 23t55 -23t23 -55t-23 -54t-55 -22t-54 22t-22 54zM205 76q0 32 22 55t54 23t54.5 -23t22.5 -55t-22.5 -54t-54.5 -22t-54 22t-22 54zM205 690q0 32 22 55t54 23t54.5 -23t22.5 -55t-22.5 -54t-54.5 -22t-54 22t-22 54zM205 1305q0 32 22 54.5t54 22.5t54.5 -22.5 t22.5 -54.5t-22.5 -54t-54.5 -22t-54 22t-22 54zM410 76q0 33 21.5 55.5t53.5 22.5t55 -23t23 -55t-23 -54t-55 -22t-53.5 22t-21.5 54zM410 690q0 33 21.5 55.5t53.5 22.5t55 -23t23 -55t-23 -54t-55 -22t-53.5 22t-21.5 54zM410 1305q0 32 21.5 54.5t53.5 22.5t55 -22.5 t23 -54.5t-23 -54t-55 -22t-53.5 22t-21.5 54zM614 281q0 32 22 54.5t54 22.5t55 -22.5t23 -54.5t-23 -54t-55 -22t-54 22t-22 54zM614 485q0 32 22 55t54 23t55 -23t23 -55t-22.5 -53.5t-55.5 -21.5q-32 0 -54 21.5t-22 53.5zM614 690q0 32 22 55t54 23t55 -23t23 -55 t-23 -54t-55 -22t-54 22t-22 54zM819 690q0 32 22 55t54 23t55 -23t23 -55t-23 -54t-55 -22t-54 22t-22 54z" />
<glyph unicode="'" d="M410 895q0 32 22.5 55t54.5 23t54 -23t22 -55t-22 -54t-54 -22t-54.5 22t-22.5 54zM614 1100q0 32 23 55t55 23t54 -23t22 -55t-22 -54t-54 -22t-55 22t-23 54zM614 1305q0 32 23 54.5t55 22.5t54 -22.5t22 -54.5t-22 -54t-54 -22t-55 22t-23 54z" />
<glyph unicode="(" d="M410 281q0 32 21.5 54.5t53.5 22.5t55 -22.5t23 -54.5t-23 -54t-55 -22t-53.5 22t-21.5 54zM410 485q0 33 21.5 55.5t53.5 22.5t55 -23t23 -55t-22.5 -53.5t-55.5 -21.5q-32 0 -53.5 21.5t-21.5 53.5zM410 690q0 33 21.5 55.5t53.5 22.5t55 -23t23 -55t-23 -54t-55 -22 t-53.5 22t-21.5 54zM410 895q0 33 21.5 55.5t53.5 22.5t55 -23t23 -55t-23 -54t-55 -22t-53.5 22t-21.5 54zM410 1100q0 33 21.5 55.5t53.5 22.5t55 -23t23 -55t-23 -54t-55 -22t-53.5 22t-21.5 54zM614 76q0 32 22 55t54 23t55 -23t23 -55t-23 -54t-55 -22t-54 22t-22 54z M614 1305q0 32 22 54.5t54 22.5t55 -22.5t23 -54.5t-23 -54t-55 -22t-54 22t-22 54z" />
<glyph unicode=")" d="M410 76q0 33 21.5 55.5t53.5 22.5t55 -23t23 -55t-23 -54t-55 -22t-53.5 22t-21.5 54zM410 1305q0 32 21.5 54.5t53.5 22.5t55 -22.5t23 -54.5t-23 -54t-55 -22t-53.5 22t-21.5 54zM614 281q0 32 22 54.5t54 22.5t55 -22.5t23 -54.5t-23 -54t-55 -22t-54 22t-22 54z M614 485q0 32 22 55t54 23t55 -23t23 -55t-22.5 -53.5t-55.5 -21.5q-32 0 -54 21.5t-22 53.5zM614 690q0 32 22 55t54 23t55 -23t23 -55t-23 -54t-55 -22t-54 22t-22 54zM614 895q0 32 22 55t54 23t55 -23t23 -55t-23 -54t-55 -22t-54 22t-22 54zM614 1100q0 32 22 55t54 23 t55 -23t23 -55t-23 -54t-55 -22t-54 22t-22 54z" />
<glyph unicode="*" d="M0 895q0 32 22 55t54 23t55 -23t23 -55t-23 -54t-55 -22t-54 22t-22 54zM0 1305q0 32 22 54.5t54 22.5t55 -22.5t23 -54.5t-23 -54t-55 -22t-54 22t-22 54zM205 1100q0 32 22 55t54 23t54.5 -23t22.5 -55t-22.5 -54t-54.5 -22t-54 22t-22 54zM410 895q0 33 21.5 55.5 t53.5 22.5t55 -23t23 -55t-23 -54t-55 -22t-53.5 22t-21.5 54zM410 1305q0 32 21.5 54.5t53.5 22.5t55 -22.5t23 -54.5t-23 -54t-55 -22t-53.5 22t-21.5 54z" />
<glyph unicode="+" d="M0 485q0 32 22 55t54 23t55 -23t23 -55t-22.5 -53.5t-55.5 -21.5q-32 0 -54 21.5t-22 53.5zM205 485q0 32 22 55t54 23t54.5 -23t22.5 -55t-22.5 -53.5t-54.5 -21.5t-54 21.5t-22 53.5zM410 76q0 33 21.5 55.5t53.5 22.5t55 -23t23 -55t-23 -54t-55 -22t-53.5 22 t-21.5 54zM410 281q0 32 21.5 54.5t53.5 22.5t55 -22.5t23 -54.5t-23 -54t-55 -22t-53.5 22t-21.5 54zM410 485q0 33 21.5 55.5t53.5 22.5t55 -23t23 -55t-22.5 -53.5t-55.5 -21.5q-32 0 -53.5 21.5t-21.5 53.5zM410 690q0 33 21.5 55.5t53.5 22.5t55 -23t23 -55t-23 -54 t-55 -22t-53.5 22t-21.5 54zM410 895q0 33 21.5 55.5t53.5 22.5t55 -23t23 -55t-23 -54t-55 -22t-53.5 22t-21.5 54zM614 485q0 32 22 55t54 23t55 -23t23 -55t-22.5 -53.5t-55.5 -21.5q-32 0 -54 21.5t-22 53.5zM819 485q0 32 22 55t54 23t55 -23t23 -55t-22.5 -53.5 t-55.5 -21.5q-32 0 -54 21.5t-22 53.5z" />
<glyph unicode="," d="M205 -129q0 32 22 55t54 23t54.5 -23t22.5 -55t-22.5 -54t-54.5 -22t-54 22t-22 54zM410 76q0 33 21.5 55.5t53.5 22.5t55 -23t23 -55t-23 -54t-55 -22t-53.5 22t-21.5 54zM410 281q0 32 21.5 54.5t53.5 22.5t55 -22.5t23 -54.5t-23 -54t-55 -22t-53.5 22t-21.5 54z" />
<glyph unicode="-" d="M205 485q0 32 22 55t54 23t54.5 -23t22.5 -55t-22.5 -53.5t-54.5 -21.5t-54 21.5t-22 53.5zM410 485q0 33 21.5 55.5t53.5 22.5t55 -23t23 -55t-22.5 -53.5t-55.5 -21.5q-32 0 -53.5 21.5t-21.5 53.5zM614 485q0 32 22 55t54 23t55 -23t23 -55t-22.5 -53.5t-55.5 -21.5 q-32 0 -54 21.5t-22 53.5z" />
<glyph unicode="." d="M410 76q0 33 21.5 55.5t53.5 22.5t55 -23t23 -55t-23 -54t-55 -22t-53.5 22t-21.5 54zM410 281q0 32 21.5 54.5t53.5 22.5t55 -22.5t23 -54.5t-23 -54t-55 -22t-53.5 22t-21.5 54z" />
<glyph unicode="/" d="M205 76q0 32 22 55t54 23t54.5 -23t22.5 -55t-22.5 -54t-54.5 -22t-54 22t-22 54zM205 281q0 32 22 54.5t54 22.5t54.5 -22.5t22.5 -54.5t-22.5 -54t-54.5 -22t-54 22t-22 54zM410 485q0 33 21.5 55.5t53.5 22.5t55 -23t23 -55t-22.5 -53.5t-55.5 -21.5q-32 0 -53.5 21.5 t-21.5 53.5zM410 690q0 33 21.5 55.5t53.5 22.5t55 -23t23 -55t-23 -54t-55 -22t-53.5 22t-21.5 54zM614 895q0 32 22 55t54 23t55 -23t23 -55t-23 -54t-55 -22t-54 22t-22 54zM819 1100q0 32 22 55t54 23t55 -23t23 -55t-23 -54t-55 -22t-54 22t-22 54zM819 1305 q0 32 22 54.5t54 22.5t55 -22.5t23 -54.5t-23 -54t-55 -22t-54 22t-22 54z" />
<glyph unicode="0" d="M0 281q0 32 22 54.5t54 22.5t55 -22.5t23 -54.5t-23 -54t-55 -22t-54 22t-22 54zM0 485q0 32 22 55t54 23t55 -23t23 -55t-22.5 -53.5t-55.5 -21.5q-32 0 -54 21.5t-22 53.5zM0 690q0 32 22 55t54 23t55 -23t23 -55t-23 -54t-55 -22t-54 22t-22 54zM205 76q0 32 22 55 t54 23t54.5 -23t22.5 -55t-22.5 -54t-54.5 -22t-54 22t-22 54zM205 281q0 32 22 54.5t54 22.5t54.5 -22.5t22.5 -54.5t-22.5 -54t-54.5 -22t-54 22t-22 54zM205 895q0 32 22 55t54 23t54.5 -23t22.5 -55t-22.5 -54t-54.5 -22t-54 22t-22 54zM410 76q0 33 21.5 55.5 t53.5 22.5t55 -23t23 -55t-23 -54t-55 -22t-53.5 22t-21.5 54zM410 485q0 33 21.5 55.5t53.5 22.5t55 -23t23 -55t-22.5 -53.5t-55.5 -21.5q-32 0 -53.5 21.5t-21.5 53.5zM410 895q0 33 21.5 55.5t53.5 22.5t55 -23t23 -55t-23 -54t-55 -22t-53.5 22t-21.5 54zM614 76 q0 32 22 55t54 23t55 -23t23 -55t-23 -54t-55 -22t-54 22t-22 54zM614 690q0 32 22 55t54 23t55 -23t23 -55t-23 -54t-55 -22t-54 22t-22 54zM614 895q0 32 22 55t54 23t55 -23t23 -55t-23 -54t-55 -22t-54 22t-22 54zM819 281q0 32 22 54.5t54 22.5t55 -22.5t23 -54.5 t-23 -54t-55 -22t-54 22t-22 54zM819 485q0 32 22 55t54 23t55 -23t23 -55t-22.5 -53.5t-55.5 -21.5q-32 0 -54 21.5t-22 53.5zM819 690q0 32 22 55t54 23t55 -23t23 -55t-23 -54t-55 -22t-54 22t-22 54z" />
<glyph unicode="1" d="M0 76q0 32 22 55t54 23t55 -23t23 -55t-23 -54t-55 -22t-54 22t-22 54zM0 895q0 32 22 55t54 23t55 -23t23 -55t-23 -54t-55 -22t-54 22t-22 54zM205 76q0 32 22 55t54 23t54.5 -23t22.5 -55t-22.5 -54t-54.5 -22t-54 22t-22 54zM205 895q0 32 22 55t54 23t54.5 -23 t22.5 -55t-22.5 -54t-54.5 -22t-54 22t-22 54zM410 76q0 33 21.5 55.5t53.5 22.5t55 -23t23 -55t-23 -54t-55 -22t-53.5 22t-21.5 54zM410 281q0 32 21.5 54.5t53.5 22.5t55 -22.5t23 -54.5t-23 -54t-55 -22t-53.5 22t-21.5 54zM410 485q0 33 21.5 55.5t53.5 22.5t55 -23 t23 -55t-22.5 -53.5t-55.5 -21.5q-32 0 -53.5 21.5t-21.5 53.5zM410 690q0 33 21.5 55.5t53.5 22.5t55 -23t23 -55t-23 -54t-55 -22t-53.5 22t-21.5 54zM410 895q0 33 21.5 55.5t53.5 22.5t55 -23t23 -55t-23 -54t-55 -22t-53.5 22t-21.5 54zM614 76q0 32 22 55t54 23 t55 -23t23 -55t-23 -54t-55 -22t-54 22t-22 54zM819 76q0 32 22 55t54 23t55 -23t23 -55t-23 -54t-55 -22t-54 22t-22 54z" />
<glyph unicode="2" d="M0 76q0 32 22 55t54 23t55 -23t23 -55t-23 -54t-55 -22t-54 22t-22 54zM0 690q0 32 22 55t54 23t55 -23t23 -55t-23 -54t-55 -22t-54 22t-22 54zM205 76q0 32 22 55t54 23t54.5 -23t22.5 -55t-22.5 -54t-54.5 -22t-54 22t-22 54zM205 281q0 32 22 54.5t54 22.5 t54.5 -22.5t22.5 -54.5t-22.5 -54t-54.5 -22t-54 22t-22 54zM205 895q0 32 22 55t54 23t54.5 -23t22.5 -55t-22.5 -54t-54.5 -22t-54 22t-22 54zM410 76q0 33 21.5 55.5t53.5 22.5t55 -23t23 -55t-23 -54t-55 -22t-53.5 22t-21.5 54zM410 485q0 33 21.5 55.5t53.5 22.5 t55 -23t23 -55t-22.5 -53.5t-55.5 -21.5q-32 0 -53.5 21.5t-21.5 53.5zM410 895q0 33 21.5 55.5t53.5 22.5t55 -23t23 -55t-23 -54t-55 -22t-53.5 22t-21.5 54zM614 76q0 32 22 55t54 23t55 -23t23 -55t-23 -54t-55 -22t-54 22t-22 54zM614 485q0 32 22 55t54 23t55 -23 t23 -55t-22.5 -53.5t-55.5 -21.5q-32 0 -54 21.5t-22 53.5zM614 895q0 32 22 55t54 23t55 -23t23 -55t-23 -54t-55 -22t-54 22t-22 54zM819 76q0 32 22 55t54 23t55 -23t23 -55t-23 -54t-55 -22t-54 22t-22 54zM819 690q0 32 22 55t54 23t55 -23t23 -55t-23 -54t-55 -22 t-54 22t-22 54z" />
<glyph unicode="3" d="M0 -129q0 32 22 55t54 23t55 -23t23 -55t-23 -54t-55 -22t-54 22t-22 54zM0 690q0 32 22 55t54 23t55 -23t23 -55t-23 -54t-55 -22t-54 22t-22 54zM205 281q0 32 22 54.5t54 22.5t54.5 -22.5t22.5 -54.5t-22.5 -54t-54.5 -22t-54 22t-22 54zM205 -334q0 32 22 55t54 23 t54.5 -23t22.5 -55t-22.5 -54t-54.5 -22t-54 22t-22 54zM205 895q0 32 22 55t54 23t54.5 -23t22.5 -55t-22.5 -54t-54.5 -22t-54 22t-22 54zM410 281q0 32 21.5 54.5t53.5 22.5t55 -22.5t23 -54.5t-23 -54t-55 -22t-53.5 22t-21.5 54zM410 -334q0 33 21.5 55.5t53.5 22.5 t55 -23t23 -55t-23 -54t-55 -22t-53.5 22t-21.5 54zM410 895q0 33 21.5 55.5t53.5 22.5t55 -23t23 -55t-23 -54t-55 -22t-53.5 22t-21.5 54zM614 281q0 32 22 54.5t54 22.5t55 -22.5t23 -54.5t-23 -54t-55 -22t-54 22t-22 54zM614 -334q0 32 22 55t54 23t55 -23t23 -55 t-23 -54t-55 -22t-54 22t-22 54zM614 895q0 32 22 55t54 23t55 -23t23 -55t-23 -54t-55 -22t-54 22t-22 54zM819 76q0 32 22 55t54 23t55 -23t23 -55t-23 -54t-55 -22t-54 22t-22 54zM819 -129q0 32 22 55t54 23t55 -23t23 -55t-23 -54t-55 -22t-54 22t-22 54zM819 485 q0 32 22 55t54 23t55 -23t23 -55t-22.5 -53.5t-55.5 -21.5q-32 0 -54 21.5t-22 53.5zM819 690q0 32 22 55t54 23t55 -23t23 -55t-23 -54t-55 -22t-54 22t-22 54z" />
<glyph unicode="4" d="M0 76q0 32 22 55t54 23t55 -23t23 -55t-23 -54t-55 -22t-54 22t-22 54zM0 281q0 32 22 54.5t54 22.5t55 -22.5t23 -54.5t-23 -54t-55 -22t-54 22t-22 54zM205 76q0 32 22 55t54 23t54.5 -23t22.5 -55t-22.5 -54t-54.5 -22t-54 22t-22 54zM205 485q0 32 22 55t54 23 t54.5 -23t22.5 -55t-22.5 -53.5t-54.5 -21.5t-54 21.5t-22 53.5zM410 76q0 33 21.5 55.5t53.5 22.5t55 -23t23 -55t-23 -54t-55 -22t-53.5 22t-21.5 54zM410 690q0 33 21.5 55.5t53.5 22.5t55 -23t23 -55t-23 -54t-55 -22t-53.5 22t-21.5 54zM614 76q0 32 22 55t54 23 t55 -23t23 -55t-23 -54t-55 -22t-54 22t-22 54zM614 -129q0 32 22 55t54 23t55 -23t23 -55t-23 -54t-55 -22t-54 22t-22 54zM614 281q0 32 22 54.5t54 22.5t55 -22.5t23 -54.5t-23 -54t-55 -22t-54 22t-22 54zM614 -334q0 32 22 55t54 23t55 -23t23 -55t-23 -54t-55 -22 t-54 22t-22 54zM614 485q0 32 22 55t54 23t55 -23t23 -55t-22.5 -53.5t-55.5 -21.5q-32 0 -54 21.5t-22 53.5zM614 690q0 32 22 55t54 23t55 -23t23 -55t-23 -54t-55 -22t-54 22t-22 54zM614 895q0 32 22 55t54 23t55 -23t23 -55t-23 -54t-55 -22t-54 22t-22 54zM819 76 q0 32 22 55t54 23t55 -23t23 -55t-23 -54t-55 -22t-54 22t-22 54z" />
<glyph unicode="5" d="M0 281q0 32 22 54.5t54 22.5t55 -22.5t23 -54.5t-23 -54t-55 -22t-54 22t-22 54zM0 -334q0 32 22 55t54 23t55 -23t23 -55t-23 -54t-55 -22t-54 22t-22 54zM0 485q0 32 22 55t54 23t55 -23t23 -55t-22.5 -53.5t-55.5 -21.5q-32 0 -54 21.5t-22 53.5zM0 690q0 32 22 55 t54 23t55 -23t23 -55t-23 -54t-55 -22t-54 22t-22 54zM0 895q0 32 22 55t54 23t55 -23t23 -55t-23 -54t-55 -22t-54 22t-22 54zM205 281q0 32 22 54.5t54 22.5t54.5 -22.5t22.5 -54.5t-22.5 -54t-54.5 -22t-54 22t-22 54zM205 -334q0 32 22 55t54 23t54.5 -23t22.5 -55 t-22.5 -54t-54.5 -22t-54 22t-22 54zM205 895q0 32 22 55t54 23t54.5 -23t22.5 -55t-22.5 -54t-54.5 -22t-54 22t-22 54zM410 281q0 32 21.5 54.5t53.5 22.5t55 -22.5t23 -54.5t-23 -54t-55 -22t-53.5 22t-21.5 54zM410 -334q0 33 21.5 55.5t53.5 22.5t55 -23t23 -55 t-23 -54t-55 -22t-53.5 22t-21.5 54zM410 895q0 33 21.5 55.5t53.5 22.5t55 -23t23 -55t-23 -54t-55 -22t-53.5 22t-21.5 54zM614 281q0 32 22 54.5t54 22.5t55 -22.5t23 -54.5t-23 -54t-55 -22t-54 22t-22 54zM614 -334q0 32 22 55t54 23t55 -23t23 -55t-23 -54t-55 -22 t-54 22t-22 54zM614 895q0 32 22 55t54 23t55 -23t23 -55t-23 -54t-55 -22t-54 22t-22 54zM819 76q0 32 22 55t54 23t55 -23t23 -55t-23 -54t-55 -22t-54 22t-22 54zM819 -129q0 32 22 55t54 23t55 -23t23 -55t-23 -54t-55 -22t-54 22t-22 54zM819 895q0 32 22 55t54 23 t55 -23t23 -55t-23 -54t-55 -22t-54 22t-22 54z" />
<glyph unicode="6" d="M0 281q0 32 22 54.5t54 22.5t55 -22.5t23 -54.5t-23 -54t-55 -22t-54 22t-22 54zM0 485q0 32 22 55t54 23t55 -23t23 -55t-22.5 -53.5t-55.5 -21.5q-32 0 -54 21.5t-22 53.5zM0 690q0 32 22 55t54 23t55 -23t23 -55t-23 -54t-55 -22t-54 22t-22 54zM0 895q0 32 22 55 t54 23t55 -23t23 -55t-23 -54t-55 -22t-54 22t-22 54zM205 76q0 32 22 55t54 23t54.5 -23t22.5 -55t-22.5 -54t-54.5 -22t-54 22t-22 54zM205 690q0 32 22 55t54 23t54.5 -23t22.5 -55t-22.5 -54t-54.5 -22t-54 22t-22 54zM205 1100q0 32 22 55t54 23t54.5 -23t22.5 -55 t-22.5 -54t-54.5 -22t-54 22t-22 54zM410 76q0 33 21.5 55.5t53.5 22.5t55 -23t23 -55t-23 -54t-55 -22t-53.5 22t-21.5 54zM410 690q0 33 21.5 55.5t53.5 22.5t55 -23t23 -55t-23 -54t-55 -22t-53.5 22t-21.5 54zM410 1305q0 32 21.5 54.5t53.5 22.5t55 -22.5t23 -54.5 t-23 -54t-55 -22t-53.5 22t-21.5 54zM614 76q0 32 22 55t54 23t55 -23t23 -55t-23 -54t-55 -22t-54 22t-22 54zM614 690q0 32 22 55t54 23t55 -23t23 -55t-23 -54t-55 -22t-54 22t-22 54zM614 1305q0 32 22 54.5t54 22.5t55 -22.5t23 -54.5t-23 -54t-55 -22t-54 22t-22 54z M819 281q0 32 22 54.5t54 22.5t55 -22.5t23 -54.5t-23 -54t-55 -22t-54 22t-22 54zM819 485q0 32 22 55t54 23t55 -23t23 -55t-22.5 -53.5t-55.5 -21.5q-32 0 -54 21.5t-22 53.5z" />
<glyph unicode="7" d="M0 895q0 32 22 55t54 23t55 -23t23 -55t-23 -54t-55 -22t-54 22t-22 54zM205 76q0 32 22 55t54 23t54.5 -23t22.5 -55t-22.5 -54t-54.5 -22t-54 22t-22 54zM205 -129q0 32 22 55t54 23t54.5 -23t22.5 -55t-22.5 -54t-54.5 -22t-54 22t-22 54zM205 -334q0 32 22 55t54 23 t54.5 -23t22.5 -55t-22.5 -54t-54.5 -22t-54 22t-22 54zM205 895q0 32 22 55t54 23t54.5 -23t22.5 -55t-22.5 -54t-54.5 -22t-54 22t-22 54zM410 281q0 32 21.5 54.5t53.5 22.5t55 -22.5t23 -54.5t-23 -54t-55 -22t-53.5 22t-21.5 54zM410 895q0 33 21.5 55.5t53.5 22.5 t55 -23t23 -55t-23 -54t-55 -22t-53.5 22t-21.5 54zM614 485q0 32 22 55t54 23t55 -23t23 -55t-22.5 -53.5t-55.5 -21.5q-32 0 -54 21.5t-22 53.5zM614 895q0 32 22 55t54 23t55 -23t23 -55t-23 -54t-55 -22t-54 22t-22 54zM819 690q0 32 22 55t54 23t55 -23t23 -55t-23 -54 t-55 -22t-54 22t-22 54zM819 895q0 32 22 55t54 23t55 -23t23 -55t-23 -54t-55 -22t-54 22t-22 54z" />
<glyph unicode="8" d="M0 281q0 32 22 54.5t54 22.5t55 -22.5t23 -54.5t-23 -54t-55 -22t-54 22t-22 54zM0 485q0 32 22 55t54 23t55 -23t23 -55t-22.5 -53.5t-55.5 -21.5q-32 0 -54 21.5t-22 53.5zM0 895q0 32 22 55t54 23t55 -23t23 -55t-23 -54t-55 -22t-54 22t-22 54zM0 1100q0 32 22 55 t54 23t55 -23t23 -55t-23 -54t-55 -22t-54 22t-22 54zM205 76q0 32 22 55t54 23t54.5 -23t22.5 -55t-22.5 -54t-54.5 -22t-54 22t-22 54zM205 690q0 32 22 55t54 23t54.5 -23t22.5 -55t-22.5 -54t-54.5 -22t-54 22t-22 54zM205 1305q0 32 22 54.5t54 22.5t54.5 -22.5 t22.5 -54.5t-22.5 -54t-54.5 -22t-54 22t-22 54zM410 76q0 33 21.5 55.5t53.5 22.5t55 -23t23 -55t-23 -54t-55 -22t-53.5 22t-21.5 54zM410 690q0 33 21.5 55.5t53.5 22.5t55 -23t23 -55t-23 -54t-55 -22t-53.5 22t-21.5 54zM410 1305q0 32 21.5 54.5t53.5 22.5t55 -22.5 t23 -54.5t-23 -54t-55 -22t-53.5 22t-21.5 54zM614 76q0 32 22 55t54 23t55 -23t23 -55t-23 -54t-55 -22t-54 22t-22 54zM614 690q0 32 22 55t54 23t55 -23t23 -55t-23 -54t-55 -22t-54 22t-22 54zM614 1305q0 32 22 54.5t54 22.5t55 -22.5t23 -54.5t-23 -54t-55 -22t-54 22 t-22 54zM819 281q0 32 22 54.5t54 22.5t55 -22.5t23 -54.5t-23 -54t-55 -22t-54 22t-22 54zM819 485q0 32 22 55t54 23t55 -23t23 -55t-22.5 -53.5t-55.5 -21.5q-32 0 -54 21.5t-22 53.5zM819 895q0 32 22 55t54 23t55 -23t23 -55t-23 -54t-55 -22t-54 22t-22 54zM819 1100 q0 32 22 55t54 23t55 -23t23 -55t-23 -54t-55 -22t-54 22t-22 54z" />
<glyph unicode="9" d="M0 485q0 32 22 55t54 23t55 -23t23 -55t-22.5 -53.5t-55.5 -21.5q-32 0 -54 21.5t-22 53.5zM0 690q0 32 22 55t54 23t55 -23t23 -55t-23 -54t-55 -22t-54 22t-22 54zM205 281q0 32 22 54.5t54 22.5t54.5 -22.5t22.5 -54.5t-22.5 -54t-54.5 -22t-54 22t-22 54zM205 -334 q0 32 22 55t54 23t54.5 -23t22.5 -55t-22.5 -54t-54.5 -22t-54 22t-22 54zM205 895q0 32 22 55t54 23t54.5 -23t22.5 -55t-22.5 -54t-54.5 -22t-54 22t-22 54zM410 281q0 32 21.5 54.5t53.5 22.5t55 -22.5t23 -54.5t-23 -54t-55 -22t-53.5 22t-21.5 54zM410 -334 q0 33 21.5 55.5t53.5 22.5t55 -23t23 -55t-23 -54t-55 -22t-53.5 22t-21.5 54zM410 895q0 33 21.5 55.5t53.5 22.5t55 -23t23 -55t-23 -54t-55 -22t-53.5 22t-21.5 54zM614 -129q0 32 22 55t54 23t55 -23t23 -55t-23 -54t-55 -22t-54 22t-22 54zM614 281q0 32 22 54.5 t54 22.5t55 -22.5t23 -54.5t-23 -54t-55 -22t-54 22t-22 54zM614 895q0 32 22 55t54 23t55 -23t23 -55t-23 -54t-55 -22t-54 22t-22 54zM819 76q0 32 22 55t54 23t55 -23t23 -55t-23 -54t-55 -22t-54 22t-22 54zM819 281q0 32 22 54.5t54 22.5t55 -22.5t23 -54.5t-23 -54 t-55 -22t-54 22t-22 54zM819 485q0 32 22 55t54 23t55 -23t23 -55t-22.5 -53.5t-55.5 -21.5q-32 0 -54 21.5t-22 53.5zM819 690q0 32 22 55t54 23t55 -23t23 -55t-23 -54t-55 -22t-54 22t-22 54z" />
<glyph unicode=":" d="M410 76q0 33 21.5 55.5t53.5 22.5t55 -23t23 -55t-23 -54t-55 -22t-53.5 22t-21.5 54zM410 281q0 32 21.5 54.5t53.5 22.5t55 -22.5t23 -54.5t-23 -54t-55 -22t-53.5 22t-21.5 54zM410 690q0 33 21.5 55.5t53.5 22.5t55 -23t23 -55t-23 -54t-55 -22t-53.5 22t-21.5 54z M410 895q0 33 21.5 55.5t53.5 22.5t55 -23t23 -55t-23 -54t-55 -22t-53.5 22t-21.5 54z" />
<glyph unicode=";" d="M205 -129q0 32 22 55t54 23t54.5 -23t22.5 -55t-22.5 -54t-54.5 -22t-54 22t-22 54zM410 76q0 33 21.5 55.5t53.5 22.5t55 -23t23 -55t-23 -54t-55 -22t-53.5 22t-21.5 54zM410 281q0 32 21.5 54.5t53.5 22.5t55 -22.5t23 -54.5t-23 -54t-55 -22t-53.5 22t-21.5 54z M410 690q0 33 21.5 55.5t53.5 22.5t55 -23t23 -55t-23 -54t-55 -22t-53.5 22t-21.5 54zM410 895q0 33 21.5 55.5t53.5 22.5t55 -23t23 -55t-23 -54t-55 -22t-53.5 22t-21.5 54z" />
<glyph unicode="&#x3c;" d="M205 485q0 32 22 55t54 23t54.5 -23t22.5 -55t-22.5 -53.5t-54.5 -21.5t-54 21.5t-22 53.5zM410 281q0 32 21.5 54.5t53.5 22.5t55 -22.5t23 -54.5t-23 -54t-55 -22t-53.5 22t-21.5 54zM410 690q0 33 21.5 55.5t53.5 22.5t55 -23t23 -55t-23 -54t-55 -22t-53.5 22 t-21.5 54zM614 76q0 32 22 55t54 23t55 -23t23 -55t-23 -54t-55 -22t-54 22t-22 54zM614 895q0 32 22 55t54 23t55 -23t23 -55t-23 -54t-55 -22t-54 22t-22 54z" />
<glyph unicode="=" d="M0 281q0 32 22 54.5t54 22.5t55 -22.5t23 -54.5t-23 -54t-55 -22t-54 22t-22 54zM0 690q0 32 22 55t54 23t55 -23t23 -55t-23 -54t-55 -22t-54 22t-22 54zM205 281q0 32 22 54.5t54 22.5t54.5 -22.5t22.5 -54.5t-22.5 -54t-54.5 -22t-54 22t-22 54zM205 690q0 32 22 55 t54 23t54.5 -23t22.5 -55t-22.5 -54t-54.5 -22t-54 22t-22 54zM410 281q0 32 21.5 54.5t53.5 22.5t55 -22.5t23 -54.5t-23 -54t-55 -22t-53.5 22t-21.5 54zM410 690q0 33 21.5 55.5t53.5 22.5t55 -23t23 -55t-23 -54t-55 -22t-53.5 22t-21.5 54zM614 281q0 32 22 54.5 t54 22.5t55 -22.5t23 -54.5t-23 -54t-55 -22t-54 22t-22 54zM614 690q0 32 22 55t54 23t55 -23t23 -55t-23 -54t-55 -22t-54 22t-22 54zM819 281q0 32 22 54.5t54 22.5t55 -22.5t23 -54.5t-23 -54t-55 -22t-54 22t-22 54zM819 690q0 32 22 55t54 23t55 -23t23 -55t-23 -54 t-55 -22t-54 22t-22 54z" />
<glyph unicode="&#x3e;" d="M410 76q0 33 21.5 55.5t53.5 22.5t55 -23t23 -55t-23 -54t-55 -22t-53.5 22t-21.5 54zM410 895q0 33 21.5 55.5t53.5 22.5t55 -23t23 -55t-23 -54t-55 -22t-53.5 22t-21.5 54zM614 281q0 32 22 54.5t54 22.5t55 -22.5t23 -54.5t-23 -54t-55 -22t-54 22t-22 54zM614 690 q0 32 22 55t54 23t55 -23t23 -55t-23 -54t-55 -22t-54 22t-22 54zM819 485q0 32 22 55t54 23t55 -23t23 -55t-22.5 -53.5t-55.5 -21.5q-32 0 -54 21.5t-22 53.5z" />
<glyph unicode="?" d="M0 1100q0 32 22 55t54 23t55 -23t23 -55t-23 -54t-55 -22t-54 22t-22 54zM205 1305q0 32 22 54.5t54 22.5t54.5 -22.5t22.5 -54.5t-22.5 -54t-54.5 -22t-54 22t-22 54zM410 76q0 33 21.5 55.5t53.5 22.5t55 -23t23 -55t-23 -54t-55 -22t-53.5 22t-21.5 54zM410 281 q0 32 21.5 54.5t53.5 22.5t55 -22.5t23 -54.5t-23 -54t-55 -22t-53.5 22t-21.5 54zM410 690q0 33 21.5 55.5t53.5 22.5t55 -23t23 -55t-23 -54t-55 -22t-53.5 22t-21.5 54zM410 1305q0 32 21.5 54.5t53.5 22.5t55 -22.5t23 -54.5t-23 -54t-55 -22t-53.5 22t-21.5 54z M614 690q0 32 22 55t54 23t55 -23t23 -55t-23 -54t-55 -22t-54 22t-22 54zM614 1305q0 32 22 54.5t54 22.5t55 -22.5t23 -54.5t-23 -54t-55 -22t-54 22t-22 54zM819 895q0 32 22 55t54 23t55 -23t23 -55t-23 -54t-55 -22t-54 22t-22 54zM819 1100q0 32 22 55t54 23t55 -23 t23 -55t-23 -54t-55 -22t-54 22t-22 54z" />
<glyph unicode="@" d="M0 281q0 32 22 54.5t54 22.5t55 -22.5t23 -54.5t-23 -54t-55 -22t-54 22t-22 54zM0 485q0 32 22 55t54 23t55 -23t23 -55t-22.5 -53.5t-55.5 -21.5q-32 0 -54 21.5t-22 53.5zM0 690q0 32 22 55t54 23t55 -23t23 -55t-23 -54t-55 -22t-54 22t-22 54zM0 895q0 32 22 55 t54 23t55 -23t23 -55t-23 -54t-55 -22t-54 22t-22 54zM0 1100q0 32 22 55t54 23t55 -23t23 -55t-23 -54t-55 -22t-54 22t-22 54zM205 76q0 32 22 55t54 23t54.5 -23t22.5 -55t-22.5 -54t-54.5 -22t-54 22t-22 54zM205 485q0 32 22 55t54 23t54.5 -23t22.5 -55t-22.5 -53.5 t-54.5 -21.5t-54 21.5t-22 53.5zM205 690q0 32 22 55t54 23t54.5 -23t22.5 -55t-22.5 -54t-54.5 -22t-54 22t-22 54zM205 1305q0 32 22 54.5t54 22.5t54.5 -22.5t22.5 -54.5t-22.5 -54t-54.5 -22t-54 22t-22 54zM410 76q0 33 21.5 55.5t53.5 22.5t55 -23t23 -55t-23 -54 t-55 -22t-53.5 22t-21.5 54zM410 485q0 33 21.5 55.5t53.5 22.5t55 -23t23 -55t-22.5 -53.5t-55.5 -21.5q-32 0 -53.5 21.5t-21.5 53.5zM410 895q0 33 21.5 55.5t53.5 22.5t55 -23t23 -55t-23 -54t-55 -22t-53.5 22t-21.5 54zM410 1305q0 32 21.5 54.5t53.5 22.5t55 -22.5 t23 -54.5t-23 -54t-55 -22t-53.5 22t-21.5 54zM614 76q0 32 22 55t54 23t55 -23t23 -55t-23 -54t-55 -22t-54 22t-22 54zM614 485q0 32 22 55t54 23t55 -23t23 -55t-22.5 -53.5t-55.5 -21.5q-32 0 -54 21.5t-22 53.5zM614 690q0 32 22 55t54 23t55 -23t23 -55t-23 -54 t-55 -22t-54 22t-22 54zM614 895q0 32 22 55t54 23t55 -23t23 -55t-23 -54t-55 -22t-54 22t-22 54zM614 1305q0 32 22 54.5t54 22.5t55 -22.5t23 -54.5t-23 -54t-55 -22t-54 22t-22 54zM819 76q0 32 22 55t54 23t55 -23t23 -55t-23 -54t-55 -22t-54 22t-22 54zM819 485 q0 32 22 55t54 23t55 -23t23 -55t-22.5 -53.5t-55.5 -21.5q-32 0 -54 21.5t-22 53.5zM819 690q0 32 22 55t54 23t55 -23t23 -55t-23 -54t-55 -22t-54 22t-22 54zM819 895q0 32 22 55t54 23t55 -23t23 -55t-23 -54t-55 -22t-54 22t-22 54zM819 1100q0 32 22 55t54 23t55 -23 t23 -55t-23 -54t-55 -22t-54 22t-22 54z" />
<glyph unicode="A" d="M0 76q0 32 22 55t54 23t55 -23t23 -55t-23 -54t-55 -22t-54 22t-22 54zM0 281q0 32 22 54.5t54 22.5t55 -22.5t23 -54.5t-23 -54t-55 -22t-54 22t-22 54zM0 485q0 32 22 55t54 23t55 -23t23 -55t-22.5 -53.5t-55.5 -21.5q-32 0 -54 21.5t-22 53.5zM0 690q0 32 22 55 t54 23t55 -23t23 -55t-23 -54t-55 -22t-54 22t-22 54zM0 895q0 32 22 55t54 23t55 -23t23 -55t-23 -54t-55 -22t-54 22t-22 54zM0 1100q0 32 22 55t54 23t55 -23t23 -55t-23 -54t-55 -22t-54 22t-22 54zM205 485q0 32 22 55t54 23t54.5 -23t22.5 -55t-22.5 -53.5 t-54.5 -21.5t-54 21.5t-22 53.5zM205 1305q0 32 22 54.5t54 22.5t54.5 -22.5t22.5 -54.5t-22.5 -54t-54.5 -22t-54 22t-22 54zM410 485q0 33 21.5 55.5t53.5 22.5t55 -23t23 -55t-22.5 -53.5t-55.5 -21.5q-32 0 -53.5 21.5t-21.5 53.5zM410 1305q0 32 21.5 54.5t53.5 22.5 t55 -22.5t23 -54.5t-23 -54t-55 -22t-53.5 22t-21.5 54zM614 485q0 32 22 55t54 23t55 -23t23 -55t-22.5 -53.5t-55.5 -21.5q-32 0 -54 21.5t-22 53.5zM614 1305q0 32 22 54.5t54 22.5t55 -22.5t23 -54.5t-23 -54t-55 -22t-54 22t-22 54zM819 76q0 32 22 55t54 23t55 -23 t23 -55t-23 -54t-55 -22t-54 22t-22 54zM819 281q0 32 22 54.5t54 22.5t55 -22.5t23 -54.5t-23 -54t-55 -22t-54 22t-22 54zM819 485q0 32 22 55t54 23t55 -23t23 -55t-22.5 -53.5t-55.5 -21.5q-32 0 -54 21.5t-22 53.5zM819 690q0 32 22 55t54 23t55 -23t23 -55t-23 -54 t-55 -22t-54 22t-22 54zM819 895q0 32 22 55t54 23t55 -23t23 -55t-23 -54t-55 -22t-54 22t-22 54zM819 1100q0 32 22 55t54 23t55 -23t23 -55t-23 -54t-55 -22t-54 22t-22 54z" />
<glyph unicode="B" d="M0 76q0 32 22 55t54 23t55 -23t23 -55t-23 -54t-55 -22t-54 22t-22 54zM0 281q0 32 22 54.5t54 22.5t55 -22.5t23 -54.5t-23 -54t-55 -22t-54 22t-22 54zM0 485q0 32 22 55t54 23t55 -23t23 -55t-22.5 -53.5t-55.5 -21.5q-32 0 -54 21.5t-22 53.5zM0 690q0 32 22 55 t54 23t55 -23t23 -55t-23 -54t-55 -22t-54 22t-22 54zM0 895q0 32 22 55t54 23t55 -23t23 -55t-23 -54t-55 -22t-54 22t-22 54zM0 1100q0 32 22 55t54 23t55 -23t23 -55t-23 -54t-55 -22t-54 22t-22 54zM0 1305q0 32 22 54.5t54 22.5t55 -22.5t23 -54.5t-23 -54t-55 -22 t-54 22t-22 54zM205 76q0 32 22 55t54 23t54.5 -23t22.5 -55t-22.5 -54t-54.5 -22t-54 22t-22 54zM205 690q0 32 22 55t54 23t54.5 -23t22.5 -55t-22.5 -54t-54.5 -22t-54 22t-22 54zM205 1305q0 32 22 54.5t54 22.5t54.5 -22.5t22.5 -54.5t-22.5 -54t-54.5 -22t-54 22 t-22 54zM410 76q0 33 21.5 55.5t53.5 22.5t55 -23t23 -55t-23 -54t-55 -22t-53.5 22t-21.5 54zM410 690q0 33 21.5 55.5t53.5 22.5t55 -23t23 -55t-23 -54t-55 -22t-53.5 22t-21.5 54zM410 1305q0 32 21.5 54.5t53.5 22.5t55 -22.5t23 -54.5t-23 -54t-55 -22t-53.5 22 t-21.5 54zM614 76q0 32 22 55t54 23t55 -23t23 -55t-23 -54t-55 -22t-54 22t-22 54zM614 690q0 32 22 55t54 23t55 -23t23 -55t-23 -54t-55 -22t-54 22t-22 54zM614 1305q0 32 22 54.5t54 22.5t55 -22.5t23 -54.5t-23 -54t-55 -22t-54 22t-22 54zM819 281q0 32 22 54.5 t54 22.5t55 -22.5t23 -54.5t-23 -54t-55 -22t-54 22t-22 54zM819 485q0 32 22 55t54 23t55 -23t23 -55t-22.5 -53.5t-55.5 -21.5q-32 0 -54 21.5t-22 53.5zM819 895q0 32 22 55t54 23t55 -23t23 -55t-23 -54t-55 -22t-54 22t-22 54zM819 1100q0 32 22 55t54 23t55 -23 t23 -55t-23 -54t-55 -22t-54 22t-22 54z" />
<glyph unicode="C" d="M0 281q0 32 22 54.5t54 22.5t55 -22.5t23 -54.5t-23 -54t-55 -22t-54 22t-22 54zM0 485q0 32 22 55t54 23t55 -23t23 -55t-22.5 -53.5t-55.5 -21.5q-32 0 -54 21.5t-22 53.5zM0 690q0 32 22 55t54 23t55 -23t23 -55t-23 -54t-55 -22t-54 22t-22 54zM0 895q0 32 22 55 t54 23t55 -23t23 -55t-23 -54t-55 -22t-54 22t-22 54zM0 1100q0 32 22 55t54 23t55 -23t23 -55t-23 -54t-55 -22t-54 22t-22 54zM205 76q0 32 22 55t54 23t54.5 -23t22.5 -55t-22.5 -54t-54.5 -22t-54 22t-22 54zM205 1305q0 32 22 54.5t54 22.5t54.5 -22.5t22.5 -54.5 t-22.5 -54t-54.5 -22t-54 22t-22 54zM410 76q0 33 21.5 55.5t53.5 22.5t55 -23t23 -55t-23 -54t-55 -22t-53.5 22t-21.5 54zM410 1305q0 32 21.5 54.5t53.5 22.5t55 -22.5t23 -54.5t-23 -54t-55 -22t-53.5 22t-21.5 54zM614 76q0 32 22 55t54 23t55 -23t23 -55t-23 -54 t-55 -22t-54 22t-22 54zM614 1305q0 32 22 54.5t54 22.5t55 -22.5t23 -54.5t-23 -54t-55 -22t-54 22t-22 54zM819 281q0 32 22 54.5t54 22.5t55 -22.5t23 -54.5t-23 -54t-55 -22t-54 22t-22 54zM819 1100q0 32 22 55t54 23t55 -23t23 -55t-23 -54t-55 -22t-54 22t-22 54z " />
<glyph unicode="D" d="M0 76q0 32 22 55t54 23t55 -23t23 -55t-23 -54t-55 -22t-54 22t-22 54zM0 281q0 32 22 54.5t54 22.5t55 -22.5t23 -54.5t-23 -54t-55 -22t-54 22t-22 54zM0 485q0 32 22 55t54 23t55 -23t23 -55t-22.5 -53.5t-55.5 -21.5q-32 0 -54 21.5t-22 53.5zM0 690q0 32 22 55 t54 23t55 -23t23 -55t-23 -54t-55 -22t-54 22t-22 54zM0 895q0 32 22 55t54 23t55 -23t23 -55t-23 -54t-55 -22t-54 22t-22 54zM0 1100q0 32 22 55t54 23t55 -23t23 -55t-23 -54t-55 -22t-54 22t-22 54zM0 1305q0 32 22 54.5t54 22.5t55 -22.5t23 -54.5t-23 -54t-55 -22 t-54 22t-22 54zM205 76q0 32 22 55t54 23t54.5 -23t22.5 -55t-22.5 -54t-54.5 -22t-54 22t-22 54zM205 1305q0 32 22 54.5t54 22.5t54.5 -22.5t22.5 -54.5t-22.5 -54t-54.5 -22t-54 22t-22 54zM410 76q0 33 21.5 55.5t53.5 22.5t55 -23t23 -55t-23 -54t-55 -22t-53.5 22 t-21.5 54zM410 1305q0 32 21.5 54.5t53.5 22.5t55 -22.5t23 -54.5t-23 -54t-55 -22t-53.5 22t-21.5 54zM614 76q0 32 22 55t54 23t55 -23t23 -55t-23 -54t-55 -22t-54 22t-22 54zM614 1305q0 32 22 54.5t54 22.5t55 -22.5t23 -54.5t-23 -54t-55 -22t-54 22t-22 54zM819 281 q0 32 22 54.5t54 22.5t55 -22.5t23 -54.5t-23 -54t-55 -22t-54 22t-22 54zM819 485q0 32 22 55t54 23t55 -23t23 -55t-22.5 -53.5t-55.5 -21.5q-32 0 -54 21.5t-22 53.5zM819 690q0 32 22 55t54 23t55 -23t23 -55t-23 -54t-55 -22t-54 22t-22 54zM819 895q0 32 22 55t54 23 t55 -23t23 -55t-23 -54t-55 -22t-54 22t-22 54zM819 1100q0 32 22 55t54 23t55 -23t23 -55t-23 -54t-55 -22t-54 22t-22 54z" />
<glyph unicode="E" d="M0 76q0 32 22 55t54 23t55 -23t23 -55t-23 -54t-55 -22t-54 22t-22 54zM0 281q0 32 22 54.5t54 22.5t55 -22.5t23 -54.5t-23 -54t-55 -22t-54 22t-22 54zM0 485q0 32 22 55t54 23t55 -23t23 -55t-22.5 -53.5t-55.5 -21.5q-32 0 -54 21.5t-22 53.5zM0 690q0 32 22 55 t54 23t55 -23t23 -55t-23 -54t-55 -22t-54 22t-22 54zM0 895q0 32 22 55t54 23t55 -23t23 -55t-23 -54t-55 -22t-54 22t-22 54zM0 1100q0 32 22 55t54 23t55 -23t23 -55t-23 -54t-55 -22t-54 22t-22 54zM0 1305q0 32 22 54.5t54 22.5t55 -22.5t23 -54.5t-23 -54t-55 -22 t-54 22t-22 54zM205 76q0 32 22 55t54 23t54.5 -23t22.5 -55t-22.5 -54t-54.5 -22t-54 22t-22 54zM205 690q0 32 22 55t54 23t54.5 -23t22.5 -55t-22.5 -54t-54.5 -22t-54 22t-22 54zM205 1305q0 32 22 54.5t54 22.5t54.5 -22.5t22.5 -54.5t-22.5 -54t-54.5 -22t-54 22 t-22 54zM410 76q0 33 21.5 55.5t53.5 22.5t55 -23t23 -55t-23 -54t-55 -22t-53.5 22t-21.5 54zM410 690q0 33 21.5 55.5t53.5 22.5t55 -23t23 -55t-23 -54t-55 -22t-53.5 22t-21.5 54zM410 1305q0 32 21.5 54.5t53.5 22.5t55 -22.5t23 -54.5t-23 -54t-55 -22t-53.5 22 t-21.5 54zM614 76q0 32 22 55t54 23t55 -23t23 -55t-23 -54t-55 -22t-54 22t-22 54zM614 690q0 32 22 55t54 23t55 -23t23 -55t-23 -54t-55 -22t-54 22t-22 54zM614 1305q0 32 22 54.5t54 22.5t55 -22.5t23 -54.5t-23 -54t-55 -22t-54 22t-22 54zM819 76q0 32 22 55t54 23 t55 -23t23 -55t-23 -54t-55 -22t-54 22t-22 54zM819 1305q0 32 22 54.5t54 22.5t55 -22.5t23 -54.5t-23 -54t-55 -22t-54 22t-22 54z" />
<glyph unicode="F" d="M0 76q0 32 22 55t54 23t55 -23t23 -55t-23 -54t-55 -22t-54 22t-22 54zM0 281q0 32 22 54.5t54 22.5t55 -22.5t23 -54.5t-23 -54t-55 -22t-54 22t-22 54zM0 485q0 32 22 55t54 23t55 -23t23 -55t-22.5 -53.5t-55.5 -21.5q-32 0 -54 21.5t-22 53.5zM0 690q0 32 22 55 t54 23t55 -23t23 -55t-23 -54t-55 -22t-54 22t-22 54zM0 895q0 32 22 55t54 23t55 -23t23 -55t-23 -54t-55 -22t-54 22t-22 54zM0 1100q0 32 22 55t54 23t55 -23t23 -55t-23 -54t-55 -22t-54 22t-22 54zM0 1305q0 32 22 54.5t54 22.5t55 -22.5t23 -54.5t-23 -54t-55 -22 t-54 22t-22 54zM205 690q0 32 22 55t54 23t54.5 -23t22.5 -55t-22.5 -54t-54.5 -22t-54 22t-22 54zM205 1305q0 32 22 54.5t54 22.5t54.5 -22.5t22.5 -54.5t-22.5 -54t-54.5 -22t-54 22t-22 54zM410 690q0 33 21.5 55.5t53.5 22.5t55 -23t23 -55t-23 -54t-55 -22t-53.5 22 t-21.5 54zM410 1305q0 32 21.5 54.5t53.5 22.5t55 -22.5t23 -54.5t-23 -54t-55 -22t-53.5 22t-21.5 54zM614 690q0 32 22 55t54 23t55 -23t23 -55t-23 -54t-55 -22t-54 22t-22 54zM614 1305q0 32 22 54.5t54 22.5t55 -22.5t23 -54.5t-23 -54t-55 -22t-54 22t-22 54z M819 1305q0 32 22 54.5t54 22.5t55 -22.5t23 -54.5t-23 -54t-55 -22t-54 22t-22 54z" />
<glyph unicode="G" d="M0 281q0 32 22 54.5t54 22.5t55 -22.5t23 -54.5t-23 -54t-55 -22t-54 22t-22 54zM0 485q0 32 22 55t54 23t55 -23t23 -55t-22.5 -53.5t-55.5 -21.5q-32 0 -54 21.5t-22 53.5zM0 690q0 32 22 55t54 23t55 -23t23 -55t-23 -54t-55 -22t-54 22t-22 54zM0 895q0 32 22 55 t54 23t55 -23t23 -55t-23 -54t-55 -22t-54 22t-22 54zM0 1100q0 32 22 55t54 23t55 -23t23 -55t-23 -54t-55 -22t-54 22t-22 54zM205 76q0 32 22 55t54 23t54.5 -23t22.5 -55t-22.5 -54t-54.5 -22t-54 22t-22 54zM205 1305q0 32 22 54.5t54 22.5t54.5 -22.5t22.5 -54.5 t-22.5 -54t-54.5 -22t-54 22t-22 54zM410 76q0 33 21.5 55.5t53.5 22.5t55 -23t23 -55t-23 -54t-55 -22t-53.5 22t-21.5 54zM410 1305q0 32 21.5 54.5t53.5 22.5t55 -22.5t23 -54.5t-23 -54t-55 -22t-53.5 22t-21.5 54zM614 76q0 32 22 55t54 23t55 -23t23 -55t-23 -54 t-55 -22t-54 22t-22 54zM614 485q0 32 22 55t54 23t55 -23t23 -55t-22.5 -53.5t-55.5 -21.5q-32 0 -54 21.5t-22 53.5zM614 1305q0 32 22 54.5t54 22.5t55 -22.5t23 -54.5t-23 -54t-55 -22t-54 22t-22 54zM819 76q0 32 22 55t54 23t55 -23t23 -55t-23 -54t-55 -22t-54 22 t-22 54zM819 281q0 32 22 54.5t54 22.5t55 -22.5t23 -54.5t-23 -54t-55 -22t-54 22t-22 54zM819 485q0 32 22 55t54 23t55 -23t23 -55t-22.5 -53.5t-55.5 -21.5q-32 0 -54 21.5t-22 53.5zM819 1100q0 32 22 55t54 23t55 -23t23 -55t-23 -54t-55 -22t-54 22t-22 54z" />
<glyph unicode="H" d="M0 76q0 32 22 55t54 23t55 -23t23 -55t-23 -54t-55 -22t-54 22t-22 54zM0 281q0 32 22 54.5t54 22.5t55 -22.5t23 -54.5t-23 -54t-55 -22t-54 22t-22 54zM0 485q0 32 22 55t54 23t55 -23t23 -55t-22.5 -53.5t-55.5 -21.5q-32 0 -54 21.5t-22 53.5zM0 690q0 32 22 55 t54 23t55 -23t23 -55t-23 -54t-55 -22t-54 22t-22 54zM0 895q0 32 22 55t54 23t55 -23t23 -55t-23 -54t-55 -22t-54 22t-22 54zM0 1100q0 32 22 55t54 23t55 -23t23 -55t-23 -54t-55 -22t-54 22t-22 54zM0 1305q0 32 22 54.5t54 22.5t55 -22.5t23 -54.5t-23 -54t-55 -22 t-54 22t-22 54zM205 690q0 32 22 55t54 23t54.5 -23t22.5 -55t-22.5 -54t-54.5 -22t-54 22t-22 54zM410 690q0 33 21.5 55.5t53.5 22.5t55 -23t23 -55t-23 -54t-55 -22t-53.5 22t-21.5 54zM614 690q0 32 22 55t54 23t55 -23t23 -55t-23 -54t-55 -22t-54 22t-22 54zM819 76 q0 32 22 55t54 23t55 -23t23 -55t-23 -54t-55 -22t-54 22t-22 54zM819 281q0 32 22 54.5t54 22.5t55 -22.5t23 -54.5t-23 -54t-55 -22t-54 22t-22 54zM819 485q0 32 22 55t54 23t55 -23t23 -55t-22.5 -53.5t-55.5 -21.5q-32 0 -54 21.5t-22 53.5zM819 690q0 32 22 55t54 23 t55 -23t23 -55t-23 -54t-55 -22t-54 22t-22 54zM819 895q0 32 22 55t54 23t55 -23t23 -55t-23 -54t-55 -22t-54 22t-22 54zM819 1100q0 32 22 55t54 23t55 -23t23 -55t-23 -54t-55 -22t-54 22t-22 54zM819 1305q0 32 22 54.5t54 22.5t55 -22.5t23 -54.5t-23 -54t-55 -22 t-54 22t-22 54z" />
<glyph unicode="I" d="M0 76q0 32 22 55t54 23t55 -23t23 -55t-23 -54t-55 -22t-54 22t-22 54zM0 1305q0 32 22 54.5t54 22.5t55 -22.5t23 -54.5t-23 -54t-55 -22t-54 22t-22 54zM205 76q0 32 22 55t54 23t54.5 -23t22.5 -55t-22.5 -54t-54.5 -22t-54 22t-22 54zM205 1305q0 32 22 54.5t54 22.5 t54.5 -22.5t22.5 -54.5t-22.5 -54t-54.5 -22t-54 22t-22 54zM410 76q0 33 21.5 55.5t53.5 22.5t55 -23t23 -55t-23 -54t-55 -22t-53.5 22t-21.5 54zM410 281q0 32 21.5 54.5t53.5 22.5t55 -22.5t23 -54.5t-23 -54t-55 -22t-53.5 22t-21.5 54zM410 485q0 33 21.5 55.5 t53.5 22.5t55 -23t23 -55t-22.5 -53.5t-55.5 -21.5q-32 0 -53.5 21.5t-21.5 53.5zM410 690q0 33 21.5 55.5t53.5 22.5t55 -23t23 -55t-23 -54t-55 -22t-53.5 22t-21.5 54zM410 895q0 33 21.5 55.5t53.5 22.5t55 -23t23 -55t-23 -54t-55 -22t-53.5 22t-21.5 54zM410 1100 q0 33 21.5 55.5t53.5 22.5t55 -23t23 -55t-23 -54t-55 -22t-53.5 22t-21.5 54zM410 1305q0 32 21.5 54.5t53.5 22.5t55 -22.5t23 -54.5t-23 -54t-55 -22t-53.5 22t-21.5 54zM614 76q0 32 22 55t54 23t55 -23t23 -55t-23 -54t-55 -22t-54 22t-22 54zM614 1305q0 32 22 54.5 t54 22.5t55 -22.5t23 -54.5t-23 -54t-55 -22t-54 22t-22 54zM819 76q0 32 22 55t54 23t55 -23t23 -55t-23 -54t-55 -22t-54 22t-22 54zM819 1305q0 32 22 54.5t54 22.5t55 -22.5t23 -54.5t-23 -54t-55 -22t-54 22t-22 54z" />
<glyph unicode="J" d="M0 281q0 32 22 54.5t54 22.5t55 -22.5t23 -54.5t-23 -54t-55 -22t-54 22t-22 54zM0 1305q0 32 22 54.5t54 22.5t55 -22.5t23 -54.5t-23 -54t-55 -22t-54 22t-22 54zM205 76q0 32 22 55t54 23t54.5 -23t22.5 -55t-22.5 -54t-54.5 -22t-54 22t-22 54zM205 1305 q0 32 22 54.5t54 22.5t54.5 -22.5t22.5 -54.5t-22.5 -54t-54.5 -22t-54 22t-22 54zM410 76q0 33 21.5 55.5t53.5 22.5t55 -23t23 -55t-23 -54t-55 -22t-53.5 22t-21.5 54zM410 1305q0 32 21.5 54.5t53.5 22.5t55 -22.5t23 -54.5t-23 -54t-55 -22t-53.5 22t-21.5 54zM614 281 q0 32 22 54.5t54 22.5t55 -22.5t23 -54.5t-23 -54t-55 -22t-54 22t-22 54zM614 485q0 32 22 55t54 23t55 -23t23 -55t-22.5 -53.5t-55.5 -21.5q-32 0 -54 21.5t-22 53.5zM614 690q0 32 22 55t54 23t55 -23t23 -55t-23 -54t-55 -22t-54 22t-22 54zM614 895q0 32 22 55t54 23 t55 -23t23 -55t-23 -54t-55 -22t-54 22t-22 54zM614 1100q0 32 22 55t54 23t55 -23t23 -55t-23 -54t-55 -22t-54 22t-22 54zM614 1305q0 32 22 54.5t54 22.5t55 -22.5t23 -54.5t-23 -54t-55 -22t-54 22t-22 54z" />
<glyph unicode="K" d="M0 76q0 32 22 55t54 23t55 -23t23 -55t-23 -54t-55 -22t-54 22t-22 54zM0 281q0 32 22 54.5t54 22.5t55 -22.5t23 -54.5t-23 -54t-55 -22t-54 22t-22 54zM0 485q0 32 22 55t54 23t55 -23t23 -55t-22.5 -53.5t-55.5 -21.5q-32 0 -54 21.5t-22 53.5zM0 690q0 32 22 55 t54 23t55 -23t23 -55t-23 -54t-55 -22t-54 22t-22 54zM0 895q0 32 22 55t54 23t55 -23t23 -55t-23 -54t-55 -22t-54 22t-22 54zM0 1100q0 32 22 55t54 23t55 -23t23 -55t-23 -54t-55 -22t-54 22t-22 54zM0 1305q0 32 22 54.5t54 22.5t55 -22.5t23 -54.5t-23 -54t-55 -22 t-54 22t-22 54zM205 690q0 32 22 55t54 23t54.5 -23t22.5 -55t-22.5 -54t-54.5 -22t-54 22t-22 54zM410 690q0 33 21.5 55.5t53.5 22.5t55 -23t23 -55t-23 -54t-55 -22t-53.5 22t-21.5 54zM614 485q0 32 22 55t54 23t55 -23t23 -55t-22.5 -53.5t-55.5 -21.5q-32 0 -54 21.5 t-22 53.5zM614 895q0 32 22 55t54 23t55 -23t23 -55t-23 -54t-55 -22t-54 22t-22 54zM819 76q0 32 22 55t54 23t55 -23t23 -55t-23 -54t-55 -22t-54 22t-22 54zM819 281q0 32 22 54.5t54 22.5t55 -22.5t23 -54.5t-23 -54t-55 -22t-54 22t-22 54zM819 1100q0 32 22 55t54 23 t55 -23t23 -55t-23 -54t-55 -22t-54 22t-22 54zM819 1305q0 32 22 54.5t54 22.5t55 -22.5t23 -54.5t-23 -54t-55 -22t-54 22t-22 54z" />
<glyph unicode="L" d="M0 76q0 32 22 55t54 23t55 -23t23 -55t-23 -54t-55 -22t-54 22t-22 54zM0 281q0 32 22 54.5t54 22.5t55 -22.5t23 -54.5t-23 -54t-55 -22t-54 22t-22 54zM0 485q0 32 22 55t54 23t55 -23t23 -55t-22.5 -53.5t-55.5 -21.5q-32 0 -54 21.5t-22 53.5zM0 690q0 32 22 55 t54 23t55 -23t23 -55t-23 -54t-55 -22t-54 22t-22 54zM0 895q0 32 22 55t54 23t55 -23t23 -55t-23 -54t-55 -22t-54 22t-22 54zM0 1100q0 32 22 55t54 23t55 -23t23 -55t-23 -54t-55 -22t-54 22t-22 54zM0 1305q0 32 22 54.5t54 22.5t55 -22.5t23 -54.5t-23 -54t-55 -22 t-54 22t-22 54zM205 76q0 32 22 55t54 23t54.5 -23t22.5 -55t-22.5 -54t-54.5 -22t-54 22t-22 54zM410 76q0 33 21.5 55.5t53.5 22.5t55 -23t23 -55t-23 -54t-55 -22t-53.5 22t-21.5 54zM614 76q0 32 22 55t54 23t55 -23t23 -55t-23 -54t-55 -22t-54 22t-22 54zM819 76 q0 32 22 55t54 23t55 -23t23 -55t-23 -54t-55 -22t-54 22t-22 54z" />
<glyph unicode="M" d="M0 76q0 32 22 55t54 23t55 -23t23 -55t-23 -54t-55 -22t-54 22t-22 54zM0 281q0 32 22 54.5t54 22.5t55 -22.5t23 -54.5t-23 -54t-55 -22t-54 22t-22 54zM0 485q0 32 22 55t54 23t55 -23t23 -55t-22.5 -53.5t-55.5 -21.5q-32 0 -54 21.5t-22 53.5zM0 690q0 32 22 55 t54 23t55 -23t23 -55t-23 -54t-55 -22t-54 22t-22 54zM0 895q0 32 22 55t54 23t55 -23t23 -55t-23 -54t-55 -22t-54 22t-22 54zM0 1100q0 32 22 55t54 23t55 -23t23 -55t-23 -54t-55 -22t-54 22t-22 54zM0 1305q0 32 22 54.5t54 22.5t55 -22.5t23 -54.5t-23 -54t-55 -22 t-54 22t-22 54zM205 895q0 32 22 55t54 23t54.5 -23t22.5 -55t-22.5 -54t-54.5 -22t-54 22t-22 54zM205 1100q0 32 22 55t54 23t54.5 -23t22.5 -55t-22.5 -54t-54.5 -22t-54 22t-22 54zM410 485q0 33 21.5 55.5t53.5 22.5t55 -23t23 -55t-22.5 -53.5t-55.5 -21.5 q-32 0 -53.5 21.5t-21.5 53.5zM410 690q0 33 21.5 55.5t53.5 22.5t55 -23t23 -55t-23 -54t-55 -22t-53.5 22t-21.5 54zM614 895q0 32 22 55t54 23t55 -23t23 -55t-23 -54t-55 -22t-54 22t-22 54zM614 1100q0 32 22 55t54 23t55 -23t23 -55t-23 -54t-55 -22t-54 22t-22 54z M819 76q0 32 22 55t54 23t55 -23t23 -55t-23 -54t-55 -22t-54 22t-22 54zM819 281q0 32 22 54.5t54 22.5t55 -22.5t23 -54.5t-23 -54t-55 -22t-54 22t-22 54zM819 485q0 32 22 55t54 23t55 -23t23 -55t-22.5 -53.5t-55.5 -21.5q-32 0 -54 21.5t-22 53.5zM819 690q0 32 22 55 t54 23t55 -23t23 -55t-23 -54t-55 -22t-54 22t-22 54zM819 895q0 32 22 55t54 23t55 -23t23 -55t-23 -54t-55 -22t-54 22t-22 54zM819 1100q0 32 22 55t54 23t55 -23t23 -55t-23 -54t-55 -22t-54 22t-22 54zM819 1305q0 32 22 54.5t54 22.5t55 -22.5t23 -54.5t-23 -54 t-55 -22t-54 22t-22 54z" />
<glyph unicode="N" d="M0 76q0 32 22 55t54 23t55 -23t23 -55t-23 -54t-55 -22t-54 22t-22 54zM0 281q0 32 22 54.5t54 22.5t55 -22.5t23 -54.5t-23 -54t-55 -22t-54 22t-22 54zM0 485q0 32 22 55t54 23t55 -23t23 -55t-22.5 -53.5t-55.5 -21.5q-32 0 -54 21.5t-22 53.5zM0 690q0 32 22 55 t54 23t55 -23t23 -55t-23 -54t-55 -22t-54 22t-22 54zM0 895q0 32 22 55t54 23t55 -23t23 -55t-23 -54t-55 -22t-54 22t-22 54zM0 1100q0 32 22 55t54 23t55 -23t23 -55t-23 -54t-55 -22t-54 22t-22 54zM0 1305q0 32 22 54.5t54 22.5t55 -22.5t23 -54.5t-23 -54t-55 -22 t-54 22t-22 54zM205 1100q0 32 22 55t54 23t54.5 -23t22.5 -55t-22.5 -54t-54.5 -22t-54 22t-22 54zM410 690q0 33 21.5 55.5t53.5 22.5t55 -23t23 -55t-23 -54t-55 -22t-53.5 22t-21.5 54zM410 895q0 33 21.5 55.5t53.5 22.5t55 -23t23 -55t-23 -54t-55 -22t-53.5 22 t-21.5 54zM614 485q0 32 22 55t54 23t55 -23t23 -55t-22.5 -53.5t-55.5 -21.5q-32 0 -54 21.5t-22 53.5zM819 76q0 32 22 55t54 23t55 -23t23 -55t-23 -54t-55 -22t-54 22t-22 54zM819 281q0 32 22 54.5t54 22.5t55 -22.5t23 -54.5t-23 -54t-55 -22t-54 22t-22 54zM819 485 q0 32 22 55t54 23t55 -23t23 -55t-22.5 -53.5t-55.5 -21.5q-32 0 -54 21.5t-22 53.5zM819 690q0 32 22 55t54 23t55 -23t23 -55t-23 -54t-55 -22t-54 22t-22 54zM819 895q0 32 22 55t54 23t55 -23t23 -55t-23 -54t-55 -22t-54 22t-22 54zM819 1100q0 32 22 55t54 23t55 -23 t23 -55t-23 -54t-55 -22t-54 22t-22 54zM819 1305q0 32 22 54.5t54 22.5t55 -22.5t23 -54.5t-23 -54t-55 -22t-54 22t-22 54z" />
<glyph unicode="O" d="M0 281q0 32 22 54.5t54 22.5t55 -22.5t23 -54.5t-23 -54t-55 -22t-54 22t-22 54zM0 485q0 32 22 55t54 23t55 -23t23 -55t-22.5 -53.5t-55.5 -21.5q-32 0 -54 21.5t-22 53.5zM0 690q0 32 22 55t54 23t55 -23t23 -55t-23 -54t-55 -22t-54 22t-22 54zM0 895q0 32 22 55 t54 23t55 -23t23 -55t-23 -54t-55 -22t-54 22t-22 54zM0 1100q0 32 22 55t54 23t55 -23t23 -55t-23 -54t-55 -22t-54 22t-22 54zM205 76q0 32 22 55t54 23t54.5 -23t22.5 -55t-22.5 -54t-54.5 -22t-54 22t-22 54zM205 1305q0 32 22 54.5t54 22.5t54.5 -22.5t22.5 -54.5 t-22.5 -54t-54.5 -22t-54 22t-22 54zM410 76q0 33 21.5 55.5t53.5 22.5t55 -23t23 -55t-23 -54t-55 -22t-53.5 22t-21.5 54zM410 1305q0 32 21.5 54.5t53.5 22.5t55 -22.5t23 -54.5t-23 -54t-55 -22t-53.5 22t-21.5 54zM614 76q0 32 22 55t54 23t55 -23t23 -55t-23 -54 t-55 -22t-54 22t-22 54zM614 1305q0 32 22 54.5t54 22.5t55 -22.5t23 -54.5t-23 -54t-55 -22t-54 22t-22 54zM819 281q0 32 22 54.5t54 22.5t55 -22.5t23 -54.5t-23 -54t-55 -22t-54 22t-22 54zM819 485q0 32 22 55t54 23t55 -23t23 -55t-22.5 -53.5t-55.5 -21.5 q-32 0 -54 21.5t-22 53.5zM819 690q0 32 22 55t54 23t55 -23t23 -55t-23 -54t-55 -22t-54 22t-22 54zM819 895q0 32 22 55t54 23t55 -23t23 -55t-23 -54t-55 -22t-54 22t-22 54zM819 1100q0 32 22 55t54 23t55 -23t23 -55t-23 -54t-55 -22t-54 22t-22 54z" />
<glyph unicode="P" d="M0 76q0 32 22 55t54 23t55 -23t23 -55t-23 -54t-55 -22t-54 22t-22 54zM0 281q0 32 22 54.5t54 22.5t55 -22.5t23 -54.5t-23 -54t-55 -22t-54 22t-22 54zM0 485q0 32 22 55t54 23t55 -23t23 -55t-22.5 -53.5t-55.5 -21.5q-32 0 -54 21.5t-22 53.5zM0 690q0 32 22 55 t54 23t55 -23t23 -55t-23 -54t-55 -22t-54 22t-22 54zM0 895q0 32 22 55t54 23t55 -23t23 -55t-23 -54t-55 -22t-54 22t-22 54zM0 1100q0 32 22 55t54 23t55 -23t23 -55t-23 -54t-55 -22t-54 22t-22 54zM0 1305q0 32 22 54.5t54 22.5t55 -22.5t23 -54.5t-23 -54t-55 -22 t-54 22t-22 54zM205 485q0 32 22 55t54 23t54.5 -23t22.5 -55t-22.5 -53.5t-54.5 -21.5t-54 21.5t-22 53.5zM205 1305q0 32 22 54.5t54 22.5t54.5 -22.5t22.5 -54.5t-22.5 -54t-54.5 -22t-54 22t-22 54zM410 485q0 33 21.5 55.5t53.5 22.5t55 -23t23 -55t-22.5 -53.5 t-55.5 -21.5q-32 0 -53.5 21.5t-21.5 53.5zM410 1305q0 32 21.5 54.5t53.5 22.5t55 -22.5t23 -54.5t-23 -54t-55 -22t-53.5 22t-21.5 54zM614 485q0 32 22 55t54 23t55 -23t23 -55t-22.5 -53.5t-55.5 -21.5q-32 0 -54 21.5t-22 53.5zM614 1305q0 32 22 54.5t54 22.5 t55 -22.5t23 -54.5t-23 -54t-55 -22t-54 22t-22 54zM819 690q0 32 22 55t54 23t55 -23t23 -55t-23 -54t-55 -22t-54 22t-22 54zM819 895q0 32 22 55t54 23t55 -23t23 -55t-23 -54t-55 -22t-54 22t-22 54zM819 1100q0 32 22 55t54 23t55 -23t23 -55t-23 -54t-55 -22t-54 22 t-22 54z" />
<glyph unicode="Q" d="M0 281q0 32 22 54.5t54 22.5t55 -22.5t23 -54.5t-23 -54t-55 -22t-54 22t-22 54zM0 485q0 32 22 55t54 23t55 -23t23 -55t-22.5 -53.5t-55.5 -21.5q-32 0 -54 21.5t-22 53.5zM0 690q0 32 22 55t54 23t55 -23t23 -55t-23 -54t-55 -22t-54 22t-22 54zM0 895q0 32 22 55 t54 23t55 -23t23 -55t-23 -54t-55 -22t-54 22t-22 54zM0 1100q0 32 22 55t54 23t55 -23t23 -55t-23 -54t-55 -22t-54 22t-22 54zM205 76q0 32 22 55t54 23t54.5 -23t22.5 -55t-22.5 -54t-54.5 -22t-54 22t-22 54zM205 1305q0 32 22 54.5t54 22.5t54.5 -22.5t22.5 -54.5 t-22.5 -54t-54.5 -22t-54 22t-22 54zM410 76q0 33 21.5 55.5t53.5 22.5t55 -23t23 -55t-23 -54t-55 -22t-53.5 22t-21.5 54zM410 -129q0 33 21.5 55.5t53.5 22.5t55 -23t23 -55t-23 -54t-55 -22t-53.5 22t-21.5 54zM410 281q0 32 21.5 54.5t53.5 22.5t55 -22.5t23 -54.5 t-23 -54t-55 -22t-53.5 22t-21.5 54zM410 1305q0 32 21.5 54.5t53.5 22.5t55 -22.5t23 -54.5t-23 -54t-55 -22t-53.5 22t-21.5 54zM614 76q0 32 22 55t54 23t55 -23t23 -55t-23 -54t-55 -22t-54 22t-22 54zM614 -334q0 32 22 55t54 23t55 -23t23 -55t-23 -54t-55 -22t-54 22 t-22 54zM614 1305q0 32 22 54.5t54 22.5t55 -22.5t23 -54.5t-23 -54t-55 -22t-54 22t-22 54zM819 281q0 32 22 54.5t54 22.5t55 -22.5t23 -54.5t-23 -54t-55 -22t-54 22t-22 54zM819 485q0 32 22 55t54 23t55 -23t23 -55t-22.5 -53.5t-55.5 -21.5q-32 0 -54 21.5t-22 53.5z M819 690q0 32 22 55t54 23t55 -23t23 -55t-23 -54t-55 -22t-54 22t-22 54zM819 895q0 32 22 55t54 23t55 -23t23 -55t-23 -54t-55 -22t-54 22t-22 54zM819 1100q0 32 22 55t54 23t55 -23t23 -55t-23 -54t-55 -22t-54 22t-22 54z" />
<glyph unicode="R" d="M0 76q0 32 22 55t54 23t55 -23t23 -55t-23 -54t-55 -22t-54 22t-22 54zM0 281q0 32 22 54.5t54 22.5t55 -22.5t23 -54.5t-23 -54t-55 -22t-54 22t-22 54zM0 485q0 32 22 55t54 23t55 -23t23 -55t-22.5 -53.5t-55.5 -21.5q-32 0 -54 21.5t-22 53.5zM0 690q0 32 22 55 t54 23t55 -23t23 -55t-23 -54t-55 -22t-54 22t-22 54zM0 895q0 32 22 55t54 23t55 -23t23 -55t-23 -54t-55 -22t-54 22t-22 54zM0 1100q0 32 22 55t54 23t55 -23t23 -55t-23 -54t-55 -22t-54 22t-22 54zM0 1305q0 32 22 54.5t54 22.5t55 -22.5t23 -54.5t-23 -54t-55 -22 t-54 22t-22 54zM205 690q0 32 22 55t54 23t54.5 -23t22.5 -55t-22.5 -54t-54.5 -22t-54 22t-22 54zM205 1305q0 32 22 54.5t54 22.5t54.5 -22.5t22.5 -54.5t-22.5 -54t-54.5 -22t-54 22t-22 54zM410 690q0 33 21.5 55.5t53.5 22.5t55 -23t23 -55t-23 -54t-55 -22t-53.5 22 t-21.5 54zM410 1305q0 32 21.5 54.5t53.5 22.5t55 -22.5t23 -54.5t-23 -54t-55 -22t-53.5 22t-21.5 54zM614 485q0 32 22 55t54 23t55 -23t23 -55t-22.5 -53.5t-55.5 -21.5q-32 0 -54 21.5t-22 53.5zM614 690q0 32 22 55t54 23t55 -23t23 -55t-23 -54t-55 -22t-54 22t-22 54 zM614 1305q0 32 22 54.5t54 22.5t55 -22.5t23 -54.5t-23 -54t-55 -22t-54 22t-22 54zM819 76q0 32 22 55t54 23t55 -23t23 -55t-23 -54t-55 -22t-54 22t-22 54zM819 281q0 32 22 54.5t54 22.5t55 -22.5t23 -54.5t-23 -54t-55 -22t-54 22t-22 54zM819 895q0 32 22 55t54 23 t55 -23t23 -55t-23 -54t-55 -22t-54 22t-22 54zM819 1100q0 32 22 55t54 23t55 -23t23 -55t-23 -54t-55 -22t-54 22t-22 54z" />
<glyph unicode="S" d="M0 76q0 32 22 55t54 23t55 -23t23 -55t-23 -54t-55 -22t-54 22t-22 54zM0 895q0 32 22 55t54 23t55 -23t23 -55t-23 -54t-55 -22t-54 22t-22 54zM0 1100q0 32 22 55t54 23t55 -23t23 -55t-23 -54t-55 -22t-54 22t-22 54zM205 76q0 32 22 55t54 23t54.5 -23t22.5 -55 t-22.5 -54t-54.5 -22t-54 22t-22 54zM205 690q0 32 22 55t54 23t54.5 -23t22.5 -55t-22.5 -54t-54.5 -22t-54 22t-22 54zM205 1305q0 32 22 54.5t54 22.5t54.5 -22.5t22.5 -54.5t-22.5 -54t-54.5 -22t-54 22t-22 54zM410 76q0 33 21.5 55.5t53.5 22.5t55 -23t23 -55t-23 -54 t-55 -22t-53.5 22t-21.5 54zM410 690q0 33 21.5 55.5t53.5 22.5t55 -23t23 -55t-23 -54t-55 -22t-53.5 22t-21.5 54zM410 1305q0 32 21.5 54.5t53.5 22.5t55 -22.5t23 -54.5t-23 -54t-55 -22t-53.5 22t-21.5 54zM614 76q0 32 22 55t54 23t55 -23t23 -55t-23 -54t-55 -22 t-54 22t-22 54zM614 690q0 32 22 55t54 23t55 -23t23 -55t-23 -54t-55 -22t-54 22t-22 54zM614 1305q0 32 22 54.5t54 22.5t55 -22.5t23 -54.5t-23 -54t-55 -22t-54 22t-22 54zM819 281q0 32 22 54.5t54 22.5t55 -22.5t23 -54.5t-23 -54t-55 -22t-54 22t-22 54zM819 485 q0 32 22 55t54 23t55 -23t23 -55t-22.5 -53.5t-55.5 -21.5q-32 0 -54 21.5t-22 53.5zM819 1305q0 32 22 54.5t54 22.5t55 -22.5t23 -54.5t-23 -54t-55 -22t-54 22t-22 54z" />
<glyph unicode="T" d="M0 1305q0 32 22 54.5t54 22.5t55 -22.5t23 -54.5t-23 -54t-55 -22t-54 22t-22 54zM205 1305q0 32 22 54.5t54 22.5t54.5 -22.5t22.5 -54.5t-22.5 -54t-54.5 -22t-54 22t-22 54zM410 76q0 33 21.5 55.5t53.5 22.5t55 -23t23 -55t-23 -54t-55 -22t-53.5 22t-21.5 54z M410 281q0 32 21.5 54.5t53.5 22.5t55 -22.5t23 -54.5t-23 -54t-55 -22t-53.5 22t-21.5 54zM410 485q0 33 21.5 55.5t53.5 22.5t55 -23t23 -55t-22.5 -53.5t-55.5 -21.5q-32 0 -53.5 21.5t-21.5 53.5zM410 690q0 33 21.5 55.5t53.5 22.5t55 -23t23 -55t-23 -54t-55 -22 t-53.5 22t-21.5 54zM410 895q0 33 21.5 55.5t53.5 22.5t55 -23t23 -55t-23 -54t-55 -22t-53.5 22t-21.5 54zM410 1100q0 33 21.5 55.5t53.5 22.5t55 -23t23 -55t-23 -54t-55 -22t-53.5 22t-21.5 54zM410 1305q0 32 21.5 54.5t53.5 22.5t55 -22.5t23 -54.5t-23 -54t-55 -22 t-53.5 22t-21.5 54zM614 1305q0 32 22 54.5t54 22.5t55 -22.5t23 -54.5t-23 -54t-55 -22t-54 22t-22 54zM819 1305q0 32 22 54.5t54 22.5t55 -22.5t23 -54.5t-23 -54t-55 -22t-54 22t-22 54z" />
<glyph unicode="U" d="M0 281q0 32 22 54.5t54 22.5t55 -22.5t23 -54.5t-23 -54t-55 -22t-54 22t-22 54zM0 485q0 32 22 55t54 23t55 -23t23 -55t-22.5 -53.5t-55.5 -21.5q-32 0 -54 21.5t-22 53.5zM0 690q0 32 22 55t54 23t55 -23t23 -55t-23 -54t-55 -22t-54 22t-22 54zM0 895q0 32 22 55 t54 23t55 -23t23 -55t-23 -54t-55 -22t-54 22t-22 54zM0 1100q0 32 22 55t54 23t55 -23t23 -55t-23 -54t-55 -22t-54 22t-22 54zM0 1305q0 32 22 54.5t54 22.5t55 -22.5t23 -54.5t-23 -54t-55 -22t-54 22t-22 54zM205 76q0 32 22 55t54 23t54.5 -23t22.5 -55t-22.5 -54 t-54.5 -22t-54 22t-22 54zM410 76q0 33 21.5 55.5t53.5 22.5t55 -23t23 -55t-23 -54t-55 -22t-53.5 22t-21.5 54zM614 76q0 32 22 55t54 23t55 -23t23 -55t-23 -54t-55 -22t-54 22t-22 54zM819 281q0 32 22 54.5t54 22.5t55 -22.5t23 -54.5t-23 -54t-55 -22t-54 22t-22 54z M819 485q0 32 22 55t54 23t55 -23t23 -55t-22.5 -53.5t-55.5 -21.5q-32 0 -54 21.5t-22 53.5zM819 690q0 32 22 55t54 23t55 -23t23 -55t-23 -54t-55 -22t-54 22t-22 54zM819 895q0 32 22 55t54 23t55 -23t23 -55t-23 -54t-55 -22t-54 22t-22 54zM819 1100q0 32 22 55t54 23 t55 -23t23 -55t-23 -54t-55 -22t-54 22t-22 54zM819 1305q0 32 22 54.5t54 22.5t55 -22.5t23 -54.5t-23 -54t-55 -22t-54 22t-22 54z" />
<glyph unicode="V" d="M0 690q0 32 22 55t54 23t55 -23t23 -55t-23 -54t-55 -22t-54 22t-22 54zM0 895q0 32 22 55t54 23t55 -23t23 -55t-23 -54t-55 -22t-54 22t-22 54zM0 1100q0 32 22 55t54 23t55 -23t23 -55t-23 -54t-55 -22t-54 22t-22 54zM0 1305q0 32 22 54.5t54 22.5t55 -22.5t23 -54.5 t-23 -54t-55 -22t-54 22t-22 54zM205 281q0 32 22 54.5t54 22.5t54.5 -22.5t22.5 -54.5t-22.5 -54t-54.5 -22t-54 22t-22 54zM205 485q0 32 22 55t54 23t54.5 -23t22.5 -55t-22.5 -53.5t-54.5 -21.5t-54 21.5t-22 53.5zM410 76q0 33 21.5 55.5t53.5 22.5t55 -23t23 -55 t-23 -54t-55 -22t-53.5 22t-21.5 54zM614 281q0 32 22 54.5t54 22.5t55 -22.5t23 -54.5t-23 -54t-55 -22t-54 22t-22 54zM614 485q0 32 22 55t54 23t55 -23t23 -55t-22.5 -53.5t-55.5 -21.5q-32 0 -54 21.5t-22 53.5zM819 690q0 32 22 55t54 23t55 -23t23 -55t-23 -54 t-55 -22t-54 22t-22 54zM819 895q0 32 22 55t54 23t55 -23t23 -55t-23 -54t-55 -22t-54 22t-22 54zM819 1100q0 32 22 55t54 23t55 -23t23 -55t-23 -54t-55 -22t-54 22t-22 54zM819 1305q0 32 22 54.5t54 22.5t55 -22.5t23 -54.5t-23 -54t-55 -22t-54 22t-22 54z" />
<glyph unicode="W" d="M0 485q0 32 22 55t54 23t55 -23t23 -55t-22.5 -53.5t-55.5 -21.5q-32 0 -54 21.5t-22 53.5zM0 690q0 32 22 55t54 23t55 -23t23 -55t-23 -54t-55 -22t-54 22t-22 54zM0 895q0 32 22 55t54 23t55 -23t23 -55t-23 -54t-55 -22t-54 22t-22 54zM0 1100q0 32 22 55t54 23 t55 -23t23 -55t-23 -54t-55 -22t-54 22t-22 54zM0 1305q0 32 22 54.5t54 22.5t55 -22.5t23 -54.5t-23 -54t-55 -22t-54 22t-22 54zM205 76q0 32 22 55t54 23t54.5 -23t22.5 -55t-22.5 -54t-54.5 -22t-54 22t-22 54zM205 281q0 32 22 54.5t54 22.5t54.5 -22.5t22.5 -54.5 t-22.5 -54t-54.5 -22t-54 22t-22 54zM410 485q0 33 21.5 55.5t53.5 22.5t55 -23t23 -55t-22.5 -53.5t-55.5 -21.5q-32 0 -53.5 21.5t-21.5 53.5zM410 690q0 33 21.5 55.5t53.5 22.5t55 -23t23 -55t-23 -54t-55 -22t-53.5 22t-21.5 54zM410 895q0 33 21.5 55.5t53.5 22.5 t55 -23t23 -55t-23 -54t-55 -22t-53.5 22t-21.5 54zM410 1100q0 33 21.5 55.5t53.5 22.5t55 -23t23 -55t-23 -54t-55 -22t-53.5 22t-21.5 54zM614 76q0 32 22 55t54 23t55 -23t23 -55t-23 -54t-55 -22t-54 22t-22 54zM614 281q0 32 22 54.5t54 22.5t55 -22.5t23 -54.5 t-23 -54t-55 -22t-54 22t-22 54zM819 485q0 32 22 55t54 23t55 -23t23 -55t-22.5 -53.5t-55.5 -21.5q-32 0 -54 21.5t-22 53.5zM819 690q0 32 22 55t54 23t55 -23t23 -55t-23 -54t-55 -22t-54 22t-22 54zM819 895q0 32 22 55t54 23t55 -23t23 -55t-23 -54t-55 -22t-54 22 t-22 54zM819 1100q0 32 22 55t54 23t55 -23t23 -55t-23 -54t-55 -22t-54 22t-22 54zM819 1305q0 32 22 54.5t54 22.5t55 -22.5t23 -54.5t-23 -54t-55 -22t-54 22t-22 54z" />
<glyph unicode="X" d="M0 76q0 32 22 55t54 23t55 -23t23 -55t-23 -54t-55 -22t-54 22t-22 54zM0 281q0 32 22 54.5t54 22.5t55 -22.5t23 -54.5t-23 -54t-55 -22t-54 22t-22 54zM0 1100q0 32 22 55t54 23t55 -23t23 -55t-23 -54t-55 -22t-54 22t-22 54zM0 1305q0 32 22 54.5t54 22.5t55 -22.5 t23 -54.5t-23 -54t-55 -22t-54 22t-22 54zM205 485q0 32 22 55t54 23t54.5 -23t22.5 -55t-22.5 -53.5t-54.5 -21.5t-54 21.5t-22 53.5zM205 895q0 32 22 55t54 23t54.5 -23t22.5 -55t-22.5 -54t-54.5 -22t-54 22t-22 54zM410 690q0 33 21.5 55.5t53.5 22.5t55 -23t23 -55 t-23 -54t-55 -22t-53.5 22t-21.5 54zM614 485q0 32 22 55t54 23t55 -23t23 -55t-22.5 -53.5t-55.5 -21.5q-32 0 -54 21.5t-22 53.5zM614 895q0 32 22 55t54 23t55 -23t23 -55t-23 -54t-55 -22t-54 22t-22 54zM819 76q0 32 22 55t54 23t55 -23t23 -55t-23 -54t-55 -22t-54 22 t-22 54zM819 281q0 32 22 54.5t54 22.5t55 -22.5t23 -54.5t-23 -54t-55 -22t-54 22t-22 54zM819 1100q0 32 22 55t54 23t55 -23t23 -55t-23 -54t-55 -22t-54 22t-22 54zM819 1305q0 32 22 54.5t54 22.5t55 -22.5t23 -54.5t-23 -54t-55 -22t-54 22t-22 54z" />
<glyph unicode="Y" d="M0 895q0 32 22 55t54 23t55 -23t23 -55t-23 -54t-55 -22t-54 22t-22 54zM0 1100q0 32 22 55t54 23t55 -23t23 -55t-23 -54t-55 -22t-54 22t-22 54zM0 1305q0 32 22 54.5t54 22.5t55 -22.5t23 -54.5t-23 -54t-55 -22t-54 22t-22 54zM205 690q0 32 22 55t54 23t54.5 -23 t22.5 -55t-22.5 -54t-54.5 -22t-54 22t-22 54zM410 76q0 33 21.5 55.5t53.5 22.5t55 -23t23 -55t-23 -54t-55 -22t-53.5 22t-21.5 54zM410 281q0 32 21.5 54.5t53.5 22.5t55 -22.5t23 -54.5t-23 -54t-55 -22t-53.5 22t-21.5 54zM410 485q0 33 21.5 55.5t53.5 22.5t55 -23 t23 -55t-22.5 -53.5t-55.5 -21.5q-32 0 -53.5 21.5t-21.5 53.5zM614 690q0 32 22 55t54 23t55 -23t23 -55t-23 -54t-55 -22t-54 22t-22 54zM819 895q0 32 22 55t54 23t55 -23t23 -55t-23 -54t-55 -22t-54 22t-22 54zM819 1100q0 32 22 55t54 23t55 -23t23 -55t-23 -54 t-55 -22t-54 22t-22 54zM819 1305q0 32 22 54.5t54 22.5t55 -22.5t23 -54.5t-23 -54t-55 -22t-54 22t-22 54z" />
<glyph unicode="Z" d="M0 76q0 32 22 55t54 23t55 -23t23 -55t-23 -54t-55 -22t-54 22t-22 54zM0 281q0 32 22 54.5t54 22.5t55 -22.5t23 -54.5t-23 -54t-55 -22t-54 22t-22 54zM0 1305q0 32 22 54.5t54 22.5t55 -22.5t23 -54.5t-23 -54t-55 -22t-54 22t-22 54zM205 76q0 32 22 55t54 23 t54.5 -23t22.5 -55t-22.5 -54t-54.5 -22t-54 22t-22 54zM205 485q0 32 22 55t54 23t54.5 -23t22.5 -55t-22.5 -53.5t-54.5 -21.5t-54 21.5t-22 53.5zM205 1305q0 32 22 54.5t54 22.5t54.5 -22.5t22.5 -54.5t-22.5 -54t-54.5 -22t-54 22t-22 54zM410 76q0 33 21.5 55.5 t53.5 22.5t55 -23t23 -55t-23 -54t-55 -22t-53.5 22t-21.5 54zM410 690q0 33 21.5 55.5t53.5 22.5t55 -23t23 -55t-23 -54t-55 -22t-53.5 22t-21.5 54zM410 1305q0 32 21.5 54.5t53.5 22.5t55 -22.5t23 -54.5t-23 -54t-55 -22t-53.5 22t-21.5 54zM614 76q0 32 22 55t54 23 t55 -23t23 -55t-23 -54t-55 -22t-54 22t-22 54zM614 895q0 32 22 55t54 23t55 -23t23 -55t-23 -54t-55 -22t-54 22t-22 54zM614 1305q0 32 22 54.5t54 22.5t55 -22.5t23 -54.5t-23 -54t-55 -22t-54 22t-22 54zM819 76q0 32 22 55t54 23t55 -23t23 -55t-23 -54t-55 -22 t-54 22t-22 54zM819 1100q0 32 22 55t54 23t55 -23t23 -55t-23 -54t-55 -22t-54 22t-22 54zM819 1305q0 32 22 54.5t54 22.5t55 -22.5t23 -54.5t-23 -54t-55 -22t-54 22t-22 54z" />
<glyph unicode="[" d="M410 76q0 33 21.5 55.5t53.5 22.5t55 -23t23 -55t-23 -54t-55 -22t-53.5 22t-21.5 54zM410 281q0 32 21.5 54.5t53.5 22.5t55 -22.5t23 -54.5t-23 -54t-55 -22t-53.5 22t-21.5 54zM410 485q0 33 21.5 55.5t53.5 22.5t55 -23t23 -55t-22.5 -53.5t-55.5 -21.5 q-32 0 -53.5 21.5t-21.5 53.5zM410 690q0 33 21.5 55.5t53.5 22.5t55 -23t23 -55t-23 -54t-55 -22t-53.5 22t-21.5 54zM410 895q0 33 21.5 55.5t53.5 22.5t55 -23t23 -55t-23 -54t-55 -22t-53.5 22t-21.5 54zM410 1100q0 33 21.5 55.5t53.5 22.5t55 -23t23 -55t-23 -54 t-55 -22t-53.5 22t-21.5 54zM410 1305q0 32 21.5 54.5t53.5 22.5t55 -22.5t23 -54.5t-23 -54t-55 -22t-53.5 22t-21.5 54zM614 76q0 32 22 55t54 23t55 -23t23 -55t-23 -54t-55 -22t-54 22t-22 54zM614 1305q0 32 22 54.5t54 22.5t55 -22.5t23 -54.5t-23 -54t-55 -22t-54 22 t-22 54z" />
<glyph unicode="\" d="M205 1100q0 32 22 55t54 23t54.5 -23t22.5 -55t-22.5 -54t-54.5 -22t-54 22t-22 54zM205 1305q0 32 22 54.5t54 22.5t54.5 -22.5t22.5 -54.5t-22.5 -54t-54.5 -22t-54 22t-22 54zM410 895q0 33 21.5 55.5t53.5 22.5t55 -23t23 -55t-23 -54t-55 -22t-53.5 22t-21.5 54z M614 485q0 32 22 55t54 23t55 -23t23 -55t-22.5 -53.5t-55.5 -21.5q-32 0 -54 21.5t-22 53.5zM614 690q0 32 22 55t54 23t55 -23t23 -55t-23 -54t-55 -22t-54 22t-22 54zM819 76q0 32 22 55t54 23t55 -23t23 -55t-23 -54t-55 -22t-54 22t-22 54zM819 281q0 32 22 54.5 t54 22.5t55 -22.5t23 -54.5t-23 -54t-55 -22t-54 22t-22 54z" />
<glyph unicode="]" d="M410 76q0 33 21.5 55.5t53.5 22.5t55 -23t23 -55t-23 -54t-55 -22t-53.5 22t-21.5 54zM410 1305q0 32 21.5 54.5t53.5 22.5t55 -22.5t23 -54.5t-23 -54t-55 -22t-53.5 22t-21.5 54zM614 76q0 32 22 55t54 23t55 -23t23 -55t-23 -54t-55 -22t-54 22t-22 54zM614 281 q0 32 22 54.5t54 22.5t55 -22.5t23 -54.5t-23 -54t-55 -22t-54 22t-22 54zM614 485q0 32 22 55t54 23t55 -23t23 -55t-22.5 -53.5t-55.5 -21.5q-32 0 -54 21.5t-22 53.5zM614 690q0 32 22 55t54 23t55 -23t23 -55t-23 -54t-55 -22t-54 22t-22 54zM614 895q0 32 22 55t54 23 t55 -23t23 -55t-23 -54t-55 -22t-54 22t-22 54zM614 1100q0 32 22 55t54 23t55 -23t23 -55t-23 -54t-55 -22t-54 22t-22 54zM614 1305q0 32 22 54.5t54 22.5t55 -22.5t23 -54.5t-23 -54t-55 -22t-54 22t-22 54z" />
<glyph unicode="^" d="M205 1305q0 32 22 54.5t54 22.5t54.5 -22.5t22.5 -54.5t-22.5 -54t-54.5 -22t-54 22t-22 54zM410 1509q0 33 21.5 55.5t53.5 22.5t55 -23t23 -55t-22.5 -53.5t-55.5 -21.5q-32 0 -53.5 21.5t-21.5 53.5zM614 1305q0 32 22 54.5t54 22.5t55 -22.5t23 -54.5t-23 -54 t-55 -22t-54 22t-22 54z" />
<glyph unicode="_" d="M0 76q0 32 22 55t54 23t55 -23t23 -55t-23 -54t-55 -22t-54 22t-22 54zM205 76q0 32 22 55t54 23t54.5 -23t22.5 -55t-22.5 -54t-54.5 -22t-54 22t-22 54zM410 76q0 33 21.5 55.5t53.5 22.5t55 -23t23 -55t-23 -54t-55 -22t-53.5 22t-21.5 54zM614 76q0 32 22 55t54 23 t55 -23t23 -55t-23 -54t-55 -22t-54 22t-22 54zM819 76q0 32 22 55t54 23t55 -23t23 -55t-23 -54t-55 -22t-54 22t-22 54z" />
<glyph unicode="`" d="M0 1509q0 32 22 55t54 23t55 -23t23 -55t-22.5 -53.5t-55.5 -21.5q-32 0 -54 21.5t-22 53.5zM205 1305q0 32 22 54.5t54 22.5t54.5 -22.5t22.5 -54.5t-22.5 -54t-54.5 -22t-54 22t-22 54zM410 1305q0 32 21.5 54.5t53.5 22.5t55 -22.5t23 -54.5t-23 -54t-55 -22t-53.5 22 t-21.5 54z" />
<glyph unicode="a" d="M0 281q0 32 22 54.5t54 22.5t55 -22.5t23 -54.5t-23 -54t-55 -22t-54 22t-22 54zM205 76q0 32 22 55t54 23t54.5 -23t22.5 -55t-22.5 -54t-54.5 -22t-54 22t-22 54zM205 485q0 32 22 55t54 23t54.5 -23t22.5 -55t-22.5 -53.5t-54.5 -21.5t-54 21.5t-22 53.5zM205 895 q0 32 22 55t54 23t54.5 -23t22.5 -55t-22.5 -54t-54.5 -22t-54 22t-22 54zM410 76q0 33 21.5 55.5t53.5 22.5t55 -23t23 -55t-23 -54t-55 -22t-53.5 22t-21.5 54zM410 485q0 33 21.5 55.5t53.5 22.5t55 -23t23 -55t-22.5 -53.5t-55.5 -21.5q-32 0 -53.5 21.5t-21.5 53.5z M410 895q0 33 21.5 55.5t53.5 22.5t55 -23t23 -55t-23 -54t-55 -22t-53.5 22t-21.5 54zM614 76q0 32 22 55t54 23t55 -23t23 -55t-23 -54t-55 -22t-54 22t-22 54zM614 485q0 32 22 55t54 23t55 -23t23 -55t-22.5 -53.5t-55.5 -21.5q-32 0 -54 21.5t-22 53.5zM614 895 q0 32 22 55t54 23t55 -23t23 -55t-23 -54t-55 -22t-54 22t-22 54zM819 76q0 32 22 55t54 23t55 -23t23 -55t-23 -54t-55 -22t-54 22t-22 54zM819 281q0 32 22 54.5t54 22.5t55 -22.5t23 -54.5t-23 -54t-55 -22t-54 22t-22 54zM819 485q0 32 22 55t54 23t55 -23t23 -55 t-22.5 -53.5t-55.5 -21.5q-32 0 -54 21.5t-22 53.5zM819 690q0 32 22 55t54 23t55 -23t23 -55t-23 -54t-55 -22t-54 22t-22 54z" />
<glyph unicode="b" d="M0 76q0 32 22 55t54 23t55 -23t23 -55t-23 -54t-55 -22t-54 22t-22 54zM0 281q0 32 22 54.5t54 22.5t55 -22.5t23 -54.5t-23 -54t-55 -22t-54 22t-22 54zM0 485q0 32 22 55t54 23t55 -23t23 -55t-22.5 -53.5t-55.5 -21.5q-32 0 -54 21.5t-22 53.5zM0 690q0 32 22 55 t54 23t55 -23t23 -55t-23 -54t-55 -22t-54 22t-22 54zM0 895q0 32 22 55t54 23t55 -23t23 -55t-23 -54t-55 -22t-54 22t-22 54zM0 1100q0 32 22 55t54 23t55 -23t23 -55t-23 -54t-55 -22t-54 22t-22 54zM0 1305q0 32 22 54.5t54 22.5t55 -22.5t23 -54.5t-23 -54t-55 -22 t-54 22t-22 54zM205 76q0 32 22 55t54 23t54.5 -23t22.5 -55t-22.5 -54t-54.5 -22t-54 22t-22 54zM205 690q0 32 22 55t54 23t54.5 -23t22.5 -55t-22.5 -54t-54.5 -22t-54 22t-22 54zM410 76q0 33 21.5 55.5t53.5 22.5t55 -23t23 -55t-23 -54t-55 -22t-53.5 22t-21.5 54z M410 895q0 33 21.5 55.5t53.5 22.5t55 -23t23 -55t-23 -54t-55 -22t-53.5 22t-21.5 54zM614 76q0 32 22 55t54 23t55 -23t23 -55t-23 -54t-55 -22t-54 22t-22 54zM614 895q0 32 22 55t54 23t55 -23t23 -55t-23 -54t-55 -22t-54 22t-22 54zM819 281q0 32 22 54.5t54 22.5 t55 -22.5t23 -54.5t-23 -54t-55 -22t-54 22t-22 54zM819 485q0 32 22 55t54 23t55 -23t23 -55t-22.5 -53.5t-55.5 -21.5q-32 0 -54 21.5t-22 53.5zM819 690q0 32 22 55t54 23t55 -23t23 -55t-23 -54t-55 -22t-54 22t-22 54z" />
<glyph unicode="c" d="M0 281q0 32 22 54.5t54 22.5t55 -22.5t23 -54.5t-23 -54t-55 -22t-54 22t-22 54zM0 485q0 32 22 55t54 23t55 -23t23 -55t-22.5 -53.5t-55.5 -21.5q-32 0 -54 21.5t-22 53.5zM0 690q0 32 22 55t54 23t55 -23t23 -55t-23 -54t-55 -22t-54 22t-22 54zM205 76q0 32 22 55 t54 23t54.5 -23t22.5 -55t-22.5 -54t-54.5 -22t-54 22t-22 54zM205 895q0 32 22 55t54 23t54.5 -23t22.5 -55t-22.5 -54t-54.5 -22t-54 22t-22 54zM410 76q0 33 21.5 55.5t53.5 22.5t55 -23t23 -55t-23 -54t-55 -22t-53.5 22t-21.5 54zM410 895q0 33 21.5 55.5t53.5 22.5 t55 -23t23 -55t-23 -54t-55 -22t-53.5 22t-21.5 54zM614 76q0 32 22 55t54 23t55 -23t23 -55t-23 -54t-55 -22t-54 22t-22 54zM614 895q0 32 22 55t54 23t55 -23t23 -55t-23 -54t-55 -22t-54 22t-22 54zM819 281q0 32 22 54.5t54 22.5t55 -22.5t23 -54.5t-23 -54t-55 -22 t-54 22t-22 54zM819 690q0 32 22 55t54 23t55 -23t23 -55t-23 -54t-55 -22t-54 22t-22 54z" />
<glyph unicode="d" d="M0 281q0 32 22 54.5t54 22.5t55 -22.5t23 -54.5t-23 -54t-55 -22t-54 22t-22 54zM0 485q0 32 22 55t54 23t55 -23t23 -55t-22.5 -53.5t-55.5 -21.5q-32 0 -54 21.5t-22 53.5zM0 690q0 32 22 55t54 23t55 -23t23 -55t-23 -54t-55 -22t-54 22t-22 54zM205 76q0 32 22 55 t54 23t54.5 -23t22.5 -55t-22.5 -54t-54.5 -22t-54 22t-22 54zM205 895q0 32 22 55t54 23t54.5 -23t22.5 -55t-22.5 -54t-54.5 -22t-54 22t-22 54zM410 76q0 33 21.5 55.5t53.5 22.5t55 -23t23 -55t-23 -54t-55 -22t-53.5 22t-21.5 54zM410 895q0 33 21.5 55.5t53.5 22.5 t55 -23t23 -55t-23 -54t-55 -22t-53.5 22t-21.5 54zM614 281q0 32 22 54.5t54 22.5t55 -22.5t23 -54.5t-23 -54t-55 -22t-54 22t-22 54zM614 895q0 32 22 55t54 23t55 -23t23 -55t-23 -54t-55 -22t-54 22t-22 54zM819 76q0 32 22 55t54 23t55 -23t23 -55t-23 -54t-55 -22 t-54 22t-22 54zM819 281q0 32 22 54.5t54 22.5t55 -22.5t23 -54.5t-23 -54t-55 -22t-54 22t-22 54zM819 485q0 32 22 55t54 23t55 -23t23 -55t-22.5 -53.5t-55.5 -21.5q-32 0 -54 21.5t-22 53.5zM819 690q0 32 22 55t54 23t55 -23t23 -55t-23 -54t-55 -22t-54 22t-22 54z M819 895q0 32 22 55t54 23t55 -23t23 -55t-23 -54t-55 -22t-54 22t-22 54zM819 1100q0 32 22 55t54 23t55 -23t23 -55t-23 -54t-55 -22t-54 22t-22 54zM819 1305q0 32 22 54.5t54 22.5t55 -22.5t23 -54.5t-23 -54t-55 -22t-54 22t-22 54z" />
<glyph unicode="e" d="M0 281q0 32 22 54.5t54 22.5t55 -22.5t23 -54.5t-23 -54t-55 -22t-54 22t-22 54zM0 485q0 32 22 55t54 23t55 -23t23 -55t-22.5 -53.5t-55.5 -21.5q-32 0 -54 21.5t-22 53.5zM0 690q0 32 22 55t54 23t55 -23t23 -55t-23 -54t-55 -22t-54 22t-22 54zM205 76q0 32 22 55 t54 23t54.5 -23t22.5 -55t-22.5 -54t-54.5 -22t-54 22t-22 54zM205 485q0 32 22 55t54 23t54.5 -23t22.5 -55t-22.5 -53.5t-54.5 -21.5t-54 21.5t-22 53.5zM205 895q0 32 22 55t54 23t54.5 -23t22.5 -55t-22.5 -54t-54.5 -22t-54 22t-22 54zM410 76q0 33 21.5 55.5 t53.5 22.5t55 -23t23 -55t-23 -54t-55 -22t-53.5 22t-21.5 54zM410 485q0 33 21.5 55.5t53.5 22.5t55 -23t23 -55t-22.5 -53.5t-55.5 -21.5q-32 0 -53.5 21.5t-21.5 53.5zM410 895q0 33 21.5 55.5t53.5 22.5t55 -23t23 -55t-23 -54t-55 -22t-53.5 22t-21.5 54zM614 76 q0 32 22 55t54 23t55 -23t23 -55t-23 -54t-55 -22t-54 22t-22 54zM614 485q0 32 22 55t54 23t55 -23t23 -55t-22.5 -53.5t-55.5 -21.5q-32 0 -54 21.5t-22 53.5zM614 895q0 32 22 55t54 23t55 -23t23 -55t-23 -54t-55 -22t-54 22t-22 54zM819 76q0 32 22 55t54 23t55 -23 t23 -55t-23 -54t-55 -22t-54 22t-22 54zM819 485q0 32 22 55t54 23t55 -23t23 -55t-22.5 -53.5t-55.5 -21.5q-32 0 -54 21.5t-22 53.5zM819 690q0 32 22 55t54 23t55 -23t23 -55t-23 -54t-55 -22t-54 22t-22 54z" />
<glyph unicode="f" d="M0 76q0 32 22 55t54 23t55 -23t23 -55t-23 -54t-55 -22t-54 22t-22 54zM205 76q0 32 22 55t54 23t54.5 -23t22.5 -55t-22.5 -54t-54.5 -22t-54 22t-22 54zM205 895q0 32 22 55t54 23t54.5 -23t22.5 -55t-22.5 -54t-54.5 -22t-54 22t-22 54zM410 76q0 33 21.5 55.5 t53.5 22.5t55 -23t23 -55t-23 -54t-55 -22t-53.5 22t-21.5 54zM410 281q0 32 21.5 54.5t53.5 22.5t55 -22.5t23 -54.5t-23 -54t-55 -22t-53.5 22t-21.5 54zM410 485q0 33 21.5 55.5t53.5 22.5t55 -23t23 -55t-22.5 -53.5t-55.5 -21.5q-32 0 -53.5 21.5t-21.5 53.5zM410 690 q0 33 21.5 55.5t53.5 22.5t55 -23t23 -55t-23 -54t-55 -22t-53.5 22t-21.5 54zM410 895q0 33 21.5 55.5t53.5 22.5t55 -23t23 -55t-23 -54t-55 -22t-53.5 22t-21.5 54zM410 1100q0 33 21.5 55.5t53.5 22.5t55 -23t23 -55t-23 -54t-55 -22t-53.5 22t-21.5 54zM614 76 q0 32 22 55t54 23t55 -23t23 -55t-23 -54t-55 -22t-54 22t-22 54zM614 895q0 32 22 55t54 23t55 -23t23 -55t-23 -54t-55 -22t-54 22t-22 54zM614 1305q0 32 22 54.5t54 22.5t55 -22.5t23 -54.5t-23 -54t-55 -22t-54 22t-22 54zM819 76q0 32 22 55t54 23t55 -23t23 -55 t-23 -54t-55 -22t-54 22t-22 54zM819 895q0 32 22 55t54 23t55 -23t23 -55t-23 -54t-55 -22t-54 22t-22 54zM819 1305q0 32 22 54.5t54 22.5t55 -22.5t23 -54.5t-23 -54t-55 -22t-54 22t-22 54z" />
<glyph unicode="g" d="M0 281q0 32 22 54.5t54 22.5t55 -22.5t23 -54.5t-23 -54t-55 -22t-54 22t-22 54zM0 485q0 32 22 55t54 23t55 -23t23 -55t-22.5 -53.5t-55.5 -21.5q-32 0 -54 21.5t-22 53.5zM0 690q0 32 22 55t54 23t55 -23t23 -55t-23 -54t-55 -22t-54 22t-22 54zM205 76q0 32 22 55 t54 23t54.5 -23t22.5 -55t-22.5 -54t-54.5 -22t-54 22t-22 54zM205 -334q0 32 22 55t54 23t54.5 -23t22.5 -55t-22.5 -54t-54.5 -22t-54 22t-22 54zM205 895q0 32 22 55t54 23t54.5 -23t22.5 -55t-22.5 -54t-54.5 -22t-54 22t-22 54zM410 76q0 33 21.5 55.5t53.5 22.5 t55 -23t23 -55t-23 -54t-55 -22t-53.5 22t-21.5 54zM410 -334q0 33 21.5 55.5t53.5 22.5t55 -23t23 -55t-23 -54t-55 -22t-53.5 22t-21.5 54zM410 895q0 33 21.5 55.5t53.5 22.5t55 -23t23 -55t-23 -54t-55 -22t-53.5 22t-21.5 54zM614 281q0 32 22 54.5t54 22.5t55 -22.5 t23 -54.5t-23 -54t-55 -22t-54 22t-22 54zM614 -334q0 32 22 55t54 23t55 -23t23 -55t-23 -54t-55 -22t-54 22t-22 54zM614 895q0 32 22 55t54 23t55 -23t23 -55t-23 -54t-55 -22t-54 22t-22 54zM819 76q0 32 22 55t54 23t55 -23t23 -55t-23 -54t-55 -22t-54 22t-22 54z M819 -129q0 32 22 55t54 23t55 -23t23 -55t-23 -54t-55 -22t-54 22t-22 54zM819 281q0 32 22 54.5t54 22.5t55 -22.5t23 -54.5t-23 -54t-55 -22t-54 22t-22 54zM819 485q0 32 22 55t54 23t55 -23t23 -55t-22.5 -53.5t-55.5 -21.5q-32 0 -54 21.5t-22 53.5zM819 690 q0 32 22 55t54 23t55 -23t23 -55t-23 -54t-55 -22t-54 22t-22 54zM819 895q0 32 22 55t54 23t55 -23t23 -55t-23 -54t-55 -22t-54 22t-22 54z" />
<glyph unicode="h" d="M0 76q0 32 22 55t54 23t55 -23t23 -55t-23 -54t-55 -22t-54 22t-22 54zM0 281q0 32 22 54.5t54 22.5t55 -22.5t23 -54.5t-23 -54t-55 -22t-54 22t-22 54zM0 485q0 32 22 55t54 23t55 -23t23 -55t-22.5 -53.5t-55.5 -21.5q-32 0 -54 21.5t-22 53.5zM0 690q0 32 22 55 t54 23t55 -23t23 -55t-23 -54t-55 -22t-54 22t-22 54zM0 895q0 32 22 55t54 23t55 -23t23 -55t-23 -54t-55 -22t-54 22t-22 54zM0 1100q0 32 22 55t54 23t55 -23t23 -55t-23 -54t-55 -22t-54 22t-22 54zM0 1305q0 32 22 54.5t54 22.5t55 -22.5t23 -54.5t-23 -54t-55 -22 t-54 22t-22 54zM205 895q0 32 22 55t54 23t54.5 -23t22.5 -55t-22.5 -54t-54.5 -22t-54 22t-22 54zM410 895q0 33 21.5 55.5t53.5 22.5t55 -23t23 -55t-23 -54t-55 -22t-53.5 22t-21.5 54zM614 895q0 32 22 55t54 23t55 -23t23 -55t-23 -54t-55 -22t-54 22t-22 54zM819 76 q0 32 22 55t54 23t55 -23t23 -55t-23 -54t-55 -22t-54 22t-22 54zM819 281q0 32 22 54.5t54 22.5t55 -22.5t23 -54.5t-23 -54t-55 -22t-54 22t-22 54zM819 485q0 32 22 55t54 23t55 -23t23 -55t-22.5 -53.5t-55.5 -21.5q-32 0 -54 21.5t-22 53.5zM819 690q0 32 22 55t54 23 t55 -23t23 -55t-23 -54t-55 -22t-54 22t-22 54z" />
<glyph unicode="i" d="M0 76q0 32 22 55t54 23t55 -23t23 -55t-23 -54t-55 -22t-54 22t-22 54zM0 895q0 32 22 55t54 23t55 -23t23 -55t-23 -54t-55 -22t-54 22t-22 54zM205 76q0 32 22 55t54 23t54.5 -23t22.5 -55t-22.5 -54t-54.5 -22t-54 22t-22 54zM205 895q0 32 22 55t54 23t54.5 -23 t22.5 -55t-22.5 -54t-54.5 -22t-54 22t-22 54zM410 76q0 33 21.5 55.5t53.5 22.5t55 -23t23 -55t-23 -54t-55 -22t-53.5 22t-21.5 54zM410 281q0 32 21.5 54.5t53.5 22.5t55 -22.5t23 -54.5t-23 -54t-55 -22t-53.5 22t-21.5 54zM410 485q0 33 21.5 55.5t53.5 22.5t55 -23 t23 -55t-22.5 -53.5t-55.5 -21.5q-32 0 -53.5 21.5t-21.5 53.5zM410 690q0 33 21.5 55.5t53.5 22.5t55 -23t23 -55t-23 -54t-55 -22t-53.5 22t-21.5 54zM410 895q0 33 21.5 55.5t53.5 22.5t55 -23t23 -55t-23 -54t-55 -22t-53.5 22t-21.5 54zM410 1305q0 32 21.5 54.5 t53.5 22.5t55 -22.5t23 -54.5t-23 -54t-55 -22t-53.5 22t-21.5 54zM614 76q0 32 22 55t54 23t55 -23t23 -55t-23 -54t-55 -22t-54 22t-22 54zM819 76q0 32 22 55t54 23t55 -23t23 -55t-23 -54t-55 -22t-54 22t-22 54z" />
<glyph unicode="j" d="M0 -129q0 32 22 55t54 23t55 -23t23 -55t-23 -54t-55 -22t-54 22t-22 54zM205 -334q0 32 22 55t54 23t54.5 -23t22.5 -55t-22.5 -54t-54.5 -22t-54 22t-22 54zM205 895q0 32 22 55t54 23t54.5 -23t22.5 -55t-22.5 -54t-54.5 -22t-54 22t-22 54zM410 -334q0 33 21.5 55.5 t53.5 22.5t55 -23t23 -55t-23 -54t-55 -22t-53.5 22t-21.5 54zM410 895q0 33 21.5 55.5t53.5 22.5t55 -23t23 -55t-23 -54t-55 -22t-53.5 22t-21.5 54zM614 -334q0 32 22 55t54 23t55 -23t23 -55t-23 -54t-55 -22t-54 22t-22 54zM614 895q0 32 22 55t54 23t55 -23t23 -55 t-23 -54t-55 -22t-54 22t-22 54zM819 76q0 32 22 55t54 23t55 -23t23 -55t-23 -54t-55 -22t-54 22t-22 54zM819 -129q0 32 22 55t54 23t55 -23t23 -55t-23 -54t-55 -22t-54 22t-22 54zM819 281q0 32 22 54.5t54 22.5t55 -22.5t23 -54.5t-23 -54t-55 -22t-54 22t-22 54z M819 485q0 32 22 55t54 23t55 -23t23 -55t-22.5 -53.5t-55.5 -21.5q-32 0 -54 21.5t-22 53.5zM819 690q0 32 22 55t54 23t55 -23t23 -55t-23 -54t-55 -22t-54 22t-22 54zM819 895q0 32 22 55t54 23t55 -23t23 -55t-23 -54t-55 -22t-54 22t-22 54zM819 1305q0 32 22 54.5 t54 22.5t55 -22.5t23 -54.5t-23 -54t-55 -22t-54 22t-22 54z" />
<glyph unicode="k" d="M0 76q0 32 22 55t54 23t55 -23t23 -55t-23 -54t-55 -22t-54 22t-22 54zM0 281q0 32 22 54.5t54 22.5t55 -22.5t23 -54.5t-23 -54t-55 -22t-54 22t-22 54zM0 485q0 32 22 55t54 23t55 -23t23 -55t-22.5 -53.5t-55.5 -21.5q-32 0 -54 21.5t-22 53.5zM0 690q0 32 22 55 t54 23t55 -23t23 -55t-23 -54t-55 -22t-54 22t-22 54zM0 895q0 32 22 55t54 23t55 -23t23 -55t-23 -54t-55 -22t-54 22t-22 54zM0 1100q0 32 22 55t54 23t55 -23t23 -55t-23 -54t-55 -22t-54 22t-22 54zM0 1305q0 32 22 54.5t54 22.5t55 -22.5t23 -54.5t-23 -54t-55 -22 t-54 22t-22 54zM205 485q0 32 22 55t54 23t54.5 -23t22.5 -55t-22.5 -53.5t-54.5 -21.5t-54 21.5t-22 53.5zM410 485q0 33 21.5 55.5t53.5 22.5t55 -23t23 -55t-22.5 -53.5t-55.5 -21.5q-32 0 -53.5 21.5t-21.5 53.5zM614 281q0 32 22 54.5t54 22.5t55 -22.5t23 -54.5 t-23 -54t-55 -22t-54 22t-22 54zM614 690q0 32 22 55t54 23t55 -23t23 -55t-23 -54t-55 -22t-54 22t-22 54zM614 895q0 32 22 55t54 23t55 -23t23 -55t-23 -54t-55 -22t-54 22t-22 54zM819 76q0 32 22 55t54 23t55 -23t23 -55t-23 -54t-55 -22t-54 22t-22 54z" />
<glyph unicode="l" d="M0 76q0 32 22 55t54 23t55 -23t23 -55t-23 -54t-55 -22t-54 22t-22 54zM0 1305q0 32 22 54.5t54 22.5t55 -22.5t23 -54.5t-23 -54t-55 -22t-54 22t-22 54zM205 76q0 32 22 55t54 23t54.5 -23t22.5 -55t-22.5 -54t-54.5 -22t-54 22t-22 54zM205 1305q0 32 22 54.5t54 22.5 t54.5 -22.5t22.5 -54.5t-22.5 -54t-54.5 -22t-54 22t-22 54zM410 76q0 33 21.5 55.5t53.5 22.5t55 -23t23 -55t-23 -54t-55 -22t-53.5 22t-21.5 54zM410 281q0 32 21.5 54.5t53.5 22.5t55 -22.5t23 -54.5t-23 -54t-55 -22t-53.5 22t-21.5 54zM410 485q0 33 21.5 55.5 t53.5 22.5t55 -23t23 -55t-22.5 -53.5t-55.5 -21.5q-32 0 -53.5 21.5t-21.5 53.5zM410 690q0 33 21.5 55.5t53.5 22.5t55 -23t23 -55t-23 -54t-55 -22t-53.5 22t-21.5 54zM410 895q0 33 21.5 55.5t53.5 22.5t55 -23t23 -55t-23 -54t-55 -22t-53.5 22t-21.5 54zM410 1100 q0 33 21.5 55.5t53.5 22.5t55 -23t23 -55t-23 -54t-55 -22t-53.5 22t-21.5 54zM410 1305q0 32 21.5 54.5t53.5 22.5t55 -22.5t23 -54.5t-23 -54t-55 -22t-53.5 22t-21.5 54zM614 76q0 32 22 55t54 23t55 -23t23 -55t-23 -54t-55 -22t-54 22t-22 54zM819 76q0 32 22 55t54 23 t55 -23t23 -55t-23 -54t-55 -22t-54 22t-22 54z" />
<glyph unicode="m" d="M0 76q0 32 22 55t54 23t55 -23t23 -55t-23 -54t-55 -22t-54 22t-22 54zM0 281q0 32 22 54.5t54 22.5t55 -22.5t23 -54.5t-23 -54t-55 -22t-54 22t-22 54zM0 485q0 32 22 55t54 23t55 -23t23 -55t-22.5 -53.5t-55.5 -21.5q-32 0 -54 21.5t-22 53.5zM0 690q0 32 22 55 t54 23t55 -23t23 -55t-23 -54t-55 -22t-54 22t-22 54zM0 895q0 32 22 55t54 23t55 -23t23 -55t-23 -54t-55 -22t-54 22t-22 54zM205 690q0 32 22 55t54 23t54.5 -23t22.5 -55t-22.5 -54t-54.5 -22t-54 22t-22 54zM410 76q0 33 21.5 55.5t53.5 22.5t55 -23t23 -55t-23 -54 t-55 -22t-53.5 22t-21.5 54zM410 281q0 32 21.5 54.5t53.5 22.5t55 -22.5t23 -54.5t-23 -54t-55 -22t-53.5 22t-21.5 54zM410 485q0 33 21.5 55.5t53.5 22.5t55 -23t23 -55t-22.5 -53.5t-55.5 -21.5q-32 0 -53.5 21.5t-21.5 53.5zM410 690q0 33 21.5 55.5t53.5 22.5t55 -23 t23 -55t-23 -54t-55 -22t-53.5 22t-21.5 54zM410 895q0 33 21.5 55.5t53.5 22.5t55 -23t23 -55t-23 -54t-55 -22t-53.5 22t-21.5 54zM614 690q0 32 22 55t54 23t55 -23t23 -55t-23 -54t-55 -22t-54 22t-22 54zM819 76q0 32 22 55t54 23t55 -23t23 -55t-23 -54t-55 -22 t-54 22t-22 54zM819 281q0 32 22 54.5t54 22.5t55 -22.5t23 -54.5t-23 -54t-55 -22t-54 22t-22 54zM819 485q0 32 22 55t54 23t55 -23t23 -55t-22.5 -53.5t-55.5 -21.5q-32 0 -54 21.5t-22 53.5zM819 690q0 32 22 55t54 23t55 -23t23 -55t-23 -54t-55 -22t-54 22t-22 54z M819 895q0 32 22 55t54 23t55 -23t23 -55t-23 -54t-55 -22t-54 22t-22 54z" />
<glyph unicode="n" d="M0 76q0 32 22 55t54 23t55 -23t23 -55t-23 -54t-55 -22t-54 22t-22 54zM0 281q0 32 22 54.5t54 22.5t55 -22.5t23 -54.5t-23 -54t-55 -22t-54 22t-22 54zM0 485q0 32 22 55t54 23t55 -23t23 -55t-22.5 -53.5t-55.5 -21.5q-32 0 -54 21.5t-22 53.5zM0 690q0 32 22 55 t54 23t55 -23t23 -55t-23 -54t-55 -22t-54 22t-22 54zM0 895q0 32 22 55t54 23t55 -23t23 -55t-23 -54t-55 -22t-54 22t-22 54zM205 690q0 32 22 55t54 23t54.5 -23t22.5 -55t-22.5 -54t-54.5 -22t-54 22t-22 54zM410 895q0 33 21.5 55.5t53.5 22.5t55 -23t23 -55t-23 -54 t-55 -22t-53.5 22t-21.5 54zM614 895q0 32 22 55t54 23t55 -23t23 -55t-23 -54t-55 -22t-54 22t-22 54zM819 76q0 32 22 55t54 23t55 -23t23 -55t-23 -54t-55 -22t-54 22t-22 54zM819 281q0 32 22 54.5t54 22.5t55 -22.5t23 -54.5t-23 -54t-55 -22t-54 22t-22 54zM819 485 q0 32 22 55t54 23t55 -23t23 -55t-22.5 -53.5t-55.5 -21.5q-32 0 -54 21.5t-22 53.5zM819 690q0 32 22 55t54 23t55 -23t23 -55t-23 -54t-55 -22t-54 22t-22 54z" />
<glyph unicode="o" d="M0 281q0 32 22 54.5t54 22.5t55 -22.5t23 -54.5t-23 -54t-55 -22t-54 22t-22 54zM0 485q0 32 22 55t54 23t55 -23t23 -55t-22.5 -53.5t-55.5 -21.5q-32 0 -54 21.5t-22 53.5zM0 690q0 32 22 55t54 23t55 -23t23 -55t-23 -54t-55 -22t-54 22t-22 54zM205 76q0 32 22 55 t54 23t54.5 -23t22.5 -55t-22.5 -54t-54.5 -22t-54 22t-22 54zM205 895q0 32 22 55t54 23t54.5 -23t22.5 -55t-22.5 -54t-54.5 -22t-54 22t-22 54zM410 76q0 33 21.5 55.5t53.5 22.5t55 -23t23 -55t-23 -54t-55 -22t-53.5 22t-21.5 54zM410 895q0 33 21.5 55.5t53.5 22.5 t55 -23t23 -55t-23 -54t-55 -22t-53.5 22t-21.5 54zM614 76q0 32 22 55t54 23t55 -23t23 -55t-23 -54t-55 -22t-54 22t-22 54zM614 895q0 32 22 55t54 23t55 -23t23 -55t-23 -54t-55 -22t-54 22t-22 54zM819 281q0 32 22 54.5t54 22.5t55 -22.5t23 -54.5t-23 -54t-55 -22 t-54 22t-22 54zM819 485q0 32 22 55t54 23t55 -23t23 -55t-22.5 -53.5t-55.5 -21.5q-32 0 -54 21.5t-22 53.5zM819 690q0 32 22 55t54 23t55 -23t23 -55t-23 -54t-55 -22t-54 22t-22 54z" />
<glyph unicode="p" d="M0 76q0 32 22 55t54 23t55 -23t23 -55t-23 -54t-55 -22t-54 22t-22 54zM0 -129q0 32 22 55t54 23t55 -23t23 -55t-23 -54t-55 -22t-54 22t-22 54zM0 281q0 32 22 54.5t54 22.5t55 -22.5t23 -54.5t-23 -54t-55 -22t-54 22t-22 54zM0 -334q0 32 22 55t54 23t55 -23t23 -55 t-23 -54t-55 -22t-54 22t-22 54zM0 485q0 32 22 55t54 23t55 -23t23 -55t-22.5 -53.5t-55.5 -21.5q-32 0 -54 21.5t-22 53.5zM0 690q0 32 22 55t54 23t55 -23t23 -55t-23 -54t-55 -22t-54 22t-22 54zM0 895q0 32 22 55t54 23t55 -23t23 -55t-23 -54t-55 -22t-54 22t-22 54z M205 76q0 32 22 55t54 23t54.5 -23t22.5 -55t-22.5 -54t-54.5 -22t-54 22t-22 54zM205 690q0 32 22 55t54 23t54.5 -23t22.5 -55t-22.5 -54t-54.5 -22t-54 22t-22 54zM410 76q0 33 21.5 55.5t53.5 22.5t55 -23t23 -55t-23 -54t-55 -22t-53.5 22t-21.5 54zM410 895 q0 33 21.5 55.5t53.5 22.5t55 -23t23 -55t-23 -54t-55 -22t-53.5 22t-21.5 54zM614 76q0 32 22 55t54 23t55 -23t23 -55t-23 -54t-55 -22t-54 22t-22 54zM614 895q0 32 22 55t54 23t55 -23t23 -55t-23 -54t-55 -22t-54 22t-22 54zM819 281q0 32 22 54.5t54 22.5t55 -22.5 t23 -54.5t-23 -54t-55 -22t-54 22t-22 54zM819 485q0 32 22 55t54 23t55 -23t23 -55t-22.5 -53.5t-55.5 -21.5q-32 0 -54 21.5t-22 53.5zM819 690q0 32 22 55t54 23t55 -23t23 -55t-23 -54t-55 -22t-54 22t-22 54z" />
<glyph unicode="q" d="M0 281q0 32 22 54.5t54 22.5t55 -22.5t23 -54.5t-23 -54t-55 -22t-54 22t-22 54zM0 485q0 32 22 55t54 23t55 -23t23 -55t-22.5 -53.5t-55.5 -21.5q-32 0 -54 21.5t-22 53.5zM0 690q0 32 22 55t54 23t55 -23t23 -55t-23 -54t-55 -22t-54 22t-22 54zM205 76q0 32 22 55 t54 23t54.5 -23t22.5 -55t-22.5 -54t-54.5 -22t-54 22t-22 54zM205 895q0 32 22 55t54 23t54.5 -23t22.5 -55t-22.5 -54t-54.5 -22t-54 22t-22 54zM410 76q0 33 21.5 55.5t53.5 22.5t55 -23t23 -55t-23 -54t-55 -22t-53.5 22t-21.5 54zM410 895q0 33 21.5 55.5t53.5 22.5 t55 -23t23 -55t-23 -54t-55 -22t-53.5 22t-21.5 54zM614 281q0 32 22 54.5t54 22.5t55 -22.5t23 -54.5t-23 -54t-55 -22t-54 22t-22 54zM614 895q0 32 22 55t54 23t55 -23t23 -55t-23 -54t-55 -22t-54 22t-22 54zM819 76q0 32 22 55t54 23t55 -23t23 -55t-23 -54t-55 -22 t-54 22t-22 54zM819 -129q0 32 22 55t54 23t55 -23t23 -55t-23 -54t-55 -22t-54 22t-22 54zM819 281q0 32 22 54.5t54 22.5t55 -22.5t23 -54.5t-23 -54t-55 -22t-54 22t-22 54zM819 -334q0 32 22 55t54 23t55 -23t23 -55t-23 -54t-55 -22t-54 22t-22 54zM819 485q0 32 22 55 t54 23t55 -23t23 -55t-22.5 -53.5t-55.5 -21.5q-32 0 -54 21.5t-22 53.5zM819 690q0 32 22 55t54 23t55 -23t23 -55t-23 -54t-55 -22t-54 22t-22 54zM819 895q0 32 22 55t54 23t55 -23t23 -55t-23 -54t-55 -22t-54 22t-22 54z" />
<glyph unicode="r" d="M0 76q0 32 22 55t54 23t55 -23t23 -55t-23 -54t-55 -22t-54 22t-22 54zM0 895q0 32 22 55t54 23t55 -23t23 -55t-23 -54t-55 -22t-54 22t-22 54zM205 76q0 32 22 55t54 23t54.5 -23t22.5 -55t-22.5 -54t-54.5 -22t-54 22t-22 54zM205 281q0 32 22 54.5t54 22.5 t54.5 -22.5t22.5 -54.5t-22.5 -54t-54.5 -22t-54 22t-22 54zM205 485q0 32 22 55t54 23t54.5 -23t22.5 -55t-22.5 -53.5t-54.5 -21.5t-54 21.5t-22 53.5zM205 690q0 32 22 55t54 23t54.5 -23t22.5 -55t-22.5 -54t-54.5 -22t-54 22t-22 54zM205 895q0 32 22 55t54 23 t54.5 -23t22.5 -55t-22.5 -54t-54.5 -22t-54 22t-22 54zM410 76q0 33 21.5 55.5t53.5 22.5t55 -23t23 -55t-23 -54t-55 -22t-53.5 22t-21.5 54zM410 690q0 33 21.5 55.5t53.5 22.5t55 -23t23 -55t-23 -54t-55 -22t-53.5 22t-21.5 54zM614 76q0 32 22 55t54 23t55 -23t23 -55 t-23 -54t-55 -22t-54 22t-22 54zM614 895q0 32 22 55t54 23t55 -23t23 -55t-23 -54t-55 -22t-54 22t-22 54zM819 895q0 32 22 55t54 23t55 -23t23 -55t-23 -54t-55 -22t-54 22t-22 54z" />
<glyph unicode="s" d="M0 76q0 32 22 55t54 23t55 -23t23 -55t-23 -54t-55 -22t-54 22t-22 54zM0 690q0 32 22 55t54 23t55 -23t23 -55t-23 -54t-55 -22t-54 22t-22 54zM205 76q0 32 22 55t54 23t54.5 -23t22.5 -55t-22.5 -54t-54.5 -22t-54 22t-22 54zM205 485q0 32 22 55t54 23t54.5 -23 t22.5 -55t-22.5 -53.5t-54.5 -21.5t-54 21.5t-22 53.5zM205 895q0 32 22 55t54 23t54.5 -23t22.5 -55t-22.5 -54t-54.5 -22t-54 22t-22 54zM410 76q0 33 21.5 55.5t53.5 22.5t55 -23t23 -55t-23 -54t-55 -22t-53.5 22t-21.5 54zM410 485q0 33 21.5 55.5t53.5 22.5t55 -23 t23 -55t-22.5 -53.5t-55.5 -21.5q-32 0 -53.5 21.5t-21.5 53.5zM410 895q0 33 21.5 55.5t53.5 22.5t55 -23t23 -55t-23 -54t-55 -22t-53.5 22t-21.5 54zM614 76q0 32 22 55t54 23t55 -23t23 -55t-23 -54t-55 -22t-54 22t-22 54zM614 485q0 32 22 55t54 23t55 -23t23 -55 t-22.5 -53.5t-55.5 -21.5q-32 0 -54 21.5t-22 53.5zM614 895q0 32 22 55t54 23t55 -23t23 -55t-23 -54t-55 -22t-54 22t-22 54zM819 281q0 32 22 54.5t54 22.5t55 -22.5t23 -54.5t-23 -54t-55 -22t-54 22t-22 54zM819 895q0 32 22 55t54 23t55 -23t23 -55t-23 -54t-55 -22 t-54 22t-22 54z" />
<glyph unicode="t" d="M0 895q0 32 22 55t54 23t55 -23t23 -55t-23 -54t-55 -22t-54 22t-22 54zM205 895q0 32 22 55t54 23t54.5 -23t22.5 -55t-22.5 -54t-54.5 -22t-54 22t-22 54zM410 281q0 32 21.5 54.5t53.5 22.5t55 -22.5t23 -54.5t-23 -54t-55 -22t-53.5 22t-21.5 54zM410 485 q0 33 21.5 55.5t53.5 22.5t55 -23t23 -55t-22.5 -53.5t-55.5 -21.5q-32 0 -53.5 21.5t-21.5 53.5zM410 690q0 33 21.5 55.5t53.5 22.5t55 -23t23 -55t-23 -54t-55 -22t-53.5 22t-21.5 54zM410 895q0 33 21.5 55.5t53.5 22.5t55 -23t23 -55t-23 -54t-55 -22t-53.5 22 t-21.5 54zM410 1100q0 33 21.5 55.5t53.5 22.5t55 -23t23 -55t-23 -54t-55 -22t-53.5 22t-21.5 54zM614 76q0 32 22 55t54 23t55 -23t23 -55t-23 -54t-55 -22t-54 22t-22 54zM614 895q0 32 22 55t54 23t55 -23t23 -55t-23 -54t-55 -22t-54 22t-22 54zM819 76q0 32 22 55 t54 23t55 -23t23 -55t-23 -54t-55 -22t-54 22t-22 54zM819 895q0 32 22 55t54 23t55 -23t23 -55t-23 -54t-55 -22t-54 22t-22 54z" />
<glyph unicode="u" d="M0 281q0 32 22 54.5t54 22.5t55 -22.5t23 -54.5t-23 -54t-55 -22t-54 22t-22 54zM0 485q0 32 22 55t54 23t55 -23t23 -55t-22.5 -53.5t-55.5 -21.5q-32 0 -54 21.5t-22 53.5zM0 690q0 32 22 55t54 23t55 -23t23 -55t-23 -54t-55 -22t-54 22t-22 54zM0 895q0 32 22 55 t54 23t55 -23t23 -55t-23 -54t-55 -22t-54 22t-22 54zM205 76q0 32 22 55t54 23t54.5 -23t22.5 -55t-22.5 -54t-54.5 -22t-54 22t-22 54zM410 76q0 33 21.5 55.5t53.5 22.5t55 -23t23 -55t-23 -54t-55 -22t-53.5 22t-21.5 54zM614 281q0 32 22 54.5t54 22.5t55 -22.5 t23 -54.5t-23 -54t-55 -22t-54 22t-22 54zM819 76q0 32 22 55t54 23t55 -23t23 -55t-23 -54t-55 -22t-54 22t-22 54zM819 281q0 32 22 54.5t54 22.5t55 -22.5t23 -54.5t-23 -54t-55 -22t-54 22t-22 54zM819 485q0 32 22 55t54 23t55 -23t23 -55t-22.5 -53.5t-55.5 -21.5 q-32 0 -54 21.5t-22 53.5zM819 690q0 32 22 55t54 23t55 -23t23 -55t-23 -54t-55 -22t-54 22t-22 54zM819 895q0 32 22 55t54 23t55 -23t23 -55t-23 -54t-55 -22t-54 22t-22 54z" />
<glyph unicode="v" d="M0 690q0 32 22 55t54 23t55 -23t23 -55t-23 -54t-55 -22t-54 22t-22 54zM0 895q0 32 22 55t54 23t55 -23t23 -55t-23 -54t-55 -22t-54 22t-22 54zM205 281q0 32 22 54.5t54 22.5t54.5 -22.5t22.5 -54.5t-22.5 -54t-54.5 -22t-54 22t-22 54zM205 485q0 32 22 55t54 23 t54.5 -23t22.5 -55t-22.5 -53.5t-54.5 -21.5t-54 21.5t-22 53.5zM410 76q0 33 21.5 55.5t53.5 22.5t55 -23t23 -55t-23 -54t-55 -22t-53.5 22t-21.5 54zM614 281q0 32 22 54.5t54 22.5t55 -22.5t23 -54.5t-23 -54t-55 -22t-54 22t-22 54zM614 485q0 32 22 55t54 23t55 -23 t23 -55t-22.5 -53.5t-55.5 -21.5q-32 0 -54 21.5t-22 53.5zM819 690q0 32 22 55t54 23t55 -23t23 -55t-23 -54t-55 -22t-54 22t-22 54zM819 895q0 32 22 55t54 23t55 -23t23 -55t-23 -54t-55 -22t-54 22t-22 54z" />
<glyph unicode="w" d="M0 485q0 32 22 55t54 23t55 -23t23 -55t-22.5 -53.5t-55.5 -21.5q-32 0 -54 21.5t-22 53.5zM0 690q0 32 22 55t54 23t55 -23t23 -55t-23 -54t-55 -22t-54 22t-22 54zM0 895q0 32 22 55t54 23t55 -23t23 -55t-23 -54t-55 -22t-54 22t-22 54zM205 76q0 32 22 55t54 23 t54.5 -23t22.5 -55t-22.5 -54t-54.5 -22t-54 22t-22 54zM205 281q0 32 22 54.5t54 22.5t54.5 -22.5t22.5 -54.5t-22.5 -54t-54.5 -22t-54 22t-22 54zM410 485q0 33 21.5 55.5t53.5 22.5t55 -23t23 -55t-22.5 -53.5t-55.5 -21.5q-32 0 -53.5 21.5t-21.5 53.5zM410 690 q0 33 21.5 55.5t53.5 22.5t55 -23t23 -55t-23 -54t-55 -22t-53.5 22t-21.5 54zM614 76q0 32 22 55t54 23t55 -23t23 -55t-23 -54t-55 -22t-54 22t-22 54zM614 281q0 32 22 54.5t54 22.5t55 -22.5t23 -54.5t-23 -54t-55 -22t-54 22t-22 54zM819 485q0 32 22 55t54 23t55 -23 t23 -55t-22.5 -53.5t-55.5 -21.5q-32 0 -54 21.5t-22 53.5zM819 690q0 32 22 55t54 23t55 -23t23 -55t-23 -54t-55 -22t-54 22t-22 54zM819 895q0 32 22 55t54 23t55 -23t23 -55t-23 -54t-55 -22t-54 22t-22 54z" />
<glyph unicode="x" d="M0 76q0 32 22 55t54 23t55 -23t23 -55t-23 -54t-55 -22t-54 22t-22 54zM0 281q0 32 22 54.5t54 22.5t55 -22.5t23 -54.5t-23 -54t-55 -22t-54 22t-22 54zM0 690q0 32 22 55t54 23t55 -23t23 -55t-23 -54t-55 -22t-54 22t-22 54zM0 895q0 32 22 55t54 23t55 -23t23 -55 t-23 -54t-55 -22t-54 22t-22 54zM205 485q0 32 22 55t54 23t54.5 -23t22.5 -55t-22.5 -53.5t-54.5 -21.5t-54 21.5t-22 53.5zM410 485q0 33 21.5 55.5t53.5 22.5t55 -23t23 -55t-22.5 -53.5t-55.5 -21.5q-32 0 -53.5 21.5t-21.5 53.5zM614 485q0 32 22 55t54 23t55 -23 t23 -55t-22.5 -53.5t-55.5 -21.5q-32 0 -54 21.5t-22 53.5zM819 76q0 32 22 55t54 23t55 -23t23 -55t-23 -54t-55 -22t-54 22t-22 54zM819 281q0 32 22 54.5t54 22.5t55 -22.5t23 -54.5t-23 -54t-55 -22t-54 22t-22 54zM819 690q0 32 22 55t54 23t55 -23t23 -55t-23 -54 t-55 -22t-54 22t-22 54zM819 895q0 32 22 55t54 23t55 -23t23 -55t-23 -54t-55 -22t-54 22t-22 54z" />
<glyph unicode="y" d="M0 -334q0 32 22 55t54 23t55 -23t23 -55t-23 -54t-55 -22t-54 22t-22 54zM0 690q0 32 22 55t54 23t55 -23t23 -55t-23 -54t-55 -22t-54 22t-22 54zM0 895q0 32 22 55t54 23t55 -23t23 -55t-23 -54t-55 -22t-54 22t-22 54zM205 281q0 32 22 54.5t54 22.5t54.5 -22.5 t22.5 -54.5t-22.5 -54t-54.5 -22t-54 22t-22 54zM205 -334q0 32 22 55t54 23t54.5 -23t22.5 -55t-22.5 -54t-54.5 -22t-54 22t-22 54zM205 485q0 32 22 55t54 23t54.5 -23t22.5 -55t-22.5 -53.5t-54.5 -21.5t-54 21.5t-22 53.5zM410 76q0 33 21.5 55.5t53.5 22.5t55 -23 t23 -55t-23 -54t-55 -22t-53.5 22t-21.5 54zM410 -129q0 33 21.5 55.5t53.5 22.5t55 -23t23 -55t-23 -54t-55 -22t-53.5 22t-21.5 54zM614 281q0 32 22 54.5t54 22.5t55 -22.5t23 -54.5t-23 -54t-55 -22t-54 22t-22 54zM614 485q0 32 22 55t54 23t55 -23t23 -55t-22.5 -53.5 t-55.5 -21.5q-32 0 -54 21.5t-22 53.5zM819 690q0 32 22 55t54 23t55 -23t23 -55t-23 -54t-55 -22t-54 22t-22 54zM819 895q0 32 22 55t54 23t55 -23t23 -55t-23 -54t-55 -22t-54 22t-22 54z" />
<glyph unicode="z" d="M0 76q0 32 22 55t54 23t55 -23t23 -55t-23 -54t-55 -22t-54 22t-22 54zM0 895q0 32 22 55t54 23t55 -23t23 -55t-23 -54t-55 -22t-54 22t-22 54zM205 76q0 32 22 55t54 23t54.5 -23t22.5 -55t-22.5 -54t-54.5 -22t-54 22t-22 54zM205 281q0 32 22 54.5t54 22.5 t54.5 -22.5t22.5 -54.5t-22.5 -54t-54.5 -22t-54 22t-22 54zM205 895q0 32 22 55t54 23t54.5 -23t22.5 -55t-22.5 -54t-54.5 -22t-54 22t-22 54zM410 76q0 33 21.5 55.5t53.5 22.5t55 -23t23 -55t-23 -54t-55 -22t-53.5 22t-21.5 54zM410 485q0 33 21.5 55.5t53.5 22.5 t55 -23t23 -55t-22.5 -53.5t-55.5 -21.5q-32 0 -53.5 21.5t-21.5 53.5zM410 895q0 33 21.5 55.5t53.5 22.5t55 -23t23 -55t-23 -54t-55 -22t-53.5 22t-21.5 54zM614 76q0 32 22 55t54 23t55 -23t23 -55t-23 -54t-55 -22t-54 22t-22 54zM614 690q0 32 22 55t54 23t55 -23 t23 -55t-23 -54t-55 -22t-54 22t-22 54zM614 895q0 32 22 55t54 23t55 -23t23 -55t-23 -54t-55 -22t-54 22t-22 54zM819 76q0 32 22 55t54 23t55 -23t23 -55t-23 -54t-55 -22t-54 22t-22 54zM819 895q0 32 22 55t54 23t55 -23t23 -55t-23 -54t-55 -22t-54 22t-22 54z" />
<glyph unicode="{" d="M205 690q0 32 22 55t54 23t54.5 -23t22.5 -55t-22.5 -54t-54.5 -22t-54 22t-22 54zM410 281q0 32 21.5 54.5t53.5 22.5t55 -22.5t23 -54.5t-23 -54t-55 -22t-53.5 22t-21.5 54zM410 485q0 33 21.5 55.5t53.5 22.5t55 -23t23 -55t-22.5 -53.5t-55.5 -21.5 q-32 0 -53.5 21.5t-21.5 53.5zM410 895q0 33 21.5 55.5t53.5 22.5t55 -23t23 -55t-23 -54t-55 -22t-53.5 22t-21.5 54zM410 1100q0 33 21.5 55.5t53.5 22.5t55 -23t23 -55t-23 -54t-55 -22t-53.5 22t-21.5 54zM614 76q0 32 22 55t54 23t55 -23t23 -55t-23 -54t-55 -22 t-54 22t-22 54zM614 1305q0 32 22 54.5t54 22.5t55 -22.5t23 -54.5t-23 -54t-55 -22t-54 22t-22 54z" />
<glyph unicode="|" d="M410 76q0 33 21.5 55.5t53.5 22.5t55 -23t23 -55t-23 -54t-55 -22t-53.5 22t-21.5 54zM410 281q0 32 21.5 54.5t53.5 22.5t55 -22.5t23 -54.5t-23 -54t-55 -22t-53.5 22t-21.5 54zM410 485q0 33 21.5 55.5t53.5 22.5t55 -23t23 -55t-22.5 -53.5t-55.5 -21.5 q-32 0 -53.5 21.5t-21.5 53.5zM410 690q0 33 21.5 55.5t53.5 22.5t55 -23t23 -55t-23 -54t-55 -22t-53.5 22t-21.5 54zM410 895q0 33 21.5 55.5t53.5 22.5t55 -23t23 -55t-23 -54t-55 -22t-53.5 22t-21.5 54zM410 1100q0 33 21.5 55.5t53.5 22.5t55 -23t23 -55t-23 -54 t-55 -22t-53.5 22t-21.5 54zM410 1305q0 32 21.5 54.5t53.5 22.5t55 -22.5t23 -54.5t-23 -54t-55 -22t-53.5 22t-21.5 54z" />
<glyph unicode="}" d="M410 76q0 33 21.5 55.5t53.5 22.5t55 -23t23 -55t-23 -54t-55 -22t-53.5 22t-21.5 54zM410 1305q0 32 21.5 54.5t53.5 22.5t55 -22.5t23 -54.5t-23 -54t-55 -22t-53.5 22t-21.5 54zM614 281q0 32 22 54.5t54 22.5t55 -22.5t23 -54.5t-23 -54t-55 -22t-54 22t-22 54z M614 485q0 32 22 55t54 23t55 -23t23 -55t-22.5 -53.5t-55.5 -21.5q-32 0 -54 21.5t-22 53.5zM614 895q0 32 22 55t54 23t55 -23t23 -55t-23 -54t-55 -22t-54 22t-22 54zM614 1100q0 32 22 55t54 23t55 -23t23 -55t-23 -54t-55 -22t-54 22t-22 54zM819 690q0 32 22 55t54 23 t55 -23t23 -55t-23 -54t-55 -22t-54 22t-22 54z" />
<glyph unicode="~" d="M0 690q0 32 22 55t54 23t55 -23t23 -55t-23 -54t-55 -22t-54 22t-22 54zM205 895q0 32 22 55t54 23t54.5 -23t22.5 -55t-22.5 -54t-54.5 -22t-54 22t-22 54zM410 690q0 33 21.5 55.5t53.5 22.5t55 -23t23 -55t-23 -54t-55 -22t-53.5 22t-21.5 54zM614 485q0 32 22 55 t54 23t55 -23t23 -55t-22.5 -53.5t-55.5 -21.5q-32 0 -54 21.5t-22 53.5zM819 690q0 32 22 55t54 23t55 -23t23 -55t-23 -54t-55 -22t-54 22t-22 54z" />
<glyph unicode="&#xa0;" />
<glyph unicode="&#xa1;" d="M410 78q0 32 21.5 54t53.5 22t55 -22t23 -54t-23 -55t-55 -23t-53.5 22.5t-21.5 55.5zM410 283q0 32 21.5 53.5t53.5 21.5q33 0 55.5 -21.5t22.5 -53.5t-23 -55t-55 -23t-53.5 22.5t-21.5 55.5zM410 487q0 32 21.5 54t53.5 22t55 -22t23 -54t-23 -54.5t-55 -22.5 t-53.5 22.5t-21.5 54.5zM410 692q0 32 21.5 54t53.5 22t55 -22t23 -54t-23 -55t-55 -23t-53.5 22.5t-21.5 55.5zM410 1102q0 32 21.5 54t53.5 22t55 -22t23 -54t-23 -55t-55 -23t-53.5 22.5t-21.5 55.5zM410 1307q0 32 21.5 53.5t53.5 21.5q33 0 55.5 -21.5t22.5 -53.5 t-23 -55t-55 -23t-53.5 22.5t-21.5 55.5z" />
<glyph unicode="&#xa2;" d="M0 281q0 32 22 54.5t54 22.5t55 -22.5t23 -54.5t-23 -54t-55 -22t-54 22t-22 54zM0 485q0 32 22 55t54 23t55 -23t23 -55t-22.5 -53.5t-55.5 -21.5q-32 0 -54 21.5t-22 53.5zM0 690q0 32 22 55t54 23t55 -23t23 -55t-23 -54t-55 -22t-54 22t-22 54zM205 76q0 32 22 55 t54 23t54.5 -23t22.5 -55t-22.5 -54t-54.5 -22t-54 22t-22 54zM205 895q0 32 22 55t54 23t54.5 -23t22.5 -55t-22.5 -54t-54.5 -22t-54 22t-22 54zM410 76q0 33 21.5 55.5t53.5 22.5t55 -23t23 -55t-23 -54t-55 -22t-53.5 22t-21.5 54zM410 -129q0 33 21.5 55.5t53.5 22.5 t55 -23t23 -55t-23 -54t-55 -22t-53.5 22t-21.5 54zM410 281q0 32 21.5 54.5t53.5 22.5t55 -22.5t23 -54.5t-23 -54t-55 -22t-53.5 22t-21.5 54zM410 485q0 33 21.5 55.5t53.5 22.5t55 -23t23 -55t-22.5 -53.5t-55.5 -21.5q-32 0 -53.5 21.5t-21.5 53.5zM410 690 q0 33 21.5 55.5t53.5 22.5t55 -23t23 -55t-23 -54t-55 -22t-53.5 22t-21.5 54zM410 895q0 33 21.5 55.5t53.5 22.5t55 -23t23 -55t-23 -54t-55 -22t-53.5 22t-21.5 54zM410 1100q0 33 21.5 55.5t53.5 22.5t55 -23t23 -55t-23 -54t-55 -22t-53.5 22t-21.5 54zM614 76 q0 32 22 55t54 23t55 -23t23 -55t-23 -54t-55 -22t-54 22t-22 54zM614 895q0 32 22 55t54 23t55 -23t23 -55t-23 -54t-55 -22t-54 22t-22 54zM819 281q0 32 22 54.5t54 22.5t55 -22.5t23 -54.5t-23 -54t-55 -22t-54 22t-22 54zM819 690q0 32 22 55t54 23t55 -23t23 -55 t-23 -54t-55 -22t-54 22t-22 54z" />
<glyph unicode="&#xa3;" d="M0 76q0 32 22 55t54 23t55 -23t23 -55t-23 -54t-55 -22t-54 22t-22 54zM0 690q0 32 22 55t54 23t55 -23t23 -55t-23 -54t-55 -22t-54 22t-22 54zM205 76q0 32 22 55t54 23t54.5 -23t22.5 -55t-22.5 -54t-54.5 -22t-54 22t-22 54zM205 281q0 32 22 54.5t54 22.5 t54.5 -22.5t22.5 -54.5t-22.5 -54t-54.5 -22t-54 22t-22 54zM205 485q0 32 22 55t54 23t54.5 -23t22.5 -55t-22.5 -53.5t-54.5 -21.5t-54 21.5t-22 53.5zM205 690q0 32 22 55t54 23t54.5 -23t22.5 -55t-22.5 -54t-54.5 -22t-54 22t-22 54zM205 895q0 32 22 55t54 23 t54.5 -23t22.5 -55t-22.5 -54t-54.5 -22t-54 22t-22 54zM205 1100q0 32 22 55t54 23t54.5 -23t22.5 -55t-22.5 -54t-54.5 -22t-54 22t-22 54zM410 76q0 33 21.5 55.5t53.5 22.5t55 -23t23 -55t-23 -54t-55 -22t-53.5 22t-21.5 54zM410 690q0 33 21.5 55.5t53.5 22.5t55 -23 t23 -55t-23 -54t-55 -22t-53.5 22t-21.5 54zM410 1305q0 32 21.5 54.5t53.5 22.5t55 -22.5t23 -54.5t-23 -54t-55 -22t-53.5 22t-21.5 54zM614 76q0 32 22 55t54 23t55 -23t23 -55t-23 -54t-55 -22t-54 22t-22 54zM614 690q0 32 22 55t54 23t55 -23t23 -55t-23 -54t-55 -22 t-54 22t-22 54zM614 1305q0 32 22 54.5t54 22.5t55 -22.5t23 -54.5t-23 -54t-55 -22t-54 22t-22 54zM819 76q0 32 22 55t54 23t55 -23t23 -55t-23 -54t-55 -22t-54 22t-22 54zM819 1100q0 32 22 55t54 23t55 -23t23 -55t-23 -54t-55 -22t-54 22t-22 54z" />
<glyph unicode="&#xa4;" d="M0 76q0 32 22 55t54 23t55 -23t23 -55t-23 -54t-55 -22t-54 22t-22 54zM0 895q0 32 22 55t54 23t55 -23t23 -55t-23 -54t-55 -22t-54 22t-22 54zM205 281q0 32 22 54.5t54 22.5t54.5 -22.5t22.5 -54.5t-22.5 -54t-54.5 -22t-54 22t-22 54zM205 485q0 32 22 55t54 23 t54.5 -23t22.5 -55t-22.5 -53.5t-54.5 -21.5t-54 21.5t-22 53.5zM205 690q0 32 22 55t54 23t54.5 -23t22.5 -55t-22.5 -54t-54.5 -22t-54 22t-22 54zM410 281q0 32 21.5 54.5t53.5 22.5t55 -22.5t23 -54.5t-23 -54t-55 -22t-53.5 22t-21.5 54zM410 690q0 33 21.5 55.5 t53.5 22.5t55 -23t23 -55t-23 -54t-55 -22t-53.5 22t-21.5 54zM614 281q0 32 22 54.5t54 22.5t55 -22.5t23 -54.5t-23 -54t-55 -22t-54 22t-22 54zM614 485q0 32 22 55t54 23t55 -23t23 -55t-22.5 -53.5t-55.5 -21.5q-32 0 -54 21.5t-22 53.5zM614 690q0 32 22 55t54 23 t55 -23t23 -55t-23 -54t-55 -22t-54 22t-22 54zM819 76q0 32 22 55t54 23t55 -23t23 -55t-23 -54t-55 -22t-54 22t-22 54zM819 895q0 32 22 55t54 23t55 -23t23 -55t-23 -54t-55 -22t-54 22t-22 54z" />
<glyph unicode="&#xa5;" d="M0 485q0 32 22 55t54 23t55 -23t23 -55t-22.5 -53.5t-55.5 -21.5q-32 0 -54 21.5t-22 53.5zM0 1100q0 32 22 55t54 23t55 -23t23 -55t-23 -54t-55 -22t-54 22t-22 54zM0 1305q0 32 22 54.5t54 22.5t55 -22.5t23 -54.5t-23 -54t-55 -22t-54 22t-22 54zM205 485q0 32 22 55 t54 23t54.5 -23t22.5 -55t-22.5 -53.5t-54.5 -21.5t-54 21.5t-22 53.5zM205 895q0 32 22 55t54 23t54.5 -23t22.5 -55t-22.5 -54t-54.5 -22t-54 22t-22 54zM410 76q0 33 21.5 55.5t53.5 22.5t55 -23t23 -55t-23 -54t-55 -22t-53.5 22t-21.5 54zM410 281q0 32 21.5 54.5 t53.5 22.5t55 -22.5t23 -54.5t-23 -54t-55 -22t-53.5 22t-21.5 54zM410 485q0 33 21.5 55.5t53.5 22.5t55 -23t23 -55t-22.5 -53.5t-55.5 -21.5q-32 0 -53.5 21.5t-21.5 53.5zM410 690q0 33 21.5 55.5t53.5 22.5t55 -23t23 -55t-23 -54t-55 -22t-53.5 22t-21.5 54zM614 485 q0 32 22 55t54 23t55 -23t23 -55t-22.5 -53.5t-55.5 -21.5q-32 0 -54 21.5t-22 53.5zM614 895q0 32 22 55t54 23t55 -23t23 -55t-23 -54t-55 -22t-54 22t-22 54zM819 485q0 32 22 55t54 23t55 -23t23 -55t-22.5 -53.5t-55.5 -21.5q-32 0 -54 21.5t-22 53.5zM819 1100 q0 32 22 55t54 23t55 -23t23 -55t-23 -54t-55 -22t-54 22t-22 54zM819 1305q0 32 22 54.5t54 22.5t55 -22.5t23 -54.5t-23 -54t-55 -22t-54 22t-22 54z" />
<glyph unicode="&#xa6;" d="M410 76q0 33 21.5 55.5t53.5 22.5t55 -23t23 -55t-23 -54t-55 -22t-53.5 22t-21.5 54zM410 281q0 32 21.5 54.5t53.5 22.5t55 -22.5t23 -54.5t-23 -54t-55 -22t-53.5 22t-21.5 54zM410 485q0 33 21.5 55.5t53.5 22.5t55 -23t23 -55t-22.5 -53.5t-55.5 -21.5 q-32 0 -53.5 21.5t-21.5 53.5zM410 895q0 33 21.5 55.5t53.5 22.5t55 -23t23 -55t-23 -54t-55 -22t-53.5 22t-21.5 54zM410 1100q0 33 21.5 55.5t53.5 22.5t55 -23t23 -55t-23 -54t-55 -22t-53.5 22t-21.5 54zM410 1305q0 32 21.5 54.5t53.5 22.5t55 -22.5t23 -54.5t-23 -54 t-55 -22t-53.5 22t-21.5 54z" />
<glyph unicode="&#xa7;" d="M205 76q0 32 22 55t54 23t54.5 -23t22.5 -55t-22.5 -54t-54.5 -22t-54 22t-22 54zM205 690q0 32 22 55t54 23t54.5 -23t22.5 -55t-22.5 -54t-54.5 -22t-54 22t-22 54zM205 1100q0 32 22 55t54 23t54.5 -23t22.5 -55t-22.5 -54t-54.5 -22t-54 22t-22 54zM410 76 q0 33 21.5 55.5t53.5 22.5t55 -23t23 -55t-23 -54t-55 -22t-53.5 22t-21.5 54zM410 485q0 33 21.5 55.5t53.5 22.5t55 -23t23 -55t-22.5 -53.5t-55.5 -21.5q-32 0 -53.5 21.5t-21.5 53.5zM410 895q0 33 21.5 55.5t53.5 22.5t55 -23t23 -55t-23 -54t-55 -22t-53.5 22 t-21.5 54zM410 1305q0 32 21.5 54.5t53.5 22.5t55 -22.5t23 -54.5t-23 -54t-55 -22t-53.5 22t-21.5 54zM614 76q0 32 22 55t54 23t55 -23t23 -55t-23 -54t-55 -22t-54 22t-22 54zM614 485q0 32 22 55t54 23t55 -23t23 -55t-22.5 -53.5t-55.5 -21.5q-32 0 -54 21.5t-22 53.5z M614 895q0 32 22 55t54 23t55 -23t23 -55t-23 -54t-55 -22t-54 22t-22 54zM614 1305q0 32 22 54.5t54 22.5t55 -22.5t23 -54.5t-23 -54t-55 -22t-54 22t-22 54zM819 281q0 32 22 54.5t54 22.5t55 -22.5t23 -54.5t-23 -54t-55 -22t-54 22t-22 54zM819 690q0 32 22 55t54 23 t55 -23t23 -55t-23 -54t-55 -22t-54 22t-22 54zM819 1305q0 32 22 54.5t54 22.5t55 -22.5t23 -54.5t-23 -54t-55 -22t-54 22t-22 54z" />
<glyph unicode="&#xa8;" d="M0 1305q0 32 22 54.5t54 22.5t55 -22.5t23 -54.5t-23 -54t-55 -22t-54 22t-22 54zM0 1509q0 32 22 55t54 23t55 -23t23 -55t-22.5 -53.5t-55.5 -21.5q-32 0 -54 21.5t-22 53.5zM819 1305q0 32 22 54.5t54 22.5t55 -22.5t23 -54.5t-23 -54t-55 -22t-54 22t-22 54z M819 1509q0 32 22 55t54 23t55 -23t23 -55t-22.5 -53.5t-55.5 -21.5q-32 0 -54 21.5t-22 53.5z" />
<glyph unicode="&#xa9;" d="M0 281q0 32 22 54.5t54 22.5t55 -22.5t23 -54.5t-23 -54t-55 -22t-54 22t-22 54zM0 485q0 32 22 55t54 23t55 -23t23 -55t-22.5 -53.5t-55.5 -21.5q-32 0 -54 21.5t-22 53.5zM0 690q0 32 22 55t54 23t55 -23t23 -55t-23 -54t-55 -22t-54 22t-22 54zM205 76q0 32 22 55 t54 23t54.5 -23t22.5 -55t-22.5 -54t-54.5 -22t-54 22t-22 54zM205 485q0 32 22 55t54 23t54.5 -23t22.5 -55t-22.5 -53.5t-54.5 -21.5t-54 21.5t-22 53.5zM205 895q0 32 22 55t54 23t54.5 -23t22.5 -55t-22.5 -54t-54.5 -22t-54 22t-22 54zM410 76q0 33 21.5 55.5 t53.5 22.5t55 -23t23 -55t-23 -54t-55 -22t-53.5 22t-21.5 54zM410 281q0 32 21.5 54.5t53.5 22.5t55 -22.5t23 -54.5t-23 -54t-55 -22t-53.5 22t-21.5 54zM410 690q0 33 21.5 55.5t53.5 22.5t55 -23t23 -55t-23 -54t-55 -22t-53.5 22t-21.5 54zM410 895q0 33 21.5 55.5 t53.5 22.5t55 -23t23 -55t-23 -54t-55 -22t-53.5 22t-21.5 54zM614 76q0 32 22 55t54 23t55 -23t23 -55t-23 -54t-55 -22t-54 22t-22 54zM614 895q0 32 22 55t54 23t55 -23t23 -55t-23 -54t-55 -22t-54 22t-22 54zM819 281q0 32 22 54.5t54 22.5t55 -22.5t23 -54.5t-23 -54 t-55 -22t-54 22t-22 54zM819 485q0 32 22 55t54 23t55 -23t23 -55t-22.5 -53.5t-55.5 -21.5q-32 0 -54 21.5t-22 53.5zM819 690q0 32 22 55t54 23t55 -23t23 -55t-23 -54t-55 -22t-54 22t-22 54z" />
<glyph unicode="&#xaa;" d="M0 895q0 32 22 55t54 23t55 -23t23 -55t-23 -54t-55 -22t-54 22t-22 54zM205 690q0 32 22 55t54 23t54.5 -23t22.5 -55t-22.5 -54t-54.5 -22t-54 22t-22 54zM205 895q0 32 22 55t54 23t54.5 -23t22.5 -55t-22.5 -54t-54.5 -22t-54 22t-22 54zM205 1305q0 32 22 54.5 t54 22.5t54.5 -22.5t22.5 -54.5t-22.5 -54t-54.5 -22t-54 22t-22 54zM410 690q0 33 21.5 55.5t53.5 22.5t55 -23t23 -55t-23 -54t-55 -22t-53.5 22t-21.5 54zM410 895q0 33 21.5 55.5t53.5 22.5t55 -23t23 -55t-23 -54t-55 -22t-53.5 22t-21.5 54zM410 1100q0 33 21.5 55.5 t53.5 22.5t55 -23t23 -55t-23 -54t-55 -22t-53.5 22t-21.5 54z" />
<glyph unicode="&#xab;" d="M0 485q0 32 22 55t54 23t55 -23t23 -55t-22.5 -53.5t-55.5 -21.5q-32 0 -54 21.5t-22 53.5zM205 281q0 32 22 54.5t54 22.5t54.5 -22.5t22.5 -54.5t-22.5 -54t-54.5 -22t-54 22t-22 54zM205 690q0 32 22 55t54 23t54.5 -23t22.5 -55t-22.5 -54t-54.5 -22t-54 22t-22 54z M410 76q0 33 21.5 55.5t53.5 22.5t55 -23t23 -55t-23 -54t-55 -22t-53.5 22t-21.5 54zM410 485q0 33 21.5 55.5t53.5 22.5t55 -23t23 -55t-22.5 -53.5t-55.5 -21.5q-32 0 -53.5 21.5t-21.5 53.5zM410 895q0 33 21.5 55.5t53.5 22.5t55 -23t23 -55t-23 -54t-55 -22t-53.5 22 t-21.5 54zM614 281q0 32 22 54.5t54 22.5t55 -22.5t23 -54.5t-23 -54t-55 -22t-54 22t-22 54zM614 690q0 32 22 55t54 23t55 -23t23 -55t-23 -54t-55 -22t-54 22t-22 54zM819 76q0 32 22 55t54 23t55 -23t23 -55t-23 -54t-55 -22t-54 22t-22 54zM819 895q0 32 22 55t54 23 t55 -23t23 -55t-23 -54t-55 -22t-54 22t-22 54z" />
<glyph unicode="&#xac;" d="M0 485q0 32 22 55t54 23t55 -23t23 -55t-22.5 -53.5t-55.5 -21.5q-32 0 -54 21.5t-22 53.5zM205 485q0 32 22 55t54 23t54.5 -23t22.5 -55t-22.5 -53.5t-54.5 -21.5t-54 21.5t-22 53.5zM410 485q0 33 21.5 55.5t53.5 22.5t55 -23t23 -55t-22.5 -53.5t-55.5 -21.5 q-32 0 -53.5 21.5t-21.5 53.5zM614 485q0 32 22 55t54 23t55 -23t23 -55t-22.5 -53.5t-55.5 -21.5q-32 0 -54 21.5t-22 53.5zM819 76q0 32 22 55t54 23t55 -23t23 -55t-23 -54t-55 -22t-54 22t-22 54zM819 281q0 32 22 54.5t54 22.5t55 -22.5t23 -54.5t-23 -54t-55 -22 t-54 22t-22 54zM819 485q0 32 22 55t54 23t55 -23t23 -55t-22.5 -53.5t-55.5 -21.5q-32 0 -54 21.5t-22 53.5z" />
<glyph unicode="&#xad;" d="M205 485q0 32 22 55t54 23t54.5 -23t22.5 -55t-22.5 -53.5t-54.5 -21.5t-54 21.5t-22 53.5zM410 485q0 33 21.5 55.5t53.5 22.5t55 -23t23 -55t-22.5 -53.5t-55.5 -21.5q-32 0 -53.5 21.5t-21.5 53.5zM614 485q0 32 22 55t54 23t55 -23t23 -55t-22.5 -53.5t-55.5 -21.5 q-32 0 -54 21.5t-22 53.5z" />
<glyph unicode="&#xae;" d="M0 690q0 32 22 55t54 23t55 -23t23 -55t-23 -54t-55 -22t-54 22t-22 54zM0 895q0 32 22 55t54 23t55 -23t23 -55t-23 -54t-55 -22t-54 22t-22 54zM0 1100q0 32 22 55t54 23t55 -23t23 -55t-23 -54t-55 -22t-54 22t-22 54zM205 485q0 32 22 55t54 23t54.5 -23t22.5 -55 t-22.5 -53.5t-54.5 -21.5t-54 21.5t-22 53.5zM205 1305q0 32 22 54.5t54 22.5t54.5 -22.5t22.5 -54.5t-22.5 -54t-54.5 -22t-54 22t-22 54zM410 485q0 33 21.5 55.5t53.5 22.5t55 -23t23 -55t-22.5 -53.5t-55.5 -21.5q-32 0 -53.5 21.5t-21.5 53.5zM410 895q0 33 21.5 55.5 t53.5 22.5t55 -23t23 -55t-23 -54t-55 -22t-53.5 22t-21.5 54zM410 1100q0 33 21.5 55.5t53.5 22.5t55 -23t23 -55t-23 -54t-55 -22t-53.5 22t-21.5 54zM410 1305q0 32 21.5 54.5t53.5 22.5t55 -22.5t23 -54.5t-23 -54t-55 -22t-53.5 22t-21.5 54zM614 485q0 32 22 55t54 23 t55 -23t23 -55t-22.5 -53.5t-55.5 -21.5q-32 0 -54 21.5t-22 53.5zM614 690q0 32 22 55t54 23t55 -23t23 -55t-23 -54t-55 -22t-54 22t-22 54zM614 1100q0 32 22 55t54 23t55 -23t23 -55t-23 -54t-55 -22t-54 22t-22 54zM614 1305q0 32 22 54.5t54 22.5t55 -22.5t23 -54.5 t-23 -54t-55 -22t-54 22t-22 54zM819 690q0 32 22 55t54 23t55 -23t23 -55t-23 -54t-55 -22t-54 22t-22 54zM819 895q0 32 22 55t54 23t55 -23t23 -55t-23 -54t-55 -22t-54 22t-22 54zM819 1100q0 32 22 55t54 23t55 -23t23 -55t-23 -54t-55 -22t-54 22t-22 54z" />
<glyph unicode="&#xaf;" d="M205 1305q0 32 22 54.5t54 22.5t54.5 -22.5t22.5 -54.5t-22.5 -54t-54.5 -22t-54 22t-22 54zM410 1305q0 32 21.5 54.5t53.5 22.5t55 -22.5t23 -54.5t-23 -54t-55 -22t-53.5 22t-21.5 54zM614 1305q0 32 22 54.5t54 22.5t55 -22.5t23 -54.5t-23 -54t-55 -22t-54 22 t-22 54z" />
<glyph unicode="&#xb0;" d="M0 1100q0 32 22 55t54 23t55 -23t23 -55t-23 -54t-55 -22t-54 22t-22 54zM205 895q0 32 22 55t54 23t54.5 -23t22.5 -55t-22.5 -54t-54.5 -22t-54 22t-22 54zM205 1305q0 32 22 54.5t54 22.5t54.5 -22.5t22.5 -54.5t-22.5 -54t-54.5 -22t-54 22t-22 54zM410 1100 q0 33 21.5 55.5t53.5 22.5t55 -23t23 -55t-23 -54t-55 -22t-53.5 22t-21.5 54z" />
<glyph unicode="&#xb1;" d="M0 76q0 32 22 55t54 23t55 -23t23 -55t-23 -54t-55 -22t-54 22t-22 54zM0 690q0 32 22 55t54 23t55 -23t23 -55t-23 -54t-55 -22t-54 22t-22 54zM205 76q0 32 22 55t54 23t54.5 -23t22.5 -55t-22.5 -54t-54.5 -22t-54 22t-22 54zM205 690q0 32 22 55t54 23t54.5 -23 t22.5 -55t-22.5 -54t-54.5 -22t-54 22t-22 54zM410 76q0 33 21.5 55.5t53.5 22.5t55 -23t23 -55t-23 -54t-55 -22t-53.5 22t-21.5 54zM410 485q0 33 21.5 55.5t53.5 22.5t55 -23t23 -55t-22.5 -53.5t-55.5 -21.5q-32 0 -53.5 21.5t-21.5 53.5zM410 690q0 33 21.5 55.5 t53.5 22.5t55 -23t23 -55t-23 -54t-55 -22t-53.5 22t-21.5 54zM410 895q0 33 21.5 55.5t53.5 22.5t55 -23t23 -55t-23 -54t-55 -22t-53.5 22t-21.5 54zM614 76q0 32 22 55t54 23t55 -23t23 -55t-23 -54t-55 -22t-54 22t-22 54zM614 690q0 32 22 55t54 23t55 -23t23 -55 t-23 -54t-55 -22t-54 22t-22 54zM819 76q0 32 22 55t54 23t55 -23t23 -55t-23 -54t-55 -22t-54 22t-22 54zM819 690q0 32 22 55t54 23t55 -23t23 -55t-23 -54t-55 -22t-54 22t-22 54z" />
<glyph unicode="&#xb2;" d="M0 690q0 32 22 55t54 23t55 -23t23 -55t-23 -54t-55 -22t-54 22t-22 54zM0 895q0 32 22 55t54 23t55 -23t23 -55t-23 -54t-55 -22t-54 22t-22 54zM0 1305q0 32 22 54.5t54 22.5t55 -22.5t23 -54.5t-23 -54t-55 -22t-54 22t-22 54zM205 690q0 32 22 55t54 23t54.5 -23 t22.5 -55t-22.5 -54t-54.5 -22t-54 22t-22 54zM205 1100q0 32 22 55t54 23t54.5 -23t22.5 -55t-22.5 -54t-54.5 -22t-54 22t-22 54z" />
<glyph unicode="&#xb3;" d="M0 690q0 32 22 55t54 23t55 -23t23 -55t-23 -54t-55 -22t-54 22t-22 54zM0 1305q0 32 22 54.5t54 22.5t55 -22.5t23 -54.5t-23 -54t-55 -22t-54 22t-22 54zM205 690q0 32 22 55t54 23t54.5 -23t22.5 -55t-22.5 -54t-54.5 -22t-54 22t-22 54zM205 895q0 32 22 55t54 23 t54.5 -23t22.5 -55t-22.5 -54t-54.5 -22t-54 22t-22 54zM205 1100q0 32 22 55t54 23t54.5 -23t22.5 -55t-22.5 -54t-54.5 -22t-54 22t-22 54z" />
<glyph unicode="&#xb4;" d="M205 1305q0 32 22 54.5t54 22.5t54.5 -22.5t22.5 -54.5t-22.5 -54t-54.5 -22t-54 22t-22 54zM410 1305q0 32 21.5 54.5t53.5 22.5t55 -22.5t23 -54.5t-23 -54t-55 -22t-53.5 22t-21.5 54zM614 1509q0 32 22 55t54 23t55 -23t23 -55t-22.5 -53.5t-55.5 -21.5 q-32 0 -54 21.5t-22 53.5z" />
<glyph unicode="&#xb5;" d="M0 76q0 32 22 55t54 23t55 -23t23 -55t-23 -54t-55 -22t-54 22t-22 54zM0 -129q0 32 22 55t54 23t55 -23t23 -55t-23 -54t-55 -22t-54 22t-22 54zM0 281q0 32 22 54.5t54 22.5t55 -22.5t23 -54.5t-23 -54t-55 -22t-54 22t-22 54zM0 -334q0 32 22 55t54 23t55 -23t23 -55 t-23 -54t-55 -22t-54 22t-22 54zM0 485q0 32 22 55t54 23t55 -23t23 -55t-22.5 -53.5t-55.5 -21.5q-32 0 -54 21.5t-22 53.5zM0 690q0 32 22 55t54 23t55 -23t23 -55t-23 -54t-55 -22t-54 22t-22 54zM0 895q0 32 22 55t54 23t55 -23t23 -55t-23 -54t-55 -22t-54 22t-22 54z M205 76q0 32 22 55t54 23t54.5 -23t22.5 -55t-22.5 -54t-54.5 -22t-54 22t-22 54zM410 76q0 33 21.5 55.5t53.5 22.5t55 -23t23 -55t-23 -54t-55 -22t-53.5 22t-21.5 54zM614 281q0 32 22 54.5t54 22.5t55 -22.5t23 -54.5t-23 -54t-55 -22t-54 22t-22 54zM819 76q0 32 22 55 t54 23t55 -23t23 -55t-23 -54t-55 -22t-54 22t-22 54zM819 281q0 32 22 54.5t54 22.5t55 -22.5t23 -54.5t-23 -54t-55 -22t-54 22t-22 54zM819 485q0 32 22 55t54 23t55 -23t23 -55t-22.5 -53.5t-55.5 -21.5q-32 0 -54 21.5t-22 53.5zM819 690q0 32 22 55t54 23t55 -23 t23 -55t-23 -54t-55 -22t-54 22t-22 54zM819 895q0 32 22 55t54 23t55 -23t23 -55t-23 -54t-55 -22t-54 22t-22 54z" />
<glyph unicode="&#xb6;" d="M0 895q0 32 22 55t54 23t55 -23t23 -55t-23 -54t-55 -22t-54 22t-22 54zM0 1100q0 32 22 55t54 23t55 -23t23 -55t-23 -54t-55 -22t-54 22t-22 54zM205 690q0 32 22 55t54 23t54.5 -23t22.5 -55t-22.5 -54t-54.5 -22t-54 22t-22 54zM205 895q0 32 22 55t54 23t54.5 -23 t22.5 -55t-22.5 -54t-54.5 -22t-54 22t-22 54zM205 1100q0 32 22 55t54 23t54.5 -23t22.5 -55t-22.5 -54t-54.5 -22t-54 22t-22 54zM205 1305q0 32 22 54.5t54 22.5t54.5 -22.5t22.5 -54.5t-22.5 -54t-54.5 -22t-54 22t-22 54zM410 76q0 33 21.5 55.5t53.5 22.5t55 -23 t23 -55t-23 -54t-55 -22t-53.5 22t-21.5 54zM410 281q0 32 21.5 54.5t53.5 22.5t55 -22.5t23 -54.5t-23 -54t-55 -22t-53.5 22t-21.5 54zM410 485q0 33 21.5 55.5t53.5 22.5t55 -23t23 -55t-22.5 -53.5t-55.5 -21.5q-32 0 -53.5 21.5t-21.5 53.5zM410 690q0 33 21.5 55.5 t53.5 22.5t55 -23t23 -55t-23 -54t-55 -22t-53.5 22t-21.5 54zM410 895q0 33 21.5 55.5t53.5 22.5t55 -23t23 -55t-23 -54t-55 -22t-53.5 22t-21.5 54zM410 1100q0 33 21.5 55.5t53.5 22.5t55 -23t23 -55t-23 -54t-55 -22t-53.5 22t-21.5 54zM410 1305q0 32 21.5 54.5 t53.5 22.5t55 -22.5t23 -54.5t-23 -54t-55 -22t-53.5 22t-21.5 54zM819 76q0 32 22 55t54 23t55 -23t23 -55t-23 -54t-55 -22t-54 22t-22 54zM819 281q0 32 22 54.5t54 22.5t55 -22.5t23 -54.5t-23 -54t-55 -22t-54 22t-22 54zM819 485q0 32 22 55t54 23t55 -23t23 -55 t-22.5 -53.5t-55.5 -21.5q-32 0 -54 21.5t-22 53.5zM819 690q0 32 22 55t54 23t55 -23t23 -55t-23 -54t-55 -22t-54 22t-22 54zM819 895q0 32 22 55t54 23t55 -23t23 -55t-23 -54t-55 -22t-54 22t-22 54zM819 1100q0 32 22 55t54 23t55 -23t23 -55t-23 -54t-55 -22t-54 22 t-22 54zM819 1305q0 32 22 54.5t54 22.5t55 -22.5t23 -54.5t-23 -54t-55 -22t-54 22t-22 54z" />
<glyph unicode="&#xb7;" d="M205 485q0 32 22 55t54 23t54.5 -23t22.5 -55t-22.5 -53.5t-54.5 -21.5t-54 21.5t-22 53.5zM205 690q0 32 22 55t54 23t54.5 -23t22.5 -55t-22.5 -54t-54.5 -22t-54 22t-22 54z" />
<glyph unicode="&#xb8;" d="M205 -334q0 32 22 55t54 23t54.5 -23t22.5 -55t-22.5 -54t-54.5 -22t-54 22t-22 54zM410 -129q0 33 21.5 55.5t53.5 22.5t55 -23t23 -55t-23 -54t-55 -22t-53.5 22t-21.5 54z" />
<glyph unicode="&#xb9;" d="M0 690q0 32 22 55t54 23t55 -23t23 -55t-23 -54t-55 -22t-54 22t-22 54zM0 1305q0 32 22 54.5t54 22.5t55 -22.5t23 -54.5t-23 -54t-55 -22t-54 22t-22 54zM205 690q0 32 22 55t54 23t54.5 -23t22.5 -55t-22.5 -54t-54.5 -22t-54 22t-22 54zM205 895q0 32 22 55t54 23 t54.5 -23t22.5 -55t-22.5 -54t-54.5 -22t-54 22t-22 54zM205 1100q0 32 22 55t54 23t54.5 -23t22.5 -55t-22.5 -54t-54.5 -22t-54 22t-22 54zM205 1305q0 32 22 54.5t54 22.5t54.5 -22.5t22.5 -54.5t-22.5 -54t-54.5 -22t-54 22t-22 54zM410 690q0 33 21.5 55.5t53.5 22.5 t55 -23t23 -55t-23 -54t-55 -22t-53.5 22t-21.5 54z" />
<glyph unicode="&#xba;" d="M0 1100q0 32 22 55t54 23t55 -23t23 -55t-23 -54t-55 -22t-54 22t-22 54zM205 895q0 32 22 55t54 23t54.5 -23t22.5 -55t-22.5 -54t-54.5 -22t-54 22t-22 54zM205 1305q0 32 22 54.5t54 22.5t54.5 -22.5t22.5 -54.5t-22.5 -54t-54.5 -22t-54 22t-22 54zM410 1100 q0 33 21.5 55.5t53.5 22.5t55 -23t23 -55t-23 -54t-55 -22t-53.5 22t-21.5 54z" />
<glyph unicode="&#xbb;" d="M0 76q0 32 22 55t54 23t55 -23t23 -55t-23 -54t-55 -22t-54 22t-22 54zM0 895q0 32 22 55t54 23t55 -23t23 -55t-23 -54t-55 -22t-54 22t-22 54zM205 281q0 32 22 54.5t54 22.5t54.5 -22.5t22.5 -54.5t-22.5 -54t-54.5 -22t-54 22t-22 54zM205 690q0 32 22 55t54 23 t54.5 -23t22.5 -55t-22.5 -54t-54.5 -22t-54 22t-22 54zM410 76q0 33 21.5 55.5t53.5 22.5t55 -23t23 -55t-23 -54t-55 -22t-53.5 22t-21.5 54zM410 485q0 33 21.5 55.5t53.5 22.5t55 -23t23 -55t-22.5 -53.5t-55.5 -21.5q-32 0 -53.5 21.5t-21.5 53.5zM410 895 q0 33 21.5 55.5t53.5 22.5t55 -23t23 -55t-23 -54t-55 -22t-53.5 22t-21.5 54zM614 281q0 32 22 54.5t54 22.5t55 -22.5t23 -54.5t-23 -54t-55 -22t-54 22t-22 54zM614 690q0 32 22 55t54 23t55 -23t23 -55t-23 -54t-55 -22t-54 22t-22 54zM819 485q0 32 22 55t54 23t55 -23 t23 -55t-22.5 -53.5t-55.5 -21.5q-32 0 -54 21.5t-22 53.5z" />
<glyph unicode="&#xbc;" d="M0 1305q0 32 22 54.5t54 22.5t55 -22.5t23 -54.5t-23 -54t-55 -22t-54 22t-22 54zM205 76q0 32 22 55t54 23t54.5 -23t22.5 -55t-22.5 -54t-54.5 -22t-54 22t-22 54zM205 281q0 32 22 54.5t54 22.5t54.5 -22.5t22.5 -54.5t-22.5 -54t-54.5 -22t-54 22t-22 54zM205 895 q0 32 22 55t54 23t54.5 -23t22.5 -55t-22.5 -54t-54.5 -22t-54 22t-22 54zM205 1100q0 32 22 55t54 23t54.5 -23t22.5 -55t-22.5 -54t-54.5 -22t-54 22t-22 54zM205 1305q0 32 22 54.5t54 22.5t54.5 -22.5t22.5 -54.5t-22.5 -54t-54.5 -22t-54 22t-22 54zM410 485 q0 33 21.5 55.5t53.5 22.5t55 -23t23 -55t-22.5 -53.5t-55.5 -21.5q-32 0 -53.5 21.5t-21.5 53.5zM410 690q0 33 21.5 55.5t53.5 22.5t55 -23t23 -55t-23 -54t-55 -22t-53.5 22t-21.5 54zM614 895q0 32 22 55t54 23t55 -23t23 -55t-23 -54t-55 -22t-54 22t-22 54zM819 485 q0 32 22 55t54 23t55 -23t23 -55t-22.5 -53.5t-55.5 -21.5q-32 0 -54 21.5t-22 53.5zM819 1100q0 32 22 55t54 23t55 -23t23 -55t-23 -54t-55 -22t-54 22t-22 54zM819 1305q0 32 22 54.5t54 22.5t55 -22.5t23 -54.5t-23 -54t-55 -22t-54 22t-22 54zM1024 76q0 32 22 55 t54 23t55 -23t23 -55t-23 -54t-55 -22t-54 22t-22 54zM1024 281q0 32 22 54.5t54 22.5t55 -22.5t23 -54.5t-23 -54t-55 -22t-54 22t-22 54zM1024 485q0 32 22 55t54 23t55 -23t23 -55t-22.5 -53.5t-55.5 -21.5q-32 0 -54 21.5t-22 53.5zM1024 690q0 32 22 55t54 23t55 -23 t23 -55t-23 -54t-55 -22t-54 22t-22 54z" />
<glyph unicode="&#xbd;" d="M0 1305q0 32 22 54.5t54 22.5t55 -22.5t23 -54.5t-23 -54t-55 -22t-54 22t-22 54zM205 76q0 32 22 55t54 23t54.5 -23t22.5 -55t-22.5 -54t-54.5 -22t-54 22t-22 54zM205 281q0 32 22 54.5t54 22.5t54.5 -22.5t22.5 -54.5t-22.5 -54t-54.5 -22t-54 22t-22 54zM205 895 q0 32 22 55t54 23t54.5 -23t22.5 -55t-22.5 -54t-54.5 -22t-54 22t-22 54zM205 1100q0 32 22 55t54 23t54.5 -23t22.5 -55t-22.5 -54t-54.5 -22t-54 22t-22 54zM205 1305q0 32 22 54.5t54 22.5t54.5 -22.5t22.5 -54.5t-22.5 -54t-54.5 -22t-54 22t-22 54zM410 485 q0 33 21.5 55.5t53.5 22.5t55 -23t23 -55t-22.5 -53.5t-55.5 -21.5q-32 0 -53.5 21.5t-21.5 53.5zM410 690q0 33 21.5 55.5t53.5 22.5t55 -23t23 -55t-23 -54t-55 -22t-53.5 22t-21.5 54zM614 895q0 32 22 55t54 23t55 -23t23 -55t-23 -54t-55 -22t-54 22t-22 54zM819 76 q0 32 22 55t54 23t55 -23t23 -55t-23 -54t-55 -22t-54 22t-22 54zM819 281q0 32 22 54.5t54 22.5t55 -22.5t23 -54.5t-23 -54t-55 -22t-54 22t-22 54zM819 690q0 32 22 55t54 23t55 -23t23 -55t-23 -54t-55 -22t-54 22t-22 54zM819 1100q0 32 22 55t54 23t55 -23t23 -55 t-23 -54t-55 -22t-54 22t-22 54zM819 1305q0 32 22 54.5t54 22.5t55 -22.5t23 -54.5t-23 -54t-55 -22t-54 22t-22 54zM1024 76q0 32 22 55t54 23t55 -23t23 -55t-23 -54t-55 -22t-54 22t-22 54zM1024 485q0 32 22 55t54 23t55 -23t23 -55t-22.5 -53.5t-55.5 -21.5 q-32 0 -54 21.5t-22 53.5z" />
<glyph unicode="&#xbe;" d="M0 690q0 32 22 55t54 23t55 -23t23 -55t-23 -54t-55 -22t-54 22t-22 54zM0 1305q0 32 22 54.5t54 22.5t55 -22.5t23 -54.5t-23 -54t-55 -22t-54 22t-22 54zM205 76q0 32 22 55t54 23t54.5 -23t22.5 -55t-22.5 -54t-54.5 -22t-54 22t-22 54zM205 281q0 32 22 54.5t54 22.5 t54.5 -22.5t22.5 -54.5t-22.5 -54t-54.5 -22t-54 22t-22 54zM205 690q0 32 22 55t54 23t54.5 -23t22.5 -55t-22.5 -54t-54.5 -22t-54 22t-22 54zM205 895q0 32 22 55t54 23t54.5 -23t22.5 -55t-22.5 -54t-54.5 -22t-54 22t-22 54zM205 1100q0 32 22 55t54 23t54.5 -23 t22.5 -55t-22.5 -54t-54.5 -22t-54 22t-22 54zM410 485q0 33 21.5 55.5t53.5 22.5t55 -23t23 -55t-22.5 -53.5t-55.5 -21.5q-32 0 -53.5 21.5t-21.5 53.5zM410 690q0 33 21.5 55.5t53.5 22.5t55 -23t23 -55t-23 -54t-55 -22t-53.5 22t-21.5 54zM614 895q0 32 22 55t54 23 t55 -23t23 -55t-23 -54t-55 -22t-54 22t-22 54zM819 485q0 32 22 55t54 23t55 -23t23 -55t-22.5 -53.5t-55.5 -21.5q-32 0 -54 21.5t-22 53.5zM819 1100q0 32 22 55t54 23t55 -23t23 -55t-23 -54t-55 -22t-54 22t-22 54zM819 1305q0 32 22 54.5t54 22.5t55 -22.5t23 -54.5 t-23 -54t-55 -22t-54 22t-22 54zM1024 76q0 32 22 55t54 23t55 -23t23 -55t-23 -54t-55 -22t-54 22t-22 54zM1024 281q0 32 22 54.5t54 22.5t55 -22.5t23 -54.5t-23 -54t-55 -22t-54 22t-22 54zM1024 485q0 32 22 55t54 23t55 -23t23 -55t-22.5 -53.5t-55.5 -21.5 q-32 0 -54 21.5t-22 53.5zM1024 690q0 32 22 55t54 23t55 -23t23 -55t-23 -54t-55 -22t-54 22t-22 54z" />
<glyph unicode="&#xbf;" d="M0 283q0 32 22.5 53.5t55.5 21.5q32 0 54 -21.5t22 -53.5t-22 -55t-54 -23t-55 23t-23 55zM0 487q0 32 23 54t55 22t54 -22t22 -54t-22 -54.5t-54 -22.5t-55 22.5t-23 54.5zM205 78q0 32 23 54t55 22t53.5 -22t21.5 -54q0 -33 -21.5 -55.5t-53.5 -22.5t-55 23t-23 55z M205 692q0 32 23 54t55 22t53.5 -22t21.5 -54q0 -33 -21.5 -55.5t-53.5 -22.5t-55 23t-23 55zM410 78q0 32 22.5 54t54.5 22t54 -22t22 -54t-22 -55t-54 -23t-54.5 23t-22.5 55zM410 692q0 32 22.5 54t54.5 22t54 -22t22 -54t-22 -55t-54 -23t-54.5 23t-22.5 55zM410 1102 q0 32 22.5 54t54.5 22t54 -22t22 -54t-22 -55t-54 -23t-54.5 23t-22.5 55zM410 1307q0 32 22.5 53.5t54.5 21.5t54 -21.5t22 -53.5t-22 -55t-54 -23t-54.5 23t-22.5 55zM614 78q0 32 23 54t55 22t54 -22t22 -54t-22 -55t-54 -23t-55 23t-23 55zM819 283q0 32 22.5 53.5 t55.5 21.5q32 0 54 -21.5t22 -53.5t-22 -55t-54 -23t-55 23t-23 55z" />
<glyph unicode="&#xc0;" d="M0 76q0 32 22 55t54 23t55 -23t23 -55t-23 -54t-55 -22t-54 22t-22 54zM0 281q0 32 22 54.5t54 22.5t55 -22.5t23 -54.5t-23 -54t-55 -22t-54 22t-22 54zM0 485q0 32 22 55t54 23t55 -23t23 -55t-22.5 -53.5t-55.5 -21.5q-32 0 -54 21.5t-22 53.5zM0 690q0 32 22 55 t54 23t55 -23t23 -55t-23 -54t-55 -22t-54 22t-22 54zM0 895q0 32 22 55t54 23t55 -23t23 -55t-23 -54t-55 -22t-54 22t-22 54zM0 1100q0 32 22 55t54 23t55 -23t23 -55t-23 -54t-55 -22t-54 22t-22 54zM205 485q0 32 22 55t54 23t54.5 -23t22.5 -55t-22.5 -53.5 t-54.5 -21.5t-54 21.5t-22 53.5zM205 1305q0 32 22 54.5t54 22.5t54.5 -22.5t22.5 -54.5t-22.5 -54t-54.5 -22t-54 22t-22 54zM205 1970q0 32 22 55t54 23t54.5 -23t22.5 -55t-22.5 -54t-54.5 -22t-54 22t-22 54zM410 485q0 33 21.5 55.5t53.5 22.5t55 -23t23 -55 t-22.5 -53.5t-55.5 -21.5q-32 0 -53.5 21.5t-21.5 53.5zM410 1305q0 32 21.5 54.5t53.5 22.5t55 -22.5t23 -54.5t-23 -54t-55 -22t-53.5 22t-21.5 54zM410 1765q0 33 21.5 55.5t53.5 22.5t55 -23t23 -55t-22.5 -53.5t-55.5 -21.5q-32 0 -53.5 21.5t-21.5 53.5zM614 485 q0 32 22 55t54 23t55 -23t23 -55t-22.5 -53.5t-55.5 -21.5q-32 0 -54 21.5t-22 53.5zM614 1305q0 32 22 54.5t54 22.5t55 -22.5t23 -54.5t-23 -54t-55 -22t-54 22t-22 54zM614 1765q0 32 22 55t54 23t55 -23t23 -55t-22.5 -53.5t-55.5 -21.5q-32 0 -54 21.5t-22 53.5z M819 76q0 32 22 55t54 23t55 -23t23 -55t-23 -54t-55 -22t-54 22t-22 54zM819 281q0 32 22 54.5t54 22.5t55 -22.5t23 -54.5t-23 -54t-55 -22t-54 22t-22 54zM819 485q0 32 22 55t54 23t55 -23t23 -55t-22.5 -53.5t-55.5 -21.5q-32 0 -54 21.5t-22 53.5zM819 690q0 32 22 55 t54 23t55 -23t23 -55t-23 -54t-55 -22t-54 22t-22 54zM819 895q0 32 22 55t54 23t55 -23t23 -55t-23 -54t-55 -22t-54 22t-22 54zM819 1100q0 32 22 55t54 23t55 -23t23 -55t-23 -54t-55 -22t-54 22t-22 54z" />
<glyph unicode="&#xc1;" d="M0 76q0 32 22 55t54 23t55 -23t23 -55t-23 -54t-55 -22t-54 22t-22 54zM0 281q0 32 22 54.5t54 22.5t55 -22.5t23 -54.5t-23 -54t-55 -22t-54 22t-22 54zM0 485q0 32 22 55t54 23t55 -23t23 -55t-22.5 -53.5t-55.5 -21.5q-32 0 -54 21.5t-22 53.5zM0 690q0 32 22 55 t54 23t55 -23t23 -55t-23 -54t-55 -22t-54 22t-22 54zM0 895q0 32 22 55t54 23t55 -23t23 -55t-23 -54t-55 -22t-54 22t-22 54zM0 1100q0 32 22 55t54 23t55 -23t23 -55t-23 -54t-55 -22t-54 22t-22 54zM205 485q0 32 22 55t54 23t54.5 -23t22.5 -55t-22.5 -53.5 t-54.5 -21.5t-54 21.5t-22 53.5zM205 1305q0 32 22 54.5t54 22.5t54.5 -22.5t22.5 -54.5t-22.5 -54t-54.5 -22t-54 22t-22 54zM205 1765q0 32 22 55t54 23t54.5 -23t22.5 -55t-22.5 -53.5t-54.5 -21.5t-54 21.5t-22 53.5zM410 485q0 33 21.5 55.5t53.5 22.5t55 -23t23 -55 t-22.5 -53.5t-55.5 -21.5q-32 0 -53.5 21.5t-21.5 53.5zM410 1305q0 32 21.5 54.5t53.5 22.5t55 -22.5t23 -54.5t-23 -54t-55 -22t-53.5 22t-21.5 54zM410 1765q0 33 21.5 55.5t53.5 22.5t55 -23t23 -55t-22.5 -53.5t-55.5 -21.5q-32 0 -53.5 21.5t-21.5 53.5zM614 485 q0 32 22 55t54 23t55 -23t23 -55t-22.5 -53.5t-55.5 -21.5q-32 0 -54 21.5t-22 53.5zM614 1305q0 32 22 54.5t54 22.5t55 -22.5t23 -54.5t-23 -54t-55 -22t-54 22t-22 54zM614 1970q0 32 22 55t54 23t55 -23t23 -55t-23 -54t-55 -22t-54 22t-22 54zM819 76q0 32 22 55t54 23 t55 -23t23 -55t-23 -54t-55 -22t-54 22t-22 54zM819 281q0 32 22 54.5t54 22.5t55 -22.5t23 -54.5t-23 -54t-55 -22t-54 22t-22 54zM819 485q0 32 22 55t54 23t55 -23t23 -55t-22.5 -53.5t-55.5 -21.5q-32 0 -54 21.5t-22 53.5zM819 690q0 32 22 55t54 23t55 -23t23 -55 t-23 -54t-55 -22t-54 22t-22 54zM819 895q0 32 22 55t54 23t55 -23t23 -55t-23 -54t-55 -22t-54 22t-22 54zM819 1100q0 32 22 55t54 23t55 -23t23 -55t-23 -54t-55 -22t-54 22t-22 54z" />
<glyph unicode="&#xc2;" d="M0 76q0 32 22 55t54 23t55 -23t23 -55t-23 -54t-55 -22t-54 22t-22 54zM0 281q0 32 22 54.5t54 22.5t55 -22.5t23 -54.5t-23 -54t-55 -22t-54 22t-22 54zM0 485q0 32 22 55t54 23t55 -23t23 -55t-22.5 -53.5t-55.5 -21.5q-32 0 -54 21.5t-22 53.5zM0 690q0 32 22 55 t54 23t55 -23t23 -55t-23 -54t-55 -22t-54 22t-22 54zM0 895q0 32 22 55t54 23t55 -23t23 -55t-23 -54t-55 -22t-54 22t-22 54zM0 1100q0 32 22 55t54 23t55 -23t23 -55t-23 -54t-55 -22t-54 22t-22 54zM205 485q0 32 22 55t54 23t54.5 -23t22.5 -55t-22.5 -53.5 t-54.5 -21.5t-54 21.5t-22 53.5zM205 1305q0 32 22 54.5t54 22.5t54.5 -22.5t22.5 -54.5t-22.5 -54t-54.5 -22t-54 22t-22 54zM205 1765q0 32 22 55t54 23t54.5 -23t22.5 -55t-22.5 -53.5t-54.5 -21.5t-54 21.5t-22 53.5zM410 485q0 33 21.5 55.5t53.5 22.5t55 -23t23 -55 t-22.5 -53.5t-55.5 -21.5q-32 0 -53.5 21.5t-21.5 53.5zM410 1305q0 32 21.5 54.5t53.5 22.5t55 -22.5t23 -54.5t-23 -54t-55 -22t-53.5 22t-21.5 54zM410 1970q0 33 21.5 55.5t53.5 22.5t55 -23t23 -55t-23 -54t-55 -22t-53.5 22t-21.5 54zM614 485q0 32 22 55t54 23 t55 -23t23 -55t-22.5 -53.5t-55.5 -21.5q-32 0 -54 21.5t-22 53.5zM614 1305q0 32 22 54.5t54 22.5t55 -22.5t23 -54.5t-23 -54t-55 -22t-54 22t-22 54zM614 1765q0 32 22 55t54 23t55 -23t23 -55t-22.5 -53.5t-55.5 -21.5q-32 0 -54 21.5t-22 53.5zM819 76q0 32 22 55 t54 23t55 -23t23 -55t-23 -54t-55 -22t-54 22t-22 54zM819 281q0 32 22 54.5t54 22.5t55 -22.5t23 -54.5t-23 -54t-55 -22t-54 22t-22 54zM819 485q0 32 22 55t54 23t55 -23t23 -55t-22.5 -53.5t-55.5 -21.5q-32 0 -54 21.5t-22 53.5zM819 690q0 32 22 55t54 23t55 -23 t23 -55t-23 -54t-55 -22t-54 22t-22 54zM819 895q0 32 22 55t54 23t55 -23t23 -55t-23 -54t-55 -22t-54 22t-22 54zM819 1100q0 32 22 55t54 23t55 -23t23 -55t-23 -54t-55 -22t-54 22t-22 54z" />
<glyph unicode="&#xc3;" d="M0 76q0 32 22 55t54 23t55 -23t23 -55t-23 -54t-55 -22t-54 22t-22 54zM0 281q0 32 22 54.5t54 22.5t55 -22.5t23 -54.5t-23 -54t-55 -22t-54 22t-22 54zM0 485q0 32 22 55t54 23t55 -23t23 -55t-22.5 -53.5t-55.5 -21.5q-32 0 -54 21.5t-22 53.5zM0 690q0 32 22 55 t54 23t55 -23t23 -55t-23 -54t-55 -22t-54 22t-22 54zM0 895q0 32 22 55t54 23t55 -23t23 -55t-23 -54t-55 -22t-54 22t-22 54zM0 1100q0 32 22 55t54 23t55 -23t23 -55t-23 -54t-55 -22t-54 22t-22 54zM0 1765q0 32 22 55t54 23t55 -23t23 -55t-22.5 -53.5t-55.5 -21.5 q-32 0 -54 21.5t-22 53.5zM205 485q0 32 22 55t54 23t54.5 -23t22.5 -55t-22.5 -53.5t-54.5 -21.5t-54 21.5t-22 53.5zM205 1305q0 32 22 54.5t54 22.5t54.5 -22.5t22.5 -54.5t-22.5 -54t-54.5 -22t-54 22t-22 54zM205 1970q0 32 22 55t54 23t54.5 -23t22.5 -55t-22.5 -54 t-54.5 -22t-54 22t-22 54zM410 485q0 33 21.5 55.5t53.5 22.5t55 -23t23 -55t-22.5 -53.5t-55.5 -21.5q-32 0 -53.5 21.5t-21.5 53.5zM410 1305q0 32 21.5 54.5t53.5 22.5t55 -22.5t23 -54.5t-23 -54t-55 -22t-53.5 22t-21.5 54zM410 1765q0 33 21.5 55.5t53.5 22.5t55 -23 t23 -55t-22.5 -53.5t-55.5 -21.5q-32 0 -53.5 21.5t-21.5 53.5zM614 485q0 32 22 55t54 23t55 -23t23 -55t-22.5 -53.5t-55.5 -21.5q-32 0 -54 21.5t-22 53.5zM614 1305q0 32 22 54.5t54 22.5t55 -22.5t23 -54.5t-23 -54t-55 -22t-54 22t-22 54zM614 1765q0 32 22 55t54 23 t55 -23t23 -55t-22.5 -53.5t-55.5 -21.5q-32 0 -54 21.5t-22 53.5zM819 76q0 32 22 55t54 23t55 -23t23 -55t-23 -54t-55 -22t-54 22t-22 54zM819 281q0 32 22 54.5t54 22.5t55 -22.5t23 -54.5t-23 -54t-55 -22t-54 22t-22 54zM819 485q0 32 22 55t54 23t55 -23t23 -55 t-22.5 -53.5t-55.5 -21.5q-32 0 -54 21.5t-22 53.5zM819 690q0 32 22 55t54 23t55 -23t23 -55t-23 -54t-55 -22t-54 22t-22 54zM819 895q0 32 22 55t54 23t55 -23t23 -55t-23 -54t-55 -22t-54 22t-22 54zM819 1100q0 32 22 55t54 23t55 -23t23 -55t-23 -54t-55 -22t-54 22 t-22 54zM819 1970q0 32 22 55t54 23t55 -23t23 -55t-23 -54t-55 -22t-54 22t-22 54z" />
<glyph unicode="&#xc4;" d="M0 76q0 32 22 55t54 23t55 -23t23 -55t-23 -54t-55 -22t-54 22t-22 54zM0 281q0 32 22 54.5t54 22.5t55 -22.5t23 -54.5t-23 -54t-55 -22t-54 22t-22 54zM0 485q0 32 22 55t54 23t55 -23t23 -55t-22.5 -53.5t-55.5 -21.5q-32 0 -54 21.5t-22 53.5zM0 690q0 32 22 55 t54 23t55 -23t23 -55t-23 -54t-55 -22t-54 22t-22 54zM0 895q0 32 22 55t54 23t55 -23t23 -55t-23 -54t-55 -22t-54 22t-22 54zM0 1100q0 32 22 55t54 23t55 -23t23 -55t-23 -54t-55 -22t-54 22t-22 54zM0 1765q0 32 22 55t54 23t55 -23t23 -55t-22.5 -53.5t-55.5 -21.5 q-32 0 -54 21.5t-22 53.5zM0 1970q0 32 22 55t54 23t55 -23t23 -55t-23 -54t-55 -22t-54 22t-22 54zM205 485q0 32 22 55t54 23t54.5 -23t22.5 -55t-22.5 -53.5t-54.5 -21.5t-54 21.5t-22 53.5zM205 1305q0 32 22 54.5t54 22.5t54.5 -22.5t22.5 -54.5t-22.5 -54t-54.5 -22 t-54 22t-22 54zM410 485q0 33 21.5 55.5t53.5 22.5t55 -23t23 -55t-22.5 -53.5t-55.5 -21.5q-32 0 -53.5 21.5t-21.5 53.5zM410 1305q0 32 21.5 54.5t53.5 22.5t55 -22.5t23 -54.5t-23 -54t-55 -22t-53.5 22t-21.5 54zM614 485q0 32 22 55t54 23t55 -23t23 -55t-22.5 -53.5 t-55.5 -21.5q-32 0 -54 21.5t-22 53.5zM614 1305q0 32 22 54.5t54 22.5t55 -22.5t23 -54.5t-23 -54t-55 -22t-54 22t-22 54zM819 76q0 32 22 55t54 23t55 -23t23 -55t-23 -54t-55 -22t-54 22t-22 54zM819 281q0 32 22 54.5t54 22.5t55 -22.5t23 -54.5t-23 -54t-55 -22 t-54 22t-22 54zM819 485q0 32 22 55t54 23t55 -23t23 -55t-22.5 -53.5t-55.5 -21.5q-32 0 -54 21.5t-22 53.5zM819 690q0 32 22 55t54 23t55 -23t23 -55t-23 -54t-55 -22t-54 22t-22 54zM819 895q0 32 22 55t54 23t55 -23t23 -55t-23 -54t-55 -22t-54 22t-22 54zM819 1100 q0 32 22 55t54 23t55 -23t23 -55t-23 -54t-55 -22t-54 22t-22 54zM819 1765q0 32 22 55t54 23t55 -23t23 -55t-22.5 -53.5t-55.5 -21.5q-32 0 -54 21.5t-22 53.5zM819 1970q0 32 22 55t54 23t55 -23t23 -55t-23 -54t-55 -22t-54 22t-22 54z" />
<glyph unicode="&#xc5;" d="M0 76q0 32 22 55t54 23t55 -23t23 -55t-23 -54t-55 -22t-54 22t-22 54zM0 281q0 32 22 54.5t54 22.5t55 -22.5t23 -54.5t-23 -54t-55 -22t-54 22t-22 54zM0 485q0 32 22 55t54 23t55 -23t23 -55t-22.5 -53.5t-55.5 -21.5q-32 0 -54 21.5t-22 53.5zM0 690q0 32 22 55 t54 23t55 -23t23 -55t-23 -54t-55 -22t-54 22t-22 54zM0 895q0 32 22 55t54 23t55 -23t23 -55t-23 -54t-55 -22t-54 22t-22 54zM0 1100q0 32 22 55t54 23t55 -23t23 -55t-23 -54t-55 -22t-54 22t-22 54zM205 485q0 32 22 55t54 23t54.5 -23t22.5 -55t-22.5 -53.5 t-54.5 -21.5t-54 21.5t-22 53.5zM205 1305q0 32 22 54.5t54 22.5t54.5 -22.5t22.5 -54.5t-22.5 -54t-54.5 -22t-54 22t-22 54zM205 1970q0 32 22 55t54 23t54.5 -23t22.5 -55t-22.5 -54t-54.5 -22t-54 22t-22 54zM410 485q0 33 21.5 55.5t53.5 22.5t55 -23t23 -55 t-22.5 -53.5t-55.5 -21.5q-32 0 -53.5 21.5t-21.5 53.5zM410 1305q0 32 21.5 54.5t53.5 22.5t55 -22.5t23 -54.5t-23 -54t-55 -22t-53.5 22t-21.5 54zM410 1765q0 33 21.5 55.5t53.5 22.5t55 -23t23 -55t-22.5 -53.5t-55.5 -21.5q-32 0 -53.5 21.5t-21.5 53.5zM410 2175 q0 33 21.5 55.5t53.5 22.5t55 -23t23 -55t-23 -54t-55 -22t-53.5 22t-21.5 54zM614 485q0 32 22 55t54 23t55 -23t23 -55t-22.5 -53.5t-55.5 -21.5q-32 0 -54 21.5t-22 53.5zM614 1305q0 32 22 54.5t54 22.5t55 -22.5t23 -54.5t-23 -54t-55 -22t-54 22t-22 54zM614 1970 q0 32 22 55t54 23t55 -23t23 -55t-23 -54t-55 -22t-54 22t-22 54zM819 76q0 32 22 55t54 23t55 -23t23 -55t-23 -54t-55 -22t-54 22t-22 54zM819 281q0 32 22 54.5t54 22.5t55 -22.5t23 -54.5t-23 -54t-55 -22t-54 22t-22 54zM819 485q0 32 22 55t54 23t55 -23t23 -55 t-22.5 -53.5t-55.5 -21.5q-32 0 -54 21.5t-22 53.5zM819 690q0 32 22 55t54 23t55 -23t23 -55t-23 -54t-55 -22t-54 22t-22 54zM819 895q0 32 22 55t54 23t55 -23t23 -55t-23 -54t-55 -22t-54 22t-22 54zM819 1100q0 32 22 55t54 23t55 -23t23 -55t-23 -54t-55 -22t-54 22 t-22 54z" />
<glyph unicode="&#xc6;" d="M0 76q0 32 22 55t54 23t55 -23t23 -55t-23 -54t-55 -22t-54 22t-22 54zM0 281q0 32 22 54.5t54 22.5t55 -22.5t23 -54.5t-23 -54t-55 -22t-54 22t-22 54zM0 485q0 32 22 55t54 23t55 -23t23 -55t-22.5 -53.5t-55.5 -21.5q-32 0 -54 21.5t-22 53.5zM0 690q0 32 22 55 t54 23t55 -23t23 -55t-23 -54t-55 -22t-54 22t-22 54zM0 895q0 32 22 55t54 23t55 -23t23 -55t-23 -54t-55 -22t-54 22t-22 54zM0 1100q0 32 22 55t54 23t55 -23t23 -55t-23 -54t-55 -22t-54 22t-22 54zM205 485q0 32 22 55t54 23t54.5 -23t22.5 -55t-22.5 -53.5 t-54.5 -21.5t-54 21.5t-22 53.5zM205 1305q0 32 22 54.5t54 22.5t54.5 -22.5t22.5 -54.5t-22.5 -54t-54.5 -22t-54 22t-22 54zM410 76q0 33 21.5 55.5t53.5 22.5t55 -23t23 -55t-23 -54t-55 -22t-53.5 22t-21.5 54zM410 281q0 32 21.5 54.5t53.5 22.5t55 -22.5t23 -54.5 t-23 -54t-55 -22t-53.5 22t-21.5 54zM410 485q0 33 21.5 55.5t53.5 22.5t55 -23t23 -55t-22.5 -53.5t-55.5 -21.5q-32 0 -53.5 21.5t-21.5 53.5zM410 690q0 33 21.5 55.5t53.5 22.5t55 -23t23 -55t-23 -54t-55 -22t-53.5 22t-21.5 54zM410 895q0 33 21.5 55.5t53.5 22.5 t55 -23t23 -55t-23 -54t-55 -22t-53.5 22t-21.5 54zM410 1100q0 33 21.5 55.5t53.5 22.5t55 -23t23 -55t-23 -54t-55 -22t-53.5 22t-21.5 54zM410 1305q0 32 21.5 54.5t53.5 22.5t55 -22.5t23 -54.5t-23 -54t-55 -22t-53.5 22t-21.5 54zM614 76q0 32 22 55t54 23t55 -23 t23 -55t-23 -54t-55 -22t-54 22t-22 54zM614 690q0 32 22 55t54 23t55 -23t23 -55t-23 -54t-55 -22t-54 22t-22 54zM614 1305q0 32 22 54.5t54 22.5t55 -22.5t23 -54.5t-23 -54t-55 -22t-54 22t-22 54zM819 76q0 32 22 55t54 23t55 -23t23 -55t-23 -54t-55 -22t-54 22 t-22 54zM819 1305q0 32 22 54.5t54 22.5t55 -22.5t23 -54.5t-23 -54t-55 -22t-54 22t-22 54z" />
<glyph unicode="&#xc7;" d="M0 281q0 32 22 54.5t54 22.5t55 -22.5t23 -54.5t-23 -54t-55 -22t-54 22t-22 54zM0 485q0 32 22 55t54 23t55 -23t23 -55t-22.5 -53.5t-55.5 -21.5q-32 0 -54 21.5t-22 53.5zM0 690q0 32 22 55t54 23t55 -23t23 -55t-23 -54t-55 -22t-54 22t-22 54zM0 895q0 32 22 55 t54 23t55 -23t23 -55t-23 -54t-55 -22t-54 22t-22 54zM0 1100q0 32 22 55t54 23t55 -23t23 -55t-23 -54t-55 -22t-54 22t-22 54zM205 76q0 32 22 55t54 23t54.5 -23t22.5 -55t-22.5 -54t-54.5 -22t-54 22t-22 54zM205 -334q0 32 22 55t54 23t54.5 -23t22.5 -55t-22.5 -54 t-54.5 -22t-54 22t-22 54zM205 1305q0 32 22 54.5t54 22.5t54.5 -22.5t22.5 -54.5t-22.5 -54t-54.5 -22t-54 22t-22 54zM410 76q0 33 21.5 55.5t53.5 22.5t55 -23t23 -55t-23 -54t-55 -22t-53.5 22t-21.5 54zM410 -129q0 33 21.5 55.5t53.5 22.5t55 -23t23 -55t-23 -54 t-55 -22t-53.5 22t-21.5 54zM410 1305q0 32 21.5 54.5t53.5 22.5t55 -22.5t23 -54.5t-23 -54t-55 -22t-53.5 22t-21.5 54zM614 76q0 32 22 55t54 23t55 -23t23 -55t-23 -54t-55 -22t-54 22t-22 54zM614 1305q0 32 22 54.5t54 22.5t55 -22.5t23 -54.5t-23 -54t-55 -22t-54 22 t-22 54zM819 281q0 32 22 54.5t54 22.5t55 -22.5t23 -54.5t-23 -54t-55 -22t-54 22t-22 54zM819 1100q0 32 22 55t54 23t55 -23t23 -55t-23 -54t-55 -22t-54 22t-22 54z" />
<glyph unicode="&#xc8;" d="M0 76q0 32 22 55t54 23t55 -23t23 -55t-23 -54t-55 -22t-54 22t-22 54zM0 281q0 32 22 54.5t54 22.5t55 -22.5t23 -54.5t-23 -54t-55 -22t-54 22t-22 54zM0 485q0 32 22 55t54 23t55 -23t23 -55t-22.5 -53.5t-55.5 -21.5q-32 0 -54 21.5t-22 53.5zM0 690q0 32 22 55 t54 23t55 -23t23 -55t-23 -54t-55 -22t-54 22t-22 54zM0 895q0 32 22 55t54 23t55 -23t23 -55t-23 -54t-55 -22t-54 22t-22 54zM0 1100q0 32 22 55t54 23t55 -23t23 -55t-23 -54t-55 -22t-54 22t-22 54zM0 1305q0 32 22 54.5t54 22.5t55 -22.5t23 -54.5t-23 -54t-55 -22 t-54 22t-22 54zM205 76q0 32 22 55t54 23t54.5 -23t22.5 -55t-22.5 -54t-54.5 -22t-54 22t-22 54zM205 690q0 32 22 55t54 23t54.5 -23t22.5 -55t-22.5 -54t-54.5 -22t-54 22t-22 54zM205 1305q0 32 22 54.5t54 22.5t54.5 -22.5t22.5 -54.5t-22.5 -54t-54.5 -22t-54 22 t-22 54zM205 1970q0 32 22 55t54 23t54.5 -23t22.5 -55t-22.5 -54t-54.5 -22t-54 22t-22 54zM410 76q0 33 21.5 55.5t53.5 22.5t55 -23t23 -55t-23 -54t-55 -22t-53.5 22t-21.5 54zM410 690q0 33 21.5 55.5t53.5 22.5t55 -23t23 -55t-23 -54t-55 -22t-53.5 22t-21.5 54z M410 1305q0 32 21.5 54.5t53.5 22.5t55 -22.5t23 -54.5t-23 -54t-55 -22t-53.5 22t-21.5 54zM410 1765q0 33 21.5 55.5t53.5 22.5t55 -23t23 -55t-22.5 -53.5t-55.5 -21.5q-32 0 -53.5 21.5t-21.5 53.5zM614 76q0 32 22 55t54 23t55 -23t23 -55t-23 -54t-55 -22t-54 22 t-22 54zM614 690q0 32 22 55t54 23t55 -23t23 -55t-23 -54t-55 -22t-54 22t-22 54zM614 1305q0 32 22 54.5t54 22.5t55 -22.5t23 -54.5t-23 -54t-55 -22t-54 22t-22 54zM614 1765q0 32 22 55t54 23t55 -23t23 -55t-22.5 -53.5t-55.5 -21.5q-32 0 -54 21.5t-22 53.5zM819 76 q0 32 22 55t54 23t55 -23t23 -55t-23 -54t-55 -22t-54 22t-22 54zM819 1305q0 32 22 54.5t54 22.5t55 -22.5t23 -54.5t-23 -54t-55 -22t-54 22t-22 54z" />
<glyph unicode="&#xc9;" d="M0 76q0 32 22 55t54 23t55 -23t23 -55t-23 -54t-55 -22t-54 22t-22 54zM0 281q0 32 22 54.5t54 22.5t55 -22.5t23 -54.5t-23 -54t-55 -22t-54 22t-22 54zM0 485q0 32 22 55t54 23t55 -23t23 -55t-22.5 -53.5t-55.5 -21.5q-32 0 -54 21.5t-22 53.5zM0 690q0 32 22 55 t54 23t55 -23t23 -55t-23 -54t-55 -22t-54 22t-22 54zM0 895q0 32 22 55t54 23t55 -23t23 -55t-23 -54t-55 -22t-54 22t-22 54zM0 1100q0 32 22 55t54 23t55 -23t23 -55t-23 -54t-55 -22t-54 22t-22 54zM0 1305q0 32 22 54.5t54 22.5t55 -22.5t23 -54.5t-23 -54t-55 -22 t-54 22t-22 54zM205 76q0 32 22 55t54 23t54.5 -23t22.5 -55t-22.5 -54t-54.5 -22t-54 22t-22 54zM205 690q0 32 22 55t54 23t54.5 -23t22.5 -55t-22.5 -54t-54.5 -22t-54 22t-22 54zM205 1305q0 32 22 54.5t54 22.5t54.5 -22.5t22.5 -54.5t-22.5 -54t-54.5 -22t-54 22 t-22 54zM205 1765q0 32 22 55t54 23t54.5 -23t22.5 -55t-22.5 -53.5t-54.5 -21.5t-54 21.5t-22 53.5zM410 76q0 33 21.5 55.5t53.5 22.5t55 -23t23 -55t-23 -54t-55 -22t-53.5 22t-21.5 54zM410 690q0 33 21.5 55.5t53.5 22.5t55 -23t23 -55t-23 -54t-55 -22t-53.5 22 t-21.5 54zM410 1305q0 32 21.5 54.5t53.5 22.5t55 -22.5t23 -54.5t-23 -54t-55 -22t-53.5 22t-21.5 54zM410 1765q0 33 21.5 55.5t53.5 22.5t55 -23t23 -55t-22.5 -53.5t-55.5 -21.5q-32 0 -53.5 21.5t-21.5 53.5zM614 76q0 32 22 55t54 23t55 -23t23 -55t-23 -54t-55 -22 t-54 22t-22 54zM614 690q0 32 22 55t54 23t55 -23t23 -55t-23 -54t-55 -22t-54 22t-22 54zM614 1305q0 32 22 54.5t54 22.5t55 -22.5t23 -54.5t-23 -54t-55 -22t-54 22t-22 54zM614 1970q0 32 22 55t54 23t55 -23t23 -55t-23 -54t-55 -22t-54 22t-22 54zM819 76q0 32 22 55 t54 23t55 -23t23 -55t-23 -54t-55 -22t-54 22t-22 54zM819 1305q0 32 22 54.5t54 22.5t55 -22.5t23 -54.5t-23 -54t-55 -22t-54 22t-22 54z" />
<glyph unicode="&#xca;" d="M0 76q0 32 22 55t54 23t55 -23t23 -55t-23 -54t-55 -22t-54 22t-22 54zM0 281q0 32 22 54.5t54 22.5t55 -22.5t23 -54.5t-23 -54t-55 -22t-54 22t-22 54zM0 485q0 32 22 55t54 23t55 -23t23 -55t-22.5 -53.5t-55.5 -21.5q-32 0 -54 21.5t-22 53.5zM0 690q0 32 22 55 t54 23t55 -23t23 -55t-23 -54t-55 -22t-54 22t-22 54zM0 895q0 32 22 55t54 23t55 -23t23 -55t-23 -54t-55 -22t-54 22t-22 54zM0 1100q0 32 22 55t54 23t55 -23t23 -55t-23 -54t-55 -22t-54 22t-22 54zM0 1305q0 32 22 54.5t54 22.5t55 -22.5t23 -54.5t-23 -54t-55 -22 t-54 22t-22 54zM205 76q0 32 22 55t54 23t54.5 -23t22.5 -55t-22.5 -54t-54.5 -22t-54 22t-22 54zM205 690q0 32 22 55t54 23t54.5 -23t22.5 -55t-22.5 -54t-54.5 -22t-54 22t-22 54zM205 1305q0 32 22 54.5t54 22.5t54.5 -22.5t22.5 -54.5t-22.5 -54t-54.5 -22t-54 22 t-22 54zM205 1765q0 32 22 55t54 23t54.5 -23t22.5 -55t-22.5 -53.5t-54.5 -21.5t-54 21.5t-22 53.5zM410 76q0 33 21.5 55.5t53.5 22.5t55 -23t23 -55t-23 -54t-55 -22t-53.5 22t-21.5 54zM410 690q0 33 21.5 55.5t53.5 22.5t55 -23t23 -55t-23 -54t-55 -22t-53.5 22 t-21.5 54zM410 1305q0 32 21.5 54.5t53.5 22.5t55 -22.5t23 -54.5t-23 -54t-55 -22t-53.5 22t-21.5 54zM410 1970q0 33 21.5 55.5t53.5 22.5t55 -23t23 -55t-23 -54t-55 -22t-53.5 22t-21.5 54zM614 76q0 32 22 55t54 23t55 -23t23 -55t-23 -54t-55 -22t-54 22t-22 54z M614 690q0 32 22 55t54 23t55 -23t23 -55t-23 -54t-55 -22t-54 22t-22 54zM614 1305q0 32 22 54.5t54 22.5t55 -22.5t23 -54.5t-23 -54t-55 -22t-54 22t-22 54zM614 1765q0 32 22 55t54 23t55 -23t23 -55t-22.5 -53.5t-55.5 -21.5q-32 0 -54 21.5t-22 53.5zM819 76 q0 32 22 55t54 23t55 -23t23 -55t-23 -54t-55 -22t-54 22t-22 54zM819 1305q0 32 22 54.5t54 22.5t55 -22.5t23 -54.5t-23 -54t-55 -22t-54 22t-22 54z" />
<glyph unicode="&#xcb;" d="M0 76q0 32 22 55t54 23t55 -23t23 -55t-23 -54t-55 -22t-54 22t-22 54zM0 281q0 32 22 54.5t54 22.5t55 -22.5t23 -54.5t-23 -54t-55 -22t-54 22t-22 54zM0 485q0 32 22 55t54 23t55 -23t23 -55t-22.5 -53.5t-55.5 -21.5q-32 0 -54 21.5t-22 53.5zM0 690q0 32 22 55 t54 23t55 -23t23 -55t-23 -54t-55 -22t-54 22t-22 54zM0 895q0 32 22 55t54 23t55 -23t23 -55t-23 -54t-55 -22t-54 22t-22 54zM0 1100q0 32 22 55t54 23t55 -23t23 -55t-23 -54t-55 -22t-54 22t-22 54zM0 1305q0 32 22 54.5t54 22.5t55 -22.5t23 -54.5t-23 -54t-55 -22 t-54 22t-22 54zM0 1765q0 32 22 55t54 23t55 -23t23 -55t-22.5 -53.5t-55.5 -21.5q-32 0 -54 21.5t-22 53.5zM0 1970q0 32 22 55t54 23t55 -23t23 -55t-23 -54t-55 -22t-54 22t-22 54zM205 76q0 32 22 55t54 23t54.5 -23t22.5 -55t-22.5 -54t-54.5 -22t-54 22t-22 54z M205 690q0 32 22 55t54 23t54.5 -23t22.5 -55t-22.5 -54t-54.5 -22t-54 22t-22 54zM205 1305q0 32 22 54.5t54 22.5t54.5 -22.5t22.5 -54.5t-22.5 -54t-54.5 -22t-54 22t-22 54zM410 76q0 33 21.5 55.5t53.5 22.5t55 -23t23 -55t-23 -54t-55 -22t-53.5 22t-21.5 54zM410 690 q0 33 21.5 55.5t53.5 22.5t55 -23t23 -55t-23 -54t-55 -22t-53.5 22t-21.5 54zM410 1305q0 32 21.5 54.5t53.5 22.5t55 -22.5t23 -54.5t-23 -54t-55 -22t-53.5 22t-21.5 54zM614 76q0 32 22 55t54 23t55 -23t23 -55t-23 -54t-55 -22t-54 22t-22 54zM614 690q0 32 22 55 t54 23t55 -23t23 -55t-23 -54t-55 -22t-54 22t-22 54zM614 1305q0 32 22 54.5t54 22.5t55 -22.5t23 -54.5t-23 -54t-55 -22t-54 22t-22 54zM819 76q0 32 22 55t54 23t55 -23t23 -55t-23 -54t-55 -22t-54 22t-22 54zM819 1305q0 32 22 54.5t54 22.5t55 -22.5t23 -54.5 t-23 -54t-55 -22t-54 22t-22 54zM819 1765q0 32 22 55t54 23t55 -23t23 -55t-22.5 -53.5t-55.5 -21.5q-32 0 -54 21.5t-22 53.5zM819 1970q0 32 22 55t54 23t55 -23t23 -55t-23 -54t-55 -22t-54 22t-22 54z" />
<glyph unicode="&#xcc;" d="M0 76q0 32 22 55t54 23t55 -23t23 -55t-23 -54t-55 -22t-54 22t-22 54zM0 1305q0 32 22 54.5t54 22.5t55 -22.5t23 -54.5t-23 -54t-55 -22t-54 22t-22 54zM205 76q0 32 22 55t54 23t54.5 -23t22.5 -55t-22.5 -54t-54.5 -22t-54 22t-22 54zM205 1305q0 32 22 54.5t54 22.5 t54.5 -22.5t22.5 -54.5t-22.5 -54t-54.5 -22t-54 22t-22 54zM205 1970q0 32 22 55t54 23t54.5 -23t22.5 -55t-22.5 -54t-54.5 -22t-54 22t-22 54zM410 76q0 33 21.5 55.5t53.5 22.5t55 -23t23 -55t-23 -54t-55 -22t-53.5 22t-21.5 54zM410 281q0 32 21.5 54.5t53.5 22.5 t55 -22.5t23 -54.5t-23 -54t-55 -22t-53.5 22t-21.5 54zM410 485q0 33 21.5 55.5t53.5 22.5t55 -23t23 -55t-22.5 -53.5t-55.5 -21.5q-32 0 -53.5 21.5t-21.5 53.5zM410 690q0 33 21.5 55.5t53.5 22.5t55 -23t23 -55t-23 -54t-55 -22t-53.5 22t-21.5 54zM410 895 q0 33 21.5 55.5t53.5 22.5t55 -23t23 -55t-23 -54t-55 -22t-53.5 22t-21.5 54zM410 1100q0 33 21.5 55.5t53.5 22.5t55 -23t23 -55t-23 -54t-55 -22t-53.5 22t-21.5 54zM410 1305q0 32 21.5 54.5t53.5 22.5t55 -22.5t23 -54.5t-23 -54t-55 -22t-53.5 22t-21.5 54zM410 1765 q0 33 21.5 55.5t53.5 22.5t55 -23t23 -55t-22.5 -53.5t-55.5 -21.5q-32 0 -53.5 21.5t-21.5 53.5zM614 76q0 32 22 55t54 23t55 -23t23 -55t-23 -54t-55 -22t-54 22t-22 54zM614 1305q0 32 22 54.5t54 22.5t55 -22.5t23 -54.5t-23 -54t-55 -22t-54 22t-22 54zM614 1765 q0 32 22 55t54 23t55 -23t23 -55t-22.5 -53.5t-55.5 -21.5q-32 0 -54 21.5t-22 53.5zM819 76q0 32 22 55t54 23t55 -23t23 -55t-23 -54t-55 -22t-54 22t-22 54zM819 1305q0 32 22 54.5t54 22.5t55 -22.5t23 -54.5t-23 -54t-55 -22t-54 22t-22 54z" />
<glyph unicode="&#xcd;" d="M0 76q0 32 22 55t54 23t55 -23t23 -55t-23 -54t-55 -22t-54 22t-22 54zM0 1305q0 32 22 54.5t54 22.5t55 -22.5t23 -54.5t-23 -54t-55 -22t-54 22t-22 54zM205 76q0 32 22 55t54 23t54.5 -23t22.5 -55t-22.5 -54t-54.5 -22t-54 22t-22 54zM205 1305q0 32 22 54.5t54 22.5 t54.5 -22.5t22.5 -54.5t-22.5 -54t-54.5 -22t-54 22t-22 54zM205 1765q0 32 22 55t54 23t54.5 -23t22.5 -55t-22.5 -53.5t-54.5 -21.5t-54 21.5t-22 53.5zM410 76q0 33 21.5 55.5t53.5 22.5t55 -23t23 -55t-23 -54t-55 -22t-53.5 22t-21.5 54zM410 281q0 32 21.5 54.5 t53.5 22.5t55 -22.5t23 -54.5t-23 -54t-55 -22t-53.5 22t-21.5 54zM410 485q0 33 21.5 55.5t53.5 22.5t55 -23t23 -55t-22.5 -53.5t-55.5 -21.5q-32 0 -53.5 21.5t-21.5 53.5zM410 690q0 33 21.5 55.5t53.5 22.5t55 -23t23 -55t-23 -54t-55 -22t-53.5 22t-21.5 54zM410 895 q0 33 21.5 55.5t53.5 22.5t55 -23t23 -55t-23 -54t-55 -22t-53.5 22t-21.5 54zM410 1100q0 33 21.5 55.5t53.5 22.5t55 -23t23 -55t-23 -54t-55 -22t-53.5 22t-21.5 54zM410 1305q0 32 21.5 54.5t53.5 22.5t55 -22.5t23 -54.5t-23 -54t-55 -22t-53.5 22t-21.5 54zM410 1765 q0 33 21.5 55.5t53.5 22.5t55 -23t23 -55t-22.5 -53.5t-55.5 -21.5q-32 0 -53.5 21.5t-21.5 53.5zM614 76q0 32 22 55t54 23t55 -23t23 -55t-23 -54t-55 -22t-54 22t-22 54zM614 1305q0 32 22 54.5t54 22.5t55 -22.5t23 -54.5t-23 -54t-55 -22t-54 22t-22 54zM614 1970 q0 32 22 55t54 23t55 -23t23 -55t-23 -54t-55 -22t-54 22t-22 54zM819 76q0 32 22 55t54 23t55 -23t23 -55t-23 -54t-55 -22t-54 22t-22 54zM819 1305q0 32 22 54.5t54 22.5t55 -22.5t23 -54.5t-23 -54t-55 -22t-54 22t-22 54z" />
<glyph unicode="&#xce;" d="M0 76q0 32 22 55t54 23t55 -23t23 -55t-23 -54t-55 -22t-54 22t-22 54zM0 1305q0 32 22 54.5t54 22.5t55 -22.5t23 -54.5t-23 -54t-55 -22t-54 22t-22 54zM205 76q0 32 22 55t54 23t54.5 -23t22.5 -55t-22.5 -54t-54.5 -22t-54 22t-22 54zM205 1305q0 32 22 54.5t54 22.5 t54.5 -22.5t22.5 -54.5t-22.5 -54t-54.5 -22t-54 22t-22 54zM205 1765q0 32 22 55t54 23t54.5 -23t22.5 -55t-22.5 -53.5t-54.5 -21.5t-54 21.5t-22 53.5zM410 76q0 33 21.5 55.5t53.5 22.5t55 -23t23 -55t-23 -54t-55 -22t-53.5 22t-21.5 54zM410 281q0 32 21.5 54.5 t53.5 22.5t55 -22.5t23 -54.5t-23 -54t-55 -22t-53.5 22t-21.5 54zM410 485q0 33 21.5 55.5t53.5 22.5t55 -23t23 -55t-22.5 -53.5t-55.5 -21.5q-32 0 -53.5 21.5t-21.5 53.5zM410 690q0 33 21.5 55.5t53.5 22.5t55 -23t23 -55t-23 -54t-55 -22t-53.5 22t-21.5 54zM410 895 q0 33 21.5 55.5t53.5 22.5t55 -23t23 -55t-23 -54t-55 -22t-53.5 22t-21.5 54zM410 1100q0 33 21.5 55.5t53.5 22.5t55 -23t23 -55t-23 -54t-55 -22t-53.5 22t-21.5 54zM410 1305q0 32 21.5 54.5t53.5 22.5t55 -22.5t23 -54.5t-23 -54t-55 -22t-53.5 22t-21.5 54zM410 1970 q0 33 21.5 55.5t53.5 22.5t55 -23t23 -55t-23 -54t-55 -22t-53.5 22t-21.5 54zM614 76q0 32 22 55t54 23t55 -23t23 -55t-23 -54t-55 -22t-54 22t-22 54zM614 1305q0 32 22 54.5t54 22.5t55 -22.5t23 -54.5t-23 -54t-55 -22t-54 22t-22 54zM614 1765q0 32 22 55t54 23 t55 -23t23 -55t-22.5 -53.5t-55.5 -21.5q-32 0 -54 21.5t-22 53.5zM819 76q0 32 22 55t54 23t55 -23t23 -55t-23 -54t-55 -22t-54 22t-22 54zM819 1305q0 32 22 54.5t54 22.5t55 -22.5t23 -54.5t-23 -54t-55 -22t-54 22t-22 54z" />
<glyph unicode="&#xcf;" d="M0 76q0 32 22 55t54 23t55 -23t23 -55t-23 -54t-55 -22t-54 22t-22 54zM0 1305q0 32 22 54.5t54 22.5t55 -22.5t23 -54.5t-23 -54t-55 -22t-54 22t-22 54zM0 1765q0 32 22 55t54 23t55 -23t23 -55t-22.5 -53.5t-55.5 -21.5q-32 0 -54 21.5t-22 53.5zM0 1970q0 32 22 55 t54 23t55 -23t23 -55t-23 -54t-55 -22t-54 22t-22 54zM205 76q0 32 22 55t54 23t54.5 -23t22.5 -55t-22.5 -54t-54.5 -22t-54 22t-22 54zM205 1305q0 32 22 54.5t54 22.5t54.5 -22.5t22.5 -54.5t-22.5 -54t-54.5 -22t-54 22t-22 54zM410 76q0 33 21.5 55.5t53.5 22.5t55 -23 t23 -55t-23 -54t-55 -22t-53.5 22t-21.5 54zM410 281q0 32 21.5 54.5t53.5 22.5t55 -22.5t23 -54.5t-23 -54t-55 -22t-53.5 22t-21.5 54zM410 485q0 33 21.5 55.5t53.5 22.5t55 -23t23 -55t-22.5 -53.5t-55.5 -21.5q-32 0 -53.5 21.5t-21.5 53.5zM410 690q0 33 21.5 55.5 t53.5 22.5t55 -23t23 -55t-23 -54t-55 -22t-53.5 22t-21.5 54zM410 895q0 33 21.5 55.5t53.5 22.5t55 -23t23 -55t-23 -54t-55 -22t-53.5 22t-21.5 54zM410 1100q0 33 21.5 55.5t53.5 22.5t55 -23t23 -55t-23 -54t-55 -22t-53.5 22t-21.5 54zM410 1305q0 32 21.5 54.5 t53.5 22.5t55 -22.5t23 -54.5t-23 -54t-55 -22t-53.5 22t-21.5 54zM614 76q0 32 22 55t54 23t55 -23t23 -55t-23 -54t-55 -22t-54 22t-22 54zM614 1305q0 32 22 54.5t54 22.5t55 -22.5t23 -54.5t-23 -54t-55 -22t-54 22t-22 54zM819 76q0 32 22 55t54 23t55 -23t23 -55 t-23 -54t-55 -22t-54 22t-22 54zM819 1305q0 32 22 54.5t54 22.5t55 -22.5t23 -54.5t-23 -54t-55 -22t-54 22t-22 54zM819 1765q0 32 22 55t54 23t55 -23t23 -55t-22.5 -53.5t-55.5 -21.5q-32 0 -54 21.5t-22 53.5zM819 1970q0 32 22 55t54 23t55 -23t23 -55t-23 -54 t-55 -22t-54 22t-22 54z" />
<glyph unicode="&#xd0;" d="M0 690q0 32 22 55t54 23t55 -23t23 -55t-23 -54t-55 -22t-54 22t-22 54zM205 76q0 32 22 55t54 23t54.5 -23t22.5 -55t-22.5 -54t-54.5 -22t-54 22t-22 54zM205 281q0 32 22 54.5t54 22.5t54.5 -22.5t22.5 -54.5t-22.5 -54t-54.5 -22t-54 22t-22 54zM205 485q0 32 22 55 t54 23t54.5 -23t22.5 -55t-22.5 -53.5t-54.5 -21.5t-54 21.5t-22 53.5zM205 690q0 32 22 55t54 23t54.5 -23t22.5 -55t-22.5 -54t-54.5 -22t-54 22t-22 54zM205 895q0 32 22 55t54 23t54.5 -23t22.5 -55t-22.5 -54t-54.5 -22t-54 22t-22 54zM205 1100q0 32 22 55t54 23 t54.5 -23t22.5 -55t-22.5 -54t-54.5 -22t-54 22t-22 54zM205 1305q0 32 22 54.5t54 22.5t54.5 -22.5t22.5 -54.5t-22.5 -54t-54.5 -22t-54 22t-22 54zM410 76q0 33 21.5 55.5t53.5 22.5t55 -23t23 -55t-23 -54t-55 -22t-53.5 22t-21.5 54zM410 690q0 33 21.5 55.5t53.5 22.5 t55 -23t23 -55t-23 -54t-55 -22t-53.5 22t-21.5 54zM410 1305q0 32 21.5 54.5t53.5 22.5t55 -22.5t23 -54.5t-23 -54t-55 -22t-53.5 22t-21.5 54zM614 76q0 32 22 55t54 23t55 -23t23 -55t-23 -54t-55 -22t-54 22t-22 54zM614 1305q0 32 22 54.5t54 22.5t55 -22.5t23 -54.5 t-23 -54t-55 -22t-54 22t-22 54zM819 281q0 32 22 54.5t54 22.5t55 -22.5t23 -54.5t-23 -54t-55 -22t-54 22t-22 54zM819 485q0 32 22 55t54 23t55 -23t23 -55t-22.5 -53.5t-55.5 -21.5q-32 0 -54 21.5t-22 53.5zM819 690q0 32 22 55t54 23t55 -23t23 -55t-23 -54t-55 -22 t-54 22t-22 54zM819 895q0 32 22 55t54 23t55 -23t23 -55t-23 -54t-55 -22t-54 22t-22 54zM819 1100q0 32 22 55t54 23t55 -23t23 -55t-23 -54t-55 -22t-54 22t-22 54z" />
<glyph unicode="&#xd1;" d="M0 76q0 32 22 55t54 23t55 -23t23 -55t-23 -54t-55 -22t-54 22t-22 54zM0 281q0 32 22 54.5t54 22.5t55 -22.5t23 -54.5t-23 -54t-55 -22t-54 22t-22 54zM0 485q0 32 22 55t54 23t55 -23t23 -55t-22.5 -53.5t-55.5 -21.5q-32 0 -54 21.5t-22 53.5zM0 690q0 32 22 55 t54 23t55 -23t23 -55t-23 -54t-55 -22t-54 22t-22 54zM0 895q0 32 22 55t54 23t55 -23t23 -55t-23 -54t-55 -22t-54 22t-22 54zM0 1100q0 32 22 55t54 23t55 -23t23 -55t-23 -54t-55 -22t-54 22t-22 54zM0 1305q0 32 22 54.5t54 22.5t55 -22.5t23 -54.5t-23 -54t-55 -22 t-54 22t-22 54zM0 1765q0 32 22 55t54 23t55 -23t23 -55t-22.5 -53.5t-55.5 -21.5q-32 0 -54 21.5t-22 53.5zM205 1100q0 32 22 55t54 23t54.5 -23t22.5 -55t-22.5 -54t-54.5 -22t-54 22t-22 54zM205 1970q0 32 22 55t54 23t54.5 -23t22.5 -55t-22.5 -54t-54.5 -22t-54 22 t-22 54zM410 690q0 33 21.5 55.5t53.5 22.5t55 -23t23 -55t-23 -54t-55 -22t-53.5 22t-21.5 54zM410 895q0 33 21.5 55.5t53.5 22.5t55 -23t23 -55t-23 -54t-55 -22t-53.5 22t-21.5 54zM410 1765q0 33 21.5 55.5t53.5 22.5t55 -23t23 -55t-22.5 -53.5t-55.5 -21.5 q-32 0 -53.5 21.5t-21.5 53.5zM614 485q0 32 22 55t54 23t55 -23t23 -55t-22.5 -53.5t-55.5 -21.5q-32 0 -54 21.5t-22 53.5zM614 1765q0 32 22 55t54 23t55 -23t23 -55t-22.5 -53.5t-55.5 -21.5q-32 0 -54 21.5t-22 53.5zM819 76q0 32 22 55t54 23t55 -23t23 -55t-23 -54 t-55 -22t-54 22t-22 54zM819 281q0 32 22 54.5t54 22.5t55 -22.5t23 -54.5t-23 -54t-55 -22t-54 22t-22 54zM819 485q0 32 22 55t54 23t55 -23t23 -55t-22.5 -53.5t-55.5 -21.5q-32 0 -54 21.5t-22 53.5zM819 690q0 32 22 55t54 23t55 -23t23 -55t-23 -54t-55 -22t-54 22 t-22 54zM819 895q0 32 22 55t54 23t55 -23t23 -55t-23 -54t-55 -22t-54 22t-22 54zM819 1100q0 32 22 55t54 23t55 -23t23 -55t-23 -54t-55 -22t-54 22t-22 54zM819 1305q0 32 22 54.5t54 22.5t55 -22.5t23 -54.5t-23 -54t-55 -22t-54 22t-22 54zM819 1970q0 32 22 55t54 23 t55 -23t23 -55t-23 -54t-55 -22t-54 22t-22 54z" />
<glyph unicode="&#xd2;" d="M0 281q0 32 22 54.5t54 22.5t55 -22.5t23 -54.5t-23 -54t-55 -22t-54 22t-22 54zM0 485q0 32 22 55t54 23t55 -23t23 -55t-22.5 -53.5t-55.5 -21.5q-32 0 -54 21.5t-22 53.5zM0 690q0 32 22 55t54 23t55 -23t23 -55t-23 -54t-55 -22t-54 22t-22 54zM0 895q0 32 22 55 t54 23t55 -23t23 -55t-23 -54t-55 -22t-54 22t-22 54zM0 1100q0 32 22 55t54 23t55 -23t23 -55t-23 -54t-55 -22t-54 22t-22 54zM205 76q0 32 22 55t54 23t54.5 -23t22.5 -55t-22.5 -54t-54.5 -22t-54 22t-22 54zM205 1305q0 32 22 54.5t54 22.5t54.5 -22.5t22.5 -54.5 t-22.5 -54t-54.5 -22t-54 22t-22 54zM205 1970q0 32 22 55t54 23t54.5 -23t22.5 -55t-22.5 -54t-54.5 -22t-54 22t-22 54zM410 76q0 33 21.5 55.5t53.5 22.5t55 -23t23 -55t-23 -54t-55 -22t-53.5 22t-21.5 54zM410 1305q0 32 21.5 54.5t53.5 22.5t55 -22.5t23 -54.5 t-23 -54t-55 -22t-53.5 22t-21.5 54zM410 1765q0 33 21.5 55.5t53.5 22.5t55 -23t23 -55t-22.5 -53.5t-55.5 -21.5q-32 0 -53.5 21.5t-21.5 53.5zM614 76q0 32 22 55t54 23t55 -23t23 -55t-23 -54t-55 -22t-54 22t-22 54zM614 1305q0 32 22 54.5t54 22.5t55 -22.5t23 -54.5 t-23 -54t-55 -22t-54 22t-22 54zM614 1765q0 32 22 55t54 23t55 -23t23 -55t-22.5 -53.5t-55.5 -21.5q-32 0 -54 21.5t-22 53.5zM819 281q0 32 22 54.5t54 22.5t55 -22.5t23 -54.5t-23 -54t-55 -22t-54 22t-22 54zM819 485q0 32 22 55t54 23t55 -23t23 -55t-22.5 -53.5 t-55.5 -21.5q-32 0 -54 21.5t-22 53.5zM819 690q0 32 22 55t54 23t55 -23t23 -55t-23 -54t-55 -22t-54 22t-22 54zM819 895q0 32 22 55t54 23t55 -23t23 -55t-23 -54t-55 -22t-54 22t-22 54zM819 1100q0 32 22 55t54 23t55 -23t23 -55t-23 -54t-55 -22t-54 22t-22 54z" />
<glyph unicode="&#xd3;" d="M0 281q0 32 22 54.5t54 22.5t55 -22.5t23 -54.5t-23 -54t-55 -22t-54 22t-22 54zM0 485q0 32 22 55t54 23t55 -23t23 -55t-22.5 -53.5t-55.5 -21.5q-32 0 -54 21.5t-22 53.5zM0 690q0 32 22 55t54 23t55 -23t23 -55t-23 -54t-55 -22t-54 22t-22 54zM0 895q0 32 22 55 t54 23t55 -23t23 -55t-23 -54t-55 -22t-54 22t-22 54zM0 1100q0 32 22 55t54 23t55 -23t23 -55t-23 -54t-55 -22t-54 22t-22 54zM205 76q0 32 22 55t54 23t54.5 -23t22.5 -55t-22.5 -54t-54.5 -22t-54 22t-22 54zM205 1305q0 32 22 54.5t54 22.5t54.5 -22.5t22.5 -54.5 t-22.5 -54t-54.5 -22t-54 22t-22 54zM205 1765q0 32 22 55t54 23t54.5 -23t22.5 -55t-22.5 -53.5t-54.5 -21.5t-54 21.5t-22 53.5zM410 76q0 33 21.5 55.5t53.5 22.5t55 -23t23 -55t-23 -54t-55 -22t-53.5 22t-21.5 54zM410 1305q0 32 21.5 54.5t53.5 22.5t55 -22.5 t23 -54.5t-23 -54t-55 -22t-53.5 22t-21.5 54zM410 1765q0 33 21.5 55.5t53.5 22.5t55 -23t23 -55t-22.5 -53.5t-55.5 -21.5q-32 0 -53.5 21.5t-21.5 53.5zM614 76q0 32 22 55t54 23t55 -23t23 -55t-23 -54t-55 -22t-54 22t-22 54zM614 1305q0 32 22 54.5t54 22.5t55 -22.5 t23 -54.5t-23 -54t-55 -22t-54 22t-22 54zM614 1970q0 32 22 55t54 23t55 -23t23 -55t-23 -54t-55 -22t-54 22t-22 54zM819 281q0 32 22 54.5t54 22.5t55 -22.5t23 -54.5t-23 -54t-55 -22t-54 22t-22 54zM819 485q0 32 22 55t54 23t55 -23t23 -55t-22.5 -53.5t-55.5 -21.5 q-32 0 -54 21.5t-22 53.5zM819 690q0 32 22 55t54 23t55 -23t23 -55t-23 -54t-55 -22t-54 22t-22 54zM819 895q0 32 22 55t54 23t55 -23t23 -55t-23 -54t-55 -22t-54 22t-22 54zM819 1100q0 32 22 55t54 23t55 -23t23 -55t-23 -54t-55 -22t-54 22t-22 54z" />
<glyph unicode="&#xd4;" d="M0 281q0 32 22 54.5t54 22.5t55 -22.5t23 -54.5t-23 -54t-55 -22t-54 22t-22 54zM0 485q0 32 22 55t54 23t55 -23t23 -55t-22.5 -53.5t-55.5 -21.5q-32 0 -54 21.5t-22 53.5zM0 690q0 32 22 55t54 23t55 -23t23 -55t-23 -54t-55 -22t-54 22t-22 54zM0 895q0 32 22 55 t54 23t55 -23t23 -55t-23 -54t-55 -22t-54 22t-22 54zM0 1100q0 32 22 55t54 23t55 -23t23 -55t-23 -54t-55 -22t-54 22t-22 54zM205 76q0 32 22 55t54 23t54.5 -23t22.5 -55t-22.5 -54t-54.5 -22t-54 22t-22 54zM205 1305q0 32 22 54.5t54 22.5t54.5 -22.5t22.5 -54.5 t-22.5 -54t-54.5 -22t-54 22t-22 54zM205 1765q0 32 22 55t54 23t54.5 -23t22.5 -55t-22.5 -53.5t-54.5 -21.5t-54 21.5t-22 53.5zM410 76q0 33 21.5 55.5t53.5 22.5t55 -23t23 -55t-23 -54t-55 -22t-53.5 22t-21.5 54zM410 1305q0 32 21.5 54.5t53.5 22.5t55 -22.5 t23 -54.5t-23 -54t-55 -22t-53.5 22t-21.5 54zM410 1970q0 33 21.5 55.5t53.5 22.5t55 -23t23 -55t-23 -54t-55 -22t-53.5 22t-21.5 54zM614 76q0 32 22 55t54 23t55 -23t23 -55t-23 -54t-55 -22t-54 22t-22 54zM614 1305q0 32 22 54.5t54 22.5t55 -22.5t23 -54.5t-23 -54 t-55 -22t-54 22t-22 54zM614 1765q0 32 22 55t54 23t55 -23t23 -55t-22.5 -53.5t-55.5 -21.5q-32 0 -54 21.5t-22 53.5zM819 281q0 32 22 54.5t54 22.5t55 -22.5t23 -54.5t-23 -54t-55 -22t-54 22t-22 54zM819 485q0 32 22 55t54 23t55 -23t23 -55t-22.5 -53.5t-55.5 -21.5 q-32 0 -54 21.5t-22 53.5zM819 690q0 32 22 55t54 23t55 -23t23 -55t-23 -54t-55 -22t-54 22t-22 54zM819 895q0 32 22 55t54 23t55 -23t23 -55t-23 -54t-55 -22t-54 22t-22 54zM819 1100q0 32 22 55t54 23t55 -23t23 -55t-23 -54t-55 -22t-54 22t-22 54z" />
<glyph unicode="&#xd5;" d="M0 281q0 32 22 54.5t54 22.5t55 -22.5t23 -54.5t-23 -54t-55 -22t-54 22t-22 54zM0 485q0 32 22 55t54 23t55 -23t23 -55t-22.5 -53.5t-55.5 -21.5q-32 0 -54 21.5t-22 53.5zM0 690q0 32 22 55t54 23t55 -23t23 -55t-23 -54t-55 -22t-54 22t-22 54zM0 895q0 32 22 55 t54 23t55 -23t23 -55t-23 -54t-55 -22t-54 22t-22 54zM0 1100q0 32 22 55t54 23t55 -23t23 -55t-23 -54t-55 -22t-54 22t-22 54zM0 1765q0 32 22 55t54 23t55 -23t23 -55t-22.5 -53.5t-55.5 -21.5q-32 0 -54 21.5t-22 53.5zM205 76q0 32 22 55t54 23t54.5 -23t22.5 -55 t-22.5 -54t-54.5 -22t-54 22t-22 54zM205 1305q0 32 22 54.5t54 22.5t54.5 -22.5t22.5 -54.5t-22.5 -54t-54.5 -22t-54 22t-22 54zM205 1970q0 32 22 55t54 23t54.5 -23t22.5 -55t-22.5 -54t-54.5 -22t-54 22t-22 54zM410 76q0 33 21.5 55.5t53.5 22.5t55 -23t23 -55 t-23 -54t-55 -22t-53.5 22t-21.5 54zM410 1305q0 32 21.5 54.5t53.5 22.5t55 -22.5t23 -54.5t-23 -54t-55 -22t-53.5 22t-21.5 54zM410 1765q0 33 21.5 55.5t53.5 22.5t55 -23t23 -55t-22.5 -53.5t-55.5 -21.5q-32 0 -53.5 21.5t-21.5 53.5zM614 76q0 32 22 55t54 23t55 -23 t23 -55t-23 -54t-55 -22t-54 22t-22 54zM614 1305q0 32 22 54.5t54 22.5t55 -22.5t23 -54.5t-23 -54t-55 -22t-54 22t-22 54zM614 1765q0 32 22 55t54 23t55 -23t23 -55t-22.5 -53.5t-55.5 -21.5q-32 0 -54 21.5t-22 53.5zM819 281q0 32 22 54.5t54 22.5t55 -22.5t23 -54.5 t-23 -54t-55 -22t-54 22t-22 54zM819 485q0 32 22 55t54 23t55 -23t23 -55t-22.5 -53.5t-55.5 -21.5q-32 0 -54 21.5t-22 53.5zM819 690q0 32 22 55t54 23t55 -23t23 -55t-23 -54t-55 -22t-54 22t-22 54zM819 895q0 32 22 55t54 23t55 -23t23 -55t-23 -54t-55 -22t-54 22 t-22 54zM819 1100q0 32 22 55t54 23t55 -23t23 -55t-23 -54t-55 -22t-54 22t-22 54zM819 1970q0 32 22 55t54 23t55 -23t23 -55t-23 -54t-55 -22t-54 22t-22 54z" />
<glyph unicode="&#xd6;" d="M0 281q0 32 22 54.5t54 22.5t55 -22.5t23 -54.5t-23 -54t-55 -22t-54 22t-22 54zM0 485q0 32 22 55t54 23t55 -23t23 -55t-22.5 -53.5t-55.5 -21.5q-32 0 -54 21.5t-22 53.5zM0 690q0 32 22 55t54 23t55 -23t23 -55t-23 -54t-55 -22t-54 22t-22 54zM0 895q0 32 22 55 t54 23t55 -23t23 -55t-23 -54t-55 -22t-54 22t-22 54zM0 1100q0 32 22 55t54 23t55 -23t23 -55t-23 -54t-55 -22t-54 22t-22 54zM0 1765q0 32 22 55t54 23t55 -23t23 -55t-22.5 -53.5t-55.5 -21.5q-32 0 -54 21.5t-22 53.5zM0 1970q0 32 22 55t54 23t55 -23t23 -55t-23 -54 t-55 -22t-54 22t-22 54zM205 76q0 32 22 55t54 23t54.5 -23t22.5 -55t-22.5 -54t-54.5 -22t-54 22t-22 54zM205 1305q0 32 22 54.5t54 22.5t54.5 -22.5t22.5 -54.5t-22.5 -54t-54.5 -22t-54 22t-22 54zM410 76q0 33 21.5 55.5t53.5 22.5t55 -23t23 -55t-23 -54t-55 -22 t-53.5 22t-21.5 54zM410 1305q0 32 21.5 54.5t53.5 22.5t55 -22.5t23 -54.5t-23 -54t-55 -22t-53.5 22t-21.5 54zM614 76q0 32 22 55t54 23t55 -23t23 -55t-23 -54t-55 -22t-54 22t-22 54zM614 1305q0 32 22 54.5t54 22.5t55 -22.5t23 -54.5t-23 -54t-55 -22t-54 22t-22 54z M819 281q0 32 22 54.5t54 22.5t55 -22.5t23 -54.5t-23 -54t-55 -22t-54 22t-22 54zM819 485q0 32 22 55t54 23t55 -23t23 -55t-22.5 -53.5t-55.5 -21.5q-32 0 -54 21.5t-22 53.5zM819 690q0 32 22 55t54 23t55 -23t23 -55t-23 -54t-55 -22t-54 22t-22 54zM819 895 q0 32 22 55t54 23t55 -23t23 -55t-23 -54t-55 -22t-54 22t-22 54zM819 1100q0 32 22 55t54 23t55 -23t23 -55t-23 -54t-55 -22t-54 22t-22 54zM819 1765q0 32 22 55t54 23t55 -23t23 -55t-22.5 -53.5t-55.5 -21.5q-32 0 -54 21.5t-22 53.5zM819 1970q0 32 22 55t54 23 t55 -23t23 -55t-23 -54t-55 -22t-54 22t-22 54z" />
<glyph unicode="&#xd7;" d="M0 76q0 32 22 55t54 23t55 -23t23 -55t-23 -54t-55 -22t-54 22t-22 54zM0 895q0 32 22 55t54 23t55 -23t23 -55t-23 -54t-55 -22t-54 22t-22 54zM205 281q0 32 22 54.5t54 22.5t54.5 -22.5t22.5 -54.5t-22.5 -54t-54.5 -22t-54 22t-22 54zM205 690q0 32 22 55t54 23 t54.5 -23t22.5 -55t-22.5 -54t-54.5 -22t-54 22t-22 54zM410 485q0 33 21.5 55.5t53.5 22.5t55 -23t23 -55t-22.5 -53.5t-55.5 -21.5q-32 0 -53.5 21.5t-21.5 53.5zM614 281q0 32 22 54.5t54 22.5t55 -22.5t23 -54.5t-23 -54t-55 -22t-54 22t-22 54zM614 690q0 32 22 55 t54 23t55 -23t23 -55t-23 -54t-55 -22t-54 22t-22 54zM819 76q0 32 22 55t54 23t55 -23t23 -55t-23 -54t-55 -22t-54 22t-22 54zM819 895q0 32 22 55t54 23t55 -23t23 -55t-23 -54t-55 -22t-54 22t-22 54z" />
<glyph unicode="&#xd8;" d="M0 281q0 32 22 54.5t54 22.5t55 -22.5t23 -54.5t-23 -54t-55 -22t-54 22t-22 54zM0 485q0 32 22 55t54 23t55 -23t23 -55t-22.5 -53.5t-55.5 -21.5q-32 0 -54 21.5t-22 53.5zM0 690q0 32 22 55t54 23t55 -23t23 -55t-23 -54t-55 -22t-54 22t-22 54zM0 895q0 32 22 55 t54 23t55 -23t23 -55t-23 -54t-55 -22t-54 22t-22 54zM0 1100q0 32 22 55t54 23t55 -23t23 -55t-23 -54t-55 -22t-54 22t-22 54zM205 76q0 32 22 55t54 23t54.5 -23t22.5 -55t-22.5 -54t-54.5 -22t-54 22t-22 54zM205 1305q0 32 22 54.5t54 22.5t54.5 -22.5t22.5 -54.5 t-22.5 -54t-54.5 -22t-54 22t-22 54zM209 281q0 32 22 54.5t54 22.5t54.5 -22.5t22.5 -54.5t-22.5 -54t-54.5 -22t-54 22t-22 54zM410 76q0 33 21.5 55.5t53.5 22.5t55 -23t23 -55t-23 -54t-55 -22t-53.5 22t-21.5 54zM410 1305q0 32 21.5 54.5t53.5 22.5t55 -22.5t23 -54.5 t-23 -54t-55 -22t-53.5 22t-21.5 54zM414 485q0 33 21.5 55.5t53.5 22.5t55 -23t23 -55t-22.5 -53.5t-55.5 -21.5q-32 0 -53.5 21.5t-21.5 53.5zM414 690q0 33 21.5 55.5t53.5 22.5t55 -23t23 -55t-23 -54t-55 -22t-53.5 22t-21.5 54zM414 895q0 33 21.5 55.5t53.5 22.5 t55 -23t23 -55t-23 -54t-55 -22t-53.5 22t-21.5 54zM614 76q0 32 22 55t54 23t55 -23t23 -55t-23 -54t-55 -22t-54 22t-22 54zM614 1305q0 32 22 54.5t54 22.5t55 -22.5t23 -54.5t-23 -54t-55 -22t-54 22t-22 54zM618 1100q0 32 22 55t54 23t55 -23t23 -55t-23 -54t-55 -22 t-54 22t-22 54zM819 281q0 32 22 54.5t54 22.5t55 -22.5t23 -54.5t-23 -54t-55 -22t-54 22t-22 54zM819 485q0 32 22 55t54 23t55 -23t23 -55t-22.5 -53.5t-55.5 -21.5q-32 0 -54 21.5t-22 53.5zM819 690q0 32 22 55t54 23t55 -23t23 -55t-23 -54t-55 -22t-54 22t-22 54z M819 895q0 32 22 55t54 23t55 -23t23 -55t-23 -54t-55 -22t-54 22t-22 54zM819 1100q0 32 22 55t54 23t55 -23t23 -55t-23 -54t-55 -22t-54 22t-22 54z" />
<glyph unicode="&#xd9;" d="M0 281q0 32 22 54.5t54 22.5t55 -22.5t23 -54.5t-23 -54t-55 -22t-54 22t-22 54zM0 485q0 32 22 55t54 23t55 -23t23 -55t-22.5 -53.5t-55.5 -21.5q-32 0 -54 21.5t-22 53.5zM0 690q0 32 22 55t54 23t55 -23t23 -55t-23 -54t-55 -22t-54 22t-22 54zM0 895q0 32 22 55 t54 23t55 -23t23 -55t-23 -54t-55 -22t-54 22t-22 54zM0 1100q0 32 22 55t54 23t55 -23t23 -55t-23 -54t-55 -22t-54 22t-22 54zM0 1305q0 32 22 54.5t54 22.5t55 -22.5t23 -54.5t-23 -54t-55 -22t-54 22t-22 54zM205 76q0 32 22 55t54 23t54.5 -23t22.5 -55t-22.5 -54 t-54.5 -22t-54 22t-22 54zM205 1970q0 32 22 55t54 23t54.5 -23t22.5 -55t-22.5 -54t-54.5 -22t-54 22t-22 54zM410 76q0 33 21.5 55.5t53.5 22.5t55 -23t23 -55t-23 -54t-55 -22t-53.5 22t-21.5 54zM410 1765q0 33 21.5 55.5t53.5 22.5t55 -23t23 -55t-22.5 -53.5 t-55.5 -21.5q-32 0 -53.5 21.5t-21.5 53.5zM614 76q0 32 22 55t54 23t55 -23t23 -55t-23 -54t-55 -22t-54 22t-22 54zM614 1765q0 32 22 55t54 23t55 -23t23 -55t-22.5 -53.5t-55.5 -21.5q-32 0 -54 21.5t-22 53.5zM819 281q0 32 22 54.5t54 22.5t55 -22.5t23 -54.5t-23 -54 t-55 -22t-54 22t-22 54zM819 485q0 32 22 55t54 23t55 -23t23 -55t-22.5 -53.5t-55.5 -21.5q-32 0 -54 21.5t-22 53.5zM819 690q0 32 22 55t54 23t55 -23t23 -55t-23 -54t-55 -22t-54 22t-22 54zM819 895q0 32 22 55t54 23t55 -23t23 -55t-23 -54t-55 -22t-54 22t-22 54z M819 1100q0 32 22 55t54 23t55 -23t23 -55t-23 -54t-55 -22t-54 22t-22 54zM819 1305q0 32 22 54.5t54 22.5t55 -22.5t23 -54.5t-23 -54t-55 -22t-54 22t-22 54z" />
<glyph unicode="&#xda;" d="M0 281q0 32 22 54.5t54 22.5t55 -22.5t23 -54.5t-23 -54t-55 -22t-54 22t-22 54zM0 485q0 32 22 55t54 23t55 -23t23 -55t-22.5 -53.5t-55.5 -21.5q-32 0 -54 21.5t-22 53.5zM0 690q0 32 22 55t54 23t55 -23t23 -55t-23 -54t-55 -22t-54 22t-22 54zM0 895q0 32 22 55 t54 23t55 -23t23 -55t-23 -54t-55 -22t-54 22t-22 54zM0 1100q0 32 22 55t54 23t55 -23t23 -55t-23 -54t-55 -22t-54 22t-22 54zM0 1305q0 32 22 54.5t54 22.5t55 -22.5t23 -54.5t-23 -54t-55 -22t-54 22t-22 54zM205 76q0 32 22 55t54 23t54.5 -23t22.5 -55t-22.5 -54 t-54.5 -22t-54 22t-22 54zM205 1765q0 32 22 55t54 23t54.5 -23t22.5 -55t-22.5 -53.5t-54.5 -21.5t-54 21.5t-22 53.5zM410 76q0 33 21.5 55.5t53.5 22.5t55 -23t23 -55t-23 -54t-55 -22t-53.5 22t-21.5 54zM410 1765q0 33 21.5 55.5t53.5 22.5t55 -23t23 -55t-22.5 -53.5 t-55.5 -21.5q-32 0 -53.5 21.5t-21.5 53.5zM614 76q0 32 22 55t54 23t55 -23t23 -55t-23 -54t-55 -22t-54 22t-22 54zM614 1970q0 32 22 55t54 23t55 -23t23 -55t-23 -54t-55 -22t-54 22t-22 54zM819 281q0 32 22 54.5t54 22.5t55 -22.5t23 -54.5t-23 -54t-55 -22t-54 22 t-22 54zM819 485q0 32 22 55t54 23t55 -23t23 -55t-22.5 -53.5t-55.5 -21.5q-32 0 -54 21.5t-22 53.5zM819 690q0 32 22 55t54 23t55 -23t23 -55t-23 -54t-55 -22t-54 22t-22 54zM819 895q0 32 22 55t54 23t55 -23t23 -55t-23 -54t-55 -22t-54 22t-22 54zM819 1100 q0 32 22 55t54 23t55 -23t23 -55t-23 -54t-55 -22t-54 22t-22 54zM819 1305q0 32 22 54.5t54 22.5t55 -22.5t23 -54.5t-23 -54t-55 -22t-54 22t-22 54z" />
<glyph unicode="&#xdb;" d="M0 281q0 32 22 54.5t54 22.5t55 -22.5t23 -54.5t-23 -54t-55 -22t-54 22t-22 54zM0 485q0 32 22 55t54 23t55 -23t23 -55t-22.5 -53.5t-55.5 -21.5q-32 0 -54 21.5t-22 53.5zM0 690q0 32 22 55t54 23t55 -23t23 -55t-23 -54t-55 -22t-54 22t-22 54zM0 895q0 32 22 55 t54 23t55 -23t23 -55t-23 -54t-55 -22t-54 22t-22 54zM0 1100q0 32 22 55t54 23t55 -23t23 -55t-23 -54t-55 -22t-54 22t-22 54zM0 1305q0 32 22 54.5t54 22.5t55 -22.5t23 -54.5t-23 -54t-55 -22t-54 22t-22 54zM205 76q0 32 22 55t54 23t54.5 -23t22.5 -55t-22.5 -54 t-54.5 -22t-54 22t-22 54zM205 1765q0 32 22 55t54 23t54.5 -23t22.5 -55t-22.5 -53.5t-54.5 -21.5t-54 21.5t-22 53.5zM410 76q0 33 21.5 55.5t53.5 22.5t55 -23t23 -55t-23 -54t-55 -22t-53.5 22t-21.5 54zM410 1970q0 33 21.5 55.5t53.5 22.5t55 -23t23 -55t-23 -54 t-55 -22t-53.5 22t-21.5 54zM614 76q0 32 22 55t54 23t55 -23t23 -55t-23 -54t-55 -22t-54 22t-22 54zM614 1765q0 32 22 55t54 23t55 -23t23 -55t-22.5 -53.5t-55.5 -21.5q-32 0 -54 21.5t-22 53.5zM819 281q0 32 22 54.5t54 22.5t55 -22.5t23 -54.5t-23 -54t-55 -22 t-54 22t-22 54zM819 485q0 32 22 55t54 23t55 -23t23 -55t-22.5 -53.5t-55.5 -21.5q-32 0 -54 21.5t-22 53.5zM819 690q0 32 22 55t54 23t55 -23t23 -55t-23 -54t-55 -22t-54 22t-22 54zM819 895q0 32 22 55t54 23t55 -23t23 -55t-23 -54t-55 -22t-54 22t-22 54zM819 1100 q0 32 22 55t54 23t55 -23t23 -55t-23 -54t-55 -22t-54 22t-22 54zM819 1305q0 32 22 54.5t54 22.5t55 -22.5t23 -54.5t-23 -54t-55 -22t-54 22t-22 54z" />
<glyph unicode="&#xdc;" d="M0 281q0 32 22 54.5t54 22.5t55 -22.5t23 -54.5t-23 -54t-55 -22t-54 22t-22 54zM0 485q0 32 22 55t54 23t55 -23t23 -55t-22.5 -53.5t-55.5 -21.5q-32 0 -54 21.5t-22 53.5zM0 690q0 32 22 55t54 23t55 -23t23 -55t-23 -54t-55 -22t-54 22t-22 54zM0 895q0 32 22 55 t54 23t55 -23t23 -55t-23 -54t-55 -22t-54 22t-22 54zM0 1100q0 32 22 55t54 23t55 -23t23 -55t-23 -54t-55 -22t-54 22t-22 54zM0 1305q0 32 22 54.5t54 22.5t55 -22.5t23 -54.5t-23 -54t-55 -22t-54 22t-22 54zM0 1765q0 32 22 55t54 23t55 -23t23 -55t-22.5 -53.5 t-55.5 -21.5q-32 0 -54 21.5t-22 53.5zM0 1970q0 32 22 55t54 23t55 -23t23 -55t-23 -54t-55 -22t-54 22t-22 54zM205 76q0 32 22 55t54 23t54.5 -23t22.5 -55t-22.5 -54t-54.5 -22t-54 22t-22 54zM410 76q0 33 21.5 55.5t53.5 22.5t55 -23t23 -55t-23 -54t-55 -22t-53.5 22 t-21.5 54zM614 76q0 32 22 55t54 23t55 -23t23 -55t-23 -54t-55 -22t-54 22t-22 54zM819 281q0 32 22 54.5t54 22.5t55 -22.5t23 -54.5t-23 -54t-55 -22t-54 22t-22 54zM819 485q0 32 22 55t54 23t55 -23t23 -55t-22.5 -53.5t-55.5 -21.5q-32 0 -54 21.5t-22 53.5zM819 690 q0 32 22 55t54 23t55 -23t23 -55t-23 -54t-55 -22t-54 22t-22 54zM819 895q0 32 22 55t54 23t55 -23t23 -55t-23 -54t-55 -22t-54 22t-22 54zM819 1100q0 32 22 55t54 23t55 -23t23 -55t-23 -54t-55 -22t-54 22t-22 54zM819 1305q0 32 22 54.5t54 22.5t55 -22.5t23 -54.5 t-23 -54t-55 -22t-54 22t-22 54zM819 1765q0 32 22 55t54 23t55 -23t23 -55t-22.5 -53.5t-55.5 -21.5q-32 0 -54 21.5t-22 53.5zM819 1970q0 32 22 55t54 23t55 -23t23 -55t-23 -54t-55 -22t-54 22t-22 54z" />
<glyph unicode="&#xdd;" d="M0 895q0 32 22 55t54 23t55 -23t23 -55t-23 -54t-55 -22t-54 22t-22 54zM0 1100q0 32 22 55t54 23t55 -23t23 -55t-23 -54t-55 -22t-54 22t-22 54zM0 1305q0 32 22 54.5t54 22.5t55 -22.5t23 -54.5t-23 -54t-55 -22t-54 22t-22 54zM205 690q0 32 22 55t54 23t54.5 -23 t22.5 -55t-22.5 -54t-54.5 -22t-54 22t-22 54zM205 1765q0 32 22 55t54 23t54.5 -23t22.5 -55t-22.5 -53.5t-54.5 -21.5t-54 21.5t-22 53.5zM410 76q0 33 21.5 55.5t53.5 22.5t55 -23t23 -55t-23 -54t-55 -22t-53.5 22t-21.5 54zM410 281q0 32 21.5 54.5t53.5 22.5t55 -22.5 t23 -54.5t-23 -54t-55 -22t-53.5 22t-21.5 54zM410 485q0 33 21.5 55.5t53.5 22.5t55 -23t23 -55t-22.5 -53.5t-55.5 -21.5q-32 0 -53.5 21.5t-21.5 53.5zM410 1765q0 33 21.5 55.5t53.5 22.5t55 -23t23 -55t-22.5 -53.5t-55.5 -21.5q-32 0 -53.5 21.5t-21.5 53.5zM614 690 q0 32 22 55t54 23t55 -23t23 -55t-23 -54t-55 -22t-54 22t-22 54zM614 1970q0 32 22 55t54 23t55 -23t23 -55t-23 -54t-55 -22t-54 22t-22 54zM819 895q0 32 22 55t54 23t55 -23t23 -55t-23 -54t-55 -22t-54 22t-22 54zM819 1100q0 32 22 55t54 23t55 -23t23 -55t-23 -54 t-55 -22t-54 22t-22 54zM819 1305q0 32 22 54.5t54 22.5t55 -22.5t23 -54.5t-23 -54t-55 -22t-54 22t-22 54z" />
<glyph unicode="&#xde;" d="M0 76q0 32 22 55t54 23t55 -23t23 -55t-23 -54t-55 -22t-54 22t-22 54zM0 281q0 32 22 54.5t54 22.5t55 -22.5t23 -54.5t-23 -54t-55 -22t-54 22t-22 54zM0 485q0 32 22 55t54 23t55 -23t23 -55t-22.5 -53.5t-55.5 -21.5q-32 0 -54 21.5t-22 53.5zM0 690q0 32 22 55 t54 23t55 -23t23 -55t-23 -54t-55 -22t-54 22t-22 54zM0 895q0 32 22 55t54 23t55 -23t23 -55t-23 -54t-55 -22t-54 22t-22 54zM0 1100q0 32 22 55t54 23t55 -23t23 -55t-23 -54t-55 -22t-54 22t-22 54zM0 1305q0 32 22 54.5t54 22.5t55 -22.5t23 -54.5t-23 -54t-55 -22 t-54 22t-22 54zM205 485q0 32 22 55t54 23t54.5 -23t22.5 -55t-22.5 -53.5t-54.5 -21.5t-54 21.5t-22 53.5zM205 1100q0 32 22 55t54 23t54.5 -23t22.5 -55t-22.5 -54t-54.5 -22t-54 22t-22 54zM410 485q0 33 21.5 55.5t53.5 22.5t55 -23t23 -55t-22.5 -53.5t-55.5 -21.5 q-32 0 -53.5 21.5t-21.5 53.5zM410 1100q0 33 21.5 55.5t53.5 22.5t55 -23t23 -55t-23 -54t-55 -22t-53.5 22t-21.5 54zM614 485q0 32 22 55t54 23t55 -23t23 -55t-22.5 -53.5t-55.5 -21.5q-32 0 -54 21.5t-22 53.5zM614 1100q0 32 22 55t54 23t55 -23t23 -55t-23 -54 t-55 -22t-54 22t-22 54zM819 690q0 32 22 55t54 23t55 -23t23 -55t-23 -54t-55 -22t-54 22t-22 54zM819 895q0 32 22 55t54 23t55 -23t23 -55t-23 -54t-55 -22t-54 22t-22 54z" />
<glyph unicode="&#xdf;" d="M0 76q0 32 22 55t54 23t55 -23t23 -55t-23 -54t-55 -22t-54 22t-22 54zM0 281q0 32 22 54.5t54 22.5t55 -22.5t23 -54.5t-23 -54t-55 -22t-54 22t-22 54zM0 485q0 32 22 55t54 23t55 -23t23 -55t-22.5 -53.5t-55.5 -21.5q-32 0 -54 21.5t-22 53.5zM0 690q0 32 22 55 t54 23t55 -23t23 -55t-23 -54t-55 -22t-54 22t-22 54zM0 895q0 32 22 55t54 23t55 -23t23 -55t-23 -54t-55 -22t-54 22t-22 54zM205 1100q0 32 22 55t54 23t54.5 -23t22.5 -55t-22.5 -54t-54.5 -22t-54 22t-22 54zM410 76q0 33 21.5 55.5t53.5 22.5t55 -23t23 -55t-23 -54 t-55 -22t-53.5 22t-21.5 54zM410 690q0 33 21.5 55.5t53.5 22.5t55 -23t23 -55t-23 -54t-55 -22t-53.5 22t-21.5 54zM410 1305q0 32 21.5 54.5t53.5 22.5t55 -22.5t23 -54.5t-23 -54t-55 -22t-53.5 22t-21.5 54zM614 76q0 32 22 55t54 23t55 -23t23 -55t-23 -54t-55 -22 t-54 22t-22 54zM614 485q0 32 22 55t54 23t55 -23t23 -55t-22.5 -53.5t-55.5 -21.5q-32 0 -54 21.5t-22 53.5zM614 895q0 32 22 55t54 23t55 -23t23 -55t-23 -54t-55 -22t-54 22t-22 54zM614 1100q0 32 22 55t54 23t55 -23t23 -55t-23 -54t-55 -22t-54 22t-22 54zM819 281 q0 32 22 54.5t54 22.5t55 -22.5t23 -54.5t-23 -54t-55 -22t-54 22t-22 54z" />
<glyph unicode="&#xe0;" d="M0 281q0 32 22 54.5t54 22.5t55 -22.5t23 -54.5t-23 -54t-55 -22t-54 22t-22 54zM205 76q0 32 22 55t54 23t54.5 -23t22.5 -55t-22.5 -54t-54.5 -22t-54 22t-22 54zM205 485q0 32 22 55t54 23t54.5 -23t22.5 -55t-22.5 -53.5t-54.5 -21.5t-54 21.5t-22 53.5zM205 895 q0 32 22 55t54 23t54.5 -23t22.5 -55t-22.5 -54t-54.5 -22t-54 22t-22 54zM205 1509q0 32 22 55t54 23t54.5 -23t22.5 -55t-22.5 -53.5t-54.5 -21.5t-54 21.5t-22 53.5zM410 76q0 33 21.5 55.5t53.5 22.5t55 -23t23 -55t-23 -54t-55 -22t-53.5 22t-21.5 54zM410 485 q0 33 21.5 55.5t53.5 22.5t55 -23t23 -55t-22.5 -53.5t-55.5 -21.5q-32 0 -53.5 21.5t-21.5 53.5zM410 895q0 33 21.5 55.5t53.5 22.5t55 -23t23 -55t-23 -54t-55 -22t-53.5 22t-21.5 54zM410 1305q0 32 21.5 54.5t53.5 22.5t55 -22.5t23 -54.5t-23 -54t-55 -22t-53.5 22 t-21.5 54zM614 76q0 32 22 55t54 23t55 -23t23 -55t-23 -54t-55 -22t-54 22t-22 54zM614 485q0 32 22 55t54 23t55 -23t23 -55t-22.5 -53.5t-55.5 -21.5q-32 0 -54 21.5t-22 53.5zM614 895q0 32 22 55t54 23t55 -23t23 -55t-23 -54t-55 -22t-54 22t-22 54zM614 1305 q0 32 22 54.5t54 22.5t55 -22.5t23 -54.5t-23 -54t-55 -22t-54 22t-22 54zM819 76q0 32 22 55t54 23t55 -23t23 -55t-23 -54t-55 -22t-54 22t-22 54zM819 281q0 32 22 54.5t54 22.5t55 -22.5t23 -54.5t-23 -54t-55 -22t-54 22t-22 54zM819 485q0 32 22 55t54 23t55 -23 t23 -55t-22.5 -53.5t-55.5 -21.5q-32 0 -54 21.5t-22 53.5zM819 690q0 32 22 55t54 23t55 -23t23 -55t-23 -54t-55 -22t-54 22t-22 54z" />
<glyph unicode="&#xe1;" d="M0 281q0 32 22 54.5t54 22.5t55 -22.5t23 -54.5t-23 -54t-55 -22t-54 22t-22 54zM205 76q0 32 22 55t54 23t54.5 -23t22.5 -55t-22.5 -54t-54.5 -22t-54 22t-22 54zM205 485q0 32 22 55t54 23t54.5 -23t22.5 -55t-22.5 -53.5t-54.5 -21.5t-54 21.5t-22 53.5zM205 895 q0 32 22 55t54 23t54.5 -23t22.5 -55t-22.5 -54t-54.5 -22t-54 22t-22 54zM205 1305q0 32 22 54.5t54 22.5t54.5 -22.5t22.5 -54.5t-22.5 -54t-54.5 -22t-54 22t-22 54zM410 76q0 33 21.5 55.5t53.5 22.5t55 -23t23 -55t-23 -54t-55 -22t-53.5 22t-21.5 54zM410 485 q0 33 21.5 55.5t53.5 22.5t55 -23t23 -55t-22.5 -53.5t-55.5 -21.5q-32 0 -53.5 21.5t-21.5 53.5zM410 895q0 33 21.5 55.5t53.5 22.5t55 -23t23 -55t-23 -54t-55 -22t-53.5 22t-21.5 54zM410 1305q0 32 21.5 54.5t53.5 22.5t55 -22.5t23 -54.5t-23 -54t-55 -22t-53.5 22 t-21.5 54zM614 76q0 32 22 55t54 23t55 -23t23 -55t-23 -54t-55 -22t-54 22t-22 54zM614 485q0 32 22 55t54 23t55 -23t23 -55t-22.5 -53.5t-55.5 -21.5q-32 0 -54 21.5t-22 53.5zM614 895q0 32 22 55t54 23t55 -23t23 -55t-23 -54t-55 -22t-54 22t-22 54zM614 1509 q0 32 22 55t54 23t55 -23t23 -55t-22.5 -53.5t-55.5 -21.5q-32 0 -54 21.5t-22 53.5zM819 76q0 32 22 55t54 23t55 -23t23 -55t-23 -54t-55 -22t-54 22t-22 54zM819 281q0 32 22 54.5t54 22.5t55 -22.5t23 -54.5t-23 -54t-55 -22t-54 22t-22 54zM819 485q0 32 22 55t54 23 t55 -23t23 -55t-22.5 -53.5t-55.5 -21.5q-32 0 -54 21.5t-22 53.5zM819 690q0 32 22 55t54 23t55 -23t23 -55t-23 -54t-55 -22t-54 22t-22 54z" />
<glyph unicode="&#xe2;" d="M0 281q0 32 22 54.5t54 22.5t55 -22.5t23 -54.5t-23 -54t-55 -22t-54 22t-22 54zM205 76q0 32 22 55t54 23t54.5 -23t22.5 -55t-22.5 -54t-54.5 -22t-54 22t-22 54zM205 485q0 32 22 55t54 23t54.5 -23t22.5 -55t-22.5 -53.5t-54.5 -21.5t-54 21.5t-22 53.5zM205 895 q0 32 22 55t54 23t54.5 -23t22.5 -55t-22.5 -54t-54.5 -22t-54 22t-22 54zM410 76q0 33 21.5 55.5t53.5 22.5t55 -23t23 -55t-23 -54t-55 -22t-53.5 22t-21.5 54zM410 485q0 33 21.5 55.5t53.5 22.5t55 -23t23 -55t-22.5 -53.5t-55.5 -21.5q-32 0 -53.5 21.5t-21.5 53.5z M410 895q0 33 21.5 55.5t53.5 22.5t55 -23t23 -55t-23 -54t-55 -22t-53.5 22t-21.5 54zM614 76q0 32 22 55t54 23t55 -23t23 -55t-23 -54t-55 -22t-54 22t-22 54zM614 485q0 32 22 55t54 23t55 -23t23 -55t-22.5 -53.5t-55.5 -21.5q-32 0 -54 21.5t-22 53.5zM614 895 q0 32 22 55t54 23t55 -23t23 -55t-23 -54t-55 -22t-54 22t-22 54zM819 76q0 32 22 55t54 23t55 -23t23 -55t-23 -54t-55 -22t-54 22t-22 54zM819 281q0 32 22 54.5t54 22.5t55 -22.5t23 -54.5t-23 -54t-55 -22t-54 22t-22 54zM819 485q0 32 22 55t54 23t55 -23t23 -55 t-22.5 -53.5t-55.5 -21.5q-32 0 -54 21.5t-22 53.5zM819 690q0 32 22 55t54 23t55 -23t23 -55t-23 -54t-55 -22t-54 22t-22 54z" />
<glyph unicode="&#xe3;" d="M0 281q0 32 22 54.5t54 22.5t55 -22.5t23 -54.5t-23 -54t-55 -22t-54 22t-22 54zM0 1305q0 32 22 54.5t54 22.5t55 -22.5t23 -54.5t-23 -54t-55 -22t-54 22t-22 54zM205 76q0 32 22 55t54 23t54.5 -23t22.5 -55t-22.5 -54t-54.5 -22t-54 22t-22 54zM205 485q0 32 22 55 t54 23t54.5 -23t22.5 -55t-22.5 -53.5t-54.5 -21.5t-54 21.5t-22 53.5zM205 895q0 32 22 55t54 23t54.5 -23t22.5 -55t-22.5 -54t-54.5 -22t-54 22t-22 54zM205 1509q0 32 22 55t54 23t54.5 -23t22.5 -55t-22.5 -53.5t-54.5 -21.5t-54 21.5t-22 53.5zM410 76q0 33 21.5 55.5 t53.5 22.5t55 -23t23 -55t-23 -54t-55 -22t-53.5 22t-21.5 54zM410 485q0 33 21.5 55.5t53.5 22.5t55 -23t23 -55t-22.5 -53.5t-55.5 -21.5q-32 0 -53.5 21.5t-21.5 53.5zM410 895q0 33 21.5 55.5t53.5 22.5t55 -23t23 -55t-23 -54t-55 -22t-53.5 22t-21.5 54zM410 1305 q0 32 21.5 54.5t53.5 22.5t55 -22.5t23 -54.5t-23 -54t-55 -22t-53.5 22t-21.5 54zM614 76q0 32 22 55t54 23t55 -23t23 -55t-23 -54t-55 -22t-54 22t-22 54zM614 485q0 32 22 55t54 23t55 -23t23 -55t-22.5 -53.5t-55.5 -21.5q-32 0 -54 21.5t-22 53.5zM614 895q0 32 22 55 t54 23t55 -23t23 -55t-23 -54t-55 -22t-54 22t-22 54zM614 1305q0 32 22 54.5t54 22.5t55 -22.5t23 -54.5t-23 -54t-55 -22t-54 22t-22 54zM819 76q0 32 22 55t54 23t55 -23t23 -55t-23 -54t-55 -22t-54 22t-22 54zM819 281q0 32 22 54.5t54 22.5t55 -22.5t23 -54.5t-23 -54 t-55 -22t-54 22t-22 54zM819 485q0 32 22 55t54 23t55 -23t23 -55t-22.5 -53.5t-55.5 -21.5q-32 0 -54 21.5t-22 53.5zM819 690q0 32 22 55t54 23t55 -23t23 -55t-23 -54t-55 -22t-54 22t-22 54zM819 1509q0 32 22 55t54 23t55 -23t23 -55t-22.5 -53.5t-55.5 -21.5 q-32 0 -54 21.5t-22 53.5z" />
<glyph unicode="&#xe4;" d="M0 281q0 32 22 54.5t54 22.5t55 -22.5t23 -54.5t-23 -54t-55 -22t-54 22t-22 54zM0 1305q0 32 22 54.5t54 22.5t55 -22.5t23 -54.5t-23 -54t-55 -22t-54 22t-22 54zM0 1509q0 32 22 55t54 23t55 -23t23 -55t-22.5 -53.5t-55.5 -21.5q-32 0 -54 21.5t-22 53.5zM205 76 q0 32 22 55t54 23t54.5 -23t22.5 -55t-22.5 -54t-54.5 -22t-54 22t-22 54zM205 485q0 32 22 55t54 23t54.5 -23t22.5 -55t-22.5 -53.5t-54.5 -21.5t-54 21.5t-22 53.5zM205 895q0 32 22 55t54 23t54.5 -23t22.5 -55t-22.5 -54t-54.5 -22t-54 22t-22 54zM410 76 q0 33 21.5 55.5t53.5 22.5t55 -23t23 -55t-23 -54t-55 -22t-53.5 22t-21.5 54zM410 485q0 33 21.5 55.5t53.5 22.5t55 -23t23 -55t-22.5 -53.5t-55.5 -21.5q-32 0 -53.5 21.5t-21.5 53.5zM410 895q0 33 21.5 55.5t53.5 22.5t55 -23t23 -55t-23 -54t-55 -22t-53.5 22 t-21.5 54zM614 76q0 32 22 55t54 23t55 -23t23 -55t-23 -54t-55 -22t-54 22t-22 54zM614 485q0 32 22 55t54 23t55 -23t23 -55t-22.5 -53.5t-55.5 -21.5q-32 0 -54 21.5t-22 53.5zM614 895q0 32 22 55t54 23t55 -23t23 -55t-23 -54t-55 -22t-54 22t-22 54zM819 76 q0 32 22 55t54 23t55 -23t23 -55t-23 -54t-55 -22t-54 22t-22 54zM819 281q0 32 22 54.5t54 22.5t55 -22.5t23 -54.5t-23 -54t-55 -22t-54 22t-22 54zM819 485q0 32 22 55t54 23t55 -23t23 -55t-22.5 -53.5t-55.5 -21.5q-32 0 -54 21.5t-22 53.5zM819 690q0 32 22 55t54 23 t55 -23t23 -55t-23 -54t-55 -22t-54 22t-22 54zM819 1305q0 32 22 54.5t54 22.5t55 -22.5t23 -54.5t-23 -54t-55 -22t-54 22t-22 54zM819 1509q0 32 22 55t54 23t55 -23t23 -55t-22.5 -53.5t-55.5 -21.5q-32 0 -54 21.5t-22 53.5z" />
<glyph unicode="&#xe5;" d="M0 281q0 32 22 54.5t54 22.5t55 -22.5t23 -54.5t-23 -54t-55 -22t-54 22t-22 54zM205 76q0 32 22 55t54 23t54.5 -23t22.5 -55t-22.5 -54t-54.5 -22t-54 22t-22 54zM205 485q0 32 22 55t54 23t54.5 -23t22.5 -55t-22.5 -53.5t-54.5 -21.5t-54 21.5t-22 53.5zM205 895 q0 32 22 55t54 23t54.5 -23t22.5 -55t-22.5 -54t-54.5 -22t-54 22t-22 54zM205 1509q0 32 22 55t54 23t54.5 -23t22.5 -55t-22.5 -53.5t-54.5 -21.5t-54 21.5t-22 53.5zM410 76q0 33 21.5 55.5t53.5 22.5t55 -23t23 -55t-23 -54t-55 -22t-53.5 22t-21.5 54zM410 485 q0 33 21.5 55.5t53.5 22.5t55 -23t23 -55t-22.5 -53.5t-55.5 -21.5q-32 0 -53.5 21.5t-21.5 53.5zM410 895q0 33 21.5 55.5t53.5 22.5t55 -23t23 -55t-23 -54t-55 -22t-53.5 22t-21.5 54zM410 1305q0 32 21.5 54.5t53.5 22.5t55 -22.5t23 -54.5t-23 -54t-55 -22t-53.5 22 t-21.5 54zM410 1714q0 33 21.5 55.5t53.5 22.5t55 -23t23 -55t-23 -54t-55 -22t-53.5 22t-21.5 54zM614 76q0 32 22 55t54 23t55 -23t23 -55t-23 -54t-55 -22t-54 22t-22 54zM614 485q0 32 22 55t54 23t55 -23t23 -55t-22.5 -53.5t-55.5 -21.5q-32 0 -54 21.5t-22 53.5z M614 895q0 32 22 55t54 23t55 -23t23 -55t-23 -54t-55 -22t-54 22t-22 54zM614 1509q0 32 22 55t54 23t55 -23t23 -55t-22.5 -53.5t-55.5 -21.5q-32 0 -54 21.5t-22 53.5zM819 76q0 32 22 55t54 23t55 -23t23 -55t-23 -54t-55 -22t-54 22t-22 54zM819 281q0 32 22 54.5 t54 22.5t55 -22.5t23 -54.5t-23 -54t-55 -22t-54 22t-22 54zM819 485q0 32 22 55t54 23t55 -23t23 -55t-22.5 -53.5t-55.5 -21.5q-32 0 -54 21.5t-22 53.5zM819 690q0 32 22 55t54 23t55 -23t23 -55t-23 -54t-55 -22t-54 22t-22 54z" />
<glyph unicode="&#xe6;" d="M0 281q0 32 22 54.5t54 22.5t55 -22.5t23 -54.5t-23 -54t-55 -22t-54 22t-22 54zM205 76q0 32 22 55t54 23t54.5 -23t22.5 -55t-22.5 -54t-54.5 -22t-54 22t-22 54zM205 485q0 32 22 55t54 23t54.5 -23t22.5 -55t-22.5 -53.5t-54.5 -21.5t-54 21.5t-22 53.5zM205 895 q0 32 22 55t54 23t54.5 -23t22.5 -55t-22.5 -54t-54.5 -22t-54 22t-22 54zM410 76q0 33 21.5 55.5t53.5 22.5t55 -23t23 -55t-23 -54t-55 -22t-53.5 22t-21.5 54zM410 281q0 32 21.5 54.5t53.5 22.5t55 -22.5t23 -54.5t-23 -54t-55 -22t-53.5 22t-21.5 54zM410 485 q0 33 21.5 55.5t53.5 22.5t55 -23t23 -55t-22.5 -53.5t-55.5 -21.5q-32 0 -53.5 21.5t-21.5 53.5zM410 690q0 33 21.5 55.5t53.5 22.5t55 -23t23 -55t-23 -54t-55 -22t-53.5 22t-21.5 54zM614 76q0 32 22 55t54 23t55 -23t23 -55t-23 -54t-55 -22t-54 22t-22 54zM614 485 q0 32 22 55t54 23t55 -23t23 -55t-22.5 -53.5t-55.5 -21.5q-32 0 -54 21.5t-22 53.5zM614 895q0 32 22 55t54 23t55 -23t23 -55t-23 -54t-55 -22t-54 22t-22 54zM819 76q0 32 22 55t54 23t55 -23t23 -55t-23 -54t-55 -22t-54 22t-22 54zM819 690q0 32 22 55t54 23t55 -23 t23 -55t-23 -54t-55 -22t-54 22t-22 54z" />
<glyph unicode="&#xe7;" d="M0 281q0 32 22 54.5t54 22.5t55 -22.5t23 -54.5t-23 -54t-55 -22t-54 22t-22 54zM0 485q0 32 22 55t54 23t55 -23t23 -55t-22.5 -53.5t-55.5 -21.5q-32 0 -54 21.5t-22 53.5zM0 690q0 32 22 55t54 23t55 -23t23 -55t-23 -54t-55 -22t-54 22t-22 54zM205 76q0 32 22 55 t54 23t54.5 -23t22.5 -55t-22.5 -54t-54.5 -22t-54 22t-22 54zM205 -334q0 32 22 55t54 23t54.5 -23t22.5 -55t-22.5 -54t-54.5 -22t-54 22t-22 54zM205 895q0 32 22 55t54 23t54.5 -23t22.5 -55t-22.5 -54t-54.5 -22t-54 22t-22 54zM410 76q0 33 21.5 55.5t53.5 22.5 t55 -23t23 -55t-23 -54t-55 -22t-53.5 22t-21.5 54zM410 -129q0 33 21.5 55.5t53.5 22.5t55 -23t23 -55t-23 -54t-55 -22t-53.5 22t-21.5 54zM410 895q0 33 21.5 55.5t53.5 22.5t55 -23t23 -55t-23 -54t-55 -22t-53.5 22t-21.5 54zM614 76q0 32 22 55t54 23t55 -23t23 -55 t-23 -54t-55 -22t-54 22t-22 54zM614 895q0 32 22 55t54 23t55 -23t23 -55t-23 -54t-55 -22t-54 22t-22 54zM819 281q0 32 22 54.5t54 22.5t55 -22.5t23 -54.5t-23 -54t-55 -22t-54 22t-22 54zM819 690q0 32 22 55t54 23t55 -23t23 -55t-23 -54t-55 -22t-54 22t-22 54z" />
<glyph unicode="&#xe8;" d="M0 281q0 32 22 54.5t54 22.5t55 -22.5t23 -54.5t-23 -54t-55 -22t-54 22t-22 54zM0 485q0 32 22 55t54 23t55 -23t23 -55t-22.5 -53.5t-55.5 -21.5q-32 0 -54 21.5t-22 53.5zM0 690q0 32 22 55t54 23t55 -23t23 -55t-23 -54t-55 -22t-54 22t-22 54zM205 76q0 32 22 55 t54 23t54.5 -23t22.5 -55t-22.5 -54t-54.5 -22t-54 22t-22 54zM205 485q0 32 22 55t54 23t54.5 -23t22.5 -55t-22.5 -53.5t-54.5 -21.5t-54 21.5t-22 53.5zM205 895q0 32 22 55t54 23t54.5 -23t22.5 -55t-22.5 -54t-54.5 -22t-54 22t-22 54zM205 1509q0 32 22 55t54 23 t54.5 -23t22.5 -55t-22.5 -53.5t-54.5 -21.5t-54 21.5t-22 53.5zM410 76q0 33 21.5 55.5t53.5 22.5t55 -23t23 -55t-23 -54t-55 -22t-53.5 22t-21.5 54zM410 485q0 33 21.5 55.5t53.5 22.5t55 -23t23 -55t-22.5 -53.5t-55.5 -21.5q-32 0 -53.5 21.5t-21.5 53.5zM410 895 q0 33 21.5 55.5t53.5 22.5t55 -23t23 -55t-23 -54t-55 -22t-53.5 22t-21.5 54zM410 1305q0 32 21.5 54.5t53.5 22.5t55 -22.5t23 -54.5t-23 -54t-55 -22t-53.5 22t-21.5 54zM614 76q0 32 22 55t54 23t55 -23t23 -55t-23 -54t-55 -22t-54 22t-22 54zM614 485q0 32 22 55 t54 23t55 -23t23 -55t-22.5 -53.5t-55.5 -21.5q-32 0 -54 21.5t-22 53.5zM614 895q0 32 22 55t54 23t55 -23t23 -55t-23 -54t-55 -22t-54 22t-22 54zM614 1305q0 32 22 54.5t54 22.5t55 -22.5t23 -54.5t-23 -54t-55 -22t-54 22t-22 54zM819 76q0 32 22 55t54 23t55 -23 t23 -55t-23 -54t-55 -22t-54 22t-22 54zM819 485q0 32 22 55t54 23t55 -23t23 -55t-22.5 -53.5t-55.5 -21.5q-32 0 -54 21.5t-22 53.5zM819 690q0 32 22 55t54 23t55 -23t23 -55t-23 -54t-55 -22t-54 22t-22 54z" />
<glyph unicode="&#xe9;" d="M0 281q0 32 22 54.5t54 22.5t55 -22.5t23 -54.5t-23 -54t-55 -22t-54 22t-22 54zM0 485q0 32 22 55t54 23t55 -23t23 -55t-22.5 -53.5t-55.5 -21.5q-32 0 -54 21.5t-22 53.5zM0 690q0 32 22 55t54 23t55 -23t23 -55t-23 -54t-55 -22t-54 22t-22 54zM205 76q0 32 22 55 t54 23t54.5 -23t22.5 -55t-22.5 -54t-54.5 -22t-54 22t-22 54zM205 485q0 32 22 55t54 23t54.5 -23t22.5 -55t-22.5 -53.5t-54.5 -21.5t-54 21.5t-22 53.5zM205 895q0 32 22 55t54 23t54.5 -23t22.5 -55t-22.5 -54t-54.5 -22t-54 22t-22 54zM205 1305q0 32 22 54.5t54 22.5 t54.5 -22.5t22.5 -54.5t-22.5 -54t-54.5 -22t-54 22t-22 54zM410 76q0 33 21.5 55.5t53.5 22.5t55 -23t23 -55t-23 -54t-55 -22t-53.5 22t-21.5 54zM410 485q0 33 21.5 55.5t53.5 22.5t55 -23t23 -55t-22.5 -53.5t-55.5 -21.5q-32 0 -53.5 21.5t-21.5 53.5zM410 895 q0 33 21.5 55.5t53.5 22.5t55 -23t23 -55t-23 -54t-55 -22t-53.5 22t-21.5 54zM410 1305q0 32 21.5 54.5t53.5 22.5t55 -22.5t23 -54.5t-23 -54t-55 -22t-53.5 22t-21.5 54zM614 76q0 32 22 55t54 23t55 -23t23 -55t-23 -54t-55 -22t-54 22t-22 54zM614 485q0 32 22 55 t54 23t55 -23t23 -55t-22.5 -53.5t-55.5 -21.5q-32 0 -54 21.5t-22 53.5zM614 895q0 32 22 55t54 23t55 -23t23 -55t-23 -54t-55 -22t-54 22t-22 54zM614 1509q0 32 22 55t54 23t55 -23t23 -55t-22.5 -53.5t-55.5 -21.5q-32 0 -54 21.5t-22 53.5zM819 76q0 32 22 55t54 23 t55 -23t23 -55t-23 -54t-55 -22t-54 22t-22 54zM819 485q0 32 22 55t54 23t55 -23t23 -55t-22.5 -53.5t-55.5 -21.5q-32 0 -54 21.5t-22 53.5zM819 690q0 32 22 55t54 23t55 -23t23 -55t-23 -54t-55 -22t-54 22t-22 54z" />
<glyph unicode="&#xea;" d="M0 281q0 32 22 54.5t54 22.5t55 -22.5t23 -54.5t-23 -54t-55 -22t-54 22t-22 54zM0 485q0 32 22 55t54 23t55 -23t23 -55t-22.5 -53.5t-55.5 -21.5q-32 0 -54 21.5t-22 53.5zM0 690q0 32 22 55t54 23t55 -23t23 -55t-23 -54t-55 -22t-54 22t-22 54zM205 76q0 32 22 55 t54 23t54.5 -23t22.5 -55t-22.5 -54t-54.5 -22t-54 22t-22 54zM205 485q0 32 22 55t54 23t54.5 -23t22.5 -55t-22.5 -53.5t-54.5 -21.5t-54 21.5t-22 53.5zM205 895q0 32 22 55t54 23t54.5 -23t22.5 -55t-22.5 -54t-54.5 -22t-54 22t-22 54zM205 1305q0 32 22 54.5t54 22.5 t54.5 -22.5t22.5 -54.5t-22.5 -54t-54.5 -22t-54 22t-22 54zM410 76q0 33 21.5 55.5t53.5 22.5t55 -23t23 -55t-23 -54t-55 -22t-53.5 22t-21.5 54zM410 485q0 33 21.5 55.5t53.5 22.5t55 -23t23 -55t-22.5 -53.5t-55.5 -21.5q-32 0 -53.5 21.5t-21.5 53.5zM410 895 q0 33 21.5 55.5t53.5 22.5t55 -23t23 -55t-23 -54t-55 -22t-53.5 22t-21.5 54zM410 1509q0 33 21.5 55.5t53.5 22.5t55 -23t23 -55t-22.5 -53.5t-55.5 -21.5q-32 0 -53.5 21.5t-21.5 53.5zM614 76q0 32 22 55t54 23t55 -23t23 -55t-23 -54t-55 -22t-54 22t-22 54zM614 485 q0 32 22 55t54 23t55 -23t23 -55t-22.5 -53.5t-55.5 -21.5q-32 0 -54 21.5t-22 53.5zM614 895q0 32 22 55t54 23t55 -23t23 -55t-23 -54t-55 -22t-54 22t-22 54zM614 1305q0 32 22 54.5t54 22.5t55 -22.5t23 -54.5t-23 -54t-55 -22t-54 22t-22 54zM819 76q0 32 22 55t54 23 t55 -23t23 -55t-23 -54t-55 -22t-54 22t-22 54zM819 485q0 32 22 55t54 23t55 -23t23 -55t-22.5 -53.5t-55.5 -21.5q-32 0 -54 21.5t-22 53.5zM819 690q0 32 22 55t54 23t55 -23t23 -55t-23 -54t-55 -22t-54 22t-22 54z" />
<glyph unicode="&#xeb;" d="M0 281q0 32 22 54.5t54 22.5t55 -22.5t23 -54.5t-23 -54t-55 -22t-54 22t-22 54zM0 485q0 32 22 55t54 23t55 -23t23 -55t-22.5 -53.5t-55.5 -21.5q-32 0 -54 21.5t-22 53.5zM0 690q0 32 22 55t54 23t55 -23t23 -55t-23 -54t-55 -22t-54 22t-22 54zM0 1305q0 32 22 54.5 t54 22.5t55 -22.5t23 -54.5t-23 -54t-55 -22t-54 22t-22 54zM0 1509q0 32 22 55t54 23t55 -23t23 -55t-22.5 -53.5t-55.5 -21.5q-32 0 -54 21.5t-22 53.5zM205 76q0 32 22 55t54 23t54.5 -23t22.5 -55t-22.5 -54t-54.5 -22t-54 22t-22 54zM205 485q0 32 22 55t54 23 t54.5 -23t22.5 -55t-22.5 -53.5t-54.5 -21.5t-54 21.5t-22 53.5zM205 895q0 32 22 55t54 23t54.5 -23t22.5 -55t-22.5 -54t-54.5 -22t-54 22t-22 54zM410 76q0 33 21.5 55.5t53.5 22.5t55 -23t23 -55t-23 -54t-55 -22t-53.5 22t-21.5 54zM410 485q0 33 21.5 55.5t53.5 22.5 t55 -23t23 -55t-22.5 -53.5t-55.5 -21.5q-32 0 -53.5 21.5t-21.5 53.5zM410 895q0 33 21.5 55.5t53.5 22.5t55 -23t23 -55t-23 -54t-55 -22t-53.5 22t-21.5 54zM614 76q0 32 22 55t54 23t55 -23t23 -55t-23 -54t-55 -22t-54 22t-22 54zM614 485q0 32 22 55t54 23t55 -23 t23 -55t-22.5 -53.5t-55.5 -21.5q-32 0 -54 21.5t-22 53.5zM614 895q0 32 22 55t54 23t55 -23t23 -55t-23 -54t-55 -22t-54 22t-22 54zM819 76q0 32 22 55t54 23t55 -23t23 -55t-23 -54t-55 -22t-54 22t-22 54zM819 485q0 32 22 55t54 23t55 -23t23 -55t-22.5 -53.5 t-55.5 -21.5q-32 0 -54 21.5t-22 53.5zM819 690q0 32 22 55t54 23t55 -23t23 -55t-23 -54t-55 -22t-54 22t-22 54zM819 1305q0 32 22 54.5t54 22.5t55 -22.5t23 -54.5t-23 -54t-55 -22t-54 22t-22 54zM819 1509q0 32 22 55t54 23t55 -23t23 -55t-22.5 -53.5t-55.5 -21.5 q-32 0 -54 21.5t-22 53.5z" />
<glyph unicode="&#xec;" d="M0 76q0 32 22 55t54 23t55 -23t23 -55t-23 -54t-55 -22t-54 22t-22 54zM0 895q0 32 22 55t54 23t55 -23t23 -55t-23 -54t-55 -22t-54 22t-22 54zM205 76q0 32 22 55t54 23t54.5 -23t22.5 -55t-22.5 -54t-54.5 -22t-54 22t-22 54zM205 895q0 32 22 55t54 23t54.5 -23 t22.5 -55t-22.5 -54t-54.5 -22t-54 22t-22 54zM205 1509q0 32 22 55t54 23t54.5 -23t22.5 -55t-22.5 -53.5t-54.5 -21.5t-54 21.5t-22 53.5zM410 76q0 33 21.5 55.5t53.5 22.5t55 -23t23 -55t-23 -54t-55 -22t-53.5 22t-21.5 54zM410 281q0 32 21.5 54.5t53.5 22.5t55 -22.5 t23 -54.5t-23 -54t-55 -22t-53.5 22t-21.5 54zM410 485q0 33 21.5 55.5t53.5 22.5t55 -23t23 -55t-22.5 -53.5t-55.5 -21.5q-32 0 -53.5 21.5t-21.5 53.5zM410 690q0 33 21.5 55.5t53.5 22.5t55 -23t23 -55t-23 -54t-55 -22t-53.5 22t-21.5 54zM410 895q0 33 21.5 55.5 t53.5 22.5t55 -23t23 -55t-23 -54t-55 -22t-53.5 22t-21.5 54zM410 1305q0 32 21.5 54.5t53.5 22.5t55 -22.5t23 -54.5t-23 -54t-55 -22t-53.5 22t-21.5 54zM614 76q0 32 22 55t54 23t55 -23t23 -55t-23 -54t-55 -22t-54 22t-22 54zM614 1305q0 32 22 54.5t54 22.5t55 -22.5 t23 -54.5t-23 -54t-55 -22t-54 22t-22 54zM819 76q0 32 22 55t54 23t55 -23t23 -55t-23 -54t-55 -22t-54 22t-22 54z" />
<glyph unicode="&#xed;" d="M0 76q0 32 22 55t54 23t55 -23t23 -55t-23 -54t-55 -22t-54 22t-22 54zM0 895q0 32 22 55t54 23t55 -23t23 -55t-23 -54t-55 -22t-54 22t-22 54zM205 76q0 32 22 55t54 23t54.5 -23t22.5 -55t-22.5 -54t-54.5 -22t-54 22t-22 54zM205 895q0 32 22 55t54 23t54.5 -23 t22.5 -55t-22.5 -54t-54.5 -22t-54 22t-22 54zM205 1305q0 32 22 54.5t54 22.5t54.5 -22.5t22.5 -54.5t-22.5 -54t-54.5 -22t-54 22t-22 54zM410 76q0 33 21.5 55.5t53.5 22.5t55 -23t23 -55t-23 -54t-55 -22t-53.5 22t-21.5 54zM410 281q0 32 21.5 54.5t53.5 22.5t55 -22.5 t23 -54.5t-23 -54t-55 -22t-53.5 22t-21.5 54zM410 485q0 33 21.5 55.5t53.5 22.5t55 -23t23 -55t-22.5 -53.5t-55.5 -21.5q-32 0 -53.5 21.5t-21.5 53.5zM410 690q0 33 21.5 55.5t53.5 22.5t55 -23t23 -55t-23 -54t-55 -22t-53.5 22t-21.5 54zM410 895q0 33 21.5 55.5 t53.5 22.5t55 -23t23 -55t-23 -54t-55 -22t-53.5 22t-21.5 54zM410 1305q0 32 21.5 54.5t53.5 22.5t55 -22.5t23 -54.5t-23 -54t-55 -22t-53.5 22t-21.5 54zM614 76q0 32 22 55t54 23t55 -23t23 -55t-23 -54t-55 -22t-54 22t-22 54zM614 1509q0 32 22 55t54 23t55 -23 t23 -55t-22.5 -53.5t-55.5 -21.5q-32 0 -54 21.5t-22 53.5zM819 76q0 32 22 55t54 23t55 -23t23 -55t-23 -54t-55 -22t-54 22t-22 54z" />
<glyph unicode="&#xee;" d="M0 76q0 32 22 55t54 23t55 -23t23 -55t-23 -54t-55 -22t-54 22t-22 54zM0 895q0 32 22 55t54 23t55 -23t23 -55t-23 -54t-55 -22t-54 22t-22 54zM205 76q0 32 22 55t54 23t54.5 -23t22.5 -55t-22.5 -54t-54.5 -22t-54 22t-22 54zM205 895q0 32 22 55t54 23t54.5 -23 t22.5 -55t-22.5 -54t-54.5 -22t-54 22t-22 54zM205 1305q0 32 22 54.5t54 22.5t54.5 -22.5t22.5 -54.5t-22.5 -54t-54.5 -22t-54 22t-22 54zM410 76q0 33 21.5 55.5t53.5 22.5t55 -23t23 -55t-23 -54t-55 -22t-53.5 22t-21.5 54zM410 281q0 32 21.5 54.5t53.5 22.5t55 -22.5 t23 -54.5t-23 -54t-55 -22t-53.5 22t-21.5 54zM410 485q0 33 21.5 55.5t53.5 22.5t55 -23t23 -55t-22.5 -53.5t-55.5 -21.5q-32 0 -53.5 21.5t-21.5 53.5zM410 690q0 33 21.5 55.5t53.5 22.5t55 -23t23 -55t-23 -54t-55 -22t-53.5 22t-21.5 54zM410 895q0 33 21.5 55.5 t53.5 22.5t55 -23t23 -55t-23 -54t-55 -22t-53.5 22t-21.5 54zM410 1509q0 33 21.5 55.5t53.5 22.5t55 -23t23 -55t-22.5 -53.5t-55.5 -21.5q-32 0 -53.5 21.5t-21.5 53.5zM614 76q0 32 22 55t54 23t55 -23t23 -55t-23 -54t-55 -22t-54 22t-22 54zM614 1305q0 32 22 54.5 t54 22.5t55 -22.5t23 -54.5t-23 -54t-55 -22t-54 22t-22 54zM819 76q0 32 22 55t54 23t55 -23t23 -55t-23 -54t-55 -22t-54 22t-22 54z" />
<glyph unicode="&#xef;" d="M0 76q0 32 22 55t54 23t55 -23t23 -55t-23 -54t-55 -22t-54 22t-22 54zM0 895q0 32 22 55t54 23t55 -23t23 -55t-23 -54t-55 -22t-54 22t-22 54zM0 1305q0 32 22 54.5t54 22.5t55 -22.5t23 -54.5t-23 -54t-55 -22t-54 22t-22 54zM0 1509q0 32 22 55t54 23t55 -23t23 -55 t-22.5 -53.5t-55.5 -21.5q-32 0 -54 21.5t-22 53.5zM205 76q0 32 22 55t54 23t54.5 -23t22.5 -55t-22.5 -54t-54.5 -22t-54 22t-22 54zM205 895q0 32 22 55t54 23t54.5 -23t22.5 -55t-22.5 -54t-54.5 -22t-54 22t-22 54zM410 76q0 33 21.5 55.5t53.5 22.5t55 -23t23 -55 t-23 -54t-55 -22t-53.5 22t-21.5 54zM410 281q0 32 21.5 54.5t53.5 22.5t55 -22.5t23 -54.5t-23 -54t-55 -22t-53.5 22t-21.5 54zM410 485q0 33 21.5 55.5t53.5 22.5t55 -23t23 -55t-22.5 -53.5t-55.5 -21.5q-32 0 -53.5 21.5t-21.5 53.5zM410 690q0 33 21.5 55.5t53.5 22.5 t55 -23t23 -55t-23 -54t-55 -22t-53.5 22t-21.5 54zM410 895q0 33 21.5 55.5t53.5 22.5t55 -23t23 -55t-23 -54t-55 -22t-53.5 22t-21.5 54zM614 76q0 32 22 55t54 23t55 -23t23 -55t-23 -54t-55 -22t-54 22t-22 54zM819 76q0 32 22 55t54 23t55 -23t23 -55t-23 -54t-55 -22 t-54 22t-22 54zM819 1305q0 32 22 54.5t54 22.5t55 -22.5t23 -54.5t-23 -54t-55 -22t-54 22t-22 54zM819 1509q0 32 22 55t54 23t55 -23t23 -55t-22.5 -53.5t-55.5 -21.5q-32 0 -54 21.5t-22 53.5z" />
<glyph unicode="&#xf0;" d="M0 281q0 32 23 54.5t55 22.5t54 -22.5t22 -54.5t-22 -54t-54 -22t-55 22t-23 54zM0 485q0 32 23 55t55 23t54 -23t22 -55t-22 -53.5t-54 -21.5q-33 0 -55.5 21.5t-22.5 53.5zM205 76q0 32 23 55t55 23t53.5 -22.5t21.5 -55.5q0 -32 -21.5 -54t-53.5 -22t-55 22t-23 54z M205 690q0 32 23 55t55 23t53.5 -22.5t21.5 -55.5q0 -32 -21.5 -54t-53.5 -22t-55 22t-23 54zM205 1305q0 32 23 54.5t55 22.5t53.5 -22.5t21.5 -54.5t-21.5 -54t-53.5 -22t-55 22t-23 54zM410 76q0 32 22.5 55t54.5 23t54 -23t22 -55t-22 -54t-54 -22t-54.5 22t-22.5 54z M410 690q0 32 22.5 55t54.5 23t54 -23t22 -55t-22 -54t-54 -22t-54.5 22t-22.5 54zM410 895q0 32 22.5 55t54.5 23t54 -23t22 -55t-22 -54t-54 -22t-54.5 22t-22.5 54zM410 1305q0 32 22.5 54.5t54.5 22.5t54 -22.5t22 -54.5t-22 -54t-54 -22t-54.5 22t-22.5 54zM614 76 q0 32 23 55t55 23t54 -23t22 -55t-22 -54t-54 -22t-55 22t-23 54zM614 690q0 32 23 55t55 23t54 -23t22 -55t-22 -54t-54 -22t-55 22t-23 54zM614 1100q0 32 23 55t55 23t54 -23t22 -55t-22 -54t-54 -22t-55 22t-23 54zM819 281q0 32 23 54.5t55 22.5t54 -22.5t22 -54.5 t-22 -54t-54 -22t-55 22t-23 54zM819 485q0 32 23 55t55 23t54 -23t22 -55t-22 -53.5t-54 -21.5q-33 0 -55.5 21.5t-22.5 53.5zM819 690q0 32 23 55t55 23t54 -23t22 -55t-22 -54t-54 -22t-55 22t-23 54zM819 895q0 32 23 55t55 23t54 -23t22 -55t-22 -54t-54 -22t-55 22 t-23 54zM819 1305q0 32 23 54.5t55 22.5t54 -22.5t22 -54.5t-22 -54t-54 -22t-55 22t-23 54z" />
<glyph unicode="&#xf1;" d="M0 76q0 32 22 55t54 23t55 -23t23 -55t-23 -54t-55 -22t-54 22t-22 54zM0 281q0 32 22 54.5t54 22.5t55 -22.5t23 -54.5t-23 -54t-55 -22t-54 22t-22 54zM0 485q0 32 22 55t54 23t55 -23t23 -55t-22.5 -53.5t-55.5 -21.5q-32 0 -54 21.5t-22 53.5zM0 690q0 32 22 55 t54 23t55 -23t23 -55t-23 -54t-55 -22t-54 22t-22 54zM0 895q0 32 22 55t54 23t55 -23t23 -55t-23 -54t-55 -22t-54 22t-22 54zM0 1305q0 32 22 54.5t54 22.5t55 -22.5t23 -54.5t-23 -54t-55 -22t-54 22t-22 54zM205 690q0 32 22 55t54 23t54.5 -23t22.5 -55t-22.5 -54 t-54.5 -22t-54 22t-22 54zM205 1509q0 32 22 55t54 23t54.5 -23t22.5 -55t-22.5 -53.5t-54.5 -21.5t-54 21.5t-22 53.5zM410 895q0 33 21.5 55.5t53.5 22.5t55 -23t23 -55t-23 -54t-55 -22t-53.5 22t-21.5 54zM410 1305q0 32 21.5 54.5t53.5 22.5t55 -22.5t23 -54.5t-23 -54 t-55 -22t-53.5 22t-21.5 54zM614 895q0 32 22 55t54 23t55 -23t23 -55t-23 -54t-55 -22t-54 22t-22 54zM614 1305q0 32 22 54.5t54 22.5t55 -22.5t23 -54.5t-23 -54t-55 -22t-54 22t-22 54zM819 76q0 32 22 55t54 23t55 -23t23 -55t-23 -54t-55 -22t-54 22t-22 54zM819 281 q0 32 22 54.5t54 22.5t55 -22.5t23 -54.5t-23 -54t-55 -22t-54 22t-22 54zM819 485q0 32 22 55t54 23t55 -23t23 -55t-22.5 -53.5t-55.5 -21.5q-32 0 -54 21.5t-22 53.5zM819 690q0 32 22 55t54 23t55 -23t23 -55t-23 -54t-55 -22t-54 22t-22 54zM819 1509q0 32 22 55t54 23 t55 -23t23 -55t-22.5 -53.5t-55.5 -21.5q-32 0 -54 21.5t-22 53.5z" />
<glyph unicode="&#xf2;" d="M0 281q0 32 22 54.5t54 22.5t55 -22.5t23 -54.5t-23 -54t-55 -22t-54 22t-22 54zM0 485q0 32 22 55t54 23t55 -23t23 -55t-22.5 -53.5t-55.5 -21.5q-32 0 -54 21.5t-22 53.5zM0 690q0 32 22 55t54 23t55 -23t23 -55t-23 -54t-55 -22t-54 22t-22 54zM205 76q0 32 22 55 t54 23t54.5 -23t22.5 -55t-22.5 -54t-54.5 -22t-54 22t-22 54zM205 895q0 32 22 55t54 23t54.5 -23t22.5 -55t-22.5 -54t-54.5 -22t-54 22t-22 54zM205 1509q0 32 22 55t54 23t54.5 -23t22.5 -55t-22.5 -53.5t-54.5 -21.5t-54 21.5t-22 53.5zM410 76q0 33 21.5 55.5 t53.5 22.5t55 -23t23 -55t-23 -54t-55 -22t-53.5 22t-21.5 54zM410 895q0 33 21.5 55.5t53.5 22.5t55 -23t23 -55t-23 -54t-55 -22t-53.5 22t-21.5 54zM410 1305q0 32 21.5 54.5t53.5 22.5t55 -22.5t23 -54.5t-23 -54t-55 -22t-53.5 22t-21.5 54zM614 76q0 32 22 55t54 23 t55 -23t23 -55t-23 -54t-55 -22t-54 22t-22 54zM614 895q0 32 22 55t54 23t55 -23t23 -55t-23 -54t-55 -22t-54 22t-22 54zM614 1305q0 32 22 54.5t54 22.5t55 -22.5t23 -54.5t-23 -54t-55 -22t-54 22t-22 54zM819 281q0 32 22 54.5t54 22.5t55 -22.5t23 -54.5t-23 -54 t-55 -22t-54 22t-22 54zM819 485q0 32 22 55t54 23t55 -23t23 -55t-22.5 -53.5t-55.5 -21.5q-32 0 -54 21.5t-22 53.5zM819 690q0 32 22 55t54 23t55 -23t23 -55t-23 -54t-55 -22t-54 22t-22 54z" />
<glyph unicode="&#xf3;" d="M0 281q0 32 22 54.5t54 22.5t55 -22.5t23 -54.5t-23 -54t-55 -22t-54 22t-22 54zM0 485q0 32 22 55t54 23t55 -23t23 -55t-22.5 -53.5t-55.5 -21.5q-32 0 -54 21.5t-22 53.5zM0 690q0 32 22 55t54 23t55 -23t23 -55t-23 -54t-55 -22t-54 22t-22 54zM205 76q0 32 22 55 t54 23t54.5 -23t22.5 -55t-22.5 -54t-54.5 -22t-54 22t-22 54zM205 895q0 32 22 55t54 23t54.5 -23t22.5 -55t-22.5 -54t-54.5 -22t-54 22t-22 54zM205 1305q0 32 22 54.5t54 22.5t54.5 -22.5t22.5 -54.5t-22.5 -54t-54.5 -22t-54 22t-22 54zM410 76q0 33 21.5 55.5 t53.5 22.5t55 -23t23 -55t-23 -54t-55 -22t-53.5 22t-21.5 54zM410 895q0 33 21.5 55.5t53.5 22.5t55 -23t23 -55t-23 -54t-55 -22t-53.5 22t-21.5 54zM410 1305q0 32 21.5 54.5t53.5 22.5t55 -22.5t23 -54.5t-23 -54t-55 -22t-53.5 22t-21.5 54zM614 76q0 32 22 55t54 23 t55 -23t23 -55t-23 -54t-55 -22t-54 22t-22 54zM614 895q0 32 22 55t54 23t55 -23t23 -55t-23 -54t-55 -22t-54 22t-22 54zM614 1509q0 32 22 55t54 23t55 -23t23 -55t-22.5 -53.5t-55.5 -21.5q-32 0 -54 21.5t-22 53.5zM819 281q0 32 22 54.5t54 22.5t55 -22.5t23 -54.5 t-23 -54t-55 -22t-54 22t-22 54zM819 485q0 32 22 55t54 23t55 -23t23 -55t-22.5 -53.5t-55.5 -21.5q-32 0 -54 21.5t-22 53.5zM819 690q0 32 22 55t54 23t55 -23t23 -55t-23 -54t-55 -22t-54 22t-22 54z" />
<glyph unicode="&#xf4;" d="M0 281q0 32 22 54.5t54 22.5t55 -22.5t23 -54.5t-23 -54t-55 -22t-54 22t-22 54zM0 485q0 32 22 55t54 23t55 -23t23 -55t-22.5 -53.5t-55.5 -21.5q-32 0 -54 21.5t-22 53.5zM0 690q0 32 22 55t54 23t55 -23t23 -55t-23 -54t-55 -22t-54 22t-22 54zM205 76q0 32 22 55 t54 23t54.5 -23t22.5 -55t-22.5 -54t-54.5 -22t-54 22t-22 54zM205 895q0 32 22 55t54 23t54.5 -23t22.5 -55t-22.5 -54t-54.5 -22t-54 22t-22 54zM205 1305q0 32 22 54.5t54 22.5t54.5 -22.5t22.5 -54.5t-22.5 -54t-54.5 -22t-54 22t-22 54zM410 76q0 33 21.5 55.5 t53.5 22.5t55 -23t23 -55t-23 -54t-55 -22t-53.5 22t-21.5 54zM410 895q0 33 21.5 55.5t53.5 22.5t55 -23t23 -55t-23 -54t-55 -22t-53.5 22t-21.5 54zM410 1509q0 33 21.5 55.5t53.5 22.5t55 -23t23 -55t-22.5 -53.5t-55.5 -21.5q-32 0 -53.5 21.5t-21.5 53.5zM614 76 q0 32 22 55t54 23t55 -23t23 -55t-23 -54t-55 -22t-54 22t-22 54zM614 895q0 32 22 55t54 23t55 -23t23 -55t-23 -54t-55 -22t-54 22t-22 54zM614 1305q0 32 22 54.5t54 22.5t55 -22.5t23 -54.5t-23 -54t-55 -22t-54 22t-22 54zM819 281q0 32 22 54.5t54 22.5t55 -22.5 t23 -54.5t-23 -54t-55 -22t-54 22t-22 54zM819 485q0 32 22 55t54 23t55 -23t23 -55t-22.5 -53.5t-55.5 -21.5q-32 0 -54 21.5t-22 53.5zM819 690q0 32 22 55t54 23t55 -23t23 -55t-23 -54t-55 -22t-54 22t-22 54z" />
<glyph unicode="&#xf5;" d="M0 281q0 32 22 54.5t54 22.5t55 -22.5t23 -54.5t-23 -54t-55 -22t-54 22t-22 54zM0 485q0 32 22 55t54 23t55 -23t23 -55t-22.5 -53.5t-55.5 -21.5q-32 0 -54 21.5t-22 53.5zM0 690q0 32 22 55t54 23t55 -23t23 -55t-23 -54t-55 -22t-54 22t-22 54zM0 1305q0 32 22 54.5 t54 22.5t55 -22.5t23 -54.5t-23 -54t-55 -22t-54 22t-22 54zM205 76q0 32 22 55t54 23t54.5 -23t22.5 -55t-22.5 -54t-54.5 -22t-54 22t-22 54zM205 895q0 32 22 55t54 23t54.5 -23t22.5 -55t-22.5 -54t-54.5 -22t-54 22t-22 54zM205 1509q0 32 22 55t54 23t54.5 -23 t22.5 -55t-22.5 -53.5t-54.5 -21.5t-54 21.5t-22 53.5zM410 76q0 33 21.5 55.5t53.5 22.5t55 -23t23 -55t-23 -54t-55 -22t-53.5 22t-21.5 54zM410 895q0 33 21.5 55.5t53.5 22.5t55 -23t23 -55t-23 -54t-55 -22t-53.5 22t-21.5 54zM410 1305q0 32 21.5 54.5t53.5 22.5 t55 -22.5t23 -54.5t-23 -54t-55 -22t-53.5 22t-21.5 54zM614 76q0 32 22 55t54 23t55 -23t23 -55t-23 -54t-55 -22t-54 22t-22 54zM614 895q0 32 22 55t54 23t55 -23t23 -55t-23 -54t-55 -22t-54 22t-22 54zM614 1305q0 32 22 54.5t54 22.5t55 -22.5t23 -54.5t-23 -54 t-55 -22t-54 22t-22 54zM819 281q0 32 22 54.5t54 22.5t55 -22.5t23 -54.5t-23 -54t-55 -22t-54 22t-22 54zM819 485q0 32 22 55t54 23t55 -23t23 -55t-22.5 -53.5t-55.5 -21.5q-32 0 -54 21.5t-22 53.5zM819 690q0 32 22 55t54 23t55 -23t23 -55t-23 -54t-55 -22t-54 22 t-22 54zM819 1509q0 32 22 55t54 23t55 -23t23 -55t-22.5 -53.5t-55.5 -21.5q-32 0 -54 21.5t-22 53.5z" />
<glyph unicode="&#xf6;" d="M0 281q0 32 22 54.5t54 22.5t55 -22.5t23 -54.5t-23 -54t-55 -22t-54 22t-22 54zM0 485q0 32 22 55t54 23t55 -23t23 -55t-22.5 -53.5t-55.5 -21.5q-32 0 -54 21.5t-22 53.5zM0 690q0 32 22 55t54 23t55 -23t23 -55t-23 -54t-55 -22t-54 22t-22 54zM0 1305q0 32 22 54.5 t54 22.5t55 -22.5t23 -54.5t-23 -54t-55 -22t-54 22t-22 54zM0 1509q0 32 22 55t54 23t55 -23t23 -55t-22.5 -53.5t-55.5 -21.5q-32 0 -54 21.5t-22 53.5zM205 76q0 32 22 55t54 23t54.5 -23t22.5 -55t-22.5 -54t-54.5 -22t-54 22t-22 54zM205 895q0 32 22 55t54 23 t54.5 -23t22.5 -55t-22.5 -54t-54.5 -22t-54 22t-22 54zM410 76q0 33 21.5 55.5t53.5 22.5t55 -23t23 -55t-23 -54t-55 -22t-53.5 22t-21.5 54zM410 895q0 33 21.5 55.5t53.5 22.5t55 -23t23 -55t-23 -54t-55 -22t-53.5 22t-21.5 54zM614 76q0 32 22 55t54 23t55 -23t23 -55 t-23 -54t-55 -22t-54 22t-22 54zM614 895q0 32 22 55t54 23t55 -23t23 -55t-23 -54t-55 -22t-54 22t-22 54zM819 281q0 32 22 54.5t54 22.5t55 -22.5t23 -54.5t-23 -54t-55 -22t-54 22t-22 54zM819 485q0 32 22 55t54 23t55 -23t23 -55t-22.5 -53.5t-55.5 -21.5 q-32 0 -54 21.5t-22 53.5zM819 690q0 32 22 55t54 23t55 -23t23 -55t-23 -54t-55 -22t-54 22t-22 54zM819 1305q0 32 22 54.5t54 22.5t55 -22.5t23 -54.5t-23 -54t-55 -22t-54 22t-22 54zM819 1509q0 32 22 55t54 23t55 -23t23 -55t-22.5 -53.5t-55.5 -21.5q-32 0 -54 21.5 t-22 53.5z" />
<glyph unicode="&#xf7;" d="M0 485q0 32 22 55t54 23t55 -23t23 -55t-22.5 -53.5t-55.5 -21.5q-32 0 -54 21.5t-22 53.5zM205 485q0 32 22 55t54 23t54.5 -23t22.5 -55t-22.5 -53.5t-54.5 -21.5t-54 21.5t-22 53.5zM410 76q0 33 21.5 55.5t53.5 22.5t55 -23t23 -55t-23 -54t-55 -22t-53.5 22 t-21.5 54zM410 485q0 33 21.5 55.5t53.5 22.5t55 -23t23 -55t-22.5 -53.5t-55.5 -21.5q-32 0 -53.5 21.5t-21.5 53.5zM410 895q0 33 21.5 55.5t53.5 22.5t55 -23t23 -55t-23 -54t-55 -22t-53.5 22t-21.5 54zM614 485q0 32 22 55t54 23t55 -23t23 -55t-22.5 -53.5 t-55.5 -21.5q-32 0 -54 21.5t-22 53.5zM819 485q0 32 22 55t54 23t55 -23t23 -55t-22.5 -53.5t-55.5 -21.5q-32 0 -54 21.5t-22 53.5z" />
<glyph unicode="&#xf8;" d="M0 281q0 32 22 54.5t54 22.5t55 -22.5t23 -54.5t-23 -54t-55 -22t-54 22t-22 54zM0 485q0 32 22 55t54 23t55 -23t23 -55t-22.5 -53.5t-55.5 -21.5q-32 0 -54 21.5t-22 53.5zM0 690q0 32 22 55t54 23t55 -23t23 -55t-23 -54t-55 -22t-54 22t-22 54zM2 -129q0 32 22 55 t54 23t55 -23t23 -55t-23 -54t-55 -22t-54 22t-22 54zM205 76q0 32 22 55t54 23t54.5 -23t22.5 -55t-22.5 -54t-54.5 -22t-54 22t-22 54zM205 281q0 32 22 54.5t54 22.5t54.5 -22.5t22.5 -54.5t-22.5 -54t-54.5 -22t-54 22t-22 54zM205 895q0 32 22 55t54 23t54.5 -23 t22.5 -55t-22.5 -54t-54.5 -22t-54 22t-22 54zM410 76q0 33 21.5 55.5t53.5 22.5t55 -23t23 -55t-23 -54t-55 -22t-53.5 22t-21.5 54zM410 485q0 33 21.5 55.5t53.5 22.5t55 -23t23 -55t-22.5 -53.5t-55.5 -21.5q-32 0 -53.5 21.5t-21.5 53.5zM410 895q0 33 21.5 55.5 t53.5 22.5t55 -23t23 -55t-23 -54t-55 -22t-53.5 22t-21.5 54zM614 76q0 32 22 55t54 23t55 -23t23 -55t-23 -54t-55 -22t-54 22t-22 54zM614 690q0 32 22 55t54 23t55 -23t23 -55t-23 -54t-55 -22t-54 22t-22 54zM614 895q0 32 22 55t54 23t55 -23t23 -55t-23 -54t-55 -22 t-54 22t-22 54zM819 281q0 32 22 54.5t54 22.5t55 -22.5t23 -54.5t-23 -54t-55 -22t-54 22t-22 54zM819 485q0 32 22 55t54 23t55 -23t23 -55t-22.5 -53.5t-55.5 -21.5q-32 0 -54 21.5t-22 53.5zM819 690q0 32 22 55t54 23t55 -23t23 -55t-23 -54t-55 -22t-54 22t-22 54z M819 1100q0 32 22 55t54 23t55 -23t23 -55t-23 -54t-55 -22t-54 22t-22 54z" />
<glyph unicode="&#xf9;" d="M0 281q0 32 22 54.5t54 22.5t55 -22.5t23 -54.5t-23 -54t-55 -22t-54 22t-22 54zM0 485q0 32 22 55t54 23t55 -23t23 -55t-22.5 -53.5t-55.5 -21.5q-32 0 -54 21.5t-22 53.5zM0 690q0 32 22 55t54 23t55 -23t23 -55t-23 -54t-55 -22t-54 22t-22 54zM0 895q0 32 22 55 t54 23t55 -23t23 -55t-23 -54t-55 -22t-54 22t-22 54zM205 76q0 32 22 55t54 23t54.5 -23t22.5 -55t-22.5 -54t-54.5 -22t-54 22t-22 54zM205 1509q0 32 22 55t54 23t54.5 -23t22.5 -55t-22.5 -53.5t-54.5 -21.5t-54 21.5t-22 53.5zM410 76q0 33 21.5 55.5t53.5 22.5t55 -23 t23 -55t-23 -54t-55 -22t-53.5 22t-21.5 54zM410 1305q0 32 21.5 54.5t53.5 22.5t55 -22.5t23 -54.5t-23 -54t-55 -22t-53.5 22t-21.5 54zM614 281q0 32 22 54.5t54 22.5t55 -22.5t23 -54.5t-23 -54t-55 -22t-54 22t-22 54zM614 1305q0 32 22 54.5t54 22.5t55 -22.5 t23 -54.5t-23 -54t-55 -22t-54 22t-22 54zM819 76q0 32 22 55t54 23t55 -23t23 -55t-23 -54t-55 -22t-54 22t-22 54zM819 281q0 32 22 54.5t54 22.5t55 -22.5t23 -54.5t-23 -54t-55 -22t-54 22t-22 54zM819 485q0 32 22 55t54 23t55 -23t23 -55t-22.5 -53.5t-55.5 -21.5 q-32 0 -54 21.5t-22 53.5zM819 690q0 32 22 55t54 23t55 -23t23 -55t-23 -54t-55 -22t-54 22t-22 54zM819 895q0 32 22 55t54 23t55 -23t23 -55t-23 -54t-55 -22t-54 22t-22 54z" />
</font>
</defs>
</svg>
