<?xml version="1.0" encoding="utf-8"?>
<!-- Generator: Adobe Illustrator 17.1.0, SVG Export Plug-In . SVG Version: 6.00 Build 0)  -->
<!DOCTYPE svg PUBLIC "-//W3C//DTD SVG 1.1//EN" "http://www.w3.org/Graphics/SVG/1.1/DTD/svg11.dtd">
<svg version="1.1" id="Layer_1" xmlns="http://www.w3.org/2000/svg" xmlns:xlink="http://www.w3.org/1999/xlink" x="0px" y="0px"
	 viewBox="0 0 615.8 74.4" enable-background="new 0 0 615.8 74.4" xml:space="preserve">
<path fill="#2F3333" d="M32.2,74.4L0,55.8V18.6L32.2,0l32.2,18.6v37.2L32.2,74.4z M4.3,53.4l28,16.1l28-16.1V21.1l-28-16.1l-28,16.1
	V53.4z"/>
<g>
	<path fill="#2F3333" d="M137.8,67.6c-4.3,0-8.3-0.7-12-2.1c-3.8-1.4-7.1-3.5-9.9-6.1c-2.8-2.6-5.1-5.8-6.7-9.5
		c-1.6-3.7-2.5-7.9-2.5-12.5c0-4.6,0.8-8.8,2.5-12.5c1.6-3.7,3.9-6.9,6.7-9.5c2.8-2.6,6.1-4.6,9.9-6c3.8-1.4,7.8-2.1,12-2.1
		c3,0,5.8,0.4,8.3,1.1c2.5,0.7,4.7,1.6,6.7,2.8c2,1.2,3.7,2.6,5.3,4.2c1.5,1.6,2.8,3.2,3.9,5l-10.3,5.6c-1.3-2-3.2-3.8-5.6-5.3
		c-2.4-1.5-5.1-2.3-8.3-2.3c-2.6,0-5.1,0.5-7.3,1.4c-2.2,1-4.2,2.3-5.8,4c-1.6,1.7-2.9,3.8-3.8,6.1c-0.9,2.3-1.4,4.9-1.4,7.6
		c0,2.8,0.5,5.3,1.4,7.7c0.9,2.4,2.2,4.4,3.8,6.1c1.6,1.7,3.6,3,5.8,4c2.2,1,4.7,1.4,7.3,1.4s5.1-0.5,7.3-1.4c2.2-0.9,4-2,5.1-3.1
		V45h-15.4V34h27.8v22.5c-3,3.3-6.5,6-10.7,8C147.9,66.5,143.1,67.6,137.8,67.6z"/>
	<path fill="#2F3333" d="M245.5,66.4l-3.6-9.9h-25l-3.7,9.9H199L221.6,8h15.6l22.5,58.4H245.5z M229.4,20.4l-9.1,25.1h18.2
		L229.4,20.4z"/>
	<path fill="#2F3333" d="M331.4,66.4l-11.5-20.8h-9.1v20.8h-12.4V8h27.4c3,0,5.8,0.5,8.2,1.4c2.4,0.9,4.5,2.2,6.2,3.9
		c1.7,1.7,3,3.7,3.9,6c0.9,2.3,1.4,4.8,1.4,7.5c0,2.6-0.4,4.8-1.1,6.8c-0.7,2-1.7,3.7-3,5.1c-1.2,1.4-2.6,2.6-4.1,3.5
		c-1.5,0.9-3.1,1.5-4.7,1.9l13.1,22.2H331.4z M323.9,34.7c2.5,0,4.6-0.7,6.3-2.1s2.5-3.3,2.5-5.8s-0.8-4.4-2.5-5.8s-3.8-2.1-6.3-2.1
		h-13v15.8H323.9z"/>
	<path fill="#2F3333" d="M428.3,66.4l-3.6-9.9h-25l-3.7,9.9h-14.2L404.3,8h15.6l22.5,58.4H428.3z M412.1,20.4L403,45.6h18.2
		L412.1,20.4z"/>
	<path fill="#2F3333" d="M506.4,67.6c-4.3,0-8.3-0.7-12-2.1c-3.8-1.4-7.1-3.5-9.9-6.1c-2.8-2.6-5.1-5.8-6.7-9.5
		c-1.6-3.7-2.5-7.9-2.5-12.5c0-4.6,0.8-8.8,2.5-12.5c1.6-3.7,3.9-6.9,6.7-9.5c2.8-2.6,6.1-4.6,9.9-6s7.8-2.1,12-2.1
		c3,0,5.8,0.4,8.3,1.1c2.5,0.7,4.7,1.6,6.7,2.8c2,1.2,3.7,2.6,5.3,4.2c1.5,1.6,2.8,3.2,3.9,5l-10.3,5.6c-1.3-2-3.2-3.8-5.6-5.3
		c-2.4-1.5-5.1-2.3-8.3-2.3c-2.6,0-5.1,0.5-7.3,1.4c-2.2,1-4.2,2.3-5.8,4c-1.6,1.7-2.9,3.8-3.8,6.1c-0.9,2.3-1.4,4.9-1.4,7.6
		c0,2.8,0.5,5.3,1.4,7.7c0.9,2.4,2.2,4.4,3.8,6.1c1.6,1.7,3.6,3,5.8,4c2.2,1,4.7,1.4,7.3,1.4c2.6,0,5.1-0.5,7.3-1.4
		c2.2-0.9,4-2,5.1-3.1V45h-15.4V34h27.8v22.5c-3,3.3-6.5,6-10.7,8C516.5,66.5,511.8,67.6,506.4,67.6z"/>
	<path fill="#2F3333" d="M574.5,66.4V8h41.3V19h-28.9v12.3h28.3v10.9h-28.3v13.2h28.9v10.9H574.5z"/>
</g>
<rect x="4.3" y="32.3" fill="none" width="55.9" height="21.1"/>
<text transform="matrix(1 0 0 1 13.4726 41.5931)" font-family="'ProximaNova-Extrabld'" font-size="14" letter-spacing="5">THE</text>
</svg>
