<?xml version="1.0" encoding="utf-8"?>
<!-- Generator: Adobe Illustrator 17.1.0, SVG Export Plug-In . SVG Version: 6.00 Build 0)  -->
<!DOCTYPE svg PUBLIC "-//W3C//DTD SVG 1.1//EN" "http://www.w3.org/Graphics/SVG/1.1/DTD/svg11.dtd">
<svg version="1.1" id="Layer_1" xmlns="http://www.w3.org/2000/svg" xmlns:xlink="http://www.w3.org/1999/xlink" x="0px" y="0px"
	 viewBox="0 0 692.7 242.6" enable-background="new 0 0 692.7 242.6" xml:space="preserve">
<path opacity="0.65" fill="#FFFFFF" d="M80.8,101.1c3.7,0,6.9,0.9,9.7,2.7c2.8,1.8,4.9,3.9,6.5,6.2l12.1-6.5c-1.3-2-2.8-4-4.6-5.8
	c-1.8-1.8-3.8-3.5-6.1-4.9c-2.3-1.4-4.9-2.5-7.8-3.3c-2.9-0.8-6.1-1.2-9.7-1.2c-1.1,0-2.2,0-3.2,0.1v13
	C78.6,101.2,79.7,101.1,80.8,101.1z"/>
<path fill="#FFFFFF" d="M72.3,144.4c-2.6-1.1-4.9-2.7-6.8-4.7c-1.9-2-3.4-4.4-4.5-7.1c-1.1-2.8-1.6-5.8-1.6-9c0-3.2,0.5-6.2,1.6-8.9
	c1.1-2.7,2.5-5.1,4.5-7.1c1.9-2,4.2-3.6,6.8-4.7c1.7-0.7,3.4-1.2,5.3-1.5v-13c-3.8,0.3-7.4,1.1-10.8,2.3c-4.4,1.6-8.3,4-11.6,7.1
	c-3.3,3.1-5.9,6.8-7.8,11.2c-1.9,4.4-2.9,9.2-2.9,14.6c0,5.4,1,10.3,2.9,14.6c1.9,4.4,4.5,8.1,7.8,11.2c3.3,3.1,7.2,5.4,11.6,7.1
	c3.4,1.3,7,2.1,10.8,2.4v-13C75.7,145.6,73.9,145.1,72.3,144.4z"/>
<path opacity="0.65" fill="#FFFFFF" d="M77.6,119.8v12.8h17.8v8.2c-1.4,1.3-3.4,2.5-6,3.6c-2.6,1.1-5.5,1.6-8.5,1.6
	c-1.1,0-2.2-0.1-3.2-0.2v13c1.1,0.1,2.1,0.1,3.2,0.1c6.2,0,11.7-1.2,16.6-3.5c4.8-2.4,9-5.5,12.5-9.4v-26.3H77.6z"/>
<path opacity="0.65" fill="#FFFFFF" d="M511.5,101.1c3.7,0,6.9,0.9,9.7,2.7c2.8,1.8,4.9,3.9,6.5,6.2l12.1-6.5c-1.3-2-2.8-4-4.6-5.8
	c-1.8-1.8-3.8-3.5-6.1-4.9c-2.3-1.4-4.9-2.5-7.8-3.3c-2.9-0.8-6.1-1.2-9.7-1.2c-1.1,0-2.2,0-3.2,0.1v13
	C509.3,101.2,510.4,101.1,511.5,101.1z"/>
<path fill="#FFFFFF" d="M502.9,144.4c-2.6-1.1-4.9-2.7-6.8-4.7c-1.9-2-3.4-4.4-4.5-7.1c-1.1-2.8-1.6-5.8-1.6-9
	c0-3.2,0.5-6.2,1.6-8.9c1.1-2.7,2.5-5.1,4.5-7.1c1.9-2,4.2-3.6,6.8-4.7c1.7-0.7,3.4-1.2,5.3-1.5v-13c-3.8,0.3-7.4,1.1-10.8,2.3
	c-4.4,1.6-8.3,4-11.6,7.1c-3.3,3.1-5.9,6.8-7.8,11.2c-1.9,4.4-2.9,9.2-2.9,14.6c0,5.4,1,10.3,2.9,14.6c1.9,4.4,4.5,8.1,7.8,11.2
	c3.3,3.1,7.2,5.4,11.6,7.1c3.4,1.3,7,2.1,10.8,2.4v-13C506.4,145.6,504.6,145.1,502.9,144.4z"/>
<path opacity="0.65" fill="#FFFFFF" d="M508.2,119.8v12.8H526v8.2c-1.4,1.3-3.4,2.5-6,3.6c-2.6,1.1-5.5,1.6-8.5,1.6
	c-1.1,0-2.2-0.1-3.2-0.2v13c1.1,0.1,2.1,0.1,3.2,0.1c6.2,0,11.7-1.2,16.6-3.5c4.8-2.4,9-5.5,12.5-9.4v-26.3H508.2z"/>
<polygon opacity="0.65" fill="#FFFFFF" points="196.9,89.4 182.6,89.4 187.8,103.9 187.8,103.9 198.5,133.3 198.2,133.3 
	206.9,157.6 223.2,157.6 "/>
<polygon fill="#FFFFFF" points="177.2,133.3 187.8,103.9 182.6,89.4 178.7,89.4 152.3,157.6 168.9,157.6 173.2,146.1 202.4,146.1 
	206.6,157.6 206.9,157.6 198.2,133.3 "/>
<polygon opacity="0.65" fill="#FFFFFF" points="410.4,89.4 396.1,89.4 401.3,103.9 401.3,103.9 412,133.3 411.7,133.3 420.4,157.6 
	436.7,157.6 "/>
<polygon fill="#FFFFFF" points="390.7,133.3 401.3,103.9 396.1,89.4 392.2,89.4 365.8,157.6 382.4,157.6 386.7,146.1 415.9,146.1 
	420.1,157.6 420.4,157.6 411.7,133.3 "/>
<path opacity="0.65" fill="#FFFFFF" d="M308.3,131.6c1.9-0.4,3.7-1.1,5.5-2.2c1.8-1.1,3.4-2.4,4.8-4.1c1.4-1.7,2.6-3.7,3.5-6
	c0.9-2.3,1.3-5,1.3-8c0-3.1-0.5-6.1-1.6-8.7c-1.1-2.7-2.6-5-4.6-7c-2-2-4.4-3.5-7.2-4.6c-2.8-1.1-6-1.6-9.6-1.6h-17.7v68.2h0.2
	v-24.2h10.6l13.4,24.2h16.7L308.3,131.6z M305.5,118.1c-1.9,1.6-4.4,2.5-7.3,2.5H283v-18.4h15.2c2.9,0,5.4,0.8,7.3,2.5
	c1.9,1.6,2.9,3.9,2.9,6.8C308.4,114.2,307.5,116.5,305.5,118.1z"/>
<rect x="268.4" y="89.4" fill="#FFFFFF" width="14.3" height="68.2"/>
<rect x="591" y="89.4" fill="#FFFFFF" width="14.3" height="68.2"/>
<polygon opacity="0.65" fill="#FFFFFF" points="639.3,102.2 639.3,89.4 605.3,89.4 605.3,157.6 639.3,157.6 639.3,144.8 
	605.5,144.8 605.5,129.4 638.5,129.4 638.5,116.6 605.5,116.6 605.5,102.2 "/>
<line opacity="0.26" fill="none" stroke="#FFFFFF" stroke-width="2.2426" stroke-miterlimit="10" x1="146.3" y1="43" x2="303.2" y2="43"/>
<line opacity="0.26" fill="none" stroke="#FFFFFF" stroke-width="2.2426" stroke-miterlimit="10" x1="564.7" y1="195.6" x2="146.3" y2="195.6"/>
<line opacity="0.26" fill="none" stroke="#FFFFFF" stroke-width="2.2426" stroke-miterlimit="10" x1="564.7" y1="221.6" x2="146.3" y2="221.6"/>
<line opacity="0.26" fill="none" stroke="#FFFFFF" stroke-width="2.2426" stroke-miterlimit="10" x1="393.1" y1="43" x2="569.1" y2="43"/>
<path fill="#FFFFFF" d="M348.6,15.5v3.9c12.7,0,23,10.3,23,23c0,12.7-10.3,23-23,23v3.9c14.8,0,26.8-12,26.8-26.8
	C375.4,27.5,363.4,15.5,348.6,15.5z"/>
<path fill="#FFFFFF" d="M325.6,42.3c0-12.7,10.3-23,23-23c0,0,0,0,0,0v-3.9c-14.8,0-26.8,12-26.8,26.8c0,14.8,12,26.8,26.8,26.8
	v-3.9c0,0,0,0,0,0C335.9,65.2,325.6,55,325.6,42.3z"/>
<g>
	<g>
		<path opacity="0.65" fill="#FFFFFF" d="M341.7,68.2L341.7,68.2l-5.4,0.8l9.5,2.5l0.7-2.5C344.9,68.9,343.3,68.6,341.7,68.2z"/>
		<path fill="#FFFFFF" d="M341.7,68.2c-1.6-0.4-3.2-1-4.7-1.7c0,0,0,0,0,0l-0.7,2.5L341.7,68.2L341.7,68.2z"/>
	</g>
	<g>
		<path opacity="0.65" fill="#FFFFFF" d="M355.4,16.3L355.4,16.3l5.4-0.8l-9.5-2.5l-0.7,2.5C352.3,15.6,353.9,15.9,355.4,16.3z"/>
		<path fill="#FFFFFF" d="M355.4,16.3c1.6,0.4,3.2,1,4.7,1.7c0,0,0,0,0,0l0.7-2.5L355.4,16.3L355.4,16.3z"/>
	</g>
	<g>
		<path opacity="0.65" fill="#FFFFFF" d="M355.6,68.2L355.6,68.2l-4.3,3.3l9.5-2.5l-0.7-2.5C358.7,67.2,357.2,67.8,355.6,68.2z"/>
		<path fill="#FFFFFF" d="M355.6,68.2c-1.6,0.4-3.2,0.7-4.9,0.9c0,0,0,0,0,0l0.7,2.5L355.6,68.2L355.6,68.2z"/>
	</g>
	<g>
		<path opacity="0.65" fill="#FFFFFF" d="M341.5,16.4L341.5,16.4l4.3-3.3l-9.5,2.5L337,18C338.5,17.4,340,16.8,341.5,16.4z"/>
		<path fill="#FFFFFF" d="M341.5,16.4c1.6-0.4,3.2-0.7,4.9-0.9c0,0,0,0,0,0l-0.7-2.5L341.5,16.4L341.5,16.4z"/>
	</g>
	<g>
		<path opacity="0.65" fill="#FFFFFF" d="M372.5,59.3l-1.8-1.8c-0.9,1.3-1.9,2.6-3.1,3.7l0,0l-2,5L372.5,59.3z"/>
		<path fill="#FFFFFF" d="M363.8,64.4C363.8,64.4,363.8,64.4,363.8,64.4l1.8,1.8l2-5l0,0C366.4,62.4,365.2,63.5,363.8,64.4z"/>
	</g>
	<g>
		<path opacity="0.65" fill="#FFFFFF" d="M329.5,23.3L329.5,23.3l2-5l-6.9,6.9l1.8,1.8C327.4,25.7,328.4,24.5,329.5,23.3z"/>
		<path fill="#FFFFFF" d="M333.4,20.1C333.4,20.1,333.4,20.1,333.4,20.1l-1.8-1.8l-2,5l0,0C330.7,22.2,332,21.1,333.4,20.1z"/>
	</g>
	<g>
		<path opacity="0.65" fill="#FFFFFF" d="M374.5,49.1L374.5,49.1l0.8,5.4l2.5-9.5l-2.5-0.7C375.2,46,374.9,47.6,374.5,49.1z"/>
		<path fill="#FFFFFF" d="M374.5,49.1c-0.4,1.6-1,3.2-1.7,4.7c0,0,0,0,0,0l2.5,0.7L374.5,49.1L374.5,49.1z"/>
	</g>
	<g>
		<path opacity="0.65" fill="#FFFFFF" d="M322.6,35.4L322.6,35.4l-0.8-5.4l-2.5,9.5l2.5,0.7C321.9,38.6,322.2,37,322.6,35.4z"/>
		<path fill="#FFFFFF" d="M322.6,35.4c0.4-1.6,1-3.2,1.7-4.7c0,0,0,0,0,0l-2.5-0.7L322.6,35.4L322.6,35.4z"/>
	</g>
	<g>
		<path opacity="0.65" fill="#FFFFFF" d="M374.5,35.2L374.5,35.2l3.3,4.3l-2.5-9.5l-2.5,0.7C373.5,32.2,374.1,33.7,374.5,35.2z"/>
		<path fill="#FFFFFF" d="M374.5,35.2c0.4,1.6,0.7,3.2,0.9,4.9c0,0,0,0,0,0l2.5-0.7L374.5,35.2L374.5,35.2z"/>
	</g>
	<g>
		<path opacity="0.65" fill="#FFFFFF" d="M322.7,49.3L322.7,49.3l-3.3-4.3l2.5,9.5l2.5-0.7C323.7,52.4,323.1,50.9,322.7,49.3z"/>
		<path fill="#FFFFFF" d="M322.7,49.3c-0.4-1.6-0.7-3.2-0.9-4.9c0,0,0,0,0,0l-2.5,0.7L322.7,49.3L322.7,49.3z"/>
	</g>
	<g>
		<path opacity="0.65" fill="#FFFFFF" d="M367.5,23.2l5,2l-6.9-6.9l-1.8,1.8C365.1,21,366.3,22.1,367.5,23.2L367.5,23.2z"/>
		<path fill="#FFFFFF" d="M370.7,27.1C370.7,27.1,370.7,27.1,370.7,27.1l1.8-1.8l-5-2l0,0C368.7,24.4,369.8,25.7,370.7,27.1z"/>
	</g>
	<g>
		<path opacity="0.65" fill="#FFFFFF" d="M329.6,61.3l-5-2l6.9,6.9l1.8-1.8C332.1,63.5,330.8,62.5,329.6,61.3L329.6,61.3z"/>
		<path fill="#FFFFFF" d="M326.4,57.5C326.4,57.5,326.4,57.5,326.4,57.5l-1.8,1.8l5,2l0,0C328.5,60.1,327.4,58.9,326.4,57.5z"/>
	</g>
</g>
<g>
	<path fill="#FFFFFF" d="M346.2,31.4c0.3-0.3,0.5-0.2,0.4,0.5c0,0.3-0.3,1.3-0.8,3.1c0,0.1,0,0.2,0.2,0.2c1.2,0,2.4,0,3.5,0
		c1.2,0,2,0.1,2.6,0.2c0.5,0.1,0.9,0.3,1.1,0.5c0.2,0.2,0.2,0.3-0.2,0.3c0,0-0.3,0-0.8,0c-0.5,0-1.1,0.1-1.8,0.1s-1.5,0.1-2.3,0.2
		c-0.8,0.1-1.6,0.1-2.4,0.2c-0.2,0-0.4,0.1-0.5,0.4c-2.4,8.5-3.8,13.3-4,14.3c-0.3,1-0.4,1.5-0.4,1.5c-0.1,0.2-0.3,0.1-0.6-0.2
		c-0.3-0.4-0.5-0.7-0.5-1c0-0.3,0.2-1.3,0.8-3.1c0.5-1.8,1.7-5.6,3.7-11.5c0.1-0.3,0-0.4-0.1-0.4c-0.8,0.1-1.2,0.1-1.3,0.1
		c-0.5,0-0.8-0.2-1.1-0.5c-0.3-0.3-0.3-0.5-0.1-0.6c0.2-0.1,0.6-0.2,1.2-0.3c0.6-0.1,1.2-0.1,1.9-0.2c0.1,0,0.2-0.1,0.3-0.2
		c0.4-1.1,0.7-2,0.9-2.6C346,31.8,346.1,31.5,346.2,31.4z"/>
	<path fill="#FFFFFF" d="M346.7,42.2c-0.2,0.8-0.4,1.5-0.6,2c-0.1,0.6-0.3,1.1-0.4,1.6c0,0.1,0,0.2,0,0.3c0,0,0.1,0,0.2-0.1
		c0.5-0.7,0.9-1.3,1.3-1.9c0.4-0.6,0.8-1.1,1.2-1.6c0.9-1.1,1.4-1.7,1.5-1.7c0.3-0.1,0.5,0,0.7,0.3c0.1,0.2,0.2,0.4,0.3,0.6
		c0,0.3,0,0.5-0.1,0.8c-0.2,0.4-0.4,1.1-0.6,2c-0.1,0.5-0.2,0.9-0.3,1.4c-0.1,0.5-0.1,0.9-0.1,1.3c0,0.3,0.1,0.3,0.3,0.1
		c0.3-0.3,0.7-1,1.5-2.1s1.2-1.9,1.5-2.3c0.1-0.1,0.2-0.1,0.2,0c0.1,0.1,0,0.4-0.2,0.8c-0.5,0.9-1,1.9-1.7,3.1s-1.3,2-1.9,2.7
		c-0.2,0.2-0.4,0.3-0.6,0.3c-0.2,0-0.3-0.1-0.5-0.4c-0.2-0.3-0.3-0.8-0.4-1.5c0-0.7,0.1-1.4,0.2-2.1c0.2-0.7,0.4-1.4,0.7-2
		c0-0.1,0-0.2,0-0.2c0,0-0.1,0-0.2,0.1c-0.7,0.9-1.4,1.8-2,2.7c-0.5,0.7-0.9,1.3-1.2,1.8c-0.4,0.5-0.6,1-0.8,1.4
		c0,0.1-0.1,0.2-0.1,0.3c0,0.1-0.1,0.2-0.1,0.3c-0.1,0.2-0.3,0.1-0.6-0.2c-0.4-0.4-0.7-0.8-0.7-1.1c0-0.2,0.1-1,0.5-2.2
		c0.2-0.6,0.4-1.3,0.6-2c0.2-0.8,0.5-1.5,0.8-2.3c0-0.1,0.2-0.7,0.6-1.8c0.4-1.1,0.8-2.3,1.3-3.5c0.5-1.3,1-2.4,1.5-3.5
		c0.5-1,0.9-1.6,1.2-1.6c0.1,0,0.3,0.1,0.5,0.4c0.2,0.2,0.4,0.5,0.5,0.8c0.1,0.5,0.1,1.2-0.2,2.2c-0.2,1-0.5,1.9-0.9,2.9
		c-0.4,1-0.8,1.8-1.3,2.5c-0.5,0.6-0.9,1.1-1.3,1.4C346.9,41.8,346.8,41.9,346.7,42.2z M349.7,33c-0.4,0.7-0.8,1.7-1.4,3.2
		c-0.2,0.7-0.4,1.3-0.6,1.9c-0.2,0.6-0.4,1.2-0.5,2c-0.1,0.3,0,0.3,0.2,0.1c0.2-0.3,0.5-0.7,0.8-1.4c0.3-0.6,0.6-1.4,1-2.2
		c0.3-0.7,0.5-1.4,0.7-2c0.2-0.7,0.2-1.2,0.1-1.5C349.9,32.8,349.8,32.8,349.7,33z"/>
	<path fill="#FFFFFF" d="M353.2,46.2c0,0.6,0,1,0.2,1.3c0.4,0.7,1,0.7,1.8,0.2c0.6-0.5,1.1-1.1,1.6-1.6c0.4-0.5,0.8-1,1.2-1.5
		s0.7-1.1,1-1.6c0.1-0.2,0.2-0.2,0.3,0c0,0.2,0,0.4-0.2,0.8c-0.3,0.5-0.7,1.1-1.1,1.8c-0.4,0.6-1,1.4-1.6,2.2
		c-1.2,1.4-2.3,2-3.4,1.9c-0.5-0.1-0.9-0.4-1.2-0.9c-0.3-0.5-0.4-1.3-0.3-2.3c0.1-0.9,0.3-1.8,0.7-2.8c0.4-0.9,0.9-1.7,1.4-2.4
		c1.2-1.6,2.3-2.3,3.4-2.1c0.8,0.1,1.2,0.6,1.1,1.5c-0.1,0.5-0.3,1-0.5,1.4c-0.5,1-1.1,1.9-1.9,2.7c-0.8,0.7-1.5,1.1-2.2,1.2
		C353.2,46,353.2,46.1,353.2,46.2z M353.7,43.4c-0.2,0.5-0.4,1-0.5,1.5c-0.1,0.3,0,0.4,0.4,0.2c0.6-0.4,1.2-1.1,2-2
		c0.3-0.4,0.6-0.9,0.9-1.3c0.3-0.4,0.4-0.8,0.5-1.2c0.1-0.5,0-0.7-0.2-0.8c-0.2,0-0.5,0.1-0.9,0.4c-0.4,0.3-0.8,0.7-1.2,1.3
		S354,42.7,353.7,43.4z"/>
</g>
<g>
	<path opacity="0.75" fill="#FFFFFF" d="M177.5,213c-0.5,0-1.1-0.1-1.5-0.3s-0.9-0.4-1.2-0.8c-0.3-0.3-0.6-0.7-0.8-1.2
		c-0.2-0.5-0.3-1-0.3-1.5s0.1-1.1,0.3-1.5c0.2-0.5,0.5-0.9,0.8-1.2c0.3-0.3,0.7-0.6,1.2-0.8s1-0.3,1.5-0.3c0.6,0,1.1,0.1,1.5,0.3
		s0.9,0.4,1.2,0.8c0.3,0.3,0.6,0.7,0.8,1.2c0.2,0.5,0.3,1,0.3,1.5s-0.1,1.1-0.3,1.5c-0.2,0.5-0.5,0.9-0.8,1.2
		c-0.3,0.3-0.7,0.6-1.2,0.8S178,213,177.5,213z M177.5,211.6c0.3,0,0.6-0.1,0.9-0.2c0.3-0.1,0.5-0.3,0.7-0.5
		c0.2-0.2,0.3-0.5,0.5-0.8c0.1-0.3,0.2-0.6,0.2-1s-0.1-0.7-0.2-1c-0.1-0.3-0.3-0.5-0.5-0.8c-0.2-0.2-0.4-0.4-0.7-0.5
		c-0.3-0.1-0.6-0.2-0.9-0.2s-0.6,0.1-0.9,0.2c-0.3,0.1-0.5,0.3-0.7,0.5c-0.2,0.2-0.3,0.5-0.4,0.8c-0.1,0.3-0.2,0.6-0.2,1
		s0.1,0.7,0.2,1c0.1,0.3,0.3,0.5,0.4,0.8s0.4,0.4,0.7,0.5C176.8,211.6,177.1,211.6,177.5,211.6z"/>
	<path opacity="0.75" fill="#FFFFFF" d="M185.5,212.9v-7.3h3.4c0.4,0,0.7,0.1,1.1,0.2c0.3,0.1,0.6,0.3,0.8,0.5s0.4,0.5,0.5,0.8
		s0.2,0.6,0.2,0.9s-0.1,0.6-0.2,0.9c-0.1,0.3-0.3,0.5-0.5,0.7c-0.2,0.2-0.5,0.4-0.8,0.5s-0.7,0.2-1.1,0.2H187v2.6H185.5z
		 M188.7,208.9c0.3,0,0.6-0.1,0.8-0.3s0.3-0.4,0.3-0.7s-0.1-0.5-0.3-0.7s-0.5-0.3-0.8-0.3H187v2H188.7z"/>
	<path opacity="0.75" fill="#FFFFFF" d="M195.4,212.9v-7.3h5.2v1.4H197v1.5h3.5v1.4H197v1.7h3.6v1.4H195.4z"/>
	<path opacity="0.75" fill="#FFFFFF" d="M209.9,212.9l-3.5-4.8v4.8h-1.6v-7.3h1.6l3.4,4.6v-4.6h1.6v7.3H209.9z"/>
	<path opacity="0.75" fill="#FFFFFF" d="M224.4,213c-0.7,0-1.3-0.1-1.8-0.3c-0.5-0.2-0.9-0.5-1.3-0.9l0.8-1.2c0.3,0.3,0.6,0.5,1,0.7
		c0.4,0.2,0.8,0.3,1.4,0.3c0.4,0,0.8-0.1,1-0.2c0.2-0.2,0.3-0.4,0.3-0.6s-0.1-0.4-0.3-0.5c-0.2-0.1-0.5-0.2-0.8-0.3
		c-0.3-0.1-0.6-0.2-1-0.3s-0.7-0.2-1-0.4c-0.3-0.2-0.6-0.4-0.8-0.7c-0.2-0.3-0.3-0.6-0.3-1.1c0-0.3,0.1-0.6,0.2-0.9s0.3-0.5,0.6-0.7
		c0.2-0.2,0.5-0.4,0.9-0.5c0.3-0.1,0.7-0.2,1.2-0.2c1.2,0,2.1,0.3,2.9,1l-0.9,1.1c-0.3-0.3-0.6-0.5-1-0.6c-0.4-0.1-0.7-0.2-1.1-0.2
		c-0.3,0-0.6,0.1-0.8,0.2c-0.2,0.1-0.3,0.3-0.3,0.5c0,0.2,0.1,0.3,0.3,0.4c0.2,0.1,0.5,0.2,0.8,0.3c0.3,0.1,0.6,0.2,1,0.3
		c0.4,0.1,0.7,0.2,1,0.4s0.6,0.4,0.8,0.7s0.3,0.6,0.3,1.1c0,0.3-0.1,0.6-0.2,0.9s-0.3,0.5-0.5,0.7c-0.2,0.2-0.5,0.4-0.9,0.5
		C225.4,213,224.9,213,224.4,213z"/>
	<path opacity="0.75" fill="#FFFFFF" d="M235,213c-0.5,0-1.1-0.1-1.5-0.3s-0.9-0.4-1.2-0.8c-0.3-0.3-0.6-0.7-0.8-1.2
		c-0.2-0.5-0.3-1-0.3-1.5s0.1-1.1,0.3-1.5c0.2-0.5,0.5-0.9,0.8-1.2c0.3-0.3,0.7-0.6,1.2-0.8s1-0.3,1.5-0.3c0.6,0,1.1,0.1,1.5,0.3
		s0.9,0.4,1.2,0.8c0.3,0.3,0.6,0.7,0.8,1.2c0.2,0.5,0.3,1,0.3,1.5s-0.1,1.1-0.3,1.5c-0.2,0.5-0.5,0.9-0.8,1.2
		c-0.3,0.3-0.7,0.6-1.2,0.8S235.5,213,235,213z M235,211.6c0.3,0,0.6-0.1,0.9-0.2c0.3-0.1,0.5-0.3,0.7-0.5c0.2-0.2,0.3-0.5,0.5-0.8
		c0.1-0.3,0.2-0.6,0.2-1s-0.1-0.7-0.2-1c-0.1-0.3-0.3-0.5-0.5-0.8c-0.2-0.2-0.4-0.4-0.7-0.5c-0.3-0.1-0.6-0.2-0.9-0.2
		s-0.6,0.1-0.9,0.2c-0.3,0.1-0.5,0.3-0.7,0.5c-0.2,0.2-0.3,0.5-0.4,0.8c-0.1,0.3-0.2,0.6-0.2,1s0.1,0.7,0.2,1
		c0.1,0.3,0.3,0.5,0.4,0.8s0.4,0.4,0.7,0.5C234.3,211.6,234.6,211.6,235,211.6z"/>
	<path opacity="0.75" fill="#FFFFFF" d="M246.3,213c-0.6,0-1-0.1-1.5-0.2c-0.4-0.1-0.8-0.4-1-0.6c-0.3-0.3-0.5-0.6-0.6-1
		s-0.2-0.8-0.2-1.2v-4.4h1.6v4.3c0,0.5,0.1,0.9,0.4,1.2s0.7,0.5,1.3,0.5c0.6,0,1-0.2,1.3-0.5c0.3-0.3,0.4-0.7,0.4-1.2v-4.3h1.6v4.4
		c0,0.5-0.1,0.9-0.2,1.2s-0.3,0.7-0.6,1c-0.3,0.3-0.6,0.5-1,0.6S246.8,213,246.3,213z"/>
	<path opacity="0.75" fill="#FFFFFF" d="M258.2,212.9l-1.4-2.6h-1.1v2.6h-1.6v-7.3h3.4c0.4,0,0.7,0.1,1,0.2c0.3,0.1,0.6,0.3,0.8,0.5
		c0.2,0.2,0.4,0.5,0.5,0.8s0.2,0.6,0.2,0.9c0,0.3,0,0.6-0.1,0.9s-0.2,0.5-0.4,0.6s-0.3,0.3-0.5,0.4c-0.2,0.1-0.4,0.2-0.6,0.2
		l1.6,2.8H258.2z M257.3,208.9c0.3,0,0.6-0.1,0.8-0.3c0.2-0.2,0.3-0.4,0.3-0.7s-0.1-0.5-0.3-0.7c-0.2-0.2-0.5-0.3-0.8-0.3h-1.6v2
		H257.3z"/>
	<path opacity="0.75" fill="#FFFFFF" d="M267.8,213c-0.5,0-1.1-0.1-1.5-0.3c-0.5-0.2-0.9-0.4-1.2-0.8s-0.6-0.7-0.8-1.2
		c-0.2-0.5-0.3-1-0.3-1.5s0.1-1.1,0.3-1.5c0.2-0.5,0.5-0.9,0.8-1.2s0.8-0.6,1.2-0.8c0.5-0.2,1-0.3,1.5-0.3c0.4,0,0.8,0.1,1.1,0.2
		c0.3,0.1,0.6,0.2,0.9,0.4c0.2,0.2,0.5,0.4,0.6,0.6c0.2,0.2,0.3,0.4,0.5,0.7l-1.3,0.7c-0.2-0.3-0.4-0.6-0.7-0.8
		c-0.3-0.2-0.7-0.3-1-0.3c-0.3,0-0.6,0.1-0.9,0.2c-0.3,0.1-0.5,0.3-0.7,0.5c-0.2,0.2-0.4,0.5-0.5,0.8s-0.2,0.6-0.2,1s0.1,0.7,0.2,1
		c0.1,0.3,0.3,0.6,0.5,0.8c0.2,0.2,0.4,0.4,0.7,0.5c0.3,0.1,0.6,0.2,0.9,0.2c0.4,0,0.7-0.1,1-0.3c0.3-0.2,0.5-0.5,0.7-0.8l1.3,0.6
		c-0.1,0.2-0.3,0.4-0.5,0.7s-0.4,0.4-0.6,0.6c-0.2,0.2-0.5,0.3-0.9,0.4C268.5,213,268.2,213,267.8,213z"/>
	<path opacity="0.75" fill="#FFFFFF" d="M274.8,212.9v-7.3h5.2v1.4h-3.6v1.5h3.5v1.4h-3.5v1.7h3.6v1.4H274.8z"/>
	<path opacity="0.2" fill="#FFFFFF" d="M304.5,210.2c0,0.2,0,0.3-0.1,0.5s-0.2,0.3-0.3,0.4c-0.1,0.1-0.3,0.2-0.4,0.3
		c-0.2,0.1-0.3,0.1-0.5,0.1c-0.2,0-0.4,0-0.5-0.1s-0.3-0.2-0.4-0.3c-0.1-0.1-0.2-0.3-0.3-0.4c-0.1-0.2-0.1-0.3-0.1-0.5
		c0-0.2,0-0.4,0.1-0.5c0.1-0.2,0.2-0.3,0.3-0.4s0.3-0.2,0.4-0.3s0.3-0.1,0.5-0.1c0.2,0,0.4,0,0.5,0.1c0.2,0.1,0.3,0.2,0.4,0.3
		s0.2,0.3,0.3,0.4C304.5,209.9,304.5,210,304.5,210.2z"/>
	<path opacity="0.75" fill="#FFFFFF" d="M332.5,212.9v-7.3h5.2v1.4h-3.6v1.5h3.5v1.4h-3.5v3H332.5z"/>
	<path opacity="0.75" fill="#FFFFFF" d="M345.2,213c-0.6,0-1-0.1-1.5-0.2c-0.4-0.1-0.8-0.4-1-0.6c-0.3-0.3-0.5-0.6-0.6-1
		s-0.2-0.8-0.2-1.2v-4.4h1.6v4.3c0,0.5,0.1,0.9,0.4,1.2s0.7,0.5,1.3,0.5c0.6,0,1-0.2,1.3-0.5c0.3-0.3,0.4-0.7,0.4-1.2v-4.3h1.6v4.4
		c0,0.5-0.1,0.9-0.2,1.2s-0.3,0.7-0.6,1c-0.3,0.3-0.6,0.5-1,0.6S345.7,213,345.2,213z"/>
	<path opacity="0.75" fill="#FFFFFF" d="M358,212.9l-3.5-4.8v4.8H353v-7.3h1.6l3.4,4.6v-4.6h1.6v7.3H358z"/>
	<path opacity="0.2" fill="#FFFFFF" d="M390.2,210.2c0,0.2,0,0.3-0.1,0.5s-0.2,0.3-0.3,0.4c-0.1,0.1-0.3,0.2-0.4,0.3
		c-0.2,0.1-0.3,0.1-0.5,0.1c-0.2,0-0.4,0-0.5-0.1s-0.3-0.2-0.4-0.3c-0.1-0.1-0.2-0.3-0.3-0.4c-0.1-0.2-0.1-0.3-0.1-0.5
		c0-0.2,0-0.4,0.1-0.5c0.1-0.2,0.2-0.3,0.3-0.4s0.3-0.2,0.4-0.3s0.3-0.1,0.5-0.1c0.2,0,0.4,0,0.5,0.1c0.2,0.1,0.3,0.2,0.4,0.3
		s0.2,0.3,0.3,0.4C390.1,209.9,390.2,210,390.2,210.2z"/>
	<path opacity="0.75" fill="#FFFFFF" d="M418.2,212.9v-7.3h5.2v1.4h-3.6v1.5h3.5v1.4h-3.5v1.7h3.6v1.4H418.2z"/>
	<path opacity="0.75" fill="#FFFFFF" d="M432.4,212.9l-1.8-2.7l-1.8,2.7h-1.9l2.7-3.8l-2.5-3.6h1.9l1.7,2.5l1.7-2.5h1.9l-2.5,3.6
		l2.7,3.8H432.4z"/>
	<path opacity="0.75" fill="#FFFFFF" d="M438,212.9v-7.3h3.4c0.4,0,0.7,0.1,1.1,0.2c0.3,0.1,0.6,0.3,0.8,0.5s0.4,0.5,0.5,0.8
		s0.2,0.6,0.2,0.9s-0.1,0.6-0.2,0.9c-0.1,0.3-0.3,0.5-0.5,0.7c-0.2,0.2-0.5,0.4-0.8,0.5s-0.7,0.2-1.1,0.2h-1.9v2.6H438z
		 M441.3,208.9c0.3,0,0.6-0.1,0.8-0.3s0.3-0.4,0.3-0.7s-0.1-0.5-0.3-0.7s-0.5-0.3-0.8-0.3h-1.7v2H441.3z"/>
	<path opacity="0.75" fill="#FFFFFF" d="M448,212.9v-7.3h5.2v1.4h-3.6v1.5h3.5v1.4h-3.5v1.7h3.6v1.4H448z"/>
	<path opacity="0.75" fill="#FFFFFF" d="M461.6,212.9l-1.4-2.6H459v2.6h-1.6v-7.3h3.4c0.4,0,0.7,0.1,1,0.2c0.3,0.1,0.6,0.3,0.8,0.5
		c0.2,0.2,0.4,0.5,0.5,0.8s0.2,0.6,0.2,0.9c0,0.3,0,0.6-0.1,0.9s-0.2,0.5-0.4,0.6s-0.3,0.3-0.5,0.4c-0.2,0.1-0.4,0.2-0.6,0.2
		l1.6,2.8H461.6z M460.6,208.9c0.3,0,0.6-0.1,0.8-0.3c0.2-0.2,0.3-0.4,0.3-0.7s-0.1-0.5-0.3-0.7c-0.2-0.2-0.5-0.3-0.8-0.3H459v2
		H460.6z"/>
	<path opacity="0.75" fill="#FFFFFF" d="M467.6,212.9v-7.3h1.6v7.3H467.6z"/>
	<path opacity="0.75" fill="#FFFFFF" d="M480,212.9v-5.1l-2.1,5.1h-0.7l-2.1-5.1v5.1h-1.6v-7.3h2.2l1.8,4.4l1.8-4.4h2.2v7.3H480z"/>
	<path opacity="0.75" fill="#FFFFFF" d="M486.1,212.9v-7.3h5.2v1.4h-3.6v1.5h3.5v1.4h-3.5v1.7h3.6v1.4H486.1z"/>
	<path opacity="0.75" fill="#FFFFFF" d="M500.6,212.9l-3.5-4.8v4.8h-1.6v-7.3h1.6l3.4,4.6v-4.6h1.6v7.3H500.6z"/>
	<path opacity="0.75" fill="#FFFFFF" d="M508.4,212.9v-6h-2.1v-1.4h5.8v1.4h-2.1v6H508.4z"/>
	<path opacity="0.75" fill="#FFFFFF" d="M520.5,212.9l-0.5-1.2h-3.1l-0.5,1.2h-1.8l2.8-7.3h2l2.8,7.3H520.5z M518.5,207.1l-1.1,3.2
		h2.3L518.5,207.1z"/>
	<path opacity="0.75" fill="#FFFFFF" d="M526,212.9v-7.3h1.6v6h3.1v1.4H526z"/>
</g>
</svg>
