<?xml version="1.0" encoding="utf-8"?>
<!-- Generator: Adobe Illustrator 17.1.0, SVG Export Plug-In . SVG Version: 6.00 Build 0)  -->
<!DOCTYPE svg PUBLIC "-//W3C//DTD SVG 1.1//EN" "http://www.w3.org/Graphics/SVG/1.1/DTD/svg11.dtd">
<svg version="1.1" id="Layer_1" xmlns="http://www.w3.org/2000/svg" xmlns:xlink="http://www.w3.org/1999/xlink" x="0px" y="0px"
	 viewBox="0 0 692.7 202.9" enable-background="new 0 0 692.7 202.9" xml:space="preserve">
<circle opacity="0.11" cx="345.7" cy="31.6" r="31.6"/>
<path opacity="0.65" fill="#FFFFFF" d="M78.5,91.1c3.7,0,6.9,0.9,9.7,2.7c2.8,1.8,4.9,3.9,6.5,6.2l12.1-6.5c-1.3-2-2.8-4-4.6-5.8
	c-1.8-1.8-3.8-3.5-6.1-4.9c-2.3-1.4-4.9-2.5-7.8-3.3c-2.9-0.8-6.1-1.2-9.7-1.2c-1.1,0-2.2,0-3.2,0.1v13
	C76.3,91.2,77.4,91.1,78.5,91.1z"/>
<path fill="#FFFFFF" d="M69.9,134.4c-2.6-1.1-4.9-2.7-6.8-4.7c-1.9-2-3.4-4.4-4.5-7.1c-1.1-2.8-1.6-5.8-1.6-9c0-3.2,0.5-6.2,1.6-8.9
	c1.1-2.7,2.5-5.1,4.5-7.1c1.9-2,4.2-3.6,6.8-4.7c1.7-0.7,3.4-1.2,5.3-1.5v-13c-3.8,0.3-7.4,1.1-10.8,2.3c-4.4,1.6-8.3,4-11.6,7.1
	c-3.3,3.1-5.9,6.8-7.8,11.2c-1.9,4.4-2.9,9.2-2.9,14.6c0,5.4,1,10.3,2.9,14.6c1.9,4.4,4.5,8.1,7.8,11.2c3.3,3.1,7.2,5.4,11.6,7.1
	c3.4,1.3,7,2.1,10.8,2.4v-13C73.4,135.6,71.6,135.1,69.9,134.4z"/>
<path opacity="0.65" fill="#FFFFFF" d="M75.2,109.8v12.8H93v8.2c-1.4,1.3-3.4,2.5-6,3.6c-2.6,1.1-5.5,1.6-8.5,1.6
	c-1.1,0-2.2-0.1-3.2-0.2v13c1.1,0.1,2.1,0.1,3.2,0.1c6.2,0,11.7-1.2,16.6-3.5c4.8-2.4,9-5.5,12.5-9.4v-26.3H75.2z"/>
<path opacity="0.65" fill="#FFFFFF" d="M509.2,91.1c3.7,0,6.9,0.9,9.7,2.7c2.8,1.8,4.9,3.9,6.5,6.2l12.1-6.5c-1.3-2-2.8-4-4.6-5.8
	c-1.8-1.8-3.8-3.5-6.1-4.9c-2.3-1.4-4.9-2.5-7.8-3.3c-2.9-0.8-6.1-1.2-9.7-1.2c-1.1,0-2.2,0-3.2,0.1v13
	C507,91.2,508.1,91.1,509.2,91.1z"/>
<path fill="#FFFFFF" d="M500.6,134.4c-2.6-1.1-4.9-2.7-6.8-4.7c-1.9-2-3.4-4.4-4.5-7.1c-1.1-2.8-1.6-5.8-1.6-9
	c0-3.2,0.5-6.2,1.6-8.9c1.1-2.7,2.5-5.1,4.5-7.1c1.9-2,4.2-3.6,6.8-4.7c1.7-0.7,3.4-1.2,5.3-1.5v-13c-3.8,0.3-7.4,1.1-10.8,2.3
	c-4.4,1.6-8.3,4-11.6,7.1c-3.3,3.1-5.9,6.8-7.8,11.2c-1.9,4.4-2.9,9.2-2.9,14.6c0,5.4,1,10.3,2.9,14.6c1.9,4.4,4.5,8.1,7.8,11.2
	c3.3,3.1,7.2,5.4,11.6,7.1c3.4,1.3,7,2.1,10.8,2.4v-13C504.1,135.6,502.3,135.1,500.6,134.4z"/>
<path opacity="0.65" fill="#FFFFFF" d="M505.9,109.8v12.8h17.8v8.2c-1.4,1.3-3.4,2.5-6,3.6c-2.6,1.1-5.5,1.6-8.5,1.6
	c-1.1,0-2.2-0.1-3.2-0.2v13c1.1,0.1,2.1,0.1,3.2,0.1c6.2,0,11.7-1.2,16.6-3.5c4.8-2.4,9-5.5,12.5-9.4v-26.3H505.9z"/>
<polygon opacity="0.65" fill="#FFFFFF" points="194.6,79.4 180.3,79.4 185.5,93.9 185.5,93.9 196.1,123.3 195.9,123.3 204.6,147.6 
	220.9,147.6 "/>
<polygon fill="#FFFFFF" points="174.9,123.3 185.5,93.9 180.3,79.4 176.4,79.4 150,147.6 166.6,147.6 170.9,136.1 200.1,136.1 
	204.3,147.6 204.6,147.6 195.9,123.3 "/>
<polygon opacity="0.65" fill="#FFFFFF" points="408.1,79.4 393.8,79.4 399,93.9 399,93.9 409.6,123.3 409.4,123.3 418.1,147.6 
	434.4,147.6 "/>
<polygon fill="#FFFFFF" points="388.3,123.3 399,93.9 393.8,79.4 389.9,79.4 363.5,147.6 380.1,147.6 384.4,136.1 413.6,136.1 
	417.8,147.6 418.1,147.6 409.4,123.3 "/>
<path opacity="0.65" fill="#FFFFFF" d="M306,121.6c1.9-0.4,3.7-1.1,5.5-2.2c1.8-1.1,3.4-2.4,4.8-4.1c1.4-1.7,2.6-3.7,3.5-6
	c0.9-2.3,1.3-5,1.3-8c0-3.1-0.5-6.1-1.6-8.7c-1.1-2.7-2.6-5-4.6-7c-2-2-4.4-3.5-7.2-4.6c-2.8-1.1-6-1.6-9.6-1.6h-17.7v68.2h0.2
	v-24.2h10.6l13.4,24.2h16.7L306,121.6z M303.2,108.1c-1.9,1.6-4.4,2.5-7.3,2.5h-15.2V92.2h15.2c2.9,0,5.4,0.8,7.3,2.5
	c1.9,1.6,2.9,3.9,2.9,6.8C306.1,104.2,305.1,106.5,303.2,108.1z"/>
<rect x="266.1" y="79.4" fill="#FFFFFF" width="14.3" height="68.2"/>
<rect x="588.7" y="79.4" fill="#FFFFFF" width="14.3" height="68.2"/>
<polygon opacity="0.65" fill="#FFFFFF" points="636.9,92.2 636.9,79.4 603,79.4 603,147.6 636.9,147.6 636.9,134.8 603.2,134.8 
	603.2,119.4 636.2,119.4 636.2,106.6 603.2,106.6 603.2,92.2 "/>
<g>
	<path fill="#E1EDEB" d="M342.1,14.5c0.5-0.5,0.7-0.2,0.6,0.8c0,0.4-0.4,1.9-1.1,4.4c-0.1,0.2,0,0.3,0.2,0.3c1.7,0,3.4,0,5,0
		c1.7,0.1,2.9,0.1,3.6,0.3c0.8,0.1,1.3,0.4,1.6,0.7s0.2,0.5-0.3,0.4c-0.1,0-0.4,0-1.1,0.1c-0.7,0-1.5,0.1-2.5,0.2s-2.1,0.1-3.3,0.2
		c-1.2,0.1-2.3,0.2-3.3,0.2c-0.3,0-0.5,0.2-0.6,0.5c-3.4,12-5.3,18.6-5.7,20c-0.4,1.4-0.6,2.1-0.6,2.2c-0.1,0.3-0.4,0.2-0.9-0.3
		c-0.4-0.5-0.7-1-0.7-1.3c0-0.4,0.4-1.8,1.1-4.3s2.4-7.9,5.1-16.1c0.1-0.4,0.1-0.5-0.2-0.5c-1.1,0.1-1.7,0.1-1.9,0.1
		c-0.6,0-1.1-0.3-1.5-0.7c-0.4-0.4-0.4-0.7-0.2-0.8c0.3-0.2,0.9-0.3,1.6-0.4c0.8-0.1,1.7-0.2,2.7-0.3c0.2,0,0.3-0.1,0.4-0.3
		c0.5-1.5,0.9-2.7,1.3-3.7C341.8,15,342,14.5,342.1,14.5z"/>
	<path fill="#E1EDEB" d="M342.8,29.5c-0.3,1.1-0.6,2-0.8,2.8c-0.2,0.8-0.4,1.5-0.6,2.2c-0.1,0.2-0.1,0.3,0,0.4c0.1,0,0.2,0,0.3-0.2
		c0.7-0.9,1.3-1.8,1.8-2.6c0.5-0.8,1.1-1.5,1.6-2.2c1.2-1.5,1.9-2.3,2.2-2.4c0.4-0.1,0.7,0,0.9,0.4c0.2,0.2,0.3,0.5,0.4,0.9
		c0.1,0.4,0,0.8-0.1,1.1c-0.3,0.6-0.6,1.5-0.9,2.8c-0.2,0.6-0.3,1.3-0.4,1.9c-0.1,0.7-0.2,1.3-0.2,1.8c0,0.4,0.1,0.4,0.4,0.2
		c0.4-0.4,1-1.3,2-3c1-1.6,1.7-2.7,2.1-3.3c0.1-0.2,0.2-0.2,0.3,0c0.1,0.2,0,0.5-0.3,1.1c-0.6,1.3-1.4,2.7-2.4,4.3s-1.8,2.8-2.7,3.7
		c-0.3,0.3-0.5,0.4-0.8,0.4c-0.2,0-0.4-0.2-0.7-0.5c-0.3-0.4-0.5-1.1-0.5-2.1c0-1,0.1-2,0.3-2.9c0.2-1,0.6-1.9,0.9-2.8
		c0.1-0.1,0.1-0.2,0-0.3c-0.1,0-0.1,0-0.2,0.1c-1,1.3-2,2.5-2.8,3.7c-0.7,1-1.3,1.8-1.8,2.6c-0.5,0.8-0.8,1.4-1,2
		c0,0.1-0.1,0.2-0.1,0.4c0,0.2-0.1,0.3-0.1,0.4c-0.1,0.3-0.4,0.2-0.9-0.2c-0.6-0.6-0.9-1.1-1-1.6c0-0.3,0.2-1.4,0.7-3
		c0.2-0.9,0.5-1.8,0.9-2.9c0.3-1.1,0.7-2.1,1-3.3c0-0.2,0.3-1,0.9-2.6s1.2-3.2,1.9-5c0.7-1.8,1.4-3.4,2.1-4.9
		c0.7-1.5,1.3-2.2,1.7-2.2c0.2,0,0.4,0.2,0.8,0.5s0.6,0.7,0.7,1.2c0.2,0.7,0.1,1.7-0.2,3c-0.3,1.3-0.8,2.7-1.3,4.1s-1.2,2.5-1.9,3.4
		c-0.7,0.9-1.3,1.5-1.8,1.9C343.1,28.9,342.9,29.1,342.8,29.5z M347,16.7c-0.6,1-1.2,2.4-1.9,4.5c-0.3,0.9-0.6,1.8-0.8,2.6
		c-0.2,0.8-0.5,1.7-0.8,2.7c-0.1,0.4,0,0.5,0.3,0.1c0.3-0.4,0.7-1,1.1-1.9c0.4-0.9,0.9-1.9,1.4-3.1c0.4-1,0.7-1.9,1-2.8
		s0.3-1.6,0.2-2.2C347.3,16.3,347.2,16.3,347,16.7z"/>
	<path fill="#E1EDEB" d="M351.8,35.2c0,0.8,0.1,1.4,0.3,1.9c0.5,0.9,1.4,1,2.5,0.3c0.9-0.7,1.6-1.5,2.2-2.3c0.5-0.6,1.1-1.4,1.6-2.2
		c0.6-0.8,1-1.5,1.4-2.2c0.2-0.2,0.3-0.2,0.4,0c0.1,0.2,0,0.6-0.3,1.1c-0.4,0.7-0.9,1.6-1.5,2.5c-0.6,0.9-1.3,1.9-2.3,3.1
		c-1.7,2-3.2,2.9-4.7,2.6c-0.7-0.1-1.3-0.5-1.7-1.2c-0.4-0.7-0.6-1.8-0.5-3.3c0.1-1.3,0.4-2.6,1-3.9c0.6-1.3,1.2-2.4,1.9-3.3
		c1.6-2.2,3.2-3.2,4.7-3c1.1,0.1,1.6,0.8,1.5,2.1c-0.2,0.8-0.4,1.4-0.6,2c-0.7,1.4-1.5,2.7-2.7,3.8c-1.1,1-2.1,1.6-3,1.7
		C351.9,34.9,351.8,35,351.8,35.2z M352.6,31.3c-0.3,0.7-0.5,1.4-0.6,2.1c-0.1,0.5,0.1,0.6,0.5,0.2c0.8-0.6,1.7-1.5,2.8-2.9
		c0.5-0.6,0.9-1.2,1.3-1.9s0.6-1.2,0.7-1.7c0.1-0.7,0-1-0.3-1.1c-0.3,0-0.7,0.2-1.2,0.6c-0.5,0.4-1.1,1-1.6,1.8
		C353.5,29.4,353,30.3,352.6,31.3z"/>
</g>
<polyline opacity="0.11" fill="none" stroke="#000000" stroke-width="2.163" stroke-miterlimit="10" points="390.8,33 688.7,33 
	688.7,199.1 3.9,199.1 3.9,33 300.9,33 "/>
</svg>
